%FSLAX34Y34*%
G04 Gerber Fmt 3.4, Leading zero omitted, Abs format*
G04 (created by PCBNEW (2014-03-19 BZR 4756)-product) date Sat 09 Aug 2014 11:49:59 AM PDT*
%MOIN*%
G01*
G70*
G90*
G04 APERTURE LIST*
%ADD10C,0.005906*%
%ADD11C,0.011811*%
%ADD12C,0.015748*%
%ADD13C,0.003937*%
%ADD14C,0.003500*%
G04 APERTURE END LIST*
G54D10*
X69685Y-65357D02*
X69685Y-77955D01*
X112205Y-77955D01*
X112205Y-65357D01*
X69685Y-65357D01*
X3937Y-3937D02*
X3937Y-78742D01*
X112992Y-78742D01*
X112992Y-3937D01*
X3937Y-3937D01*
X4724Y-4724D02*
X4724Y-77955D01*
X112205Y-77955D01*
X112205Y-4724D01*
X4724Y-4724D01*
X23622Y-4724D02*
X23622Y-3937D01*
X43307Y-4724D02*
X43307Y-3937D01*
X62992Y-4724D02*
X62992Y-3937D01*
X82677Y-4724D02*
X82677Y-3937D01*
X102362Y-4724D02*
X102362Y-3937D01*
X14169Y-4562D02*
X13877Y-4562D01*
X14023Y-4562D02*
X14023Y-4050D01*
X13974Y-4123D01*
X13925Y-4172D01*
X13877Y-4196D01*
X33562Y-4099D02*
X33586Y-4074D01*
X33635Y-4050D01*
X33757Y-4050D01*
X33805Y-4074D01*
X33830Y-4099D01*
X33854Y-4147D01*
X33854Y-4196D01*
X33830Y-4269D01*
X33537Y-4562D01*
X33854Y-4562D01*
X53222Y-4050D02*
X53539Y-4050D01*
X53368Y-4245D01*
X53442Y-4245D01*
X53490Y-4269D01*
X53515Y-4294D01*
X53539Y-4342D01*
X53539Y-4464D01*
X53515Y-4513D01*
X53490Y-4537D01*
X53442Y-4562D01*
X53295Y-4562D01*
X53247Y-4537D01*
X53222Y-4513D01*
X73175Y-4221D02*
X73175Y-4562D01*
X73053Y-4026D02*
X72932Y-4391D01*
X73248Y-4391D01*
X92885Y-4050D02*
X92641Y-4050D01*
X92617Y-4294D01*
X92641Y-4269D01*
X92690Y-4245D01*
X92812Y-4245D01*
X92860Y-4269D01*
X92885Y-4294D01*
X92909Y-4342D01*
X92909Y-4464D01*
X92885Y-4513D01*
X92860Y-4537D01*
X92812Y-4562D01*
X92690Y-4562D01*
X92641Y-4537D01*
X92617Y-4513D01*
X112545Y-4050D02*
X112448Y-4050D01*
X112399Y-4074D01*
X112375Y-4099D01*
X112326Y-4172D01*
X112302Y-4269D01*
X112302Y-4464D01*
X112326Y-4513D01*
X112350Y-4537D01*
X112399Y-4562D01*
X112497Y-4562D01*
X112545Y-4537D01*
X112570Y-4513D01*
X112594Y-4464D01*
X112594Y-4342D01*
X112570Y-4294D01*
X112545Y-4269D01*
X112497Y-4245D01*
X112399Y-4245D01*
X112350Y-4269D01*
X112326Y-4294D01*
X112302Y-4342D01*
X23622Y-77955D02*
X23622Y-78742D01*
X43307Y-77955D02*
X43307Y-78742D01*
X62992Y-77955D02*
X62992Y-78742D01*
X82677Y-77955D02*
X82677Y-78742D01*
X102362Y-77955D02*
X102362Y-78742D01*
X14169Y-78580D02*
X13877Y-78580D01*
X14023Y-78580D02*
X14023Y-78069D01*
X13974Y-78142D01*
X13925Y-78190D01*
X13877Y-78215D01*
X33562Y-78117D02*
X33586Y-78093D01*
X33635Y-78069D01*
X33757Y-78069D01*
X33805Y-78093D01*
X33830Y-78117D01*
X33854Y-78166D01*
X33854Y-78215D01*
X33830Y-78288D01*
X33537Y-78580D01*
X33854Y-78580D01*
X53222Y-78069D02*
X53539Y-78069D01*
X53368Y-78263D01*
X53442Y-78263D01*
X53490Y-78288D01*
X53515Y-78312D01*
X53539Y-78361D01*
X53539Y-78483D01*
X53515Y-78532D01*
X53490Y-78556D01*
X53442Y-78580D01*
X53295Y-78580D01*
X53247Y-78556D01*
X53222Y-78532D01*
X73175Y-78239D02*
X73175Y-78580D01*
X73053Y-78044D02*
X72932Y-78410D01*
X73248Y-78410D01*
X92885Y-78069D02*
X92641Y-78069D01*
X92617Y-78312D01*
X92641Y-78288D01*
X92690Y-78263D01*
X92812Y-78263D01*
X92860Y-78288D01*
X92885Y-78312D01*
X92909Y-78361D01*
X92909Y-78483D01*
X92885Y-78532D01*
X92860Y-78556D01*
X92812Y-78580D01*
X92690Y-78580D01*
X92641Y-78556D01*
X92617Y-78532D01*
X112545Y-78069D02*
X112448Y-78069D01*
X112399Y-78093D01*
X112375Y-78117D01*
X112326Y-78190D01*
X112302Y-78288D01*
X112302Y-78483D01*
X112326Y-78532D01*
X112350Y-78556D01*
X112399Y-78580D01*
X112497Y-78580D01*
X112545Y-78556D01*
X112570Y-78532D01*
X112594Y-78483D01*
X112594Y-78361D01*
X112570Y-78312D01*
X112545Y-78288D01*
X112497Y-78263D01*
X112399Y-78263D01*
X112350Y-78288D01*
X112326Y-78312D01*
X112302Y-78361D01*
X3937Y-23622D02*
X4724Y-23622D01*
X3937Y-43307D02*
X4724Y-43307D01*
X3937Y-62992D02*
X4724Y-62992D01*
X4208Y-13864D02*
X4452Y-13864D01*
X4160Y-14011D02*
X4330Y-13499D01*
X4501Y-14011D01*
X4367Y-33428D02*
X4440Y-33452D01*
X4464Y-33476D01*
X4489Y-33525D01*
X4489Y-33598D01*
X4464Y-33647D01*
X4440Y-33671D01*
X4391Y-33696D01*
X4196Y-33696D01*
X4196Y-33184D01*
X4367Y-33184D01*
X4416Y-33208D01*
X4440Y-33233D01*
X4464Y-33281D01*
X4464Y-33330D01*
X4440Y-33379D01*
X4416Y-33403D01*
X4367Y-33428D01*
X4196Y-33428D01*
X4489Y-53332D02*
X4464Y-53356D01*
X4391Y-53381D01*
X4342Y-53381D01*
X4269Y-53356D01*
X4221Y-53308D01*
X4196Y-53259D01*
X4172Y-53161D01*
X4172Y-53088D01*
X4196Y-52991D01*
X4221Y-52942D01*
X4269Y-52893D01*
X4342Y-52869D01*
X4391Y-52869D01*
X4464Y-52893D01*
X4489Y-52918D01*
X4196Y-73066D02*
X4196Y-72554D01*
X4318Y-72554D01*
X4391Y-72578D01*
X4440Y-72627D01*
X4464Y-72676D01*
X4489Y-72773D01*
X4489Y-72846D01*
X4464Y-72944D01*
X4440Y-72993D01*
X4391Y-73041D01*
X4318Y-73066D01*
X4196Y-73066D01*
X112992Y-23622D02*
X112205Y-23622D01*
X112992Y-43307D02*
X112205Y-43307D01*
X112992Y-62992D02*
X112205Y-62992D01*
X112477Y-13864D02*
X112721Y-13864D01*
X112428Y-14011D02*
X112599Y-13499D01*
X112769Y-14011D01*
X112635Y-33428D02*
X112708Y-33452D01*
X112733Y-33476D01*
X112757Y-33525D01*
X112757Y-33598D01*
X112733Y-33647D01*
X112708Y-33671D01*
X112660Y-33696D01*
X112465Y-33696D01*
X112465Y-33184D01*
X112635Y-33184D01*
X112684Y-33208D01*
X112708Y-33233D01*
X112733Y-33281D01*
X112733Y-33330D01*
X112708Y-33379D01*
X112684Y-33403D01*
X112635Y-33428D01*
X112465Y-33428D01*
X112757Y-53332D02*
X112733Y-53356D01*
X112660Y-53381D01*
X112611Y-53381D01*
X112538Y-53356D01*
X112489Y-53308D01*
X112465Y-53259D01*
X112440Y-53161D01*
X112440Y-53088D01*
X112465Y-52991D01*
X112489Y-52942D01*
X112538Y-52893D01*
X112611Y-52869D01*
X112660Y-52869D01*
X112733Y-52893D01*
X112757Y-52918D01*
X112465Y-73066D02*
X112465Y-72554D01*
X112587Y-72554D01*
X112660Y-72578D01*
X112708Y-72627D01*
X112733Y-72676D01*
X112757Y-72773D01*
X112757Y-72846D01*
X112733Y-72944D01*
X112708Y-72993D01*
X112660Y-73041D01*
X112587Y-73066D01*
X112465Y-73066D01*
X78881Y-76293D02*
X78881Y-75703D01*
X79022Y-75703D01*
X79106Y-75731D01*
X79162Y-75787D01*
X79190Y-75843D01*
X79219Y-75956D01*
X79219Y-76040D01*
X79190Y-76153D01*
X79162Y-76209D01*
X79106Y-76265D01*
X79022Y-76293D01*
X78881Y-76293D01*
X79725Y-76293D02*
X79725Y-75984D01*
X79697Y-75928D01*
X79640Y-75899D01*
X79528Y-75899D01*
X79472Y-75928D01*
X79725Y-76265D02*
X79669Y-76293D01*
X79528Y-76293D01*
X79472Y-76265D01*
X79444Y-76209D01*
X79444Y-76153D01*
X79472Y-76096D01*
X79528Y-76068D01*
X79669Y-76068D01*
X79725Y-76040D01*
X79922Y-75899D02*
X80147Y-75899D01*
X80006Y-75703D02*
X80006Y-76209D01*
X80034Y-76265D01*
X80090Y-76293D01*
X80147Y-76293D01*
X80568Y-76265D02*
X80512Y-76293D01*
X80400Y-76293D01*
X80343Y-76265D01*
X80315Y-76209D01*
X80315Y-75984D01*
X80343Y-75928D01*
X80400Y-75899D01*
X80512Y-75899D01*
X80568Y-75928D01*
X80597Y-75984D01*
X80597Y-76040D01*
X80315Y-76096D01*
X80850Y-76237D02*
X80878Y-76265D01*
X80850Y-76293D01*
X80822Y-76265D01*
X80850Y-76237D01*
X80850Y-76293D01*
X80850Y-75928D02*
X80878Y-75956D01*
X80850Y-75984D01*
X80822Y-75956D01*
X80850Y-75928D01*
X80850Y-75984D01*
X69685Y-76577D02*
X112205Y-76577D01*
X70220Y-77395D02*
X70220Y-76805D01*
X70557Y-77395D02*
X70304Y-77058D01*
X70557Y-76805D02*
X70220Y-77142D01*
X70810Y-77395D02*
X70810Y-77002D01*
X70810Y-76805D02*
X70782Y-76833D01*
X70810Y-76861D01*
X70838Y-76833D01*
X70810Y-76805D01*
X70810Y-76861D01*
X71429Y-77339D02*
X71401Y-77367D01*
X71316Y-77395D01*
X71260Y-77395D01*
X71176Y-77367D01*
X71120Y-77311D01*
X71091Y-77255D01*
X71063Y-77142D01*
X71063Y-77058D01*
X71091Y-76946D01*
X71120Y-76889D01*
X71176Y-76833D01*
X71260Y-76805D01*
X71316Y-76805D01*
X71401Y-76833D01*
X71429Y-76861D01*
X71935Y-77395D02*
X71935Y-77086D01*
X71907Y-77030D01*
X71851Y-77002D01*
X71738Y-77002D01*
X71682Y-77030D01*
X71935Y-77367D02*
X71879Y-77395D01*
X71738Y-77395D01*
X71682Y-77367D01*
X71654Y-77311D01*
X71654Y-77255D01*
X71682Y-77199D01*
X71738Y-77171D01*
X71879Y-77171D01*
X71935Y-77142D01*
X72469Y-77395D02*
X72469Y-76805D01*
X72469Y-77367D02*
X72413Y-77395D01*
X72301Y-77395D01*
X72244Y-77367D01*
X72216Y-77339D01*
X72188Y-77283D01*
X72188Y-77114D01*
X72216Y-77058D01*
X72244Y-77030D01*
X72301Y-77002D01*
X72413Y-77002D01*
X72469Y-77030D01*
X73201Y-77086D02*
X73397Y-77086D01*
X73482Y-77395D02*
X73201Y-77395D01*
X73201Y-76805D01*
X73482Y-76805D01*
X73735Y-77339D02*
X73763Y-77367D01*
X73735Y-77395D01*
X73707Y-77367D01*
X73735Y-77339D01*
X73735Y-77395D01*
X74016Y-77395D02*
X74016Y-76805D01*
X74157Y-76805D01*
X74241Y-76833D01*
X74297Y-76889D01*
X74325Y-76946D01*
X74354Y-77058D01*
X74354Y-77142D01*
X74325Y-77255D01*
X74297Y-77311D01*
X74241Y-77367D01*
X74157Y-77395D01*
X74016Y-77395D01*
X74607Y-77339D02*
X74635Y-77367D01*
X74607Y-77395D01*
X74579Y-77367D01*
X74607Y-77339D01*
X74607Y-77395D01*
X74860Y-77227D02*
X75141Y-77227D01*
X74804Y-77395D02*
X75000Y-76805D01*
X75197Y-77395D01*
X75394Y-77339D02*
X75422Y-77367D01*
X75394Y-77395D01*
X75366Y-77367D01*
X75394Y-77339D01*
X75394Y-77395D01*
X76575Y-77002D02*
X76575Y-77592D01*
X76575Y-77030D02*
X76631Y-77002D01*
X76744Y-77002D01*
X76800Y-77030D01*
X76828Y-77058D01*
X76856Y-77114D01*
X76856Y-77283D01*
X76828Y-77339D01*
X76800Y-77367D01*
X76744Y-77395D01*
X76631Y-77395D01*
X76575Y-77367D01*
X77363Y-77367D02*
X77306Y-77395D01*
X77194Y-77395D01*
X77138Y-77367D01*
X77109Y-77339D01*
X77081Y-77283D01*
X77081Y-77114D01*
X77109Y-77058D01*
X77138Y-77030D01*
X77194Y-77002D01*
X77306Y-77002D01*
X77363Y-77030D01*
X77616Y-77395D02*
X77616Y-76805D01*
X77616Y-77030D02*
X77672Y-77002D01*
X77784Y-77002D01*
X77841Y-77030D01*
X77869Y-77058D01*
X77897Y-77114D01*
X77897Y-77283D01*
X77869Y-77339D01*
X77841Y-77367D01*
X77784Y-77395D01*
X77672Y-77395D01*
X77616Y-77367D01*
X78150Y-77002D02*
X78150Y-77395D01*
X78150Y-77058D02*
X78178Y-77030D01*
X78234Y-77002D01*
X78319Y-77002D01*
X78375Y-77030D01*
X78403Y-77086D01*
X78403Y-77395D01*
X78909Y-77367D02*
X78853Y-77395D01*
X78741Y-77395D01*
X78684Y-77367D01*
X78656Y-77311D01*
X78656Y-77086D01*
X78684Y-77030D01*
X78741Y-77002D01*
X78853Y-77002D01*
X78909Y-77030D01*
X78937Y-77086D01*
X78937Y-77142D01*
X78656Y-77199D01*
X79134Y-77002D02*
X79247Y-77395D01*
X79359Y-77114D01*
X79472Y-77395D01*
X79584Y-77002D01*
X80428Y-77620D02*
X80400Y-77592D01*
X80343Y-77508D01*
X80315Y-77452D01*
X80287Y-77367D01*
X80259Y-77227D01*
X80259Y-77114D01*
X80287Y-76974D01*
X80315Y-76889D01*
X80343Y-76833D01*
X80400Y-76749D01*
X80428Y-76721D01*
X80625Y-76861D02*
X80653Y-76833D01*
X80709Y-76805D01*
X80850Y-76805D01*
X80906Y-76833D01*
X80934Y-76861D01*
X80962Y-76917D01*
X80962Y-76974D01*
X80934Y-77058D01*
X80597Y-77395D01*
X80962Y-77395D01*
X81328Y-76805D02*
X81384Y-76805D01*
X81440Y-76833D01*
X81468Y-76861D01*
X81496Y-76917D01*
X81525Y-77030D01*
X81525Y-77171D01*
X81496Y-77283D01*
X81468Y-77339D01*
X81440Y-77367D01*
X81384Y-77395D01*
X81328Y-77395D01*
X81271Y-77367D01*
X81243Y-77339D01*
X81215Y-77283D01*
X81187Y-77171D01*
X81187Y-77030D01*
X81215Y-76917D01*
X81243Y-76861D01*
X81271Y-76833D01*
X81328Y-76805D01*
X82087Y-77395D02*
X81750Y-77395D01*
X81918Y-77395D02*
X81918Y-76805D01*
X81862Y-76889D01*
X81806Y-76946D01*
X81750Y-76974D01*
X82593Y-77002D02*
X82593Y-77395D01*
X82453Y-76777D02*
X82312Y-77199D01*
X82678Y-77199D01*
X82903Y-77171D02*
X83352Y-77171D01*
X83746Y-76805D02*
X83802Y-76805D01*
X83859Y-76833D01*
X83887Y-76861D01*
X83915Y-76917D01*
X83943Y-77030D01*
X83943Y-77171D01*
X83915Y-77283D01*
X83887Y-77339D01*
X83859Y-77367D01*
X83802Y-77395D01*
X83746Y-77395D01*
X83690Y-77367D01*
X83662Y-77339D01*
X83634Y-77283D01*
X83606Y-77171D01*
X83606Y-77030D01*
X83634Y-76917D01*
X83662Y-76861D01*
X83690Y-76833D01*
X83746Y-76805D01*
X84140Y-76805D02*
X84505Y-76805D01*
X84309Y-77030D01*
X84393Y-77030D01*
X84449Y-77058D01*
X84477Y-77086D01*
X84505Y-77142D01*
X84505Y-77283D01*
X84477Y-77339D01*
X84449Y-77367D01*
X84393Y-77395D01*
X84224Y-77395D01*
X84168Y-77367D01*
X84140Y-77339D01*
X84759Y-77171D02*
X85208Y-77171D01*
X85799Y-77395D02*
X85462Y-77395D01*
X85630Y-77395D02*
X85630Y-76805D01*
X85574Y-76889D01*
X85518Y-76946D01*
X85462Y-76974D01*
X86080Y-77395D02*
X86193Y-77395D01*
X86249Y-77367D01*
X86277Y-77339D01*
X86333Y-77255D01*
X86361Y-77142D01*
X86361Y-76917D01*
X86333Y-76861D01*
X86305Y-76833D01*
X86249Y-76805D01*
X86136Y-76805D01*
X86080Y-76833D01*
X86052Y-76861D01*
X86024Y-76917D01*
X86024Y-77058D01*
X86052Y-77114D01*
X86080Y-77142D01*
X86136Y-77171D01*
X86249Y-77171D01*
X86305Y-77142D01*
X86333Y-77114D01*
X86361Y-77058D01*
X87261Y-77086D02*
X87346Y-77114D01*
X87374Y-77142D01*
X87402Y-77199D01*
X87402Y-77283D01*
X87374Y-77339D01*
X87346Y-77367D01*
X87289Y-77395D01*
X87064Y-77395D01*
X87064Y-76805D01*
X87261Y-76805D01*
X87318Y-76833D01*
X87346Y-76861D01*
X87374Y-76917D01*
X87374Y-76974D01*
X87346Y-77030D01*
X87318Y-77058D01*
X87261Y-77086D01*
X87064Y-77086D01*
X87599Y-76805D02*
X87992Y-76805D01*
X87599Y-77395D01*
X87992Y-77395D01*
X88555Y-77395D02*
X88358Y-77114D01*
X88217Y-77395D02*
X88217Y-76805D01*
X88442Y-76805D01*
X88499Y-76833D01*
X88527Y-76861D01*
X88555Y-76917D01*
X88555Y-77002D01*
X88527Y-77058D01*
X88499Y-77086D01*
X88442Y-77114D01*
X88217Y-77114D01*
X89511Y-77002D02*
X89511Y-77395D01*
X89370Y-76777D02*
X89230Y-77199D01*
X89595Y-77199D01*
X89764Y-76805D02*
X90158Y-76805D01*
X89905Y-77395D01*
X90664Y-76805D02*
X90383Y-76805D01*
X90355Y-77086D01*
X90383Y-77058D01*
X90439Y-77030D01*
X90580Y-77030D01*
X90636Y-77058D01*
X90664Y-77086D01*
X90692Y-77142D01*
X90692Y-77283D01*
X90664Y-77339D01*
X90636Y-77367D01*
X90580Y-77395D01*
X90439Y-77395D01*
X90383Y-77367D01*
X90355Y-77339D01*
X91198Y-76805D02*
X91086Y-76805D01*
X91030Y-76833D01*
X91001Y-76861D01*
X90945Y-76946D01*
X90917Y-77058D01*
X90917Y-77283D01*
X90945Y-77339D01*
X90973Y-77367D01*
X91030Y-77395D01*
X91142Y-77395D01*
X91198Y-77367D01*
X91226Y-77339D01*
X91255Y-77283D01*
X91255Y-77142D01*
X91226Y-77086D01*
X91198Y-77058D01*
X91142Y-77030D01*
X91030Y-77030D01*
X90973Y-77058D01*
X90945Y-77086D01*
X90917Y-77142D01*
X91451Y-77620D02*
X91480Y-77592D01*
X91536Y-77508D01*
X91564Y-77452D01*
X91592Y-77367D01*
X91620Y-77227D01*
X91620Y-77114D01*
X91592Y-76974D01*
X91564Y-76889D01*
X91536Y-76833D01*
X91480Y-76749D01*
X91451Y-76721D01*
X91901Y-77171D02*
X92351Y-77171D01*
X92633Y-77002D02*
X92633Y-77592D01*
X92633Y-77030D02*
X92689Y-77002D01*
X92801Y-77002D01*
X92858Y-77030D01*
X92886Y-77058D01*
X92914Y-77114D01*
X92914Y-77283D01*
X92886Y-77339D01*
X92858Y-77367D01*
X92801Y-77395D01*
X92689Y-77395D01*
X92633Y-77367D01*
X93167Y-77395D02*
X93167Y-77002D01*
X93167Y-77114D02*
X93195Y-77058D01*
X93223Y-77030D01*
X93279Y-77002D01*
X93336Y-77002D01*
X93617Y-77395D02*
X93561Y-77367D01*
X93532Y-77339D01*
X93504Y-77283D01*
X93504Y-77114D01*
X93532Y-77058D01*
X93561Y-77030D01*
X93617Y-77002D01*
X93701Y-77002D01*
X93757Y-77030D01*
X93786Y-77058D01*
X93814Y-77114D01*
X93814Y-77283D01*
X93786Y-77339D01*
X93757Y-77367D01*
X93701Y-77395D01*
X93617Y-77395D01*
X94320Y-77395D02*
X94320Y-76805D01*
X94320Y-77367D02*
X94264Y-77395D01*
X94151Y-77395D01*
X94095Y-77367D01*
X94067Y-77339D01*
X94039Y-77283D01*
X94039Y-77114D01*
X94067Y-77058D01*
X94095Y-77030D01*
X94151Y-77002D01*
X94264Y-77002D01*
X94320Y-77030D01*
X94854Y-77002D02*
X94854Y-77395D01*
X94601Y-77002D02*
X94601Y-77311D01*
X94629Y-77367D01*
X94685Y-77395D01*
X94770Y-77395D01*
X94826Y-77367D01*
X94854Y-77339D01*
X95388Y-77367D02*
X95332Y-77395D01*
X95220Y-77395D01*
X95163Y-77367D01*
X95135Y-77339D01*
X95107Y-77283D01*
X95107Y-77114D01*
X95135Y-77058D01*
X95163Y-77030D01*
X95220Y-77002D01*
X95332Y-77002D01*
X95388Y-77030D01*
X95557Y-77002D02*
X95782Y-77002D01*
X95642Y-76805D02*
X95642Y-77311D01*
X95670Y-77367D01*
X95726Y-77395D01*
X95782Y-77395D01*
X69685Y-75396D02*
X112205Y-75396D01*
G54D11*
X104022Y-76293D02*
X103825Y-76012D01*
X103684Y-76293D02*
X103684Y-75703D01*
X103909Y-75703D01*
X103965Y-75731D01*
X103994Y-75759D01*
X104022Y-75815D01*
X104022Y-75899D01*
X103994Y-75956D01*
X103965Y-75984D01*
X103909Y-76012D01*
X103684Y-76012D01*
X104500Y-76265D02*
X104444Y-76293D01*
X104331Y-76293D01*
X104275Y-76265D01*
X104247Y-76209D01*
X104247Y-75984D01*
X104275Y-75928D01*
X104331Y-75899D01*
X104444Y-75899D01*
X104500Y-75928D01*
X104528Y-75984D01*
X104528Y-76040D01*
X104247Y-76096D01*
X104725Y-75899D02*
X104865Y-76293D01*
X105006Y-75899D01*
X105231Y-76237D02*
X105259Y-76265D01*
X105231Y-76293D01*
X105203Y-76265D01*
X105231Y-76237D01*
X105231Y-76293D01*
X105231Y-75928D02*
X105259Y-75956D01*
X105231Y-75984D01*
X105203Y-75956D01*
X105231Y-75928D01*
X105231Y-75984D01*
G54D10*
X70192Y-76265D02*
X70276Y-76293D01*
X70417Y-76293D01*
X70473Y-76265D01*
X70501Y-76237D01*
X70529Y-76181D01*
X70529Y-76124D01*
X70501Y-76068D01*
X70473Y-76040D01*
X70417Y-76012D01*
X70304Y-75984D01*
X70248Y-75956D01*
X70220Y-75928D01*
X70192Y-75871D01*
X70192Y-75815D01*
X70220Y-75759D01*
X70248Y-75731D01*
X70304Y-75703D01*
X70445Y-75703D01*
X70529Y-75731D01*
X70782Y-76293D02*
X70782Y-75899D01*
X70782Y-75703D02*
X70754Y-75731D01*
X70782Y-75759D01*
X70810Y-75731D01*
X70782Y-75703D01*
X70782Y-75759D01*
X71007Y-75899D02*
X71316Y-75899D01*
X71007Y-76293D01*
X71316Y-76293D01*
X71766Y-76265D02*
X71710Y-76293D01*
X71598Y-76293D01*
X71541Y-76265D01*
X71513Y-76209D01*
X71513Y-75984D01*
X71541Y-75928D01*
X71598Y-75899D01*
X71710Y-75899D01*
X71766Y-75928D01*
X71795Y-75984D01*
X71795Y-76040D01*
X71513Y-76096D01*
X72048Y-76237D02*
X72076Y-76265D01*
X72048Y-76293D01*
X72019Y-76265D01*
X72048Y-76237D01*
X72048Y-76293D01*
X72048Y-75928D02*
X72076Y-75956D01*
X72048Y-75984D01*
X72019Y-75956D01*
X72048Y-75928D01*
X72048Y-75984D01*
X72751Y-76124D02*
X73032Y-76124D01*
X72694Y-76293D02*
X72891Y-75703D01*
X73088Y-76293D01*
X73538Y-75899D02*
X73538Y-76293D01*
X73397Y-75674D02*
X73257Y-76096D01*
X73622Y-76096D01*
X103684Y-77395D02*
X103684Y-76805D01*
X104219Y-77395D02*
X104219Y-76805D01*
X104219Y-77367D02*
X104162Y-77395D01*
X104050Y-77395D01*
X103994Y-77367D01*
X103965Y-77339D01*
X103937Y-77283D01*
X103937Y-77114D01*
X103965Y-77058D01*
X103994Y-77030D01*
X104050Y-77002D01*
X104162Y-77002D01*
X104219Y-77030D01*
X104500Y-77339D02*
X104528Y-77367D01*
X104500Y-77395D01*
X104472Y-77367D01*
X104500Y-77339D01*
X104500Y-77395D01*
X104500Y-77030D02*
X104528Y-77058D01*
X104500Y-77086D01*
X104472Y-77058D01*
X104500Y-77030D01*
X104500Y-77086D01*
X105540Y-77395D02*
X105203Y-77395D01*
X105372Y-77395D02*
X105372Y-76805D01*
X105315Y-76889D01*
X105259Y-76946D01*
X105203Y-76974D01*
X106215Y-76777D02*
X105709Y-77536D01*
X106721Y-77395D02*
X106384Y-77395D01*
X106553Y-77395D02*
X106553Y-76805D01*
X106496Y-76889D01*
X106440Y-76946D01*
X106384Y-76974D01*
X69685Y-73821D02*
X112205Y-73821D01*
G54D12*
X70257Y-74099D02*
X70707Y-74099D01*
X70384Y-74886D02*
X70482Y-74099D01*
X70871Y-74886D02*
X70937Y-74361D01*
X70970Y-74099D02*
X70927Y-74136D01*
X70960Y-74174D01*
X71002Y-74136D01*
X70970Y-74099D01*
X70960Y-74174D01*
X71199Y-74361D02*
X71499Y-74361D01*
X71345Y-74099D02*
X71260Y-74774D01*
X71288Y-74849D01*
X71359Y-74886D01*
X71434Y-74886D01*
X71809Y-74886D02*
X71738Y-74849D01*
X71710Y-74774D01*
X71795Y-74099D01*
X72413Y-74849D02*
X72334Y-74886D01*
X72184Y-74886D01*
X72113Y-74849D01*
X72085Y-74774D01*
X72123Y-74474D01*
X72169Y-74399D01*
X72249Y-74361D01*
X72399Y-74361D01*
X72469Y-74399D01*
X72498Y-74474D01*
X72488Y-74549D01*
X72104Y-74624D01*
X72793Y-74811D02*
X72826Y-74849D01*
X72783Y-74886D01*
X72751Y-74849D01*
X72793Y-74811D01*
X72783Y-74886D01*
X72844Y-74399D02*
X72877Y-74436D01*
X72835Y-74474D01*
X72802Y-74436D01*
X72844Y-74399D01*
X72835Y-74474D01*
G54D10*
X70417Y-73070D02*
X70220Y-73070D01*
X70220Y-73380D02*
X70220Y-72789D01*
X70501Y-72789D01*
X70726Y-73380D02*
X70726Y-72986D01*
X70726Y-72789D02*
X70698Y-72817D01*
X70726Y-72845D01*
X70754Y-72817D01*
X70726Y-72789D01*
X70726Y-72845D01*
X71091Y-73380D02*
X71035Y-73352D01*
X71007Y-73295D01*
X71007Y-72789D01*
X71541Y-73352D02*
X71485Y-73380D01*
X71373Y-73380D01*
X71316Y-73352D01*
X71288Y-73295D01*
X71288Y-73070D01*
X71316Y-73014D01*
X71373Y-72986D01*
X71485Y-72986D01*
X71541Y-73014D01*
X71570Y-73070D01*
X71570Y-73127D01*
X71288Y-73183D01*
X71823Y-73323D02*
X71851Y-73352D01*
X71823Y-73380D01*
X71795Y-73352D01*
X71823Y-73323D01*
X71823Y-73380D01*
X71823Y-73014D02*
X71851Y-73042D01*
X71823Y-73070D01*
X71795Y-73042D01*
X71823Y-73014D01*
X71823Y-73070D01*
X72526Y-73352D02*
X72582Y-73380D01*
X72694Y-73380D01*
X72751Y-73352D01*
X72779Y-73295D01*
X72779Y-73267D01*
X72751Y-73211D01*
X72694Y-73183D01*
X72610Y-73183D01*
X72554Y-73155D01*
X72526Y-73099D01*
X72526Y-73070D01*
X72554Y-73014D01*
X72610Y-72986D01*
X72694Y-72986D01*
X72751Y-73014D01*
X72947Y-72986D02*
X73172Y-72986D01*
X73032Y-72789D02*
X73032Y-73295D01*
X73060Y-73352D01*
X73116Y-73380D01*
X73172Y-73380D01*
X73594Y-73352D02*
X73538Y-73380D01*
X73426Y-73380D01*
X73369Y-73352D01*
X73341Y-73295D01*
X73341Y-73070D01*
X73369Y-73014D01*
X73426Y-72986D01*
X73538Y-72986D01*
X73594Y-73014D01*
X73622Y-73070D01*
X73622Y-73127D01*
X73341Y-73183D01*
X73876Y-73380D02*
X73876Y-72986D01*
X73876Y-73099D02*
X73904Y-73042D01*
X73932Y-73014D01*
X73988Y-72986D01*
X74044Y-72986D01*
X74466Y-73352D02*
X74410Y-73380D01*
X74297Y-73380D01*
X74241Y-73352D01*
X74213Y-73295D01*
X74213Y-73070D01*
X74241Y-73014D01*
X74297Y-72986D01*
X74410Y-72986D01*
X74466Y-73014D01*
X74494Y-73070D01*
X74494Y-73127D01*
X74213Y-73183D01*
X74832Y-73380D02*
X74775Y-73352D01*
X74747Y-73323D01*
X74719Y-73267D01*
X74719Y-73099D01*
X74747Y-73042D01*
X74775Y-73014D01*
X74832Y-72986D01*
X74916Y-72986D01*
X74972Y-73014D01*
X75000Y-73042D01*
X75028Y-73099D01*
X75028Y-73267D01*
X75000Y-73323D01*
X74972Y-73352D01*
X74916Y-73380D01*
X74832Y-73380D01*
X75282Y-73155D02*
X75732Y-73155D01*
X76266Y-73352D02*
X76210Y-73380D01*
X76097Y-73380D01*
X76041Y-73352D01*
X76013Y-73323D01*
X75985Y-73267D01*
X75985Y-73099D01*
X76013Y-73042D01*
X76041Y-73014D01*
X76097Y-72986D01*
X76210Y-72986D01*
X76266Y-73014D01*
X76772Y-73380D02*
X76772Y-73070D01*
X76744Y-73014D01*
X76688Y-72986D01*
X76575Y-72986D01*
X76519Y-73014D01*
X76772Y-73352D02*
X76716Y-73380D01*
X76575Y-73380D01*
X76519Y-73352D01*
X76491Y-73295D01*
X76491Y-73239D01*
X76519Y-73183D01*
X76575Y-73155D01*
X76716Y-73155D01*
X76772Y-73127D01*
X77053Y-73380D02*
X77053Y-72986D01*
X77053Y-73042D02*
X77081Y-73014D01*
X77138Y-72986D01*
X77222Y-72986D01*
X77278Y-73014D01*
X77306Y-73070D01*
X77306Y-73380D01*
X77306Y-73070D02*
X77334Y-73014D01*
X77391Y-72986D01*
X77475Y-72986D01*
X77531Y-73014D01*
X77559Y-73070D01*
X77559Y-73380D01*
X78066Y-73352D02*
X78009Y-73380D01*
X77897Y-73380D01*
X77841Y-73352D01*
X77813Y-73295D01*
X77813Y-73070D01*
X77841Y-73014D01*
X77897Y-72986D01*
X78009Y-72986D01*
X78066Y-73014D01*
X78094Y-73070D01*
X78094Y-73127D01*
X77813Y-73183D01*
X78347Y-73380D02*
X78347Y-72986D01*
X78347Y-73099D02*
X78375Y-73042D01*
X78403Y-73014D01*
X78459Y-72986D01*
X78516Y-72986D01*
X78965Y-73380D02*
X78965Y-73070D01*
X78937Y-73014D01*
X78881Y-72986D01*
X78769Y-72986D01*
X78712Y-73014D01*
X78965Y-73352D02*
X78909Y-73380D01*
X78769Y-73380D01*
X78712Y-73352D01*
X78684Y-73295D01*
X78684Y-73239D01*
X78712Y-73183D01*
X78769Y-73155D01*
X78909Y-73155D01*
X78965Y-73127D01*
X79247Y-73155D02*
X79697Y-73155D01*
X79978Y-73380D02*
X79978Y-72789D01*
X79978Y-73014D02*
X80034Y-72986D01*
X80147Y-72986D01*
X80203Y-73014D01*
X80231Y-73042D01*
X80259Y-73099D01*
X80259Y-73267D01*
X80231Y-73323D01*
X80203Y-73352D01*
X80147Y-73380D01*
X80034Y-73380D01*
X79978Y-73352D01*
X80597Y-73380D02*
X80540Y-73352D01*
X80512Y-73323D01*
X80484Y-73267D01*
X80484Y-73099D01*
X80512Y-73042D01*
X80540Y-73014D01*
X80597Y-72986D01*
X80681Y-72986D01*
X80737Y-73014D01*
X80765Y-73042D01*
X80793Y-73099D01*
X80793Y-73267D01*
X80765Y-73323D01*
X80737Y-73352D01*
X80681Y-73380D01*
X80597Y-73380D01*
X81300Y-73380D02*
X81300Y-73070D01*
X81271Y-73014D01*
X81215Y-72986D01*
X81103Y-72986D01*
X81046Y-73014D01*
X81300Y-73352D02*
X81243Y-73380D01*
X81103Y-73380D01*
X81046Y-73352D01*
X81018Y-73295D01*
X81018Y-73239D01*
X81046Y-73183D01*
X81103Y-73155D01*
X81243Y-73155D01*
X81300Y-73127D01*
X81581Y-73380D02*
X81581Y-72986D01*
X81581Y-73099D02*
X81609Y-73042D01*
X81637Y-73014D01*
X81693Y-72986D01*
X81750Y-72986D01*
X82199Y-73380D02*
X82199Y-72789D01*
X82199Y-73352D02*
X82143Y-73380D01*
X82031Y-73380D01*
X81974Y-73352D01*
X81946Y-73323D01*
X81918Y-73267D01*
X81918Y-73099D01*
X81946Y-73042D01*
X81974Y-73014D01*
X82031Y-72986D01*
X82143Y-72986D01*
X82199Y-73014D01*
X82481Y-73323D02*
X82509Y-73352D01*
X82481Y-73380D01*
X82453Y-73352D01*
X82481Y-73323D01*
X82481Y-73380D01*
X82762Y-73380D02*
X82762Y-72789D01*
X82818Y-73155D02*
X82987Y-73380D01*
X82987Y-72986D02*
X82762Y-73211D01*
X83240Y-73380D02*
X83240Y-72986D01*
X83240Y-72789D02*
X83212Y-72817D01*
X83240Y-72845D01*
X83268Y-72817D01*
X83240Y-72789D01*
X83240Y-72845D01*
X83774Y-73352D02*
X83718Y-73380D01*
X83606Y-73380D01*
X83549Y-73352D01*
X83521Y-73323D01*
X83493Y-73267D01*
X83493Y-73099D01*
X83521Y-73042D01*
X83549Y-73014D01*
X83606Y-72986D01*
X83718Y-72986D01*
X83774Y-73014D01*
X84280Y-73380D02*
X84280Y-73070D01*
X84252Y-73014D01*
X84196Y-72986D01*
X84084Y-72986D01*
X84027Y-73014D01*
X84280Y-73352D02*
X84224Y-73380D01*
X84084Y-73380D01*
X84027Y-73352D01*
X83999Y-73295D01*
X83999Y-73239D01*
X84027Y-73183D01*
X84084Y-73155D01*
X84224Y-73155D01*
X84280Y-73127D01*
X84815Y-73380D02*
X84815Y-72789D01*
X84815Y-73352D02*
X84759Y-73380D01*
X84646Y-73380D01*
X84590Y-73352D01*
X84562Y-73323D01*
X84534Y-73267D01*
X84534Y-73099D01*
X84562Y-73042D01*
X84590Y-73014D01*
X84646Y-72986D01*
X84759Y-72986D01*
X84815Y-73014D01*
X84955Y-73436D02*
X85405Y-73436D01*
X85546Y-72986D02*
X85546Y-73577D01*
X85546Y-73014D02*
X85602Y-72986D01*
X85715Y-72986D01*
X85771Y-73014D01*
X85799Y-73042D01*
X85827Y-73099D01*
X85827Y-73267D01*
X85799Y-73323D01*
X85771Y-73352D01*
X85715Y-73380D01*
X85602Y-73380D01*
X85546Y-73352D01*
X86333Y-73352D02*
X86277Y-73380D01*
X86165Y-73380D01*
X86108Y-73352D01*
X86080Y-73323D01*
X86052Y-73267D01*
X86052Y-73099D01*
X86080Y-73042D01*
X86108Y-73014D01*
X86165Y-72986D01*
X86277Y-72986D01*
X86333Y-73014D01*
X86586Y-73380D02*
X86586Y-72789D01*
X86586Y-73014D02*
X86643Y-72986D01*
X86755Y-72986D01*
X86811Y-73014D01*
X86840Y-73042D01*
X86868Y-73099D01*
X86868Y-73267D01*
X86840Y-73323D01*
X86811Y-73352D01*
X86755Y-73380D01*
X86643Y-73380D01*
X86586Y-73352D01*
X69685Y-71459D02*
X112205Y-71459D01*
X70192Y-72289D02*
X70276Y-72317D01*
X70417Y-72317D01*
X70473Y-72289D01*
X70501Y-72260D01*
X70529Y-72204D01*
X70529Y-72148D01*
X70501Y-72092D01*
X70473Y-72064D01*
X70417Y-72036D01*
X70304Y-72007D01*
X70248Y-71979D01*
X70220Y-71951D01*
X70192Y-71895D01*
X70192Y-71839D01*
X70220Y-71782D01*
X70248Y-71754D01*
X70304Y-71726D01*
X70445Y-71726D01*
X70529Y-71754D01*
X70782Y-72317D02*
X70782Y-71726D01*
X71035Y-72317D02*
X71035Y-72007D01*
X71007Y-71951D01*
X70951Y-71923D01*
X70867Y-71923D01*
X70810Y-71951D01*
X70782Y-71979D01*
X71541Y-72289D02*
X71485Y-72317D01*
X71373Y-72317D01*
X71316Y-72289D01*
X71288Y-72232D01*
X71288Y-72007D01*
X71316Y-71951D01*
X71373Y-71923D01*
X71485Y-71923D01*
X71541Y-71951D01*
X71570Y-72007D01*
X71570Y-72064D01*
X71288Y-72120D01*
X72048Y-72289D02*
X71991Y-72317D01*
X71879Y-72317D01*
X71823Y-72289D01*
X71795Y-72232D01*
X71795Y-72007D01*
X71823Y-71951D01*
X71879Y-71923D01*
X71991Y-71923D01*
X72048Y-71951D01*
X72076Y-72007D01*
X72076Y-72064D01*
X71795Y-72120D01*
X72244Y-71923D02*
X72469Y-71923D01*
X72329Y-71726D02*
X72329Y-72232D01*
X72357Y-72289D01*
X72413Y-72317D01*
X72469Y-72317D01*
X72666Y-72260D02*
X72694Y-72289D01*
X72666Y-72317D01*
X72638Y-72289D01*
X72666Y-72260D01*
X72666Y-72317D01*
X72666Y-71951D02*
X72694Y-71979D01*
X72666Y-72007D01*
X72638Y-71979D01*
X72666Y-71951D01*
X72666Y-72007D01*
X77559Y-75396D02*
X77559Y-76577D01*
X102756Y-75396D02*
X102756Y-77955D01*
G54D13*
X47375Y-35301D02*
X52943Y-40869D01*
X52943Y-40869D02*
X56617Y-37194D01*
X56617Y-37194D02*
X51049Y-31627D01*
G54D12*
X47383Y-35293D02*
X51041Y-31635D01*
G54D14*
X49172Y-34504D02*
X48894Y-34226D01*
X48960Y-34159D01*
X49013Y-34133D01*
X49066Y-34133D01*
X49106Y-34146D01*
X49172Y-34186D01*
X49212Y-34226D01*
X49251Y-34292D01*
X49265Y-34332D01*
X49265Y-34385D01*
X49238Y-34438D01*
X49172Y-34504D01*
X49185Y-33987D02*
X49185Y-33961D01*
X49198Y-33921D01*
X49265Y-33855D01*
X49304Y-33841D01*
X49331Y-33841D01*
X49371Y-33855D01*
X49397Y-33881D01*
X49424Y-33934D01*
X49424Y-34252D01*
X49596Y-34080D01*
G54D10*
X49759Y-33554D02*
X49421Y-33892D01*
X49361Y-33911D01*
X49321Y-33911D01*
X49262Y-33892D01*
X49182Y-33812D01*
X49162Y-33752D01*
X49162Y-33713D01*
X49182Y-33653D01*
X49520Y-33315D01*
X48685Y-33315D02*
X48924Y-33554D01*
X48804Y-33434D02*
X49222Y-33017D01*
X49202Y-33116D01*
X49202Y-33196D01*
X49222Y-33255D01*
X51340Y-35174D02*
X51399Y-35194D01*
X51459Y-35254D01*
X51499Y-35333D01*
X51499Y-35413D01*
X51479Y-35472D01*
X51419Y-35572D01*
X51360Y-35632D01*
X51260Y-35691D01*
X51201Y-35711D01*
X51121Y-35711D01*
X51042Y-35671D01*
X51002Y-35632D01*
X50962Y-35552D01*
X50962Y-35512D01*
X51101Y-35373D01*
X51181Y-35453D01*
X50783Y-35373D02*
X50703Y-35333D01*
X50604Y-35234D01*
X50584Y-35174D01*
X50584Y-35134D01*
X50604Y-35075D01*
X50644Y-35035D01*
X50703Y-35015D01*
X50743Y-35015D01*
X50803Y-35035D01*
X50902Y-35095D01*
X50962Y-35115D01*
X51002Y-35115D01*
X51061Y-35095D01*
X51101Y-35055D01*
X51121Y-34995D01*
X51121Y-34955D01*
X51101Y-34896D01*
X51002Y-34796D01*
X50922Y-34757D01*
X50425Y-34617D02*
X50346Y-34578D01*
X50306Y-34578D01*
X50246Y-34598D01*
X50186Y-34657D01*
X50167Y-34717D01*
X50167Y-34757D01*
X50186Y-34816D01*
X50346Y-34975D01*
X50763Y-34558D01*
X50624Y-34419D01*
X50564Y-34399D01*
X50525Y-34399D01*
X50465Y-34419D01*
X50425Y-34458D01*
X50405Y-34518D01*
X50405Y-34558D01*
X50425Y-34617D01*
X50564Y-34757D01*
X50385Y-34180D02*
X50127Y-33921D01*
X50107Y-34220D01*
X50047Y-34160D01*
X49988Y-34140D01*
X49948Y-34140D01*
X49888Y-34160D01*
X49789Y-34259D01*
X49769Y-34319D01*
X49769Y-34359D01*
X49789Y-34419D01*
X49908Y-34538D01*
X49968Y-34558D01*
X50007Y-34558D01*
X49312Y-33941D02*
X49550Y-34180D01*
X49431Y-34061D02*
X49848Y-33643D01*
X49829Y-33742D01*
X49829Y-33822D01*
X49848Y-33882D01*
X48914Y-33544D02*
X49152Y-33782D01*
X49033Y-33663D02*
X49451Y-33245D01*
X49431Y-33345D01*
X49431Y-33424D01*
X49451Y-33484D01*
X49133Y-33007D02*
X49133Y-32967D01*
X49113Y-32907D01*
X49013Y-32808D01*
X48954Y-32788D01*
X48914Y-32788D01*
X48854Y-32808D01*
X48814Y-32848D01*
X48775Y-32927D01*
X48775Y-33404D01*
X48516Y-33146D01*
X48795Y-32589D02*
X48536Y-32331D01*
X48516Y-32629D01*
X48456Y-32569D01*
X48397Y-32549D01*
X48357Y-32549D01*
X48297Y-32569D01*
X48198Y-32669D01*
X48178Y-32728D01*
X48178Y-32768D01*
X48198Y-32828D01*
X48317Y-32947D01*
X48377Y-32967D01*
X48417Y-32967D01*
X47721Y-32351D02*
X47959Y-32589D01*
X47840Y-32470D02*
X48258Y-32052D01*
X48238Y-32152D01*
X48238Y-32231D01*
X48258Y-32291D01*
X47542Y-32172D02*
X47959Y-31754D01*
X47761Y-31953D02*
X47522Y-31714D01*
X47303Y-31933D02*
X47721Y-31515D01*
X46866Y-31495D02*
X47204Y-31436D01*
X47104Y-31734D02*
X47522Y-31316D01*
X47363Y-31157D01*
X47303Y-31138D01*
X47263Y-31138D01*
X47204Y-31157D01*
X47144Y-31217D01*
X47124Y-31277D01*
X47124Y-31316D01*
X47144Y-31376D01*
X47303Y-31535D01*
G54D14*
X59959Y-46936D02*
X59730Y-47165D01*
X59717Y-47206D01*
X59717Y-47233D01*
X59730Y-47273D01*
X59784Y-47327D01*
X59824Y-47340D01*
X59851Y-47340D01*
X59892Y-47327D01*
X60121Y-47098D01*
X60215Y-47246D02*
X60242Y-47246D01*
X60282Y-47260D01*
X60350Y-47327D01*
X60363Y-47367D01*
X60363Y-47394D01*
X60350Y-47435D01*
X60323Y-47462D01*
X60269Y-47489D01*
X59946Y-47489D01*
X60121Y-47664D01*
X56214Y-49379D02*
X56349Y-49514D01*
X56107Y-49433D02*
X56484Y-49245D01*
X56295Y-49622D01*
X56632Y-49393D02*
X56793Y-49555D01*
X56430Y-49757D02*
X56713Y-49474D01*
X56861Y-49622D02*
X56766Y-50093D01*
X57049Y-49810D02*
X56578Y-49905D01*
X56874Y-50201D02*
X57157Y-49918D01*
X57049Y-50214D01*
X57346Y-50107D01*
X57063Y-50390D01*
X57346Y-50376D02*
X57440Y-50470D01*
X57332Y-50659D02*
X57197Y-50524D01*
X57480Y-50241D01*
X57615Y-50376D01*
X57871Y-50659D02*
X57857Y-50619D01*
X57817Y-50578D01*
X57763Y-50551D01*
X57709Y-50551D01*
X57669Y-50565D01*
X57602Y-50605D01*
X57561Y-50645D01*
X57521Y-50713D01*
X57507Y-50753D01*
X57507Y-50807D01*
X57534Y-50861D01*
X57561Y-50888D01*
X57615Y-50915D01*
X57642Y-50915D01*
X57736Y-50821D01*
X57682Y-50767D01*
X57804Y-50969D02*
X57938Y-51103D01*
X57696Y-51023D02*
X58073Y-50834D01*
X57884Y-51211D01*
X58221Y-51036D02*
X58248Y-51036D01*
X58288Y-51050D01*
X58356Y-51117D01*
X58369Y-51157D01*
X58369Y-51184D01*
X58356Y-51225D01*
X58329Y-51252D01*
X58275Y-51279D01*
X57952Y-51279D01*
X58127Y-51454D01*
X58666Y-51427D02*
X58531Y-51292D01*
X58383Y-51413D01*
X58410Y-51413D01*
X58450Y-51427D01*
X58517Y-51494D01*
X58531Y-51534D01*
X58531Y-51561D01*
X58517Y-51602D01*
X58450Y-51669D01*
X58410Y-51683D01*
X58383Y-51683D01*
X58342Y-51669D01*
X58275Y-51602D01*
X58262Y-51561D01*
X58262Y-51534D01*
X58921Y-51683D02*
X58868Y-51629D01*
X58827Y-51615D01*
X58800Y-51615D01*
X58733Y-51629D01*
X58666Y-51669D01*
X58558Y-51777D01*
X58544Y-51817D01*
X58544Y-51844D01*
X58558Y-51885D01*
X58612Y-51938D01*
X58652Y-51952D01*
X58679Y-51952D01*
X58719Y-51938D01*
X58787Y-51871D01*
X58800Y-51831D01*
X58800Y-51804D01*
X58787Y-51763D01*
X58733Y-51710D01*
X58693Y-51696D01*
X58666Y-51696D01*
X58625Y-51710D01*
X58854Y-52019D02*
X58989Y-52154D01*
X58746Y-52073D02*
X59124Y-51885D01*
X58935Y-52262D01*
X59285Y-52046D02*
X59460Y-52221D01*
X59258Y-52235D01*
X59299Y-52275D01*
X59312Y-52316D01*
X59312Y-52343D01*
X59299Y-52383D01*
X59231Y-52450D01*
X59191Y-52464D01*
X59164Y-52464D01*
X59124Y-52450D01*
X59043Y-52369D01*
X59029Y-52329D01*
X59029Y-52302D01*
X59406Y-52518D02*
X59622Y-52733D01*
X59716Y-52881D02*
X59851Y-53016D01*
X59608Y-52935D02*
X59986Y-52747D01*
X59797Y-53124D01*
X60174Y-52935D02*
X59945Y-53164D01*
X59932Y-53205D01*
X59932Y-53231D01*
X59945Y-53272D01*
X59999Y-53326D01*
X60039Y-53339D01*
X60066Y-53339D01*
X60107Y-53326D01*
X60336Y-53097D01*
X69098Y-54684D02*
X69098Y-54517D01*
X69360Y-54446D02*
X69360Y-54684D01*
X68860Y-54684D01*
X68860Y-54446D01*
X68860Y-54279D02*
X69360Y-53946D01*
X68860Y-53946D02*
X69360Y-54279D01*
X68860Y-53827D02*
X68860Y-53541D01*
X69360Y-53684D02*
X68860Y-53684D01*
X69407Y-53494D02*
X69407Y-53113D01*
X69336Y-53017D02*
X69360Y-52946D01*
X69360Y-52827D01*
X69336Y-52779D01*
X69312Y-52755D01*
X69264Y-52732D01*
X69217Y-52732D01*
X69169Y-52755D01*
X69145Y-52779D01*
X69121Y-52827D01*
X69098Y-52922D01*
X69074Y-52970D01*
X69050Y-52994D01*
X69002Y-53017D01*
X68955Y-53017D01*
X68907Y-52994D01*
X68883Y-52970D01*
X68860Y-52922D01*
X68860Y-52803D01*
X68883Y-52732D01*
X69098Y-52517D02*
X69098Y-52351D01*
X69360Y-52279D02*
X69360Y-52517D01*
X68860Y-52517D01*
X68860Y-52279D01*
X69360Y-52065D02*
X68860Y-52065D01*
X69360Y-51779D01*
X68860Y-51779D01*
X69336Y-51565D02*
X69360Y-51494D01*
X69360Y-51375D01*
X69336Y-51327D01*
X69312Y-51303D01*
X69264Y-51279D01*
X69217Y-51279D01*
X69169Y-51303D01*
X69145Y-51327D01*
X69121Y-51375D01*
X69098Y-51470D01*
X69074Y-51517D01*
X69050Y-51541D01*
X69002Y-51565D01*
X68955Y-51565D01*
X68907Y-51541D01*
X68883Y-51517D01*
X68860Y-51470D01*
X68860Y-51351D01*
X68883Y-51279D01*
X68860Y-50970D02*
X68860Y-50875D01*
X68883Y-50827D01*
X68931Y-50779D01*
X69026Y-50755D01*
X69193Y-50755D01*
X69288Y-50779D01*
X69336Y-50827D01*
X69360Y-50875D01*
X69360Y-50970D01*
X69336Y-51017D01*
X69288Y-51065D01*
X69193Y-51089D01*
X69026Y-51089D01*
X68931Y-51065D01*
X68883Y-51017D01*
X68860Y-50970D01*
X69360Y-50255D02*
X69121Y-50422D01*
X69360Y-50541D02*
X68860Y-50541D01*
X68860Y-50351D01*
X68883Y-50303D01*
X68907Y-50279D01*
X68955Y-50255D01*
X69026Y-50255D01*
X69074Y-50279D01*
X69098Y-50303D01*
X69121Y-50351D01*
X69121Y-50541D01*
X69360Y-49779D02*
X69360Y-50065D01*
X69360Y-49922D02*
X68860Y-49922D01*
X68931Y-49970D01*
X68979Y-50017D01*
X69002Y-50065D01*
X66974Y-57499D02*
X66974Y-57109D01*
X67066Y-57109D01*
X67122Y-57127D01*
X67159Y-57164D01*
X67178Y-57202D01*
X67196Y-57276D01*
X67196Y-57332D01*
X67178Y-57406D01*
X67159Y-57443D01*
X67122Y-57480D01*
X67066Y-57499D01*
X66974Y-57499D01*
X67345Y-57387D02*
X67531Y-57387D01*
X67308Y-57499D02*
X67438Y-57109D01*
X67568Y-57499D01*
X67642Y-57109D02*
X67865Y-57109D01*
X67754Y-57499D02*
X67754Y-57109D01*
X67976Y-57387D02*
X68162Y-57387D01*
X67939Y-57499D02*
X68069Y-57109D01*
X68199Y-57499D01*
X67287Y-56399D02*
X67268Y-56417D01*
X67213Y-56436D01*
X67176Y-56436D01*
X67120Y-56417D01*
X67083Y-56380D01*
X67064Y-56343D01*
X67046Y-56269D01*
X67046Y-56213D01*
X67064Y-56139D01*
X67083Y-56101D01*
X67120Y-56064D01*
X67176Y-56046D01*
X67213Y-56046D01*
X67268Y-56064D01*
X67287Y-56083D01*
X67640Y-56436D02*
X67454Y-56436D01*
X67454Y-56046D01*
X67770Y-56436D02*
X67770Y-56046D01*
X67993Y-56436D02*
X67826Y-56213D01*
X67993Y-56046D02*
X67770Y-56269D01*
X67419Y-55080D02*
X67382Y-55062D01*
X67326Y-55062D01*
X67270Y-55080D01*
X67233Y-55117D01*
X67215Y-55154D01*
X67196Y-55229D01*
X67196Y-55284D01*
X67215Y-55359D01*
X67233Y-55396D01*
X67270Y-55433D01*
X67326Y-55452D01*
X67363Y-55452D01*
X67419Y-55433D01*
X67437Y-55414D01*
X67437Y-55284D01*
X67363Y-55284D01*
X67605Y-55452D02*
X67605Y-55062D01*
X67827Y-55452D01*
X67827Y-55062D01*
X68013Y-55452D02*
X68013Y-55062D01*
X68106Y-55062D01*
X68162Y-55080D01*
X68199Y-55117D01*
X68217Y-55154D01*
X68236Y-55229D01*
X68236Y-55284D01*
X68217Y-55359D01*
X68199Y-55396D01*
X68162Y-55433D01*
X68106Y-55452D01*
X68013Y-55452D01*
X66702Y-58072D02*
X67012Y-58072D01*
X66845Y-58263D01*
X66917Y-58263D01*
X66964Y-58286D01*
X66988Y-58310D01*
X67012Y-58358D01*
X67012Y-58477D01*
X66988Y-58525D01*
X66964Y-58548D01*
X66917Y-58572D01*
X66774Y-58572D01*
X66726Y-58548D01*
X66702Y-58525D01*
X67226Y-58525D02*
X67250Y-58548D01*
X67226Y-58572D01*
X67202Y-58548D01*
X67226Y-58525D01*
X67226Y-58572D01*
X67417Y-58072D02*
X67726Y-58072D01*
X67559Y-58263D01*
X67631Y-58263D01*
X67679Y-58286D01*
X67702Y-58310D01*
X67726Y-58358D01*
X67726Y-58477D01*
X67702Y-58525D01*
X67679Y-58548D01*
X67631Y-58572D01*
X67488Y-58572D01*
X67440Y-58548D01*
X67417Y-58525D01*
X67869Y-58072D02*
X68036Y-58572D01*
X68202Y-58072D01*
X47276Y-51186D02*
X47633Y-51186D01*
X47704Y-51210D01*
X47752Y-51258D01*
X47776Y-51329D01*
X47776Y-51377D01*
X47776Y-50948D02*
X47276Y-50948D01*
X47276Y-50758D01*
X47300Y-50710D01*
X47323Y-50686D01*
X47371Y-50662D01*
X47442Y-50662D01*
X47490Y-50686D01*
X47514Y-50710D01*
X47538Y-50758D01*
X47538Y-50948D01*
X47276Y-50496D02*
X47276Y-50186D01*
X47466Y-50353D01*
X47466Y-50281D01*
X47490Y-50234D01*
X47514Y-50210D01*
X47561Y-50186D01*
X47680Y-50186D01*
X47728Y-50210D01*
X47752Y-50234D01*
X47776Y-50281D01*
X47776Y-50424D01*
X47752Y-50472D01*
X47728Y-50496D01*
X50633Y-53543D02*
X50633Y-53305D01*
X50776Y-53591D02*
X50276Y-53424D01*
X50776Y-53258D01*
X50276Y-53162D02*
X50776Y-52996D01*
X50276Y-52829D01*
X50776Y-52377D02*
X50538Y-52543D01*
X50776Y-52662D02*
X50276Y-52662D01*
X50276Y-52472D01*
X50300Y-52424D01*
X50323Y-52400D01*
X50371Y-52377D01*
X50442Y-52377D01*
X50490Y-52400D01*
X50514Y-52424D01*
X50538Y-52472D01*
X50538Y-52662D01*
X50585Y-52162D02*
X50585Y-51781D01*
X50276Y-51400D02*
X50633Y-51400D01*
X50704Y-51424D01*
X50752Y-51472D01*
X50776Y-51543D01*
X50776Y-51591D01*
X50276Y-51234D02*
X50276Y-50948D01*
X50776Y-51091D02*
X50276Y-51091D01*
X50633Y-50805D02*
X50633Y-50567D01*
X50776Y-50853D02*
X50276Y-50686D01*
X50776Y-50520D01*
X50300Y-50091D02*
X50276Y-50139D01*
X50276Y-50210D01*
X50300Y-50281D01*
X50347Y-50329D01*
X50395Y-50353D01*
X50490Y-50377D01*
X50561Y-50377D01*
X50657Y-50353D01*
X50704Y-50329D01*
X50752Y-50281D01*
X50776Y-50210D01*
X50776Y-50162D01*
X50752Y-50091D01*
X50728Y-50067D01*
X50561Y-50067D01*
X50561Y-50162D01*
X50585Y-49853D02*
X50585Y-49472D01*
X50776Y-48972D02*
X50776Y-49258D01*
X50776Y-49115D02*
X50276Y-49115D01*
X50347Y-49162D01*
X50395Y-49210D01*
X50419Y-49258D01*
X50276Y-48662D02*
X50276Y-48615D01*
X50300Y-48567D01*
X50323Y-48543D01*
X50371Y-48520D01*
X50466Y-48496D01*
X50585Y-48496D01*
X50680Y-48520D01*
X50728Y-48543D01*
X50752Y-48567D01*
X50776Y-48615D01*
X50776Y-48662D01*
X50752Y-48710D01*
X50728Y-48734D01*
X50680Y-48758D01*
X50585Y-48781D01*
X50466Y-48781D01*
X50371Y-48758D01*
X50323Y-48734D01*
X50300Y-48710D01*
X50276Y-48662D01*
X58245Y-33724D02*
X57992Y-33976D01*
X57925Y-34010D01*
X57858Y-34010D01*
X57790Y-33976D01*
X57757Y-33943D01*
X58060Y-34246D02*
X58413Y-33892D01*
X58548Y-34027D01*
X58565Y-34077D01*
X58565Y-34111D01*
X58548Y-34162D01*
X58497Y-34212D01*
X58447Y-34229D01*
X58413Y-34229D01*
X58363Y-34212D01*
X58228Y-34077D01*
X58598Y-34785D02*
X58396Y-34582D01*
X58497Y-34684D02*
X58851Y-34330D01*
X58767Y-34347D01*
X58700Y-34347D01*
X58649Y-34330D01*
X57332Y-36905D02*
X57551Y-37124D01*
X57299Y-37141D01*
X57349Y-37192D01*
X57366Y-37242D01*
X57366Y-37276D01*
X57349Y-37326D01*
X57265Y-37411D01*
X57215Y-37427D01*
X57181Y-37427D01*
X57130Y-37411D01*
X57029Y-37310D01*
X57013Y-37259D01*
X57013Y-37225D01*
X58107Y-37916D02*
X57871Y-38151D01*
X58157Y-37697D02*
X57821Y-37865D01*
X58040Y-38084D01*
X55240Y-35897D02*
X55408Y-36267D01*
X55038Y-36099D01*
X55745Y-36166D02*
X55509Y-36638D01*
X55981Y-36402D01*
X55829Y-36756D02*
X55997Y-36924D01*
X55694Y-36823D02*
X56166Y-36587D01*
X55930Y-37059D01*
X56216Y-37345D02*
X56048Y-37177D01*
X56401Y-36823D01*
X56688Y-37109D02*
X56401Y-37395D01*
X56385Y-37446D01*
X56385Y-37480D01*
X56401Y-37530D01*
X56469Y-37597D01*
X56519Y-37614D01*
X56553Y-37614D01*
X56603Y-37597D01*
X56890Y-37311D01*
X56890Y-37648D02*
X57008Y-37766D01*
X56873Y-38001D02*
X56705Y-37833D01*
X57058Y-37480D01*
X57226Y-37648D01*
X67583Y-38957D02*
X67583Y-38563D01*
X67677Y-38563D01*
X67733Y-38582D01*
X67770Y-38620D01*
X67789Y-38657D01*
X67808Y-38732D01*
X67808Y-38788D01*
X67789Y-38863D01*
X67770Y-38901D01*
X67733Y-38938D01*
X67677Y-38957D01*
X67583Y-38957D01*
X68183Y-38957D02*
X67958Y-38957D01*
X68070Y-38957D02*
X68070Y-38563D01*
X68033Y-38620D01*
X67995Y-38657D01*
X67958Y-38676D01*
X51210Y-58558D02*
X50710Y-58558D01*
X50710Y-58438D01*
X50734Y-58367D01*
X50781Y-58319D01*
X50829Y-58296D01*
X50924Y-58272D01*
X50996Y-58272D01*
X51091Y-58296D01*
X51139Y-58319D01*
X51186Y-58367D01*
X51210Y-58438D01*
X51210Y-58558D01*
X50710Y-58105D02*
X50710Y-57796D01*
X50900Y-57962D01*
X50900Y-57891D01*
X50924Y-57843D01*
X50948Y-57819D01*
X50996Y-57796D01*
X51115Y-57796D01*
X51162Y-57819D01*
X51186Y-57843D01*
X51210Y-57891D01*
X51210Y-58034D01*
X51186Y-58081D01*
X51162Y-58105D01*
X58952Y-32185D02*
X59176Y-32185D01*
X59064Y-32579D02*
X59064Y-32185D01*
X59514Y-32579D02*
X59289Y-32579D01*
X59401Y-32579D02*
X59401Y-32185D01*
X59364Y-32242D01*
X59326Y-32279D01*
X59289Y-32298D01*
X60507Y-32793D02*
X60530Y-32770D01*
X60578Y-32746D01*
X60697Y-32746D01*
X60745Y-32770D01*
X60769Y-32793D01*
X60792Y-32841D01*
X60792Y-32889D01*
X60769Y-32960D01*
X60483Y-33246D01*
X60792Y-33246D01*
X61083Y-32496D02*
X61392Y-32496D01*
X61226Y-32686D01*
X61297Y-32686D01*
X61345Y-32710D01*
X61369Y-32734D01*
X61392Y-32781D01*
X61392Y-32900D01*
X61369Y-32948D01*
X61345Y-32972D01*
X61297Y-32996D01*
X61154Y-32996D01*
X61107Y-32972D01*
X61083Y-32948D01*
X60092Y-32996D02*
X59807Y-32996D01*
X59950Y-32996D02*
X59950Y-32496D01*
X59902Y-32567D01*
X59854Y-32615D01*
X59807Y-32639D01*
X64581Y-36004D02*
X64806Y-36004D01*
X64694Y-36398D02*
X64694Y-36004D01*
X64919Y-36042D02*
X64938Y-36023D01*
X64975Y-36004D01*
X65069Y-36004D01*
X65106Y-36023D01*
X65125Y-36042D01*
X65144Y-36079D01*
X65144Y-36117D01*
X65125Y-36173D01*
X64900Y-36398D01*
X65144Y-36398D01*
X64262Y-35576D02*
X63977Y-35576D01*
X64120Y-35576D02*
X64120Y-35076D01*
X64072Y-35147D01*
X64024Y-35195D01*
X63977Y-35219D01*
X62977Y-35123D02*
X63000Y-35100D01*
X63048Y-35076D01*
X63167Y-35076D01*
X63215Y-35100D01*
X63239Y-35123D01*
X63262Y-35171D01*
X63262Y-35219D01*
X63239Y-35290D01*
X62953Y-35576D01*
X63262Y-35576D01*
X63203Y-35826D02*
X63512Y-35826D01*
X63346Y-36016D01*
X63417Y-36016D01*
X63465Y-36040D01*
X63489Y-36064D01*
X63512Y-36111D01*
X63512Y-36230D01*
X63489Y-36278D01*
X63465Y-36302D01*
X63417Y-36326D01*
X63274Y-36326D01*
X63227Y-36302D01*
X63203Y-36278D01*
X68140Y-30867D02*
X68140Y-31225D01*
X68116Y-31296D01*
X68068Y-31344D01*
X67997Y-31367D01*
X67949Y-31367D01*
X68640Y-31367D02*
X68354Y-31367D01*
X68497Y-31367D02*
X68497Y-30867D01*
X68449Y-30939D01*
X68402Y-30986D01*
X68354Y-31010D01*
X51601Y-37445D02*
X51853Y-37698D01*
X51887Y-37765D01*
X51887Y-37832D01*
X51853Y-37900D01*
X51820Y-37933D01*
X52123Y-37630D02*
X51769Y-37277D01*
X51904Y-37142D01*
X51954Y-37125D01*
X51988Y-37125D01*
X52039Y-37142D01*
X52089Y-37193D01*
X52106Y-37243D01*
X52106Y-37277D01*
X52089Y-37327D01*
X51954Y-37462D01*
X52140Y-36974D02*
X52140Y-36940D01*
X52156Y-36890D01*
X52241Y-36805D01*
X52291Y-36789D01*
X52325Y-36789D01*
X52375Y-36805D01*
X52409Y-36839D01*
X52443Y-36906D01*
X52443Y-37310D01*
X52661Y-37092D01*
X53899Y-57975D02*
X54256Y-57975D01*
X54327Y-57999D01*
X54375Y-58047D01*
X54399Y-58118D01*
X54399Y-58166D01*
X54399Y-57737D02*
X53899Y-57737D01*
X53899Y-57547D01*
X53923Y-57499D01*
X53947Y-57475D01*
X53994Y-57451D01*
X54066Y-57451D01*
X54113Y-57475D01*
X54137Y-57499D01*
X54161Y-57547D01*
X54161Y-57737D01*
X53899Y-57023D02*
X53899Y-57118D01*
X53923Y-57166D01*
X53947Y-57190D01*
X54018Y-57237D01*
X54113Y-57261D01*
X54304Y-57261D01*
X54351Y-57237D01*
X54375Y-57213D01*
X54399Y-57166D01*
X54399Y-57070D01*
X54375Y-57023D01*
X54351Y-56999D01*
X54304Y-56975D01*
X54185Y-56975D01*
X54137Y-56999D01*
X54113Y-57023D01*
X54089Y-57070D01*
X54089Y-57166D01*
X54113Y-57213D01*
X54137Y-57237D01*
X54185Y-57261D01*
M02*
