M48
INCH,TZ
T1C0.010
T2C0.024
T3C0.028
T4C0.032
T5C0.033
T6C0.036
T7C0.040
%
G90
G05
T1
X48310Y-46585
X48350Y-41700
X48455Y-43415
X48470Y-40260
X48500Y-36320
X48680Y-54820
X48720Y-39520
X48895Y-46145
X49030Y-42940
X49075Y-44300
X49100Y-39900
X49130Y-35360
X49154Y-38012
X49295Y-47010
X49528Y-33740
X50010Y-45270
X50030Y-43790
X50075Y-46285
X50240Y-40200
X50300Y-44150
X50530Y-56150
X50570Y-55340
X50575Y-47300
X50630Y-34843
X50640Y-45130
X50650Y-43950
X50669Y-48258
X50690Y-44370
X50840Y-37280
X50840Y-43340
X50850Y-42410
X51102Y-50089
X51120Y-33330
X51180Y-53295
X51250Y-40443
X51300Y-43650
X51320Y-46610
X51460Y-42020
X51490Y-46220
X51535Y-51299
X51545Y-45138
X51594Y-54911
X51600Y-58630
X51960Y-53310
X52008Y-32057
X52090Y-52830
X52293Y-46535
X52300Y-43900
X52340Y-47800
X52362Y-45915
X52411Y-49921
X52451Y-58356
X52520Y-38386
X52600Y-51750
X52605Y-50680
X53071Y-46132
X53190Y-34360
X53260Y-43440
X53474Y-44242
X53600Y-43925
X53840Y-44650
X54016Y-45807
X54272Y-44970
X54323Y-48240
X54358Y-47886
X54358Y-48543
X54398Y-47539
X54409Y-51205
X54461Y-50783
X54563Y-51992
X54665Y-52335
X54969Y-52457
X55100Y-47800
X55236Y-52654
X55275Y-46825
X55275Y-47150
X55280Y-50305
X55300Y-45425
X55300Y-46550
X55300Y-47600
X55443Y-34774
X55457Y-52878
X55600Y-35669
X55660Y-42230
X55689Y-53102
X55720Y-43941
X55906Y-56437
X55921Y-44087
X56024Y-43327
X56033Y-41004
X56033Y-41319
X56310Y-40325
X56339Y-32175
X56346Y-53772
X56388Y-33199
X56429Y-44437
X56575Y-53984
X56713Y-36506
X56730Y-41960
X56732Y-41614
X56732Y-44866
X56791Y-54217
X57004Y-54398
X57024Y-45465
X57189Y-54594
X57215Y-55778
X57362Y-37953
X57362Y-44894
X57421Y-54921
X57431Y-55541
X57510Y-55226
X57669Y-45461
X57996Y-44866
X58051Y-32726
X58307Y-45484
X58396Y-38130
X58583Y-44874
X58740Y-46972
X58750Y-34459
X58902Y-44870
X58940Y-40750
X59134Y-56742
X59252Y-44902
X59310Y-53870
X59341Y-34528
X59390Y-46929
X59400Y-35522
X59429Y-39980
X59567Y-44921
X59646Y-47244
X59646Y-48843
X59665Y-53425
X59685Y-35354
X59685Y-39980
X59921Y-39260
X60170Y-33280
X60226Y-39931
X60364Y-36289
X60374Y-54016
X60384Y-55089
X60540Y-40380
X60610Y-37579
X60620Y-53770
X60669Y-55335
X60725Y-48275
X60785Y-36325
X60800Y-53500
X60866Y-41063
X60878Y-40693
X60886Y-43533
X60895Y-42000
X60905Y-39705
X60950Y-48550
X60965Y-55581
X61083Y-53386
X61093Y-56457
X61102Y-57825
X61112Y-55896
X61112Y-57067
X61112Y-58563
X61122Y-48819
X61200Y-49900
X61395Y-50180
X61400Y-51800
X61417Y-49075
X61457Y-52858
X61600Y-44800
X61600Y-51600
X61614Y-53406
X61673Y-34902
X61805Y-53160
X61850Y-51348
X62126Y-35354
X62431Y-32372
X62470Y-51270
X62580Y-36110
X62630Y-43720
X62803Y-49772
X62921Y-50161
X63059Y-50512
X63260Y-32290
X63295Y-33690
X63450Y-37310
X63602Y-57224
X63700Y-48275
X63725Y-48525
X63740Y-40770
X64005Y-53195
X64016Y-55512
X64285Y-52325
X64300Y-39345
X64315Y-34420
X64580Y-34800
X64835Y-51995
X64941Y-41585
X65079Y-53701
X65148Y-54203
X65197Y-54508
X65531Y-53071
X65551Y-50020
X65560Y-54770
X65630Y-43740
X65700Y-34610
X65719Y-57992
X65750Y-45240
X65807Y-35522
X66110Y-52290
X66360Y-55470
X66496Y-52776
X66555Y-44770
X66730Y-52050
X66780Y-48410
X66900Y-54100
X67050Y-33230
X67100Y-53900
X67303Y-52980
X67600Y-56500
X67638Y-50699
X67780Y-58300
X67990Y-36390
X68031Y-56280
X68640Y-37390
X68789Y-35581
T3
X52074Y-38275
X52353Y-38832
X52770Y-37579
X52910Y-38275
X52965Y-39166
X53244Y-39723
X53327Y-37022
X53466Y-37718
X53661Y-38470
X53800Y-39166
X54023Y-36326
X54023Y-37162
X54218Y-37913
X54357Y-38609
X54580Y-36605
X54914Y-37217
X54914Y-38052
X55471Y-37496
T4
X60150Y-32520
X60650Y-33270
X61150Y-32520
X63120Y-35100
X63120Y-36100
X64120Y-35100
T5
X57606Y-57205
X59575Y-57205
T6
X51276Y-36885
X51983Y-36178
X53311Y-56969
X53311Y-57969
X56444Y-35131
X57151Y-34424
X57151Y-35839
X57858Y-35131
X57858Y-36546
X58565Y-35839
X58565Y-37253
X59272Y-36546
X67810Y-32330
X68810Y-32330
X68878Y-55281
X68878Y-56281
X68878Y-57281
X68878Y-58281
T7
X48550Y-50020
X48550Y-51020
X48550Y-52020
X48550Y-53020
X48550Y-54020
X49550Y-50020
X49550Y-51020
X49550Y-52020
X49550Y-53020
X49550Y-54020
X67500Y-46400
X67500Y-47400
X67500Y-48400
X68500Y-46400
X68500Y-47400
X68500Y-48400
T2
X57213Y-58130G85X57213Y-58406
G05
X59969Y-58130G85X59969Y-58406
G05
T0
M30
