%FSLAX34Y34*%
G04 Gerber Fmt 3.4, Leading zero omitted, Abs format*
G04 (created by PCBNEW (2014-03-19 BZR 4756)-product) date Sat 09 Aug 2014 12:53:28 PM PDT*
%MOIN*%
G01*
G70*
G90*
G04 APERTURE LIST*
%ADD10C,0.005906*%
%ADD11C,0.014000*%
%ADD12O,0.094488X0.074803*%
%ADD13C,0.057087*%
%ADD14C,0.035433*%
%ADD15R,0.060000X0.060000*%
%ADD16C,0.060000*%
%ADD17O,0.112000X0.056000*%
%ADD18C,0.056000*%
%ADD19C,0.052000*%
%ADD20C,0.070866*%
%ADD21C,0.020000*%
%ADD22C,0.018000*%
%ADD23C,0.010000*%
%ADD24C,0.008000*%
%ADD25C,0.005000*%
G04 APERTURE END LIST*
G54D10*
G54D11*
X49527Y-33740D03*
G54D12*
X59968Y-58267D03*
X57212Y-58267D03*
G54D13*
X57606Y-57204D03*
X59574Y-57204D03*
G54D14*
X53243Y-39722D03*
X53800Y-39165D03*
X54357Y-38609D03*
X54913Y-38052D03*
X55470Y-37495D03*
X54913Y-37217D03*
X54218Y-37913D03*
X53661Y-38469D03*
X52965Y-39165D03*
X52074Y-38275D03*
X52770Y-37579D03*
X53327Y-37022D03*
X54023Y-36326D03*
X54579Y-36604D03*
X54023Y-37161D03*
X53466Y-37718D03*
X52909Y-38275D03*
X52352Y-38831D03*
G54D15*
X68500Y-48400D03*
G54D16*
X67500Y-48400D03*
X68500Y-47400D03*
X67500Y-47400D03*
X68500Y-46400D03*
X67500Y-46400D03*
G54D17*
X68877Y-58281D03*
X68877Y-57281D03*
X68877Y-56281D03*
X68877Y-55281D03*
G54D15*
X48550Y-50020D03*
G54D16*
X49550Y-50020D03*
X48550Y-51020D03*
X49550Y-51020D03*
X48550Y-52020D03*
X49550Y-52020D03*
X48550Y-53020D03*
X49550Y-53020D03*
X48550Y-54020D03*
X49550Y-54020D03*
G54D18*
X56444Y-35131D03*
X57151Y-34424D03*
X57151Y-35838D03*
X57858Y-35131D03*
X57858Y-36545D03*
X58565Y-35838D03*
X58565Y-37252D03*
X59272Y-36545D03*
G54D19*
X60150Y-32520D03*
X60650Y-33270D03*
X61150Y-32520D03*
X64120Y-35100D03*
X63120Y-35100D03*
X63120Y-36100D03*
G54D20*
X68810Y-32330D03*
X67810Y-32330D03*
X51983Y-36177D03*
X51276Y-36885D03*
X53311Y-57968D03*
X53311Y-56968D03*
G54D11*
X52450Y-58356D03*
X52007Y-32057D03*
X58051Y-32726D03*
X65807Y-35521D03*
X56387Y-33198D03*
X61673Y-34901D03*
X62125Y-35354D03*
X58750Y-34458D03*
X59340Y-34527D03*
X59399Y-35521D03*
X60610Y-37578D03*
X60364Y-36289D03*
X64940Y-41584D03*
X65551Y-50019D03*
X61112Y-58562D03*
X61102Y-57824D03*
X61112Y-57066D03*
X61092Y-56456D03*
X61112Y-55895D03*
X60964Y-55580D03*
X60669Y-55334D03*
X60383Y-55088D03*
X57509Y-55226D03*
X57431Y-55541D03*
X57214Y-55777D03*
X65718Y-57992D03*
X51594Y-54911D03*
X51535Y-51299D03*
X51102Y-50088D03*
X52411Y-49921D03*
X50669Y-48257D03*
X52293Y-46535D03*
X51545Y-45137D03*
X52362Y-45915D03*
X54015Y-45807D03*
X53070Y-46131D03*
X53474Y-44242D03*
X54271Y-44970D03*
X63602Y-57224D03*
X64015Y-55511D03*
X67637Y-50698D03*
X65629Y-43740D03*
X68789Y-35580D03*
X62431Y-32372D03*
X56338Y-32175D03*
X55442Y-34773D03*
X49153Y-38011D03*
X57362Y-37952D03*
X58395Y-38129D03*
X55600Y-35669D03*
X56712Y-36505D03*
X51250Y-40442D03*
G54D21*
X52519Y-38385D03*
X50629Y-34842D03*
X50840Y-43340D03*
X50030Y-43790D03*
X59685Y-35354D03*
X67050Y-33230D03*
X67990Y-36390D03*
X63450Y-37310D03*
X65750Y-45240D03*
X66780Y-48410D03*
X66730Y-52050D03*
X66110Y-52290D03*
X66360Y-55470D03*
X67780Y-58300D03*
X65560Y-54770D03*
X51460Y-42020D03*
X50850Y-42410D03*
X51320Y-46610D03*
X50010Y-45270D03*
X48680Y-54820D03*
X64300Y-39345D03*
X63740Y-40770D03*
X60785Y-36325D03*
X51180Y-53295D03*
X51960Y-53310D03*
X52090Y-52830D03*
X52340Y-47800D03*
X52605Y-50680D03*
X64285Y-52325D03*
X64580Y-34800D03*
X65700Y-34610D03*
X68640Y-37390D03*
X51600Y-58630D03*
X48500Y-36320D03*
X63260Y-32290D03*
X64315Y-34420D03*
X63295Y-33690D03*
X59133Y-56742D03*
X61805Y-53160D03*
X55280Y-50305D03*
X66555Y-44770D03*
X60895Y-42000D03*
X60905Y-39705D03*
X61395Y-50180D03*
X48895Y-46145D03*
X48310Y-46585D03*
X56310Y-40325D03*
X55660Y-42230D03*
X64005Y-53195D03*
X64835Y-51995D03*
G54D22*
X61400Y-51800D03*
X61200Y-49900D03*
X53190Y-34360D03*
G54D21*
X51120Y-33330D03*
X62580Y-36110D03*
X49130Y-35360D03*
G54D22*
X66900Y-54100D03*
X67600Y-56500D03*
X68031Y-56279D03*
X65531Y-53070D03*
X50075Y-46285D03*
X58940Y-40750D03*
X50240Y-40200D03*
X49030Y-42940D03*
X49295Y-47010D03*
X48455Y-43415D03*
X55100Y-47800D03*
X50575Y-47300D03*
X51490Y-46220D03*
X59310Y-53870D03*
X50690Y-44370D03*
X49075Y-44300D03*
X55300Y-47600D03*
G54D21*
X50640Y-45130D03*
G54D22*
X55275Y-46825D03*
X51300Y-43650D03*
X52300Y-43900D03*
X50300Y-44150D03*
X55275Y-47150D03*
X50650Y-43950D03*
G54D11*
X56033Y-41318D03*
X56033Y-41003D03*
X56732Y-41614D03*
X56730Y-41960D03*
G54D22*
X53600Y-43925D03*
X55300Y-45425D03*
X53260Y-43440D03*
X49100Y-39900D03*
X50840Y-37280D03*
X48720Y-39520D03*
X54322Y-48240D03*
X54358Y-48543D03*
X54397Y-47539D03*
X63700Y-48275D03*
X60725Y-48275D03*
X59645Y-48842D03*
X52600Y-51750D03*
X54358Y-47885D03*
X58582Y-44874D03*
X54409Y-51204D03*
X54460Y-50783D03*
X58307Y-45484D03*
X61600Y-51600D03*
X61600Y-44800D03*
G54D11*
X53840Y-44650D03*
G54D22*
X48470Y-40260D03*
X60170Y-33280D03*
X55300Y-46550D03*
X48350Y-41700D03*
X50530Y-56150D03*
X57188Y-54594D03*
X50570Y-55340D03*
X57003Y-54397D03*
X55905Y-56437D03*
X57421Y-54921D03*
X60226Y-39931D03*
X59665Y-53425D03*
X56791Y-54216D03*
X56023Y-43326D03*
X56574Y-53984D03*
X55720Y-43940D03*
X56346Y-53771D03*
X55921Y-44086D03*
X55688Y-53102D03*
X56429Y-44437D03*
X55456Y-52877D03*
X56732Y-44866D03*
X55236Y-52653D03*
X57023Y-45464D03*
G54D21*
X54968Y-52456D03*
X57362Y-44893D03*
G54D22*
X54665Y-52334D03*
X57669Y-45460D03*
X54562Y-51992D03*
X57996Y-44866D03*
X58901Y-44870D03*
X58740Y-46972D03*
X59389Y-46929D03*
X59251Y-44901D03*
X59566Y-44921D03*
X59645Y-47244D03*
X61850Y-51348D03*
X60885Y-43533D03*
X62470Y-51269D03*
X60866Y-41062D03*
X60877Y-40692D03*
X63059Y-50511D03*
X62921Y-50161D03*
X62630Y-43720D03*
X60540Y-40380D03*
X59921Y-39259D03*
X62803Y-49771D03*
X61417Y-49074D03*
X59685Y-39980D03*
X61122Y-48818D03*
X59429Y-39980D03*
X60374Y-54015D03*
X65196Y-54507D03*
X65147Y-54202D03*
X60620Y-53769D03*
X60800Y-53500D03*
X67100Y-53900D03*
X65078Y-53700D03*
X61082Y-53385D03*
X66496Y-52775D03*
X61614Y-53405D03*
X61456Y-52858D03*
X67303Y-52980D03*
X60950Y-48550D03*
X63725Y-48525D03*
G54D23*
X63450Y-37310D02*
X63440Y-37320D01*
X55280Y-50305D02*
X55280Y-50300D01*
X61395Y-50180D02*
X61405Y-50170D01*
X61405Y-50170D02*
X61405Y-50165D01*
X48895Y-46145D02*
X48455Y-46585D01*
X48455Y-46585D02*
X48310Y-46585D01*
X56310Y-40325D02*
X55660Y-40975D01*
X55660Y-40975D02*
X55660Y-42230D01*
G54D24*
X53466Y-37633D02*
X53680Y-37420D01*
X53680Y-37420D02*
X53680Y-36610D01*
X53680Y-36610D02*
X53190Y-36120D01*
X53190Y-36120D02*
X53190Y-34360D01*
X53466Y-37718D02*
X53466Y-37633D01*
G54D23*
X52714Y-39165D02*
X52610Y-39270D01*
X52610Y-39270D02*
X52090Y-39270D01*
X52090Y-39270D02*
X51650Y-38830D01*
X51650Y-38830D02*
X51650Y-38530D01*
X51650Y-38530D02*
X49130Y-36010D01*
X52965Y-39165D02*
X52714Y-39165D01*
X49130Y-36010D02*
X49130Y-35360D01*
G54D24*
X50930Y-45940D02*
X50585Y-46285D01*
X50585Y-46285D02*
X50075Y-46285D01*
X58940Y-40750D02*
X56780Y-42910D01*
X56780Y-42910D02*
X56780Y-43750D01*
X56780Y-43750D02*
X56060Y-44470D01*
X56060Y-44470D02*
X54360Y-44470D01*
X54360Y-44470D02*
X53270Y-45560D01*
X53270Y-45560D02*
X51320Y-45560D01*
X51320Y-45560D02*
X50940Y-45940D01*
X50940Y-45940D02*
X50930Y-45940D01*
X51490Y-46220D02*
X59140Y-53870D01*
X59140Y-53870D02*
X59310Y-53870D01*
G54D25*
X55240Y-36170D02*
X55240Y-35626D01*
X55240Y-36390D02*
X55240Y-36170D01*
X54590Y-37040D02*
X55240Y-36390D01*
X54590Y-37660D02*
X54590Y-37040D01*
X54913Y-37983D02*
X54590Y-37660D01*
X56441Y-34424D02*
X57151Y-34424D01*
X55240Y-35626D02*
X56441Y-34424D01*
X54913Y-38052D02*
X54913Y-37983D01*
X55884Y-37495D02*
X56205Y-37495D01*
X55470Y-37495D02*
X55884Y-37495D01*
X57858Y-35842D02*
X57858Y-35131D01*
X56205Y-37495D02*
X57858Y-35842D01*
X58565Y-35838D02*
X58565Y-36513D01*
X56771Y-41614D02*
X56732Y-41614D01*
X58014Y-40371D02*
X56771Y-41614D01*
X58014Y-37064D02*
X58014Y-40371D01*
X58565Y-36513D02*
X58014Y-37064D01*
X56730Y-41960D02*
X56730Y-41931D01*
X59272Y-37656D02*
X59272Y-36545D01*
X58188Y-38740D02*
X59272Y-37656D01*
X58188Y-40472D02*
X58188Y-38740D01*
X56730Y-41931D02*
X58188Y-40472D01*
G54D24*
X60725Y-48275D02*
X63700Y-48275D01*
X59645Y-48842D02*
X59665Y-48862D01*
G54D25*
X53327Y-37292D02*
X53110Y-37510D01*
X53110Y-37510D02*
X53110Y-37940D01*
X53110Y-37940D02*
X53260Y-38090D01*
X53260Y-38090D02*
X53260Y-38920D01*
X53260Y-38920D02*
X53410Y-39070D01*
X53410Y-39070D02*
X53410Y-39330D01*
X53410Y-39330D02*
X53590Y-39510D01*
X53590Y-39510D02*
X53590Y-43210D01*
X53590Y-43210D02*
X54330Y-43950D01*
X54330Y-43950D02*
X54330Y-44160D01*
X54330Y-44160D02*
X53840Y-44650D01*
X53327Y-37022D02*
X53327Y-37292D01*
G54D24*
X62630Y-43720D02*
X62050Y-43140D01*
X62050Y-43140D02*
X62050Y-40770D01*
X62050Y-40770D02*
X61660Y-40380D01*
X61660Y-40380D02*
X60540Y-40380D01*
X60950Y-48550D02*
X60975Y-48525D01*
X60975Y-48525D02*
X63725Y-48525D01*
G54D10*
G36*
X69390Y-58750D02*
X68030Y-58750D01*
X68030Y-58250D01*
X67992Y-58158D01*
X67921Y-58088D01*
X67840Y-58054D01*
X67840Y-56452D01*
X67803Y-56364D01*
X67736Y-56296D01*
X67647Y-56260D01*
X67552Y-56259D01*
X67543Y-56263D01*
X67543Y-52932D01*
X67506Y-52844D01*
X67439Y-52776D01*
X67351Y-52740D01*
X67255Y-52740D01*
X67167Y-52776D01*
X67099Y-52844D01*
X67063Y-52932D01*
X67063Y-53027D01*
X67099Y-53116D01*
X67167Y-53183D01*
X67255Y-53220D01*
X67350Y-53220D01*
X67438Y-53183D01*
X67506Y-53116D01*
X67543Y-53028D01*
X67543Y-52932D01*
X67543Y-56263D01*
X67464Y-56296D01*
X67396Y-56363D01*
X67360Y-56452D01*
X67359Y-56547D01*
X67396Y-56635D01*
X67463Y-56703D01*
X67552Y-56739D01*
X67647Y-56740D01*
X67735Y-56703D01*
X67803Y-56636D01*
X67839Y-56547D01*
X67840Y-56452D01*
X67840Y-58054D01*
X67829Y-58050D01*
X67730Y-58049D01*
X67638Y-58087D01*
X67568Y-58158D01*
X67530Y-58250D01*
X67529Y-58349D01*
X67567Y-58441D01*
X67638Y-58511D01*
X67730Y-58549D01*
X67829Y-58550D01*
X67921Y-58512D01*
X67991Y-58441D01*
X68029Y-58349D01*
X68030Y-58250D01*
X68030Y-58750D01*
X67340Y-58750D01*
X67340Y-53852D01*
X67303Y-53764D01*
X67236Y-53696D01*
X67147Y-53660D01*
X67052Y-53659D01*
X67030Y-53669D01*
X67030Y-48360D01*
X66992Y-48268D01*
X66921Y-48198D01*
X66829Y-48160D01*
X66730Y-48159D01*
X66638Y-48197D01*
X66568Y-48268D01*
X66530Y-48360D01*
X66529Y-48459D01*
X66567Y-48551D01*
X66638Y-48621D01*
X66730Y-48659D01*
X66829Y-48660D01*
X66921Y-48622D01*
X66991Y-48551D01*
X67029Y-48459D01*
X67030Y-48360D01*
X67030Y-53669D01*
X66980Y-53689D01*
X66980Y-52000D01*
X66942Y-51908D01*
X66871Y-51838D01*
X66779Y-51800D01*
X66680Y-51799D01*
X66588Y-51837D01*
X66518Y-51908D01*
X66480Y-52000D01*
X66479Y-52099D01*
X66517Y-52191D01*
X66588Y-52261D01*
X66680Y-52299D01*
X66779Y-52300D01*
X66871Y-52262D01*
X66941Y-52191D01*
X66979Y-52099D01*
X66980Y-52000D01*
X66980Y-53689D01*
X66964Y-53696D01*
X66896Y-53763D01*
X66860Y-53852D01*
X66860Y-53859D01*
X66852Y-53859D01*
X66764Y-53896D01*
X66736Y-53924D01*
X66736Y-52728D01*
X66699Y-52639D01*
X66632Y-52572D01*
X66544Y-52535D01*
X66448Y-52535D01*
X66360Y-52572D01*
X66360Y-52572D01*
X66360Y-52240D01*
X66322Y-52148D01*
X66251Y-52078D01*
X66159Y-52040D01*
X66060Y-52039D01*
X66027Y-52053D01*
X66027Y-35478D01*
X65993Y-35397D01*
X65950Y-35353D01*
X65950Y-34560D01*
X65912Y-34468D01*
X65841Y-34398D01*
X65749Y-34360D01*
X65650Y-34359D01*
X65558Y-34397D01*
X65488Y-34468D01*
X65450Y-34560D01*
X65449Y-34659D01*
X65487Y-34751D01*
X65558Y-34821D01*
X65650Y-34859D01*
X65749Y-34860D01*
X65841Y-34822D01*
X65911Y-34751D01*
X65949Y-34659D01*
X65950Y-34560D01*
X65950Y-35353D01*
X65931Y-35335D01*
X65851Y-35301D01*
X65763Y-35301D01*
X65682Y-35335D01*
X65620Y-35396D01*
X65587Y-35477D01*
X65587Y-35565D01*
X65620Y-35646D01*
X65682Y-35708D01*
X65763Y-35741D01*
X65850Y-35741D01*
X65931Y-35708D01*
X65993Y-35646D01*
X66027Y-35565D01*
X66027Y-35478D01*
X66027Y-52053D01*
X66000Y-52064D01*
X66000Y-45190D01*
X65962Y-45098D01*
X65891Y-45028D01*
X65849Y-45010D01*
X65849Y-43696D01*
X65816Y-43615D01*
X65754Y-43553D01*
X65673Y-43520D01*
X65586Y-43520D01*
X65505Y-43553D01*
X65443Y-43615D01*
X65409Y-43696D01*
X65409Y-43783D01*
X65443Y-43864D01*
X65505Y-43926D01*
X65585Y-43960D01*
X65673Y-43960D01*
X65754Y-43926D01*
X65816Y-43864D01*
X65849Y-43784D01*
X65849Y-43696D01*
X65849Y-45010D01*
X65799Y-44990D01*
X65700Y-44989D01*
X65608Y-45027D01*
X65538Y-45098D01*
X65500Y-45190D01*
X65499Y-45289D01*
X65537Y-45381D01*
X65608Y-45451D01*
X65700Y-45489D01*
X65799Y-45490D01*
X65891Y-45452D01*
X65961Y-45381D01*
X65999Y-45289D01*
X66000Y-45190D01*
X66000Y-52064D01*
X65968Y-52077D01*
X65898Y-52148D01*
X65860Y-52240D01*
X65859Y-52339D01*
X65897Y-52431D01*
X65968Y-52501D01*
X66060Y-52539D01*
X66159Y-52540D01*
X66251Y-52502D01*
X66321Y-52431D01*
X66359Y-52339D01*
X66360Y-52240D01*
X66360Y-52572D01*
X66292Y-52639D01*
X66256Y-52727D01*
X66256Y-52823D01*
X66292Y-52911D01*
X66359Y-52978D01*
X66448Y-53015D01*
X66543Y-53015D01*
X66631Y-52979D01*
X66699Y-52911D01*
X66736Y-52823D01*
X66736Y-52728D01*
X66736Y-53924D01*
X66696Y-53963D01*
X66660Y-54052D01*
X66659Y-54147D01*
X66696Y-54235D01*
X66763Y-54303D01*
X66852Y-54339D01*
X66947Y-54340D01*
X67035Y-54303D01*
X67103Y-54236D01*
X67139Y-54147D01*
X67139Y-54140D01*
X67147Y-54140D01*
X67235Y-54103D01*
X67303Y-54036D01*
X67339Y-53947D01*
X67340Y-53852D01*
X67340Y-58750D01*
X66610Y-58750D01*
X66610Y-55420D01*
X66572Y-55328D01*
X66501Y-55258D01*
X66409Y-55220D01*
X66310Y-55219D01*
X66218Y-55257D01*
X66148Y-55328D01*
X66110Y-55420D01*
X66109Y-55519D01*
X66147Y-55611D01*
X66218Y-55681D01*
X66310Y-55719D01*
X66409Y-55720D01*
X66501Y-55682D01*
X66571Y-55611D01*
X66609Y-55519D01*
X66610Y-55420D01*
X66610Y-58750D01*
X66363Y-58750D01*
X66363Y-56496D01*
X66243Y-56205D01*
X66020Y-55982D01*
X65810Y-55894D01*
X65810Y-54720D01*
X65772Y-54628D01*
X65771Y-54628D01*
X65771Y-53023D01*
X65771Y-53022D01*
X65771Y-49976D01*
X65737Y-49895D01*
X65675Y-49833D01*
X65595Y-49799D01*
X65507Y-49799D01*
X65426Y-49833D01*
X65364Y-49894D01*
X65331Y-49975D01*
X65331Y-50063D01*
X65364Y-50144D01*
X65426Y-50206D01*
X65507Y-50239D01*
X65594Y-50239D01*
X65675Y-50206D01*
X65737Y-50144D01*
X65771Y-50063D01*
X65771Y-49976D01*
X65771Y-53022D01*
X65735Y-52935D01*
X65667Y-52867D01*
X65579Y-52830D01*
X65483Y-52830D01*
X65395Y-52867D01*
X65328Y-52934D01*
X65291Y-53022D01*
X65291Y-53118D01*
X65327Y-53206D01*
X65395Y-53274D01*
X65483Y-53310D01*
X65579Y-53310D01*
X65667Y-53274D01*
X65734Y-53206D01*
X65771Y-53118D01*
X65771Y-53023D01*
X65771Y-54628D01*
X65701Y-54558D01*
X65609Y-54520D01*
X65510Y-54519D01*
X65436Y-54550D01*
X65436Y-54460D01*
X65400Y-54372D01*
X65355Y-54327D01*
X65387Y-54250D01*
X65387Y-54155D01*
X65351Y-54066D01*
X65318Y-54034D01*
X65318Y-53653D01*
X65282Y-53565D01*
X65214Y-53497D01*
X65160Y-53475D01*
X65160Y-41541D01*
X65127Y-41460D01*
X65065Y-41398D01*
X64984Y-41364D01*
X64897Y-41364D01*
X64830Y-41392D01*
X64830Y-34750D01*
X64792Y-34658D01*
X64721Y-34588D01*
X64629Y-34550D01*
X64531Y-34549D01*
X64564Y-34469D01*
X64565Y-34370D01*
X64527Y-34278D01*
X64456Y-34208D01*
X64364Y-34170D01*
X64265Y-34169D01*
X64173Y-34207D01*
X64103Y-34278D01*
X64065Y-34370D01*
X64064Y-34469D01*
X64102Y-34561D01*
X64173Y-34631D01*
X64265Y-34669D01*
X64363Y-34670D01*
X64332Y-34744D01*
X64201Y-34690D01*
X64038Y-34689D01*
X63888Y-34752D01*
X63772Y-34867D01*
X63710Y-35018D01*
X63709Y-35181D01*
X63772Y-35331D01*
X63887Y-35447D01*
X64038Y-35509D01*
X64201Y-35510D01*
X64351Y-35447D01*
X64467Y-35332D01*
X64529Y-35181D01*
X64530Y-35049D01*
X64530Y-35049D01*
X64629Y-35050D01*
X64721Y-35012D01*
X64791Y-34941D01*
X64829Y-34849D01*
X64830Y-34750D01*
X64830Y-41392D01*
X64816Y-41398D01*
X64754Y-41459D01*
X64720Y-41540D01*
X64720Y-41628D01*
X64754Y-41709D01*
X64816Y-41771D01*
X64896Y-41804D01*
X64984Y-41804D01*
X65065Y-41771D01*
X65127Y-41709D01*
X65160Y-41628D01*
X65160Y-41541D01*
X65160Y-53475D01*
X65126Y-53460D01*
X65031Y-53460D01*
X64942Y-53497D01*
X64875Y-53564D01*
X64838Y-53652D01*
X64838Y-53748D01*
X64875Y-53836D01*
X64942Y-53904D01*
X65030Y-53940D01*
X65126Y-53940D01*
X65214Y-53904D01*
X65282Y-53836D01*
X65318Y-53748D01*
X65318Y-53653D01*
X65318Y-54034D01*
X65283Y-53999D01*
X65195Y-53962D01*
X65100Y-53962D01*
X65011Y-53999D01*
X64944Y-54066D01*
X64907Y-54154D01*
X64907Y-54250D01*
X64944Y-54338D01*
X64988Y-54383D01*
X64956Y-54459D01*
X64956Y-54555D01*
X64993Y-54643D01*
X65060Y-54711D01*
X65148Y-54747D01*
X65244Y-54747D01*
X65310Y-54720D01*
X65309Y-54819D01*
X65347Y-54911D01*
X65418Y-54981D01*
X65510Y-55019D01*
X65609Y-55020D01*
X65701Y-54982D01*
X65771Y-54911D01*
X65809Y-54819D01*
X65810Y-54720D01*
X65810Y-55894D01*
X65729Y-55861D01*
X65413Y-55860D01*
X65122Y-55981D01*
X64899Y-56204D01*
X64778Y-56495D01*
X64778Y-56810D01*
X64898Y-57101D01*
X65121Y-57325D01*
X65412Y-57445D01*
X65727Y-57446D01*
X66019Y-57325D01*
X66242Y-57103D01*
X66363Y-56811D01*
X66363Y-56496D01*
X66363Y-58750D01*
X65938Y-58750D01*
X65938Y-57948D01*
X65905Y-57867D01*
X65843Y-57805D01*
X65762Y-57772D01*
X65674Y-57772D01*
X65594Y-57805D01*
X65532Y-57867D01*
X65498Y-57948D01*
X65498Y-58035D01*
X65531Y-58116D01*
X65593Y-58178D01*
X65674Y-58212D01*
X65762Y-58212D01*
X65842Y-58178D01*
X65904Y-58116D01*
X65938Y-58036D01*
X65938Y-57948D01*
X65938Y-58750D01*
X64550Y-58750D01*
X64550Y-39295D01*
X64512Y-39203D01*
X64441Y-39133D01*
X64349Y-39095D01*
X64250Y-39094D01*
X64158Y-39132D01*
X64088Y-39203D01*
X64050Y-39295D01*
X64049Y-39394D01*
X64087Y-39486D01*
X64158Y-39556D01*
X64250Y-39594D01*
X64349Y-39595D01*
X64441Y-39557D01*
X64511Y-39486D01*
X64549Y-39394D01*
X64550Y-39295D01*
X64550Y-58750D01*
X64535Y-58750D01*
X64535Y-52275D01*
X64497Y-52183D01*
X64426Y-52113D01*
X64334Y-52075D01*
X64235Y-52074D01*
X64143Y-52112D01*
X64073Y-52183D01*
X64035Y-52275D01*
X64034Y-52374D01*
X64072Y-52466D01*
X64143Y-52536D01*
X64235Y-52574D01*
X64334Y-52575D01*
X64426Y-52537D01*
X64496Y-52466D01*
X64534Y-52374D01*
X64535Y-52275D01*
X64535Y-58750D01*
X64235Y-58750D01*
X64235Y-55468D01*
X64202Y-55387D01*
X64140Y-55325D01*
X64059Y-55291D01*
X63990Y-55291D01*
X63990Y-40720D01*
X63952Y-40628D01*
X63881Y-40558D01*
X63789Y-40520D01*
X63700Y-40519D01*
X63700Y-37260D01*
X63662Y-37168D01*
X63591Y-37098D01*
X63545Y-37078D01*
X63545Y-33640D01*
X63510Y-33555D01*
X63510Y-32240D01*
X63472Y-32148D01*
X63401Y-32078D01*
X63309Y-32040D01*
X63210Y-32039D01*
X63118Y-32077D01*
X63048Y-32148D01*
X63010Y-32240D01*
X63009Y-32339D01*
X63047Y-32431D01*
X63118Y-32501D01*
X63210Y-32539D01*
X63309Y-32540D01*
X63401Y-32502D01*
X63471Y-32431D01*
X63509Y-32339D01*
X63510Y-32240D01*
X63510Y-33555D01*
X63507Y-33548D01*
X63436Y-33478D01*
X63344Y-33440D01*
X63245Y-33439D01*
X63153Y-33477D01*
X63083Y-33548D01*
X63045Y-33640D01*
X63044Y-33739D01*
X63082Y-33831D01*
X63153Y-33901D01*
X63245Y-33939D01*
X63344Y-33940D01*
X63436Y-33902D01*
X63506Y-33831D01*
X63544Y-33739D01*
X63545Y-33640D01*
X63545Y-37078D01*
X63530Y-37072D01*
X63530Y-36018D01*
X63530Y-35018D01*
X63467Y-34868D01*
X63352Y-34752D01*
X63201Y-34690D01*
X63038Y-34689D01*
X62888Y-34752D01*
X62772Y-34867D01*
X62710Y-35018D01*
X62709Y-35181D01*
X62772Y-35331D01*
X62887Y-35447D01*
X63038Y-35509D01*
X63201Y-35510D01*
X63351Y-35447D01*
X63467Y-35332D01*
X63529Y-35181D01*
X63530Y-35018D01*
X63530Y-36018D01*
X63467Y-35868D01*
X63352Y-35752D01*
X63201Y-35690D01*
X63038Y-35689D01*
X62888Y-35752D01*
X62772Y-35867D01*
X62748Y-35925D01*
X62721Y-35898D01*
X62651Y-35868D01*
X62651Y-32328D01*
X62617Y-32247D01*
X62555Y-32185D01*
X62475Y-32152D01*
X62387Y-32152D01*
X62306Y-32185D01*
X62244Y-32247D01*
X62211Y-32328D01*
X62211Y-32415D01*
X62244Y-32496D01*
X62306Y-32558D01*
X62387Y-32592D01*
X62474Y-32592D01*
X62555Y-32558D01*
X62617Y-32496D01*
X62651Y-32416D01*
X62651Y-32328D01*
X62651Y-35868D01*
X62629Y-35860D01*
X62530Y-35859D01*
X62438Y-35897D01*
X62368Y-35968D01*
X62346Y-36021D01*
X62346Y-35310D01*
X62312Y-35229D01*
X62250Y-35167D01*
X62169Y-35134D01*
X62082Y-35134D01*
X62001Y-35167D01*
X61939Y-35229D01*
X61906Y-35310D01*
X61905Y-35397D01*
X61939Y-35478D01*
X62001Y-35540D01*
X62082Y-35574D01*
X62169Y-35574D01*
X62250Y-35540D01*
X62312Y-35479D01*
X62345Y-35398D01*
X62346Y-35310D01*
X62346Y-36021D01*
X62330Y-36060D01*
X62329Y-36159D01*
X62367Y-36251D01*
X62438Y-36321D01*
X62530Y-36359D01*
X62629Y-36360D01*
X62721Y-36322D01*
X62754Y-36289D01*
X62772Y-36331D01*
X62887Y-36447D01*
X63038Y-36509D01*
X63201Y-36510D01*
X63351Y-36447D01*
X63467Y-36332D01*
X63529Y-36181D01*
X63530Y-36018D01*
X63530Y-37072D01*
X63499Y-37060D01*
X63400Y-37059D01*
X63308Y-37097D01*
X63238Y-37168D01*
X63200Y-37260D01*
X63199Y-37359D01*
X63237Y-37451D01*
X63308Y-37521D01*
X63400Y-37559D01*
X63499Y-37560D01*
X63591Y-37522D01*
X63661Y-37451D01*
X63699Y-37359D01*
X63700Y-37260D01*
X63700Y-40519D01*
X63690Y-40519D01*
X63598Y-40557D01*
X63528Y-40628D01*
X63490Y-40720D01*
X63489Y-40819D01*
X63527Y-40911D01*
X63598Y-40981D01*
X63690Y-41019D01*
X63789Y-41020D01*
X63881Y-40982D01*
X63951Y-40911D01*
X63989Y-40819D01*
X63990Y-40720D01*
X63990Y-55291D01*
X63972Y-55291D01*
X63965Y-55294D01*
X63965Y-48477D01*
X63928Y-48389D01*
X63917Y-48377D01*
X63939Y-48322D01*
X63940Y-48227D01*
X63903Y-48139D01*
X63836Y-48071D01*
X63747Y-48035D01*
X63652Y-48034D01*
X63564Y-48071D01*
X63550Y-48085D01*
X63260Y-48085D01*
X63260Y-42329D01*
X63189Y-42158D01*
X63058Y-42027D01*
X62888Y-41956D01*
X62703Y-41956D01*
X62532Y-42026D01*
X62401Y-42157D01*
X62330Y-42328D01*
X62330Y-42513D01*
X62400Y-42684D01*
X62531Y-42815D01*
X62702Y-42886D01*
X62887Y-42886D01*
X63058Y-42815D01*
X63189Y-42684D01*
X63260Y-42514D01*
X63260Y-42329D01*
X63260Y-48085D01*
X62870Y-48085D01*
X62870Y-43672D01*
X62833Y-43584D01*
X62766Y-43516D01*
X62677Y-43480D01*
X62658Y-43480D01*
X62240Y-43061D01*
X62240Y-40770D01*
X62225Y-40697D01*
X62184Y-40635D01*
X61893Y-40344D01*
X61893Y-34858D01*
X61859Y-34777D01*
X61798Y-34715D01*
X61717Y-34681D01*
X61629Y-34681D01*
X61560Y-34710D01*
X61560Y-32438D01*
X61497Y-32288D01*
X61382Y-32172D01*
X61231Y-32110D01*
X61068Y-32109D01*
X60918Y-32172D01*
X60802Y-32287D01*
X60740Y-32438D01*
X60739Y-32601D01*
X60802Y-32751D01*
X60917Y-32867D01*
X61068Y-32929D01*
X61231Y-32930D01*
X61381Y-32867D01*
X61497Y-32752D01*
X61559Y-32601D01*
X61560Y-32438D01*
X61560Y-34710D01*
X61548Y-34714D01*
X61486Y-34776D01*
X61453Y-34857D01*
X61453Y-34945D01*
X61486Y-35026D01*
X61548Y-35087D01*
X61629Y-35121D01*
X61716Y-35121D01*
X61797Y-35088D01*
X61859Y-35026D01*
X61893Y-34945D01*
X61893Y-34858D01*
X61893Y-40344D01*
X61794Y-40245D01*
X61732Y-40204D01*
X61660Y-40190D01*
X61060Y-40190D01*
X61060Y-33188D01*
X60997Y-33038D01*
X60882Y-32922D01*
X60731Y-32860D01*
X60568Y-32859D01*
X60561Y-32863D01*
X60561Y-32444D01*
X60501Y-32293D01*
X60493Y-32282D01*
X60426Y-32258D01*
X60411Y-32272D01*
X60411Y-32243D01*
X60387Y-32176D01*
X60237Y-32111D01*
X60074Y-32108D01*
X59923Y-32168D01*
X59912Y-32176D01*
X59888Y-32243D01*
X60150Y-32505D01*
X60411Y-32243D01*
X60411Y-32272D01*
X60164Y-32520D01*
X60426Y-32781D01*
X60493Y-32757D01*
X60558Y-32607D01*
X60561Y-32444D01*
X60561Y-32863D01*
X60418Y-32922D01*
X60411Y-32928D01*
X60411Y-32796D01*
X60150Y-32534D01*
X60135Y-32548D01*
X60135Y-32520D01*
X59873Y-32258D01*
X59806Y-32282D01*
X59741Y-32432D01*
X59738Y-32595D01*
X59798Y-32746D01*
X59806Y-32757D01*
X59873Y-32781D01*
X60135Y-32520D01*
X60135Y-32548D01*
X59888Y-32796D01*
X59912Y-32863D01*
X60062Y-32928D01*
X60225Y-32931D01*
X60376Y-32871D01*
X60387Y-32863D01*
X60411Y-32796D01*
X60411Y-32928D01*
X60302Y-33037D01*
X60289Y-33069D01*
X60217Y-33040D01*
X60122Y-33039D01*
X60034Y-33076D01*
X59966Y-33143D01*
X59930Y-33232D01*
X59929Y-33327D01*
X59966Y-33415D01*
X60033Y-33483D01*
X60122Y-33519D01*
X60217Y-33520D01*
X60296Y-33487D01*
X60302Y-33501D01*
X60417Y-33617D01*
X60568Y-33679D01*
X60731Y-33680D01*
X60881Y-33617D01*
X60997Y-33502D01*
X61059Y-33351D01*
X61060Y-33188D01*
X61060Y-40190D01*
X61035Y-40190D01*
X61035Y-36275D01*
X60997Y-36183D01*
X60926Y-36113D01*
X60834Y-36075D01*
X60735Y-36074D01*
X60643Y-36112D01*
X60573Y-36183D01*
X60565Y-36201D01*
X60550Y-36164D01*
X60488Y-36102D01*
X60408Y-36069D01*
X60320Y-36069D01*
X60239Y-36102D01*
X60177Y-36164D01*
X60144Y-36245D01*
X60144Y-36332D01*
X60177Y-36413D01*
X60239Y-36475D01*
X60320Y-36509D01*
X60407Y-36509D01*
X60488Y-36475D01*
X60550Y-36414D01*
X60550Y-36413D01*
X60572Y-36466D01*
X60643Y-36536D01*
X60735Y-36574D01*
X60834Y-36575D01*
X60926Y-36537D01*
X60996Y-36466D01*
X61034Y-36374D01*
X61035Y-36275D01*
X61035Y-40190D01*
X60830Y-40190D01*
X60830Y-37535D01*
X60796Y-37454D01*
X60735Y-37392D01*
X60654Y-37358D01*
X60566Y-37358D01*
X60485Y-37392D01*
X60423Y-37453D01*
X60390Y-37534D01*
X60390Y-37622D01*
X60423Y-37703D01*
X60485Y-37765D01*
X60566Y-37798D01*
X60653Y-37798D01*
X60734Y-37765D01*
X60796Y-37703D01*
X60830Y-37622D01*
X60830Y-37535D01*
X60830Y-40190D01*
X60689Y-40190D01*
X60676Y-40176D01*
X60587Y-40140D01*
X60492Y-40139D01*
X60466Y-40150D01*
X60466Y-39883D01*
X60429Y-39795D01*
X60362Y-39727D01*
X60274Y-39691D01*
X60178Y-39691D01*
X60161Y-39698D01*
X60161Y-39212D01*
X60124Y-39124D01*
X60057Y-39056D01*
X59969Y-39019D01*
X59935Y-39019D01*
X59935Y-35304D01*
X59897Y-35212D01*
X59826Y-35142D01*
X59734Y-35104D01*
X59635Y-35104D01*
X59560Y-35135D01*
X59560Y-34483D01*
X59527Y-34403D01*
X59465Y-34341D01*
X59384Y-34307D01*
X59296Y-34307D01*
X59216Y-34340D01*
X59154Y-34402D01*
X59120Y-34483D01*
X59120Y-34571D01*
X59153Y-34652D01*
X59215Y-34713D01*
X59296Y-34747D01*
X59384Y-34747D01*
X59465Y-34714D01*
X59526Y-34652D01*
X59560Y-34571D01*
X59560Y-34483D01*
X59560Y-35135D01*
X59543Y-35142D01*
X59473Y-35212D01*
X59436Y-35301D01*
X59356Y-35301D01*
X59275Y-35335D01*
X59213Y-35396D01*
X59179Y-35477D01*
X59179Y-35565D01*
X59212Y-35646D01*
X59274Y-35708D01*
X59355Y-35741D01*
X59443Y-35741D01*
X59524Y-35708D01*
X59586Y-35646D01*
X59608Y-35593D01*
X59635Y-35604D01*
X59734Y-35604D01*
X59826Y-35566D01*
X59896Y-35496D01*
X59934Y-35404D01*
X59935Y-35304D01*
X59935Y-39019D01*
X59873Y-39019D01*
X59785Y-39056D01*
X59717Y-39123D01*
X59702Y-39160D01*
X59702Y-36460D01*
X59637Y-36302D01*
X59516Y-36181D01*
X59358Y-36115D01*
X59187Y-36115D01*
X59029Y-36180D01*
X58908Y-36301D01*
X58842Y-36459D01*
X58842Y-36630D01*
X58907Y-36788D01*
X59028Y-36910D01*
X59097Y-36938D01*
X59097Y-37584D01*
X58996Y-37684D01*
X58996Y-37331D01*
X58996Y-37174D01*
X58933Y-37015D01*
X58814Y-36892D01*
X58657Y-36824D01*
X58643Y-36821D01*
X58575Y-36851D01*
X58575Y-37242D01*
X58966Y-37242D01*
X58996Y-37174D01*
X58996Y-37331D01*
X58966Y-37262D01*
X58575Y-37262D01*
X58575Y-37653D01*
X58643Y-37684D01*
X58802Y-37621D01*
X58925Y-37502D01*
X58993Y-37345D01*
X58996Y-37331D01*
X58996Y-37684D01*
X58609Y-38071D01*
X58582Y-38005D01*
X58520Y-37943D01*
X58439Y-37909D01*
X58352Y-37909D01*
X58271Y-37943D01*
X58209Y-38005D01*
X58189Y-38052D01*
X58189Y-37471D01*
X58196Y-37490D01*
X58315Y-37613D01*
X58472Y-37681D01*
X58486Y-37684D01*
X58555Y-37653D01*
X58555Y-37262D01*
X58189Y-37262D01*
X58189Y-37242D01*
X58541Y-37242D01*
X58545Y-37247D01*
X58550Y-37242D01*
X58555Y-37242D01*
X58555Y-37237D01*
X58559Y-37233D01*
X58555Y-37228D01*
X58555Y-36851D01*
X58499Y-36826D01*
X58689Y-36637D01*
X58727Y-36580D01*
X58727Y-36580D01*
X58740Y-36513D01*
X58740Y-36231D01*
X58808Y-36203D01*
X58929Y-36082D01*
X58995Y-35924D01*
X58995Y-35753D01*
X58970Y-35691D01*
X58970Y-34415D01*
X58936Y-34334D01*
X58874Y-34272D01*
X58793Y-34238D01*
X58706Y-34238D01*
X58625Y-34272D01*
X58563Y-34333D01*
X58530Y-34414D01*
X58529Y-34502D01*
X58563Y-34583D01*
X58625Y-34645D01*
X58706Y-34678D01*
X58793Y-34678D01*
X58874Y-34645D01*
X58936Y-34583D01*
X58969Y-34502D01*
X58970Y-34415D01*
X58970Y-35691D01*
X58930Y-35595D01*
X58809Y-35474D01*
X58651Y-35408D01*
X58480Y-35408D01*
X58322Y-35473D01*
X58201Y-35594D01*
X58135Y-35752D01*
X58135Y-35923D01*
X58200Y-36081D01*
X58321Y-36202D01*
X58390Y-36231D01*
X58390Y-36440D01*
X58288Y-36542D01*
X58288Y-36460D01*
X58223Y-36302D01*
X58102Y-36181D01*
X57944Y-36115D01*
X57832Y-36115D01*
X57982Y-35966D01*
X58019Y-35909D01*
X58019Y-35909D01*
X58033Y-35842D01*
X58033Y-35524D01*
X58101Y-35496D01*
X58222Y-35375D01*
X58288Y-35217D01*
X58288Y-35046D01*
X58271Y-35004D01*
X58271Y-32682D01*
X58237Y-32601D01*
X58175Y-32539D01*
X58095Y-32506D01*
X58007Y-32506D01*
X57926Y-32539D01*
X57864Y-32601D01*
X57831Y-32682D01*
X57831Y-32769D01*
X57864Y-32850D01*
X57926Y-32912D01*
X58007Y-32946D01*
X58094Y-32946D01*
X58175Y-32912D01*
X58237Y-32851D01*
X58271Y-32770D01*
X58271Y-32682D01*
X58271Y-35004D01*
X58223Y-34888D01*
X58102Y-34767D01*
X57944Y-34701D01*
X57773Y-34701D01*
X57615Y-34766D01*
X57493Y-34887D01*
X57428Y-35045D01*
X57428Y-35216D01*
X57493Y-35374D01*
X57614Y-35495D01*
X57683Y-35524D01*
X57683Y-35770D01*
X57581Y-35872D01*
X57581Y-35753D01*
X57515Y-35595D01*
X57395Y-35474D01*
X57237Y-35408D01*
X57066Y-35408D01*
X56907Y-35473D01*
X56875Y-35506D01*
X56875Y-35209D01*
X56875Y-35053D01*
X56812Y-34893D01*
X56693Y-34770D01*
X56536Y-34702D01*
X56522Y-34700D01*
X56454Y-34730D01*
X56454Y-35121D01*
X56844Y-35121D01*
X56875Y-35053D01*
X56875Y-35209D01*
X56844Y-35141D01*
X56454Y-35141D01*
X56454Y-35532D01*
X56522Y-35562D01*
X56681Y-35499D01*
X56804Y-35381D01*
X56872Y-35224D01*
X56875Y-35209D01*
X56875Y-35506D01*
X56786Y-35594D01*
X56721Y-35752D01*
X56721Y-35923D01*
X56786Y-36081D01*
X56907Y-36202D01*
X57065Y-36268D01*
X57184Y-36268D01*
X56932Y-36520D01*
X56932Y-36462D01*
X56899Y-36381D01*
X56837Y-36319D01*
X56756Y-36285D01*
X56669Y-36285D01*
X56588Y-36319D01*
X56526Y-36381D01*
X56505Y-36431D01*
X56505Y-36376D01*
X56434Y-36204D01*
X56434Y-35532D01*
X56434Y-35141D01*
X56043Y-35141D01*
X56012Y-35209D01*
X56075Y-35369D01*
X56194Y-35491D01*
X56351Y-35560D01*
X56365Y-35562D01*
X56434Y-35532D01*
X56434Y-36204D01*
X56413Y-36155D01*
X56244Y-35985D01*
X56022Y-35893D01*
X55782Y-35893D01*
X55561Y-35984D01*
X55415Y-36130D01*
X55415Y-35794D01*
X55475Y-35855D01*
X55556Y-35889D01*
X55643Y-35889D01*
X55724Y-35855D01*
X55786Y-35794D01*
X55820Y-35713D01*
X55820Y-35625D01*
X55787Y-35544D01*
X55725Y-35482D01*
X55658Y-35455D01*
X56027Y-35086D01*
X56043Y-35121D01*
X56419Y-35121D01*
X56424Y-35125D01*
X56428Y-35121D01*
X56434Y-35121D01*
X56434Y-35116D01*
X56438Y-35111D01*
X56434Y-35107D01*
X56434Y-34730D01*
X56398Y-34714D01*
X56514Y-34599D01*
X56758Y-34599D01*
X56786Y-34667D01*
X56907Y-34788D01*
X57065Y-34854D01*
X57236Y-34854D01*
X57394Y-34789D01*
X57515Y-34668D01*
X57581Y-34510D01*
X57581Y-34339D01*
X57515Y-34181D01*
X57395Y-34060D01*
X57237Y-33994D01*
X57066Y-33994D01*
X56907Y-34059D01*
X56786Y-34180D01*
X56758Y-34249D01*
X56607Y-34249D01*
X56607Y-33155D01*
X56574Y-33074D01*
X56558Y-33058D01*
X56558Y-32131D01*
X56525Y-32050D01*
X56463Y-31988D01*
X56382Y-31955D01*
X56295Y-31955D01*
X56214Y-31988D01*
X56152Y-32050D01*
X56118Y-32131D01*
X56118Y-32218D01*
X56151Y-32299D01*
X56213Y-32361D01*
X56294Y-32395D01*
X56382Y-32395D01*
X56463Y-32361D01*
X56524Y-32299D01*
X56558Y-32219D01*
X56558Y-32131D01*
X56558Y-33058D01*
X56512Y-33012D01*
X56431Y-32978D01*
X56344Y-32978D01*
X56263Y-33012D01*
X56201Y-33074D01*
X56167Y-33154D01*
X56167Y-33242D01*
X56201Y-33323D01*
X56263Y-33385D01*
X56343Y-33418D01*
X56431Y-33418D01*
X56512Y-33385D01*
X56574Y-33323D01*
X56607Y-33242D01*
X56607Y-33155D01*
X56607Y-34249D01*
X56441Y-34249D01*
X56374Y-34262D01*
X56318Y-34300D01*
X55662Y-34955D01*
X55662Y-34730D01*
X55629Y-34649D01*
X55567Y-34587D01*
X55486Y-34553D01*
X55399Y-34553D01*
X55318Y-34587D01*
X55256Y-34648D01*
X55222Y-34729D01*
X55222Y-34817D01*
X55256Y-34898D01*
X55318Y-34960D01*
X55398Y-34993D01*
X55486Y-34993D01*
X55567Y-34960D01*
X55629Y-34898D01*
X55662Y-34817D01*
X55662Y-34730D01*
X55662Y-34955D01*
X55116Y-35502D01*
X55078Y-35559D01*
X55065Y-35626D01*
X55065Y-36170D01*
X55065Y-36317D01*
X54923Y-36458D01*
X54923Y-34795D01*
X54832Y-34573D01*
X54662Y-34404D01*
X54441Y-34312D01*
X54201Y-34312D01*
X53980Y-34403D01*
X53810Y-34573D01*
X53718Y-34794D01*
X53718Y-35034D01*
X53809Y-35255D01*
X53979Y-35425D01*
X54200Y-35517D01*
X54440Y-35517D01*
X54662Y-35426D01*
X54831Y-35256D01*
X54923Y-35035D01*
X54923Y-34795D01*
X54923Y-36458D01*
X54888Y-36494D01*
X54857Y-36419D01*
X54765Y-36327D01*
X54645Y-36277D01*
X54515Y-36277D01*
X54394Y-36327D01*
X54350Y-36371D01*
X54350Y-36264D01*
X54302Y-36143D01*
X54211Y-36050D01*
X54091Y-35999D01*
X54085Y-35998D01*
X54033Y-36030D01*
X54033Y-36316D01*
X54319Y-36316D01*
X54350Y-36264D01*
X54350Y-36371D01*
X54344Y-36377D01*
X54319Y-36336D01*
X54047Y-36336D01*
X54042Y-36331D01*
X54038Y-36336D01*
X54033Y-36336D01*
X54033Y-36341D01*
X54028Y-36346D01*
X54033Y-36350D01*
X54033Y-36622D01*
X54085Y-36654D01*
X54205Y-36605D01*
X54247Y-36564D01*
X54251Y-36568D01*
X54252Y-36567D01*
X54252Y-36669D01*
X54302Y-36789D01*
X54394Y-36881D01*
X54469Y-36913D01*
X54466Y-36916D01*
X54428Y-36973D01*
X54415Y-37040D01*
X54415Y-37647D01*
X54403Y-37636D01*
X54283Y-37586D01*
X54153Y-37585D01*
X54032Y-37635D01*
X53940Y-37727D01*
X53890Y-37847D01*
X53890Y-37978D01*
X53940Y-38098D01*
X54032Y-38190D01*
X54152Y-38240D01*
X54282Y-38240D01*
X54403Y-38190D01*
X54495Y-38098D01*
X54545Y-37978D01*
X54545Y-37862D01*
X54611Y-37928D01*
X54586Y-37987D01*
X54586Y-38117D01*
X54636Y-38237D01*
X54728Y-38329D01*
X54848Y-38379D01*
X54978Y-38379D01*
X55099Y-38329D01*
X55191Y-38237D01*
X55241Y-38117D01*
X55241Y-37987D01*
X55191Y-37867D01*
X55099Y-37775D01*
X54979Y-37725D01*
X54902Y-37725D01*
X54765Y-37587D01*
X54765Y-37509D01*
X54845Y-37543D01*
X54851Y-37544D01*
X54903Y-37513D01*
X54903Y-37241D01*
X54908Y-37236D01*
X54903Y-37232D01*
X54903Y-37227D01*
X54898Y-37227D01*
X54894Y-37222D01*
X54889Y-37227D01*
X54765Y-37227D01*
X54765Y-37207D01*
X54889Y-37207D01*
X54894Y-37211D01*
X54898Y-37207D01*
X54903Y-37207D01*
X54903Y-37201D01*
X54908Y-37197D01*
X54903Y-37193D01*
X54903Y-36973D01*
X54923Y-36953D01*
X54923Y-37207D01*
X55209Y-37207D01*
X55241Y-37155D01*
X55193Y-37034D01*
X55101Y-36941D01*
X54985Y-36892D01*
X55299Y-36578D01*
X55299Y-36615D01*
X55390Y-36837D01*
X55560Y-37006D01*
X55781Y-37098D01*
X56021Y-37099D01*
X56243Y-37007D01*
X56412Y-36838D01*
X56504Y-36616D01*
X56504Y-36579D01*
X56525Y-36630D01*
X56587Y-36692D01*
X56668Y-36725D01*
X56727Y-36725D01*
X56132Y-37320D01*
X55884Y-37320D01*
X55752Y-37320D01*
X55748Y-37310D01*
X55656Y-37218D01*
X55536Y-37168D01*
X55405Y-37168D01*
X55285Y-37218D01*
X55235Y-37268D01*
X55209Y-37227D01*
X54938Y-37227D01*
X54933Y-37222D01*
X54929Y-37227D01*
X54923Y-37227D01*
X54923Y-37232D01*
X54919Y-37236D01*
X54923Y-37241D01*
X54923Y-37513D01*
X54976Y-37544D01*
X55096Y-37496D01*
X55138Y-37455D01*
X55142Y-37459D01*
X55143Y-37457D01*
X55143Y-37560D01*
X55193Y-37680D01*
X55285Y-37772D01*
X55405Y-37822D01*
X55535Y-37822D01*
X55655Y-37773D01*
X55747Y-37681D01*
X55752Y-37670D01*
X55884Y-37670D01*
X56205Y-37670D01*
X56272Y-37657D01*
X56272Y-37657D01*
X56328Y-37619D01*
X57428Y-36519D01*
X57428Y-36630D01*
X57493Y-36788D01*
X57614Y-36910D01*
X57772Y-36975D01*
X57867Y-36975D01*
X57852Y-36997D01*
X57839Y-37064D01*
X57839Y-40298D01*
X57582Y-40556D01*
X57582Y-37909D01*
X57548Y-37828D01*
X57486Y-37766D01*
X57406Y-37732D01*
X57318Y-37732D01*
X57237Y-37766D01*
X57175Y-37827D01*
X57142Y-37908D01*
X57142Y-37996D01*
X57175Y-38077D01*
X57237Y-38139D01*
X57318Y-38172D01*
X57405Y-38172D01*
X57486Y-38139D01*
X57548Y-38077D01*
X57582Y-37996D01*
X57582Y-37909D01*
X57582Y-40556D01*
X56744Y-41394D01*
X56688Y-41394D01*
X56607Y-41427D01*
X56545Y-41489D01*
X56512Y-41570D01*
X56512Y-41657D01*
X56545Y-41738D01*
X56592Y-41785D01*
X56543Y-41835D01*
X56510Y-41916D01*
X56509Y-42003D01*
X56543Y-42084D01*
X56605Y-42146D01*
X56686Y-42179D01*
X56773Y-42180D01*
X56854Y-42146D01*
X56916Y-42084D01*
X56949Y-42003D01*
X56950Y-41958D01*
X58312Y-40596D01*
X58350Y-40539D01*
X58350Y-40539D01*
X58363Y-40472D01*
X58363Y-38812D01*
X59396Y-37780D01*
X59434Y-37723D01*
X59434Y-37723D01*
X59447Y-37656D01*
X59447Y-36938D01*
X59515Y-36910D01*
X59636Y-36789D01*
X59702Y-36631D01*
X59702Y-36460D01*
X59702Y-39160D01*
X59681Y-39211D01*
X59681Y-39307D01*
X59717Y-39395D01*
X59785Y-39463D01*
X59873Y-39499D01*
X59968Y-39499D01*
X60057Y-39463D01*
X60124Y-39395D01*
X60161Y-39307D01*
X60161Y-39212D01*
X60161Y-39698D01*
X60090Y-39727D01*
X60023Y-39794D01*
X59986Y-39883D01*
X59986Y-39978D01*
X60022Y-40066D01*
X60090Y-40134D01*
X60178Y-40171D01*
X60273Y-40171D01*
X60362Y-40134D01*
X60429Y-40067D01*
X60466Y-39979D01*
X60466Y-39883D01*
X60466Y-40150D01*
X60404Y-40176D01*
X60336Y-40243D01*
X60300Y-40332D01*
X60299Y-40427D01*
X60336Y-40515D01*
X60403Y-40583D01*
X60492Y-40619D01*
X60587Y-40620D01*
X60660Y-40589D01*
X60637Y-40644D01*
X60637Y-40740D01*
X60674Y-40828D01*
X60717Y-40872D01*
X60662Y-40926D01*
X60626Y-41015D01*
X60626Y-41110D01*
X60662Y-41198D01*
X60730Y-41266D01*
X60818Y-41302D01*
X60913Y-41303D01*
X61001Y-41266D01*
X61069Y-41199D01*
X61106Y-41110D01*
X61106Y-41015D01*
X61069Y-40927D01*
X61026Y-40883D01*
X61081Y-40829D01*
X61117Y-40740D01*
X61117Y-40645D01*
X61086Y-40570D01*
X61581Y-40570D01*
X61860Y-40848D01*
X61860Y-43140D01*
X61874Y-43212D01*
X61915Y-43274D01*
X62389Y-43748D01*
X62389Y-43767D01*
X62426Y-43855D01*
X62493Y-43923D01*
X62582Y-43959D01*
X62677Y-43960D01*
X62765Y-43923D01*
X62833Y-43856D01*
X62869Y-43767D01*
X62870Y-43672D01*
X62870Y-48085D01*
X61840Y-48085D01*
X61840Y-44752D01*
X61803Y-44664D01*
X61736Y-44596D01*
X61647Y-44560D01*
X61552Y-44559D01*
X61464Y-44596D01*
X61396Y-44663D01*
X61360Y-44752D01*
X61359Y-44847D01*
X61396Y-44935D01*
X61463Y-45003D01*
X61552Y-45039D01*
X61647Y-45040D01*
X61735Y-45003D01*
X61803Y-44936D01*
X61839Y-44847D01*
X61840Y-44752D01*
X61840Y-48085D01*
X61125Y-48085D01*
X61125Y-43485D01*
X61089Y-43397D01*
X61021Y-43330D01*
X60933Y-43293D01*
X60838Y-43293D01*
X60750Y-43329D01*
X60682Y-43397D01*
X60645Y-43485D01*
X60645Y-43580D01*
X60682Y-43669D01*
X60749Y-43736D01*
X60837Y-43773D01*
X60933Y-43773D01*
X61021Y-43737D01*
X61089Y-43669D01*
X61125Y-43581D01*
X61125Y-43485D01*
X61125Y-48085D01*
X60874Y-48085D01*
X60861Y-48071D01*
X60772Y-48035D01*
X60677Y-48034D01*
X60589Y-48071D01*
X60521Y-48138D01*
X60485Y-48227D01*
X60484Y-48322D01*
X60521Y-48410D01*
X60588Y-48478D01*
X60677Y-48514D01*
X60710Y-48514D01*
X60709Y-48597D01*
X60746Y-48685D01*
X60813Y-48753D01*
X60882Y-48781D01*
X60882Y-48866D01*
X60918Y-48954D01*
X60985Y-49022D01*
X61074Y-49058D01*
X61169Y-49058D01*
X61177Y-49055D01*
X61177Y-49122D01*
X61213Y-49210D01*
X61281Y-49278D01*
X61369Y-49314D01*
X61464Y-49314D01*
X61553Y-49278D01*
X61620Y-49210D01*
X61657Y-49122D01*
X61657Y-49027D01*
X61620Y-48939D01*
X61553Y-48871D01*
X61465Y-48834D01*
X61369Y-48834D01*
X61362Y-48837D01*
X61362Y-48771D01*
X61338Y-48715D01*
X63575Y-48715D01*
X63588Y-48728D01*
X63677Y-48764D01*
X63772Y-48765D01*
X63860Y-48728D01*
X63928Y-48661D01*
X63964Y-48572D01*
X63965Y-48477D01*
X63965Y-55294D01*
X63891Y-55325D01*
X63829Y-55387D01*
X63795Y-55467D01*
X63795Y-55555D01*
X63829Y-55636D01*
X63890Y-55698D01*
X63971Y-55731D01*
X64059Y-55731D01*
X64140Y-55698D01*
X64202Y-55636D01*
X64235Y-55555D01*
X64235Y-55468D01*
X64235Y-58750D01*
X63822Y-58750D01*
X63822Y-57180D01*
X63788Y-57099D01*
X63727Y-57038D01*
X63646Y-57004D01*
X63558Y-57004D01*
X63477Y-57037D01*
X63415Y-57099D01*
X63382Y-57180D01*
X63382Y-57267D01*
X63415Y-57348D01*
X63477Y-57410D01*
X63558Y-57444D01*
X63645Y-57444D01*
X63726Y-57411D01*
X63788Y-57349D01*
X63822Y-57268D01*
X63822Y-57180D01*
X63822Y-58750D01*
X63299Y-58750D01*
X63299Y-50464D01*
X63262Y-50376D01*
X63195Y-50308D01*
X63131Y-50281D01*
X63161Y-50209D01*
X63161Y-50113D01*
X63124Y-50025D01*
X63057Y-49958D01*
X62985Y-49928D01*
X63006Y-49907D01*
X63043Y-49819D01*
X63043Y-49724D01*
X63006Y-49635D01*
X62939Y-49568D01*
X62851Y-49531D01*
X62755Y-49531D01*
X62667Y-49568D01*
X62599Y-49635D01*
X62563Y-49723D01*
X62563Y-49819D01*
X62599Y-49907D01*
X62667Y-49974D01*
X62738Y-50004D01*
X62717Y-50025D01*
X62681Y-50113D01*
X62681Y-50208D01*
X62717Y-50297D01*
X62785Y-50364D01*
X62849Y-50391D01*
X62819Y-50463D01*
X62819Y-50559D01*
X62855Y-50647D01*
X62922Y-50715D01*
X63011Y-50751D01*
X63106Y-50751D01*
X63194Y-50715D01*
X63262Y-50647D01*
X63299Y-50559D01*
X63299Y-50464D01*
X63299Y-58750D01*
X62710Y-58750D01*
X62710Y-51222D01*
X62674Y-51133D01*
X62606Y-51066D01*
X62518Y-51029D01*
X62422Y-51029D01*
X62334Y-51066D01*
X62267Y-51133D01*
X62230Y-51221D01*
X62230Y-51317D01*
X62266Y-51405D01*
X62334Y-51473D01*
X62422Y-51509D01*
X62518Y-51509D01*
X62606Y-51473D01*
X62673Y-51405D01*
X62710Y-51317D01*
X62710Y-51222D01*
X62710Y-58750D01*
X62090Y-58750D01*
X62090Y-51300D01*
X62053Y-51212D01*
X61986Y-51145D01*
X61898Y-51108D01*
X61802Y-51108D01*
X61714Y-51144D01*
X61647Y-51212D01*
X61610Y-51300D01*
X61610Y-51360D01*
X61552Y-51359D01*
X61464Y-51396D01*
X61440Y-51420D01*
X61440Y-49852D01*
X61403Y-49764D01*
X61336Y-49696D01*
X61247Y-49660D01*
X61152Y-49659D01*
X61064Y-49696D01*
X60996Y-49763D01*
X60960Y-49852D01*
X60959Y-49947D01*
X60996Y-50035D01*
X61063Y-50103D01*
X61152Y-50139D01*
X61247Y-50140D01*
X61335Y-50103D01*
X61403Y-50036D01*
X61439Y-49947D01*
X61440Y-49852D01*
X61440Y-51420D01*
X61396Y-51463D01*
X61360Y-51552D01*
X61360Y-51559D01*
X61352Y-51559D01*
X61264Y-51596D01*
X61196Y-51663D01*
X61160Y-51752D01*
X61159Y-51847D01*
X61196Y-51935D01*
X61263Y-52003D01*
X61352Y-52039D01*
X61447Y-52040D01*
X61535Y-52003D01*
X61603Y-51936D01*
X61639Y-51847D01*
X61639Y-51840D01*
X61647Y-51840D01*
X61735Y-51803D01*
X61803Y-51736D01*
X61839Y-51647D01*
X61840Y-51588D01*
X61897Y-51588D01*
X61986Y-51552D01*
X62053Y-51484D01*
X62090Y-51396D01*
X62090Y-51300D01*
X62090Y-58750D01*
X61854Y-58750D01*
X61854Y-53357D01*
X61817Y-53269D01*
X61750Y-53202D01*
X61696Y-53179D01*
X61696Y-52810D01*
X61660Y-52722D01*
X61592Y-52654D01*
X61504Y-52618D01*
X61409Y-52618D01*
X61320Y-52654D01*
X61253Y-52722D01*
X61216Y-52810D01*
X61216Y-52905D01*
X61253Y-52994D01*
X61320Y-53061D01*
X61408Y-53098D01*
X61504Y-53098D01*
X61592Y-53061D01*
X61660Y-52994D01*
X61696Y-52906D01*
X61696Y-52810D01*
X61696Y-53179D01*
X61662Y-53165D01*
X61566Y-53165D01*
X61478Y-53201D01*
X61410Y-53269D01*
X61374Y-53357D01*
X61374Y-53453D01*
X61410Y-53541D01*
X61478Y-53608D01*
X61566Y-53645D01*
X61661Y-53645D01*
X61749Y-53609D01*
X61817Y-53541D01*
X61854Y-53453D01*
X61854Y-53357D01*
X61854Y-58750D01*
X61235Y-58750D01*
X61236Y-58749D01*
X61298Y-58687D01*
X61332Y-58606D01*
X61332Y-58519D01*
X61332Y-57023D01*
X61332Y-55852D01*
X61322Y-55829D01*
X61322Y-53338D01*
X61286Y-53250D01*
X61218Y-53182D01*
X61130Y-53145D01*
X61035Y-53145D01*
X60946Y-53182D01*
X60879Y-53249D01*
X60871Y-53269D01*
X60847Y-53260D01*
X60752Y-53259D01*
X60664Y-53296D01*
X60596Y-53363D01*
X60560Y-53452D01*
X60559Y-53534D01*
X60484Y-53566D01*
X60416Y-53633D01*
X60380Y-53721D01*
X60380Y-53775D01*
X60326Y-53775D01*
X60238Y-53812D01*
X60170Y-53879D01*
X60134Y-53967D01*
X60133Y-54063D01*
X60170Y-54151D01*
X60237Y-54219D01*
X60326Y-54255D01*
X60421Y-54255D01*
X60509Y-54219D01*
X60577Y-54151D01*
X60613Y-54063D01*
X60614Y-54009D01*
X60667Y-54009D01*
X60755Y-53973D01*
X60823Y-53905D01*
X60860Y-53817D01*
X60860Y-53734D01*
X60935Y-53703D01*
X61003Y-53636D01*
X61011Y-53616D01*
X61034Y-53625D01*
X61130Y-53625D01*
X61218Y-53589D01*
X61286Y-53521D01*
X61322Y-53433D01*
X61322Y-53338D01*
X61322Y-55829D01*
X61298Y-55771D01*
X61236Y-55709D01*
X61162Y-55678D01*
X61184Y-55624D01*
X61184Y-55537D01*
X61151Y-55456D01*
X61089Y-55394D01*
X61008Y-55360D01*
X60920Y-55360D01*
X60889Y-55373D01*
X60889Y-55291D01*
X60855Y-55210D01*
X60794Y-55148D01*
X60713Y-55114D01*
X60625Y-55114D01*
X60603Y-55123D01*
X60603Y-55045D01*
X60570Y-54964D01*
X60508Y-54902D01*
X60427Y-54868D01*
X60340Y-54868D01*
X60259Y-54901D01*
X60197Y-54963D01*
X60163Y-55044D01*
X60163Y-55132D01*
X60197Y-55213D01*
X60259Y-55274D01*
X60339Y-55308D01*
X60427Y-55308D01*
X60449Y-55299D01*
X60449Y-55378D01*
X60482Y-55459D01*
X60544Y-55521D01*
X60625Y-55554D01*
X60712Y-55554D01*
X60744Y-55541D01*
X60744Y-55624D01*
X60777Y-55705D01*
X60839Y-55767D01*
X60914Y-55798D01*
X60892Y-55851D01*
X60892Y-55939D01*
X60925Y-56020D01*
X60987Y-56082D01*
X61068Y-56115D01*
X61155Y-56115D01*
X61236Y-56082D01*
X61298Y-56020D01*
X61332Y-55939D01*
X61332Y-55852D01*
X61332Y-57023D01*
X61312Y-56975D01*
X61312Y-56413D01*
X61279Y-56332D01*
X61217Y-56270D01*
X61136Y-56236D01*
X61048Y-56236D01*
X60968Y-56270D01*
X60906Y-56331D01*
X60872Y-56412D01*
X60872Y-56500D01*
X60905Y-56581D01*
X60967Y-56643D01*
X61048Y-56676D01*
X61136Y-56676D01*
X61216Y-56643D01*
X61278Y-56581D01*
X61312Y-56500D01*
X61312Y-56413D01*
X61312Y-56975D01*
X61298Y-56942D01*
X61236Y-56880D01*
X61156Y-56846D01*
X61068Y-56846D01*
X60987Y-56880D01*
X60925Y-56942D01*
X60892Y-57022D01*
X60892Y-57110D01*
X60925Y-57191D01*
X60987Y-57253D01*
X61068Y-57286D01*
X61155Y-57286D01*
X61236Y-57253D01*
X61298Y-57191D01*
X61332Y-57110D01*
X61332Y-57023D01*
X61332Y-58519D01*
X61322Y-58495D01*
X61322Y-57781D01*
X61288Y-57700D01*
X61227Y-57638D01*
X61146Y-57604D01*
X61058Y-57604D01*
X60977Y-57638D01*
X60915Y-57700D01*
X60882Y-57780D01*
X60882Y-57868D01*
X60915Y-57949D01*
X60977Y-58011D01*
X61058Y-58044D01*
X61145Y-58044D01*
X61226Y-58011D01*
X61288Y-57949D01*
X61322Y-57868D01*
X61322Y-57781D01*
X61322Y-58495D01*
X61298Y-58438D01*
X61236Y-58376D01*
X61156Y-58343D01*
X61068Y-58342D01*
X60987Y-58376D01*
X60925Y-58438D01*
X60892Y-58519D01*
X60892Y-58606D01*
X60925Y-58687D01*
X60987Y-58749D01*
X60988Y-58750D01*
X60282Y-58750D01*
X60449Y-58638D01*
X60563Y-58468D01*
X60603Y-58267D01*
X60563Y-58067D01*
X60449Y-57897D01*
X60279Y-57783D01*
X60079Y-57743D01*
X60010Y-57743D01*
X60010Y-57118D01*
X59944Y-56958D01*
X59925Y-56939D01*
X59925Y-39932D01*
X59888Y-39844D01*
X59821Y-39776D01*
X59732Y-39740D01*
X59637Y-39740D01*
X59556Y-39773D01*
X59477Y-39740D01*
X59381Y-39740D01*
X59293Y-39776D01*
X59225Y-39844D01*
X59189Y-39932D01*
X59189Y-40027D01*
X59225Y-40116D01*
X59293Y-40183D01*
X59381Y-40220D01*
X59476Y-40220D01*
X59557Y-40187D01*
X59637Y-40220D01*
X59732Y-40220D01*
X59820Y-40183D01*
X59888Y-40116D01*
X59924Y-40028D01*
X59925Y-39932D01*
X59925Y-56939D01*
X59905Y-56919D01*
X59905Y-53377D01*
X59885Y-53330D01*
X59885Y-48794D01*
X59885Y-47196D01*
X59849Y-47108D01*
X59806Y-47065D01*
X59806Y-44873D01*
X59770Y-44785D01*
X59703Y-44717D01*
X59614Y-44681D01*
X59519Y-44681D01*
X59431Y-44717D01*
X59419Y-44729D01*
X59388Y-44698D01*
X59299Y-44661D01*
X59204Y-44661D01*
X59180Y-44671D01*
X59180Y-40702D01*
X59143Y-40614D01*
X59076Y-40546D01*
X58987Y-40510D01*
X58892Y-40509D01*
X58804Y-40546D01*
X58736Y-40613D01*
X58700Y-40702D01*
X58700Y-40721D01*
X56645Y-42775D01*
X56604Y-42837D01*
X56590Y-42910D01*
X56590Y-43671D01*
X56263Y-43997D01*
X56263Y-43279D01*
X56253Y-43254D01*
X56253Y-41275D01*
X56220Y-41194D01*
X56187Y-41161D01*
X56219Y-41128D01*
X56253Y-41047D01*
X56253Y-40960D01*
X56220Y-40879D01*
X56158Y-40817D01*
X56077Y-40783D01*
X55989Y-40783D01*
X55909Y-40817D01*
X55847Y-40879D01*
X55813Y-40959D01*
X55813Y-41047D01*
X55846Y-41128D01*
X55879Y-41161D01*
X55847Y-41194D01*
X55813Y-41274D01*
X55813Y-41362D01*
X55846Y-41443D01*
X55908Y-41505D01*
X55989Y-41538D01*
X56077Y-41538D01*
X56157Y-41505D01*
X56219Y-41443D01*
X56253Y-41362D01*
X56253Y-41275D01*
X56253Y-43254D01*
X56227Y-43191D01*
X56159Y-43123D01*
X56071Y-43086D01*
X55976Y-43086D01*
X55887Y-43123D01*
X55820Y-43190D01*
X55783Y-43278D01*
X55783Y-43374D01*
X55820Y-43462D01*
X55887Y-43530D01*
X55975Y-43566D01*
X56071Y-43566D01*
X56159Y-43530D01*
X56226Y-43462D01*
X56263Y-43374D01*
X56263Y-43279D01*
X56263Y-43997D01*
X56161Y-44100D01*
X56161Y-44039D01*
X56124Y-43950D01*
X56057Y-43883D01*
X55969Y-43846D01*
X55941Y-43846D01*
X55924Y-43805D01*
X55856Y-43737D01*
X55768Y-43700D01*
X55672Y-43700D01*
X55584Y-43737D01*
X55517Y-43804D01*
X55480Y-43892D01*
X55480Y-43988D01*
X55516Y-44076D01*
X55584Y-44144D01*
X55672Y-44180D01*
X55700Y-44180D01*
X55717Y-44222D01*
X55775Y-44280D01*
X54684Y-44280D01*
X54684Y-38544D01*
X54634Y-38424D01*
X54542Y-38331D01*
X54422Y-38282D01*
X54292Y-38281D01*
X54172Y-38331D01*
X54080Y-38423D01*
X54030Y-38543D01*
X54029Y-38673D01*
X54079Y-38794D01*
X54171Y-38886D01*
X54291Y-38936D01*
X54422Y-38936D01*
X54542Y-38886D01*
X54634Y-38794D01*
X54684Y-38674D01*
X54684Y-38544D01*
X54684Y-44280D01*
X54456Y-44280D01*
X54491Y-44226D01*
X54491Y-44226D01*
X54505Y-44160D01*
X54505Y-43950D01*
X54491Y-43883D01*
X54491Y-43883D01*
X54453Y-43826D01*
X53765Y-43137D01*
X53765Y-42709D01*
X53870Y-42815D01*
X54040Y-42886D01*
X54225Y-42886D01*
X54396Y-42815D01*
X54527Y-42684D01*
X54598Y-42514D01*
X54598Y-42329D01*
X54528Y-42158D01*
X54397Y-42027D01*
X54226Y-41956D01*
X54041Y-41956D01*
X53870Y-42026D01*
X53765Y-42132D01*
X53765Y-39510D01*
X53761Y-39493D01*
X53865Y-39493D01*
X53985Y-39443D01*
X54077Y-39351D01*
X54127Y-39231D01*
X54127Y-39101D01*
X54077Y-38980D01*
X53986Y-38888D01*
X53865Y-38838D01*
X53735Y-38838D01*
X53615Y-38888D01*
X53543Y-38960D01*
X53533Y-38946D01*
X53435Y-38847D01*
X53435Y-38706D01*
X53475Y-38747D01*
X53595Y-38797D01*
X53726Y-38797D01*
X53846Y-38747D01*
X53938Y-38655D01*
X53988Y-38535D01*
X53988Y-38405D01*
X53938Y-38284D01*
X53846Y-38192D01*
X53726Y-38142D01*
X53596Y-38142D01*
X53476Y-38192D01*
X53435Y-38233D01*
X53435Y-38090D01*
X53426Y-38045D01*
X53531Y-38045D01*
X53651Y-37995D01*
X53743Y-37903D01*
X53793Y-37783D01*
X53793Y-37653D01*
X53770Y-37598D01*
X53814Y-37554D01*
X53814Y-37554D01*
X53814Y-37554D01*
X53855Y-37492D01*
X53864Y-37449D01*
X53957Y-37488D01*
X54087Y-37488D01*
X54208Y-37439D01*
X54300Y-37347D01*
X54350Y-37226D01*
X54350Y-37096D01*
X54300Y-36976D01*
X54208Y-36884D01*
X54088Y-36834D01*
X53958Y-36834D01*
X53870Y-36870D01*
X53870Y-36616D01*
X53955Y-36652D01*
X53961Y-36654D01*
X54013Y-36622D01*
X54013Y-36350D01*
X54017Y-36346D01*
X54013Y-36341D01*
X54013Y-36336D01*
X54013Y-36316D01*
X54013Y-36030D01*
X53961Y-35998D01*
X53840Y-36047D01*
X53747Y-36138D01*
X53696Y-36258D01*
X53695Y-36264D01*
X53727Y-36316D01*
X54013Y-36316D01*
X54013Y-36336D01*
X54007Y-36336D01*
X54003Y-36331D01*
X53999Y-36336D01*
X53727Y-36336D01*
X53707Y-36368D01*
X53380Y-36041D01*
X53380Y-34509D01*
X53393Y-34496D01*
X53429Y-34407D01*
X53430Y-34312D01*
X53393Y-34224D01*
X53326Y-34156D01*
X53237Y-34120D01*
X53142Y-34119D01*
X53054Y-34156D01*
X52986Y-34223D01*
X52950Y-34312D01*
X52949Y-34407D01*
X52986Y-34495D01*
X53000Y-34509D01*
X53000Y-36120D01*
X53014Y-36192D01*
X53055Y-36254D01*
X53490Y-36688D01*
X53490Y-36735D01*
X53392Y-36695D01*
X53262Y-36695D01*
X53142Y-36744D01*
X53049Y-36836D01*
X53000Y-36957D01*
X52999Y-37087D01*
X53049Y-37207D01*
X53107Y-37265D01*
X53013Y-37359D01*
X52955Y-37301D01*
X52835Y-37252D01*
X52705Y-37251D01*
X52585Y-37301D01*
X52493Y-37393D01*
X52443Y-37513D01*
X52443Y-37643D01*
X52492Y-37764D01*
X52584Y-37856D01*
X52705Y-37906D01*
X52835Y-37906D01*
X52935Y-37865D01*
X52935Y-37940D01*
X52936Y-37947D01*
X52844Y-37947D01*
X52724Y-37997D01*
X52632Y-38089D01*
X52606Y-38151D01*
X52569Y-38135D01*
X52470Y-38135D01*
X52385Y-38170D01*
X52351Y-38090D01*
X52259Y-37997D01*
X52139Y-37948D01*
X52009Y-37947D01*
X51889Y-37997D01*
X51797Y-38089D01*
X51747Y-38209D01*
X51747Y-38339D01*
X51750Y-38347D01*
X50912Y-37509D01*
X50975Y-37483D01*
X51043Y-37416D01*
X51072Y-37346D01*
X51175Y-37389D01*
X51376Y-37389D01*
X51561Y-37312D01*
X51703Y-37171D01*
X51780Y-36985D01*
X51780Y-36785D01*
X51708Y-36609D01*
X51882Y-36682D01*
X52083Y-36682D01*
X52268Y-36605D01*
X52410Y-36463D01*
X52487Y-36278D01*
X52487Y-36078D01*
X52411Y-35892D01*
X52269Y-35750D01*
X52227Y-35733D01*
X52227Y-32013D01*
X52194Y-31932D01*
X52132Y-31870D01*
X52051Y-31837D01*
X51964Y-31837D01*
X51883Y-31870D01*
X51821Y-31932D01*
X51787Y-32013D01*
X51787Y-32100D01*
X51821Y-32181D01*
X51883Y-32243D01*
X51963Y-32277D01*
X52051Y-32277D01*
X52132Y-32243D01*
X52194Y-32181D01*
X52227Y-32101D01*
X52227Y-32013D01*
X52227Y-35733D01*
X52084Y-35673D01*
X51883Y-35673D01*
X51698Y-35750D01*
X51556Y-35891D01*
X51479Y-36077D01*
X51479Y-36277D01*
X51551Y-36453D01*
X51377Y-36380D01*
X51370Y-36380D01*
X51370Y-33280D01*
X51332Y-33188D01*
X51261Y-33118D01*
X51169Y-33080D01*
X51070Y-33079D01*
X50978Y-33117D01*
X50908Y-33188D01*
X50870Y-33280D01*
X50869Y-33379D01*
X50907Y-33471D01*
X50978Y-33541D01*
X51070Y-33579D01*
X51169Y-33580D01*
X51261Y-33542D01*
X51331Y-33471D01*
X51369Y-33379D01*
X51370Y-33280D01*
X51370Y-36380D01*
X51176Y-36380D01*
X50991Y-36457D01*
X50879Y-36568D01*
X50879Y-34793D01*
X50841Y-34701D01*
X50771Y-34630D01*
X50679Y-34592D01*
X50580Y-34592D01*
X50488Y-34630D01*
X50418Y-34700D01*
X50379Y-34792D01*
X50379Y-34892D01*
X50417Y-34983D01*
X50488Y-35054D01*
X50579Y-35092D01*
X50679Y-35092D01*
X50771Y-35054D01*
X50841Y-34984D01*
X50879Y-34892D01*
X50879Y-34793D01*
X50879Y-36568D01*
X50849Y-36598D01*
X50772Y-36784D01*
X50771Y-36984D01*
X50794Y-37039D01*
X50792Y-37039D01*
X50704Y-37076D01*
X50636Y-37143D01*
X50610Y-37207D01*
X49330Y-35927D01*
X49330Y-35513D01*
X49341Y-35501D01*
X49379Y-35409D01*
X49380Y-35310D01*
X49342Y-35218D01*
X49271Y-35148D01*
X49179Y-35110D01*
X49080Y-35109D01*
X48988Y-35147D01*
X48918Y-35218D01*
X48880Y-35310D01*
X48879Y-35409D01*
X48917Y-35501D01*
X48930Y-35513D01*
X48930Y-36010D01*
X48945Y-36086D01*
X48988Y-36151D01*
X50824Y-37987D01*
X50783Y-37970D01*
X50543Y-37970D01*
X50322Y-38061D01*
X50152Y-38231D01*
X50060Y-38452D01*
X50060Y-38692D01*
X50151Y-38913D01*
X50321Y-39083D01*
X50542Y-39175D01*
X50782Y-39175D01*
X51003Y-39084D01*
X51173Y-38914D01*
X51265Y-38693D01*
X51265Y-38453D01*
X51248Y-38411D01*
X51450Y-38612D01*
X51450Y-38830D01*
X51465Y-38906D01*
X51508Y-38971D01*
X51948Y-39411D01*
X52013Y-39454D01*
X52013Y-39454D01*
X52090Y-39470D01*
X52610Y-39470D01*
X52686Y-39454D01*
X52749Y-39412D01*
X52779Y-39443D01*
X52899Y-39493D01*
X53010Y-39493D01*
X52966Y-39537D01*
X52916Y-39657D01*
X52916Y-39787D01*
X52966Y-39907D01*
X53058Y-39999D01*
X53178Y-40049D01*
X53308Y-40049D01*
X53415Y-40005D01*
X53415Y-43210D01*
X53426Y-43266D01*
X53396Y-43236D01*
X53307Y-43200D01*
X53212Y-43199D01*
X53124Y-43236D01*
X53056Y-43303D01*
X53020Y-43392D01*
X53019Y-43487D01*
X53056Y-43575D01*
X53123Y-43643D01*
X53212Y-43679D01*
X53307Y-43680D01*
X53395Y-43643D01*
X53463Y-43576D01*
X53499Y-43487D01*
X53500Y-43392D01*
X53482Y-43349D01*
X54155Y-44022D01*
X54155Y-44087D01*
X53840Y-44402D01*
X53840Y-43877D01*
X53803Y-43789D01*
X53736Y-43721D01*
X53647Y-43685D01*
X53552Y-43684D01*
X53464Y-43721D01*
X53396Y-43788D01*
X53360Y-43877D01*
X53359Y-43972D01*
X53387Y-44039D01*
X53349Y-44055D01*
X53288Y-44117D01*
X53254Y-44198D01*
X53254Y-44285D01*
X53287Y-44366D01*
X53349Y-44428D01*
X53430Y-44462D01*
X53517Y-44462D01*
X53598Y-44428D01*
X53660Y-44366D01*
X53694Y-44286D01*
X53694Y-44198D01*
X53675Y-44153D01*
X53735Y-44128D01*
X53803Y-44061D01*
X53839Y-43972D01*
X53840Y-43877D01*
X53840Y-44402D01*
X53812Y-44429D01*
X53796Y-44429D01*
X53715Y-44463D01*
X53653Y-44525D01*
X53620Y-44606D01*
X53619Y-44693D01*
X53653Y-44774D01*
X53715Y-44836D01*
X53722Y-44839D01*
X53191Y-45370D01*
X52847Y-45370D01*
X52847Y-40034D01*
X52755Y-39813D01*
X52586Y-39643D01*
X52364Y-39551D01*
X52124Y-39551D01*
X51903Y-39642D01*
X51733Y-39812D01*
X51641Y-40033D01*
X51641Y-40273D01*
X51732Y-40495D01*
X51902Y-40664D01*
X52123Y-40756D01*
X52363Y-40757D01*
X52585Y-40665D01*
X52754Y-40496D01*
X52846Y-40274D01*
X52847Y-40034D01*
X52847Y-45370D01*
X52540Y-45370D01*
X52540Y-43852D01*
X52503Y-43764D01*
X52436Y-43696D01*
X52347Y-43660D01*
X52252Y-43659D01*
X52164Y-43696D01*
X52096Y-43763D01*
X52060Y-43852D01*
X52059Y-43947D01*
X52096Y-44035D01*
X52163Y-44103D01*
X52252Y-44139D01*
X52347Y-44140D01*
X52435Y-44103D01*
X52503Y-44036D01*
X52539Y-43947D01*
X52540Y-43852D01*
X52540Y-45370D01*
X51765Y-45370D01*
X51765Y-45094D01*
X51731Y-45013D01*
X51710Y-44991D01*
X51710Y-41970D01*
X51672Y-41878D01*
X51601Y-41808D01*
X51509Y-41770D01*
X51470Y-41770D01*
X51470Y-40399D01*
X51436Y-40318D01*
X51374Y-40256D01*
X51293Y-40222D01*
X51206Y-40222D01*
X51125Y-40256D01*
X51063Y-40318D01*
X51030Y-40398D01*
X51029Y-40486D01*
X51063Y-40567D01*
X51125Y-40629D01*
X51206Y-40662D01*
X51293Y-40662D01*
X51374Y-40629D01*
X51436Y-40567D01*
X51469Y-40486D01*
X51470Y-40399D01*
X51470Y-41770D01*
X51410Y-41769D01*
X51318Y-41807D01*
X51248Y-41878D01*
X51210Y-41970D01*
X51209Y-42069D01*
X51247Y-42161D01*
X51318Y-42231D01*
X51410Y-42269D01*
X51509Y-42270D01*
X51601Y-42232D01*
X51671Y-42161D01*
X51709Y-42069D01*
X51710Y-41970D01*
X51710Y-44991D01*
X51670Y-44951D01*
X51589Y-44917D01*
X51540Y-44917D01*
X51540Y-43602D01*
X51503Y-43514D01*
X51436Y-43446D01*
X51347Y-43410D01*
X51252Y-43409D01*
X51164Y-43446D01*
X51100Y-43510D01*
X51100Y-42360D01*
X51062Y-42268D01*
X50991Y-42198D01*
X50899Y-42160D01*
X50800Y-42159D01*
X50708Y-42197D01*
X50638Y-42268D01*
X50600Y-42360D01*
X50599Y-42459D01*
X50637Y-42551D01*
X50708Y-42621D01*
X50800Y-42659D01*
X50899Y-42660D01*
X50991Y-42622D01*
X51061Y-42551D01*
X51099Y-42459D01*
X51100Y-42360D01*
X51100Y-43510D01*
X51096Y-43513D01*
X51090Y-43529D01*
X51090Y-43290D01*
X51052Y-43198D01*
X50981Y-43128D01*
X50889Y-43090D01*
X50790Y-43089D01*
X50698Y-43127D01*
X50628Y-43198D01*
X50590Y-43290D01*
X50589Y-43389D01*
X50627Y-43481D01*
X50698Y-43551D01*
X50790Y-43589D01*
X50889Y-43590D01*
X50981Y-43552D01*
X51051Y-43481D01*
X51089Y-43389D01*
X51090Y-43290D01*
X51090Y-43529D01*
X51060Y-43602D01*
X51059Y-43697D01*
X51096Y-43785D01*
X51163Y-43853D01*
X51252Y-43889D01*
X51347Y-43890D01*
X51435Y-43853D01*
X51503Y-43786D01*
X51539Y-43697D01*
X51540Y-43602D01*
X51540Y-44917D01*
X51501Y-44917D01*
X51420Y-44951D01*
X51358Y-45013D01*
X51325Y-45093D01*
X51325Y-45181D01*
X51358Y-45262D01*
X51420Y-45324D01*
X51501Y-45357D01*
X51588Y-45357D01*
X51669Y-45324D01*
X51731Y-45262D01*
X51765Y-45181D01*
X51765Y-45094D01*
X51765Y-45370D01*
X51320Y-45370D01*
X51247Y-45384D01*
X51185Y-45425D01*
X50930Y-45681D01*
X50930Y-44322D01*
X50893Y-44234D01*
X50826Y-44166D01*
X50788Y-44150D01*
X50853Y-44086D01*
X50889Y-43997D01*
X50890Y-43902D01*
X50853Y-43814D01*
X50786Y-43746D01*
X50697Y-43710D01*
X50602Y-43709D01*
X50514Y-43746D01*
X50480Y-43780D01*
X50480Y-40152D01*
X50443Y-40064D01*
X50376Y-39996D01*
X50287Y-39960D01*
X50192Y-39959D01*
X50104Y-39996D01*
X50036Y-40063D01*
X50000Y-40152D01*
X49999Y-40247D01*
X50036Y-40335D01*
X50103Y-40403D01*
X50192Y-40439D01*
X50287Y-40440D01*
X50375Y-40403D01*
X50443Y-40336D01*
X50479Y-40247D01*
X50480Y-40152D01*
X50480Y-43780D01*
X50446Y-43813D01*
X50410Y-43902D01*
X50410Y-43935D01*
X50347Y-43910D01*
X50252Y-43909D01*
X50250Y-43910D01*
X50279Y-43839D01*
X50280Y-43740D01*
X50242Y-43648D01*
X50171Y-43578D01*
X50079Y-43540D01*
X49980Y-43539D01*
X49888Y-43577D01*
X49818Y-43648D01*
X49780Y-43740D01*
X49779Y-43839D01*
X49817Y-43931D01*
X49888Y-44001D01*
X49980Y-44039D01*
X50079Y-44040D01*
X50087Y-44036D01*
X50060Y-44102D01*
X50059Y-44197D01*
X50096Y-44285D01*
X50163Y-44353D01*
X50252Y-44389D01*
X50347Y-44390D01*
X50435Y-44353D01*
X50450Y-44339D01*
X50449Y-44417D01*
X50486Y-44505D01*
X50553Y-44573D01*
X50642Y-44609D01*
X50737Y-44610D01*
X50825Y-44573D01*
X50893Y-44506D01*
X50929Y-44417D01*
X50930Y-44322D01*
X50930Y-45681D01*
X50890Y-45721D01*
X50890Y-45080D01*
X50852Y-44988D01*
X50781Y-44918D01*
X50689Y-44880D01*
X50590Y-44879D01*
X50498Y-44917D01*
X50428Y-44988D01*
X50390Y-45080D01*
X50389Y-45179D01*
X50427Y-45271D01*
X50498Y-45341D01*
X50590Y-45379D01*
X50689Y-45380D01*
X50781Y-45342D01*
X50851Y-45271D01*
X50889Y-45179D01*
X50890Y-45080D01*
X50890Y-45721D01*
X50825Y-45785D01*
X50825Y-45785D01*
X50795Y-45805D01*
X50795Y-45805D01*
X50506Y-46095D01*
X50260Y-46095D01*
X50260Y-45220D01*
X50222Y-45128D01*
X50151Y-45058D01*
X50059Y-45020D01*
X49960Y-45019D01*
X49868Y-45057D01*
X49798Y-45128D01*
X49760Y-45220D01*
X49759Y-45319D01*
X49797Y-45411D01*
X49868Y-45481D01*
X49960Y-45519D01*
X50059Y-45520D01*
X50151Y-45482D01*
X50221Y-45411D01*
X50259Y-45319D01*
X50260Y-45220D01*
X50260Y-46095D01*
X50224Y-46095D01*
X50211Y-46081D01*
X50122Y-46045D01*
X50027Y-46044D01*
X49939Y-46081D01*
X49871Y-46148D01*
X49835Y-46237D01*
X49834Y-46332D01*
X49871Y-46420D01*
X49938Y-46488D01*
X50027Y-46524D01*
X50122Y-46525D01*
X50210Y-46488D01*
X50224Y-46475D01*
X50585Y-46475D01*
X50657Y-46460D01*
X50719Y-46419D01*
X51044Y-46094D01*
X51074Y-46074D01*
X51398Y-45750D01*
X52216Y-45750D01*
X52175Y-45790D01*
X52142Y-45871D01*
X52142Y-45958D01*
X52175Y-46039D01*
X52237Y-46101D01*
X52318Y-46135D01*
X52405Y-46135D01*
X52486Y-46101D01*
X52548Y-46040D01*
X52582Y-45959D01*
X52582Y-45871D01*
X52548Y-45790D01*
X52507Y-45750D01*
X53270Y-45750D01*
X53342Y-45735D01*
X53404Y-45694D01*
X54061Y-45037D01*
X54085Y-45094D01*
X54146Y-45156D01*
X54227Y-45190D01*
X54315Y-45190D01*
X54396Y-45157D01*
X54458Y-45095D01*
X54491Y-45014D01*
X54491Y-44926D01*
X54458Y-44846D01*
X54396Y-44784D01*
X54338Y-44760D01*
X54438Y-44660D01*
X56060Y-44660D01*
X56132Y-44645D01*
X56194Y-44604D01*
X56225Y-44572D01*
X56293Y-44640D01*
X56381Y-44676D01*
X56476Y-44677D01*
X56564Y-44640D01*
X56632Y-44573D01*
X56669Y-44484D01*
X56669Y-44389D01*
X56632Y-44301D01*
X56565Y-44233D01*
X56565Y-44233D01*
X56914Y-43884D01*
X56955Y-43822D01*
X56970Y-43750D01*
X56970Y-43750D01*
X56970Y-43749D01*
X56970Y-42988D01*
X58968Y-40990D01*
X58987Y-40990D01*
X59075Y-40953D01*
X59143Y-40886D01*
X59179Y-40797D01*
X59180Y-40702D01*
X59180Y-44671D01*
X59116Y-44697D01*
X59092Y-44721D01*
X59037Y-44666D01*
X58949Y-44630D01*
X58854Y-44630D01*
X58765Y-44666D01*
X58740Y-44692D01*
X58718Y-44670D01*
X58630Y-44634D01*
X58535Y-44633D01*
X58446Y-44670D01*
X58379Y-44737D01*
X58342Y-44826D01*
X58342Y-44921D01*
X58379Y-45009D01*
X58446Y-45077D01*
X58534Y-45113D01*
X58630Y-45114D01*
X58718Y-45077D01*
X58744Y-45052D01*
X58765Y-45073D01*
X58853Y-45110D01*
X58949Y-45110D01*
X59037Y-45073D01*
X59061Y-45050D01*
X59115Y-45104D01*
X59204Y-45141D01*
X59299Y-45141D01*
X59387Y-45105D01*
X59399Y-45093D01*
X59430Y-45124D01*
X59518Y-45161D01*
X59614Y-45161D01*
X59702Y-45124D01*
X59770Y-45057D01*
X59806Y-44969D01*
X59806Y-44873D01*
X59806Y-47065D01*
X59781Y-47040D01*
X59693Y-47004D01*
X59618Y-47004D01*
X59629Y-46977D01*
X59629Y-46881D01*
X59593Y-46793D01*
X59525Y-46725D01*
X59437Y-46689D01*
X59342Y-46689D01*
X59253Y-46725D01*
X59186Y-46793D01*
X59149Y-46881D01*
X59149Y-46976D01*
X59186Y-47064D01*
X59253Y-47132D01*
X59341Y-47169D01*
X59416Y-47169D01*
X59405Y-47196D01*
X59405Y-47291D01*
X59442Y-47379D01*
X59509Y-47447D01*
X59597Y-47484D01*
X59693Y-47484D01*
X59781Y-47447D01*
X59849Y-47380D01*
X59885Y-47292D01*
X59885Y-47196D01*
X59885Y-48794D01*
X59849Y-48706D01*
X59781Y-48639D01*
X59693Y-48602D01*
X59598Y-48602D01*
X59509Y-48638D01*
X59442Y-48706D01*
X59405Y-48794D01*
X59405Y-48890D01*
X59442Y-48978D01*
X59509Y-49045D01*
X59597Y-49082D01*
X59693Y-49082D01*
X59781Y-49046D01*
X59849Y-48978D01*
X59885Y-48890D01*
X59885Y-48794D01*
X59885Y-53330D01*
X59868Y-53289D01*
X59801Y-53221D01*
X59713Y-53185D01*
X59617Y-53185D01*
X59529Y-53221D01*
X59462Y-53289D01*
X59425Y-53377D01*
X59425Y-53472D01*
X59461Y-53560D01*
X59529Y-53628D01*
X59617Y-53665D01*
X59712Y-53665D01*
X59801Y-53628D01*
X59868Y-53561D01*
X59905Y-53473D01*
X59905Y-53377D01*
X59905Y-56919D01*
X59821Y-56835D01*
X59661Y-56769D01*
X59550Y-56769D01*
X59550Y-53822D01*
X59513Y-53734D01*
X59446Y-53666D01*
X59357Y-53630D01*
X59262Y-53629D01*
X59196Y-53657D01*
X58980Y-53441D01*
X58980Y-46924D01*
X58943Y-46836D01*
X58876Y-46769D01*
X58788Y-46732D01*
X58692Y-46732D01*
X58604Y-46768D01*
X58547Y-46826D01*
X58547Y-45436D01*
X58510Y-45348D01*
X58443Y-45280D01*
X58355Y-45244D01*
X58259Y-45244D01*
X58236Y-45253D01*
X58236Y-44818D01*
X58199Y-44730D01*
X58132Y-44662D01*
X58044Y-44626D01*
X57948Y-44626D01*
X57860Y-44662D01*
X57792Y-44730D01*
X57756Y-44818D01*
X57756Y-44913D01*
X57792Y-45001D01*
X57859Y-45069D01*
X57948Y-45106D01*
X58043Y-45106D01*
X58131Y-45069D01*
X58199Y-45002D01*
X58236Y-44914D01*
X58236Y-44818D01*
X58236Y-45253D01*
X58171Y-45280D01*
X58103Y-45348D01*
X58067Y-45436D01*
X58067Y-45531D01*
X58103Y-45620D01*
X58170Y-45687D01*
X58259Y-45724D01*
X58354Y-45724D01*
X58442Y-45687D01*
X58510Y-45620D01*
X58547Y-45532D01*
X58547Y-45436D01*
X58547Y-46826D01*
X58536Y-46836D01*
X58500Y-46924D01*
X58500Y-47019D01*
X58536Y-47108D01*
X58604Y-47175D01*
X58692Y-47212D01*
X58787Y-47212D01*
X58875Y-47176D01*
X58943Y-47108D01*
X58980Y-47020D01*
X58980Y-46924D01*
X58980Y-53441D01*
X57909Y-52370D01*
X57909Y-45413D01*
X57872Y-45324D01*
X57805Y-45257D01*
X57717Y-45220D01*
X57621Y-45220D01*
X57612Y-45224D01*
X57612Y-44844D01*
X57574Y-44752D01*
X57504Y-44681D01*
X57412Y-44643D01*
X57312Y-44643D01*
X57220Y-44681D01*
X57150Y-44751D01*
X57112Y-44843D01*
X57112Y-44943D01*
X57150Y-45035D01*
X57220Y-45105D01*
X57312Y-45143D01*
X57411Y-45143D01*
X57503Y-45105D01*
X57574Y-45035D01*
X57612Y-44943D01*
X57612Y-44844D01*
X57612Y-45224D01*
X57533Y-45257D01*
X57465Y-45324D01*
X57429Y-45412D01*
X57429Y-45508D01*
X57465Y-45596D01*
X57533Y-45663D01*
X57621Y-45700D01*
X57716Y-45700D01*
X57805Y-45664D01*
X57872Y-45596D01*
X57909Y-45508D01*
X57909Y-45413D01*
X57909Y-52370D01*
X57263Y-51724D01*
X57263Y-45417D01*
X57227Y-45328D01*
X57159Y-45261D01*
X57071Y-45224D01*
X56976Y-45224D01*
X56972Y-45226D01*
X56972Y-44818D01*
X56935Y-44730D01*
X56868Y-44662D01*
X56780Y-44626D01*
X56684Y-44626D01*
X56596Y-44662D01*
X56528Y-44730D01*
X56492Y-44818D01*
X56492Y-44913D01*
X56528Y-45001D01*
X56596Y-45069D01*
X56684Y-45106D01*
X56779Y-45106D01*
X56868Y-45069D01*
X56935Y-45002D01*
X56972Y-44914D01*
X56972Y-44818D01*
X56972Y-45226D01*
X56887Y-45260D01*
X56820Y-45328D01*
X56783Y-45416D01*
X56783Y-45512D01*
X56820Y-45600D01*
X56887Y-45667D01*
X56975Y-45704D01*
X57071Y-45704D01*
X57159Y-45668D01*
X57226Y-45600D01*
X57263Y-45512D01*
X57263Y-45417D01*
X57263Y-51724D01*
X55540Y-50001D01*
X55540Y-47552D01*
X55503Y-47464D01*
X55436Y-47396D01*
X55371Y-47369D01*
X55410Y-47353D01*
X55478Y-47286D01*
X55514Y-47197D01*
X55515Y-47102D01*
X55478Y-47014D01*
X55451Y-46987D01*
X55478Y-46961D01*
X55514Y-46872D01*
X55515Y-46777D01*
X55484Y-46704D01*
X55503Y-46686D01*
X55539Y-46597D01*
X55540Y-46502D01*
X55540Y-45377D01*
X55503Y-45289D01*
X55436Y-45221D01*
X55347Y-45185D01*
X55252Y-45184D01*
X55164Y-45221D01*
X55096Y-45288D01*
X55060Y-45377D01*
X55059Y-45472D01*
X55096Y-45560D01*
X55163Y-45628D01*
X55252Y-45664D01*
X55347Y-45665D01*
X55435Y-45628D01*
X55503Y-45561D01*
X55539Y-45472D01*
X55540Y-45377D01*
X55540Y-46502D01*
X55503Y-46414D01*
X55436Y-46346D01*
X55347Y-46310D01*
X55252Y-46309D01*
X55164Y-46346D01*
X55096Y-46413D01*
X55060Y-46502D01*
X55059Y-46597D01*
X55090Y-46670D01*
X55071Y-46688D01*
X55035Y-46777D01*
X55034Y-46872D01*
X55071Y-46960D01*
X55098Y-46987D01*
X55071Y-47013D01*
X55035Y-47102D01*
X55034Y-47197D01*
X55071Y-47285D01*
X55138Y-47353D01*
X55203Y-47380D01*
X55164Y-47396D01*
X55096Y-47463D01*
X55060Y-47552D01*
X55060Y-47559D01*
X55052Y-47559D01*
X54964Y-47596D01*
X54896Y-47663D01*
X54860Y-47752D01*
X54859Y-47847D01*
X54896Y-47935D01*
X54963Y-48003D01*
X55052Y-48039D01*
X55147Y-48040D01*
X55235Y-48003D01*
X55303Y-47936D01*
X55339Y-47847D01*
X55339Y-47840D01*
X55347Y-47840D01*
X55435Y-47803D01*
X55503Y-47736D01*
X55539Y-47647D01*
X55540Y-47552D01*
X55540Y-50001D01*
X54321Y-48783D01*
X54405Y-48783D01*
X54494Y-48746D01*
X54561Y-48679D01*
X54598Y-48591D01*
X54598Y-48495D01*
X54561Y-48407D01*
X54527Y-48373D01*
X54562Y-48288D01*
X54562Y-48192D01*
X54526Y-48104D01*
X54502Y-48080D01*
X54561Y-48021D01*
X54598Y-47933D01*
X54598Y-47838D01*
X54561Y-47750D01*
X54544Y-47732D01*
X54600Y-47675D01*
X54637Y-47587D01*
X54637Y-47491D01*
X54601Y-47403D01*
X54533Y-47336D01*
X54445Y-47299D01*
X54350Y-47299D01*
X54261Y-47335D01*
X54235Y-47361D01*
X54235Y-45763D01*
X54202Y-45682D01*
X54140Y-45620D01*
X54059Y-45587D01*
X53972Y-45587D01*
X53891Y-45620D01*
X53829Y-45682D01*
X53795Y-45763D01*
X53795Y-45850D01*
X53829Y-45931D01*
X53890Y-45993D01*
X53971Y-46027D01*
X54059Y-46027D01*
X54140Y-45993D01*
X54202Y-45931D01*
X54235Y-45851D01*
X54235Y-45763D01*
X54235Y-47361D01*
X54194Y-47403D01*
X54157Y-47491D01*
X54157Y-47586D01*
X54194Y-47675D01*
X54211Y-47692D01*
X54154Y-47749D01*
X54118Y-47837D01*
X54118Y-47933D01*
X54154Y-48021D01*
X54178Y-48045D01*
X54119Y-48104D01*
X54082Y-48192D01*
X54082Y-48287D01*
X54119Y-48375D01*
X54153Y-48410D01*
X54118Y-48495D01*
X54118Y-48579D01*
X53290Y-47752D01*
X53290Y-46088D01*
X53257Y-46007D01*
X53195Y-45945D01*
X53114Y-45911D01*
X53027Y-45911D01*
X52946Y-45945D01*
X52884Y-46007D01*
X52850Y-46087D01*
X52850Y-46175D01*
X52884Y-46256D01*
X52946Y-46318D01*
X53026Y-46351D01*
X53114Y-46351D01*
X53195Y-46318D01*
X53257Y-46256D01*
X53290Y-46175D01*
X53290Y-46088D01*
X53290Y-47752D01*
X52294Y-46755D01*
X52336Y-46755D01*
X52417Y-46722D01*
X52479Y-46660D01*
X52513Y-46579D01*
X52513Y-46491D01*
X52479Y-46410D01*
X52418Y-46349D01*
X52337Y-46315D01*
X52249Y-46315D01*
X52168Y-46348D01*
X52106Y-46410D01*
X52073Y-46491D01*
X52073Y-46534D01*
X51730Y-46191D01*
X51730Y-46172D01*
X51693Y-46084D01*
X51626Y-46016D01*
X51537Y-45980D01*
X51442Y-45979D01*
X51354Y-46016D01*
X51286Y-46083D01*
X51250Y-46172D01*
X51249Y-46267D01*
X51286Y-46355D01*
X51290Y-46359D01*
X51270Y-46359D01*
X51178Y-46397D01*
X51108Y-46468D01*
X51070Y-46560D01*
X51069Y-46659D01*
X51107Y-46751D01*
X51178Y-46821D01*
X51270Y-46859D01*
X51369Y-46860D01*
X51461Y-46822D01*
X51531Y-46751D01*
X51569Y-46659D01*
X51570Y-46568D01*
X59005Y-54004D01*
X59067Y-54045D01*
X59140Y-54060D01*
X59140Y-54060D01*
X59140Y-54060D01*
X59160Y-54060D01*
X59173Y-54073D01*
X59262Y-54109D01*
X59357Y-54110D01*
X59445Y-54073D01*
X59513Y-54006D01*
X59549Y-53917D01*
X59550Y-53822D01*
X59550Y-56769D01*
X59488Y-56769D01*
X59328Y-56835D01*
X59205Y-56957D01*
X59139Y-57117D01*
X59139Y-57290D01*
X59205Y-57451D01*
X59327Y-57573D01*
X59487Y-57640D01*
X59661Y-57640D01*
X59821Y-57574D01*
X59943Y-57451D01*
X60010Y-57291D01*
X60010Y-57118D01*
X60010Y-57743D01*
X59857Y-57743D01*
X59657Y-57783D01*
X59487Y-57897D01*
X59373Y-58067D01*
X59333Y-58267D01*
X59373Y-58468D01*
X59487Y-58638D01*
X59654Y-58750D01*
X58041Y-58750D01*
X58041Y-57118D01*
X57975Y-56958D01*
X57853Y-56835D01*
X57729Y-56784D01*
X57729Y-55182D01*
X57696Y-55101D01*
X57634Y-55039D01*
X57632Y-55038D01*
X57661Y-54969D01*
X57661Y-54873D01*
X57624Y-54785D01*
X57557Y-54717D01*
X57469Y-54681D01*
X57412Y-54681D01*
X57428Y-54642D01*
X57429Y-54546D01*
X57392Y-54458D01*
X57325Y-54391D01*
X57243Y-54357D01*
X57243Y-54350D01*
X57207Y-54261D01*
X57140Y-54194D01*
X57051Y-54157D01*
X57026Y-54157D01*
X56994Y-54080D01*
X56927Y-54013D01*
X56839Y-53976D01*
X56814Y-53976D01*
X56814Y-53936D01*
X56778Y-53848D01*
X56710Y-53780D01*
X56622Y-53744D01*
X56586Y-53744D01*
X56586Y-53724D01*
X56550Y-53635D01*
X56482Y-53568D01*
X56394Y-53531D01*
X56298Y-53531D01*
X56210Y-53568D01*
X56143Y-53635D01*
X56106Y-53723D01*
X56106Y-53819D01*
X56142Y-53907D01*
X56210Y-53974D01*
X56298Y-54011D01*
X56334Y-54011D01*
X56334Y-54031D01*
X56371Y-54120D01*
X56438Y-54187D01*
X56526Y-54224D01*
X56551Y-54224D01*
X56551Y-54264D01*
X56587Y-54352D01*
X56655Y-54419D01*
X56743Y-54456D01*
X56768Y-54456D01*
X56800Y-54533D01*
X56867Y-54600D01*
X56948Y-54634D01*
X56948Y-54642D01*
X56985Y-54730D01*
X57052Y-54797D01*
X57141Y-54834D01*
X57197Y-54834D01*
X57181Y-54873D01*
X57181Y-54968D01*
X57217Y-55057D01*
X57285Y-55124D01*
X57309Y-55134D01*
X57289Y-55182D01*
X57289Y-55269D01*
X57322Y-55348D01*
X57306Y-55354D01*
X57244Y-55416D01*
X57211Y-55497D01*
X57211Y-55557D01*
X57170Y-55557D01*
X57090Y-55590D01*
X57028Y-55652D01*
X56994Y-55733D01*
X56994Y-55821D01*
X57027Y-55902D01*
X57089Y-55963D01*
X57170Y-55997D01*
X57258Y-55997D01*
X57339Y-55964D01*
X57400Y-55902D01*
X57434Y-55821D01*
X57434Y-55761D01*
X57474Y-55761D01*
X57555Y-55727D01*
X57617Y-55666D01*
X57651Y-55585D01*
X57651Y-55497D01*
X57618Y-55419D01*
X57634Y-55412D01*
X57696Y-55351D01*
X57729Y-55270D01*
X57729Y-55182D01*
X57729Y-56784D01*
X57693Y-56769D01*
X57520Y-56769D01*
X57359Y-56835D01*
X57237Y-56957D01*
X57170Y-57117D01*
X57170Y-57290D01*
X57236Y-57451D01*
X57359Y-57573D01*
X57519Y-57640D01*
X57692Y-57640D01*
X57852Y-57574D01*
X57975Y-57451D01*
X58041Y-57291D01*
X58041Y-57118D01*
X58041Y-58750D01*
X57526Y-58750D01*
X57693Y-58638D01*
X57807Y-58468D01*
X57847Y-58267D01*
X57807Y-58067D01*
X57693Y-57897D01*
X57523Y-57783D01*
X57323Y-57743D01*
X57101Y-57743D01*
X56901Y-57783D01*
X56731Y-57897D01*
X56617Y-58067D01*
X56577Y-58267D01*
X56617Y-58468D01*
X56731Y-58638D01*
X56898Y-58750D01*
X56145Y-58750D01*
X56145Y-56389D01*
X56109Y-56301D01*
X56041Y-56233D01*
X55953Y-56197D01*
X55929Y-56197D01*
X55929Y-53054D01*
X55892Y-52966D01*
X55825Y-52899D01*
X55736Y-52862D01*
X55696Y-52862D01*
X55696Y-52830D01*
X55660Y-52742D01*
X55592Y-52674D01*
X55504Y-52637D01*
X55476Y-52637D01*
X55476Y-52606D01*
X55439Y-52517D01*
X55372Y-52450D01*
X55284Y-52413D01*
X55218Y-52413D01*
X55218Y-52407D01*
X55180Y-52315D01*
X55110Y-52244D01*
X55018Y-52206D01*
X54918Y-52206D01*
X54878Y-52223D01*
X54868Y-52198D01*
X54801Y-52131D01*
X54770Y-52118D01*
X54802Y-52040D01*
X54803Y-51944D01*
X54766Y-51856D01*
X54700Y-51790D01*
X54700Y-50735D01*
X54664Y-50647D01*
X54596Y-50580D01*
X54508Y-50543D01*
X54413Y-50543D01*
X54324Y-50579D01*
X54257Y-50647D01*
X54220Y-50735D01*
X54220Y-50830D01*
X54257Y-50919D01*
X54319Y-50982D01*
X54273Y-51001D01*
X54206Y-51068D01*
X54169Y-51156D01*
X54169Y-51252D01*
X54205Y-51340D01*
X54273Y-51408D01*
X54361Y-51444D01*
X54456Y-51444D01*
X54545Y-51408D01*
X54612Y-51340D01*
X54649Y-51252D01*
X54649Y-51157D01*
X54613Y-51068D01*
X54550Y-51006D01*
X54596Y-50987D01*
X54663Y-50919D01*
X54700Y-50831D01*
X54700Y-50735D01*
X54700Y-51790D01*
X54699Y-51788D01*
X54610Y-51752D01*
X54515Y-51752D01*
X54427Y-51788D01*
X54359Y-51855D01*
X54323Y-51944D01*
X54322Y-52039D01*
X54359Y-52127D01*
X54426Y-52195D01*
X54457Y-52208D01*
X54425Y-52286D01*
X54425Y-52382D01*
X54461Y-52470D01*
X54529Y-52537D01*
X54617Y-52574D01*
X54712Y-52574D01*
X54741Y-52562D01*
X54756Y-52598D01*
X54826Y-52668D01*
X54918Y-52706D01*
X54998Y-52706D01*
X55032Y-52789D01*
X55100Y-52856D01*
X55188Y-52893D01*
X55216Y-52893D01*
X55216Y-52925D01*
X55253Y-53013D01*
X55320Y-53081D01*
X55408Y-53117D01*
X55448Y-53117D01*
X55448Y-53149D01*
X55485Y-53238D01*
X55552Y-53305D01*
X55641Y-53342D01*
X55736Y-53342D01*
X55824Y-53305D01*
X55892Y-53238D01*
X55928Y-53150D01*
X55929Y-53054D01*
X55929Y-56197D01*
X55857Y-56196D01*
X55769Y-56233D01*
X55702Y-56300D01*
X55665Y-56389D01*
X55665Y-56484D01*
X55701Y-56572D01*
X55769Y-56640D01*
X55857Y-56676D01*
X55953Y-56677D01*
X56041Y-56640D01*
X56108Y-56573D01*
X56145Y-56484D01*
X56145Y-56389D01*
X56145Y-58750D01*
X53815Y-58750D01*
X53815Y-57868D01*
X53738Y-57683D01*
X53597Y-57541D01*
X53421Y-57468D01*
X53596Y-57396D01*
X53738Y-57254D01*
X53815Y-57069D01*
X53815Y-56868D01*
X53738Y-56683D01*
X53597Y-56541D01*
X53411Y-56464D01*
X53211Y-56464D01*
X53025Y-56540D01*
X52883Y-56682D01*
X52855Y-56751D01*
X52855Y-50630D01*
X52817Y-50538D01*
X52746Y-50468D01*
X52654Y-50430D01*
X52631Y-50430D01*
X52631Y-49877D01*
X52598Y-49796D01*
X52590Y-49788D01*
X52590Y-47750D01*
X52552Y-47658D01*
X52481Y-47588D01*
X52389Y-47550D01*
X52290Y-47549D01*
X52198Y-47587D01*
X52128Y-47658D01*
X52090Y-47750D01*
X52089Y-47849D01*
X52127Y-47941D01*
X52198Y-48011D01*
X52290Y-48049D01*
X52389Y-48050D01*
X52481Y-48012D01*
X52551Y-47941D01*
X52589Y-47849D01*
X52590Y-47750D01*
X52590Y-49788D01*
X52536Y-49734D01*
X52455Y-49701D01*
X52367Y-49701D01*
X52286Y-49734D01*
X52225Y-49796D01*
X52191Y-49877D01*
X52191Y-49964D01*
X52224Y-50045D01*
X52286Y-50107D01*
X52367Y-50141D01*
X52454Y-50141D01*
X52535Y-50107D01*
X52597Y-50046D01*
X52631Y-49965D01*
X52631Y-49877D01*
X52631Y-50430D01*
X52555Y-50429D01*
X52463Y-50467D01*
X52393Y-50538D01*
X52355Y-50630D01*
X52354Y-50729D01*
X52392Y-50821D01*
X52463Y-50891D01*
X52555Y-50929D01*
X52654Y-50930D01*
X52746Y-50892D01*
X52816Y-50821D01*
X52854Y-50729D01*
X52855Y-50630D01*
X52855Y-56751D01*
X52840Y-56787D01*
X52840Y-51702D01*
X52803Y-51614D01*
X52736Y-51546D01*
X52647Y-51510D01*
X52552Y-51509D01*
X52464Y-51546D01*
X52396Y-51613D01*
X52360Y-51702D01*
X52359Y-51797D01*
X52396Y-51885D01*
X52463Y-51953D01*
X52552Y-51989D01*
X52647Y-51990D01*
X52735Y-51953D01*
X52803Y-51886D01*
X52839Y-51797D01*
X52840Y-51702D01*
X52840Y-56787D01*
X52806Y-56867D01*
X52806Y-57068D01*
X52883Y-57253D01*
X53024Y-57395D01*
X53200Y-57468D01*
X53025Y-57540D01*
X52883Y-57682D01*
X52806Y-57867D01*
X52806Y-58068D01*
X52883Y-58253D01*
X53024Y-58395D01*
X53210Y-58472D01*
X53410Y-58472D01*
X53596Y-58396D01*
X53738Y-58254D01*
X53815Y-58069D01*
X53815Y-57868D01*
X53815Y-58750D01*
X52670Y-58750D01*
X52670Y-58312D01*
X52637Y-58231D01*
X52575Y-58169D01*
X52494Y-58136D01*
X52407Y-58136D01*
X52340Y-58164D01*
X52340Y-52780D01*
X52302Y-52688D01*
X52231Y-52618D01*
X52139Y-52580D01*
X52040Y-52579D01*
X51948Y-52617D01*
X51878Y-52688D01*
X51840Y-52780D01*
X51839Y-52879D01*
X51877Y-52971D01*
X51948Y-53041D01*
X51992Y-53060D01*
X51910Y-53059D01*
X51818Y-53097D01*
X51755Y-53160D01*
X51755Y-51255D01*
X51722Y-51174D01*
X51660Y-51112D01*
X51579Y-51079D01*
X51491Y-51079D01*
X51410Y-51112D01*
X51349Y-51174D01*
X51322Y-51238D01*
X51322Y-50045D01*
X51288Y-49964D01*
X51227Y-49902D01*
X51146Y-49868D01*
X51058Y-49868D01*
X50977Y-49901D01*
X50915Y-49963D01*
X50889Y-50027D01*
X50889Y-48214D01*
X50855Y-48133D01*
X50815Y-48092D01*
X50815Y-47252D01*
X50778Y-47164D01*
X50711Y-47096D01*
X50622Y-47060D01*
X50527Y-47059D01*
X50439Y-47096D01*
X50371Y-47163D01*
X50335Y-47252D01*
X50334Y-47347D01*
X50371Y-47435D01*
X50438Y-47503D01*
X50527Y-47539D01*
X50622Y-47540D01*
X50710Y-47503D01*
X50778Y-47436D01*
X50814Y-47347D01*
X50815Y-47252D01*
X50815Y-48092D01*
X50794Y-48071D01*
X50713Y-48037D01*
X50625Y-48037D01*
X50544Y-48071D01*
X50482Y-48133D01*
X50449Y-48213D01*
X50449Y-48301D01*
X50482Y-48382D01*
X50544Y-48444D01*
X50625Y-48477D01*
X50712Y-48477D01*
X50793Y-48444D01*
X50855Y-48382D01*
X50889Y-48301D01*
X50889Y-48214D01*
X50889Y-50027D01*
X50882Y-50044D01*
X50882Y-50132D01*
X50915Y-50213D01*
X50977Y-50274D01*
X51058Y-50308D01*
X51145Y-50308D01*
X51226Y-50275D01*
X51288Y-50213D01*
X51322Y-50132D01*
X51322Y-50045D01*
X51322Y-51238D01*
X51315Y-51255D01*
X51315Y-51342D01*
X51348Y-51423D01*
X51410Y-51485D01*
X51491Y-51519D01*
X51579Y-51519D01*
X51659Y-51485D01*
X51721Y-51423D01*
X51755Y-51343D01*
X51755Y-51255D01*
X51755Y-53160D01*
X51748Y-53168D01*
X51710Y-53260D01*
X51709Y-53359D01*
X51747Y-53451D01*
X51818Y-53521D01*
X51910Y-53559D01*
X52009Y-53560D01*
X52101Y-53522D01*
X52171Y-53451D01*
X52209Y-53359D01*
X52210Y-53260D01*
X52172Y-53168D01*
X52101Y-53098D01*
X52057Y-53079D01*
X52139Y-53080D01*
X52231Y-53042D01*
X52301Y-52971D01*
X52339Y-52879D01*
X52340Y-52780D01*
X52340Y-58164D01*
X52326Y-58169D01*
X52264Y-58231D01*
X52230Y-58312D01*
X52230Y-58399D01*
X52264Y-58480D01*
X52326Y-58542D01*
X52406Y-58576D01*
X52494Y-58576D01*
X52575Y-58542D01*
X52637Y-58481D01*
X52670Y-58400D01*
X52670Y-58312D01*
X52670Y-58750D01*
X51820Y-58750D01*
X51849Y-58679D01*
X51850Y-58580D01*
X51814Y-58494D01*
X51814Y-54867D01*
X51781Y-54786D01*
X51719Y-54725D01*
X51638Y-54691D01*
X51550Y-54691D01*
X51470Y-54724D01*
X51430Y-54764D01*
X51430Y-53245D01*
X51392Y-53153D01*
X51321Y-53083D01*
X51229Y-53045D01*
X51130Y-53044D01*
X51038Y-53082D01*
X50968Y-53153D01*
X50930Y-53245D01*
X50929Y-53344D01*
X50967Y-53436D01*
X51038Y-53506D01*
X51130Y-53544D01*
X51229Y-53545D01*
X51321Y-53507D01*
X51391Y-53436D01*
X51429Y-53344D01*
X51430Y-53245D01*
X51430Y-54764D01*
X51408Y-54786D01*
X51374Y-54867D01*
X51374Y-54954D01*
X51407Y-55035D01*
X51469Y-55097D01*
X51550Y-55131D01*
X51638Y-55131D01*
X51718Y-55098D01*
X51780Y-55036D01*
X51814Y-54955D01*
X51814Y-54867D01*
X51814Y-58494D01*
X51812Y-58488D01*
X51741Y-58418D01*
X51649Y-58380D01*
X51550Y-58379D01*
X51458Y-58417D01*
X51388Y-58488D01*
X51350Y-58580D01*
X51349Y-58679D01*
X51379Y-58750D01*
X50810Y-58750D01*
X50810Y-55292D01*
X50773Y-55204D01*
X50706Y-55136D01*
X50617Y-55100D01*
X50522Y-55099D01*
X50434Y-55136D01*
X50366Y-55203D01*
X50330Y-55292D01*
X50329Y-55387D01*
X50366Y-55475D01*
X50433Y-55543D01*
X50522Y-55579D01*
X50617Y-55580D01*
X50705Y-55543D01*
X50773Y-55476D01*
X50809Y-55387D01*
X50810Y-55292D01*
X50810Y-58750D01*
X50770Y-58750D01*
X50770Y-56102D01*
X50733Y-56014D01*
X50666Y-55946D01*
X50577Y-55910D01*
X50482Y-55909D01*
X50394Y-55946D01*
X50326Y-56013D01*
X50290Y-56102D01*
X50289Y-56197D01*
X50326Y-56285D01*
X50393Y-56353D01*
X50482Y-56389D01*
X50577Y-56390D01*
X50665Y-56353D01*
X50733Y-56286D01*
X50769Y-56197D01*
X50770Y-56102D01*
X50770Y-58750D01*
X50001Y-58750D01*
X50001Y-53938D01*
X50001Y-49938D01*
X49975Y-49872D01*
X49975Y-48140D01*
X49855Y-47848D01*
X49632Y-47625D01*
X49535Y-47585D01*
X49535Y-46962D01*
X49498Y-46874D01*
X49431Y-46806D01*
X49373Y-46782D01*
X49373Y-37968D01*
X49340Y-37887D01*
X49278Y-37825D01*
X49197Y-37791D01*
X49109Y-37791D01*
X49029Y-37825D01*
X48967Y-37887D01*
X48933Y-37967D01*
X48933Y-38055D01*
X48966Y-38136D01*
X49028Y-38198D01*
X49109Y-38231D01*
X49197Y-38231D01*
X49278Y-38198D01*
X49339Y-38136D01*
X49373Y-38055D01*
X49373Y-37968D01*
X49373Y-46782D01*
X49342Y-46770D01*
X49340Y-46770D01*
X49340Y-39852D01*
X49303Y-39764D01*
X49236Y-39696D01*
X49147Y-39660D01*
X49052Y-39659D01*
X48964Y-39696D01*
X48960Y-39700D01*
X48960Y-39472D01*
X48923Y-39384D01*
X48856Y-39316D01*
X48767Y-39280D01*
X48750Y-39280D01*
X48750Y-36270D01*
X48712Y-36178D01*
X48641Y-36108D01*
X48549Y-36070D01*
X48450Y-36069D01*
X48358Y-36107D01*
X48288Y-36178D01*
X48250Y-36270D01*
X48249Y-36369D01*
X48287Y-36461D01*
X48358Y-36531D01*
X48450Y-36569D01*
X48549Y-36570D01*
X48641Y-36532D01*
X48711Y-36461D01*
X48749Y-36369D01*
X48750Y-36270D01*
X48750Y-39280D01*
X48672Y-39279D01*
X48584Y-39316D01*
X48516Y-39383D01*
X48480Y-39472D01*
X48479Y-39567D01*
X48516Y-39655D01*
X48583Y-39723D01*
X48672Y-39759D01*
X48767Y-39760D01*
X48855Y-39723D01*
X48923Y-39656D01*
X48959Y-39567D01*
X48960Y-39472D01*
X48960Y-39700D01*
X48896Y-39763D01*
X48860Y-39852D01*
X48859Y-39947D01*
X48896Y-40035D01*
X48963Y-40103D01*
X49052Y-40139D01*
X49147Y-40140D01*
X49235Y-40103D01*
X49303Y-40036D01*
X49339Y-39947D01*
X49340Y-39852D01*
X49340Y-46770D01*
X49315Y-46770D01*
X49315Y-44252D01*
X49278Y-44164D01*
X49270Y-44155D01*
X49270Y-42892D01*
X49233Y-42804D01*
X49166Y-42736D01*
X49077Y-42700D01*
X48982Y-42699D01*
X48894Y-42736D01*
X48826Y-42803D01*
X48790Y-42892D01*
X48789Y-42987D01*
X48826Y-43075D01*
X48893Y-43143D01*
X48982Y-43179D01*
X49077Y-43180D01*
X49165Y-43143D01*
X49233Y-43076D01*
X49269Y-42987D01*
X49270Y-42892D01*
X49270Y-44155D01*
X49211Y-44096D01*
X49122Y-44060D01*
X49027Y-44059D01*
X48939Y-44096D01*
X48871Y-44163D01*
X48835Y-44252D01*
X48834Y-44347D01*
X48871Y-44435D01*
X48938Y-44503D01*
X49027Y-44539D01*
X49122Y-44540D01*
X49210Y-44503D01*
X49278Y-44436D01*
X49314Y-44347D01*
X49315Y-44252D01*
X49315Y-46770D01*
X49247Y-46769D01*
X49159Y-46806D01*
X49091Y-46873D01*
X49055Y-46962D01*
X49054Y-47057D01*
X49091Y-47145D01*
X49158Y-47213D01*
X49247Y-47249D01*
X49342Y-47250D01*
X49430Y-47213D01*
X49498Y-47146D01*
X49534Y-47057D01*
X49535Y-46962D01*
X49535Y-47585D01*
X49341Y-47504D01*
X49026Y-47504D01*
X48734Y-47625D01*
X48710Y-47649D01*
X48710Y-40212D01*
X48673Y-40124D01*
X48606Y-40056D01*
X48517Y-40020D01*
X48422Y-40019D01*
X48334Y-40056D01*
X48266Y-40123D01*
X48230Y-40212D01*
X48229Y-40307D01*
X48266Y-40395D01*
X48333Y-40463D01*
X48422Y-40499D01*
X48517Y-40500D01*
X48605Y-40463D01*
X48673Y-40396D01*
X48709Y-40307D01*
X48710Y-40212D01*
X48710Y-47649D01*
X48695Y-47664D01*
X48695Y-43367D01*
X48658Y-43279D01*
X48591Y-43211D01*
X48590Y-43211D01*
X48590Y-41652D01*
X48553Y-41564D01*
X48486Y-41496D01*
X48397Y-41460D01*
X48302Y-41459D01*
X48214Y-41496D01*
X48146Y-41563D01*
X48110Y-41652D01*
X48109Y-41747D01*
X48146Y-41835D01*
X48213Y-41903D01*
X48302Y-41939D01*
X48397Y-41940D01*
X48485Y-41903D01*
X48553Y-41836D01*
X48589Y-41747D01*
X48590Y-41652D01*
X48590Y-43211D01*
X48502Y-43175D01*
X48407Y-43174D01*
X48319Y-43211D01*
X48251Y-43278D01*
X48215Y-43367D01*
X48214Y-43462D01*
X48251Y-43550D01*
X48318Y-43618D01*
X48407Y-43654D01*
X48502Y-43655D01*
X48590Y-43618D01*
X48658Y-43551D01*
X48694Y-43462D01*
X48695Y-43367D01*
X48695Y-47664D01*
X48511Y-47847D01*
X48390Y-48138D01*
X48390Y-48454D01*
X48510Y-48745D01*
X48733Y-48968D01*
X49024Y-49089D01*
X49340Y-49089D01*
X49631Y-48969D01*
X49854Y-48746D01*
X49975Y-48455D01*
X49975Y-48140D01*
X49975Y-49872D01*
X49935Y-49771D01*
X49926Y-49758D01*
X49854Y-49729D01*
X49840Y-49743D01*
X49840Y-49715D01*
X49811Y-49643D01*
X49647Y-49571D01*
X49468Y-49568D01*
X49301Y-49634D01*
X49288Y-49643D01*
X49259Y-49715D01*
X49550Y-50005D01*
X49840Y-49715D01*
X49840Y-49743D01*
X49564Y-50020D01*
X49854Y-50310D01*
X49926Y-50281D01*
X49998Y-50117D01*
X50001Y-49938D01*
X50001Y-53938D01*
X50000Y-53934D01*
X50000Y-52930D01*
X50000Y-51930D01*
X50000Y-50930D01*
X49931Y-50765D01*
X49840Y-50674D01*
X49840Y-50324D01*
X49550Y-50034D01*
X49535Y-50048D01*
X49535Y-50020D01*
X49245Y-49729D01*
X49173Y-49758D01*
X49101Y-49922D01*
X49098Y-50101D01*
X49164Y-50268D01*
X49173Y-50281D01*
X49245Y-50310D01*
X49535Y-50020D01*
X49535Y-50048D01*
X49259Y-50324D01*
X49288Y-50396D01*
X49452Y-50468D01*
X49631Y-50471D01*
X49798Y-50405D01*
X49811Y-50396D01*
X49840Y-50324D01*
X49840Y-50674D01*
X49805Y-50638D01*
X49639Y-50570D01*
X49460Y-50569D01*
X49295Y-50638D01*
X49168Y-50764D01*
X49100Y-50930D01*
X49099Y-51109D01*
X49168Y-51274D01*
X49294Y-51401D01*
X49460Y-51469D01*
X49639Y-51470D01*
X49804Y-51401D01*
X49931Y-51275D01*
X49999Y-51109D01*
X50000Y-50930D01*
X50000Y-51930D01*
X49931Y-51765D01*
X49805Y-51638D01*
X49639Y-51570D01*
X49460Y-51569D01*
X49295Y-51638D01*
X49168Y-51764D01*
X49100Y-51930D01*
X49099Y-52109D01*
X49168Y-52274D01*
X49294Y-52401D01*
X49460Y-52469D01*
X49639Y-52470D01*
X49804Y-52401D01*
X49931Y-52275D01*
X49999Y-52109D01*
X50000Y-51930D01*
X50000Y-52930D01*
X49931Y-52765D01*
X49805Y-52638D01*
X49639Y-52570D01*
X49460Y-52569D01*
X49295Y-52638D01*
X49168Y-52764D01*
X49100Y-52930D01*
X49099Y-53109D01*
X49168Y-53274D01*
X49294Y-53401D01*
X49460Y-53469D01*
X49639Y-53470D01*
X49804Y-53401D01*
X49931Y-53275D01*
X49999Y-53109D01*
X50000Y-52930D01*
X50000Y-53934D01*
X49935Y-53771D01*
X49926Y-53758D01*
X49854Y-53729D01*
X49840Y-53743D01*
X49840Y-53715D01*
X49811Y-53643D01*
X49647Y-53571D01*
X49468Y-53568D01*
X49301Y-53634D01*
X49288Y-53643D01*
X49259Y-53715D01*
X49550Y-54005D01*
X49840Y-53715D01*
X49840Y-53743D01*
X49564Y-54020D01*
X49854Y-54310D01*
X49926Y-54281D01*
X49998Y-54117D01*
X50001Y-53938D01*
X50001Y-58750D01*
X49840Y-58750D01*
X49840Y-54324D01*
X49550Y-54034D01*
X49535Y-54048D01*
X49535Y-54020D01*
X49245Y-53729D01*
X49173Y-53758D01*
X49101Y-53922D01*
X49098Y-54101D01*
X49164Y-54268D01*
X49173Y-54281D01*
X49245Y-54310D01*
X49535Y-54020D01*
X49535Y-54048D01*
X49259Y-54324D01*
X49288Y-54396D01*
X49452Y-54468D01*
X49631Y-54471D01*
X49798Y-54405D01*
X49811Y-54396D01*
X49840Y-54324D01*
X49840Y-58750D01*
X49000Y-58750D01*
X49000Y-53930D01*
X49000Y-52930D01*
X49000Y-51930D01*
X49000Y-50930D01*
X49000Y-50930D01*
X49000Y-50349D01*
X49000Y-50290D01*
X49000Y-49690D01*
X48977Y-49635D01*
X48934Y-49592D01*
X48879Y-49570D01*
X48820Y-49570D01*
X48220Y-49570D01*
X48165Y-49592D01*
X48122Y-49635D01*
X48100Y-49690D01*
X48100Y-49749D01*
X48100Y-50349D01*
X48122Y-50404D01*
X48165Y-50447D01*
X48220Y-50470D01*
X48279Y-50470D01*
X48879Y-50470D01*
X48934Y-50447D01*
X48977Y-50404D01*
X49000Y-50349D01*
X49000Y-50930D01*
X48931Y-50765D01*
X48805Y-50638D01*
X48639Y-50570D01*
X48460Y-50569D01*
X48295Y-50638D01*
X48168Y-50764D01*
X48100Y-50930D01*
X48099Y-51109D01*
X48168Y-51274D01*
X48294Y-51401D01*
X48460Y-51469D01*
X48639Y-51470D01*
X48804Y-51401D01*
X48931Y-51275D01*
X48999Y-51109D01*
X49000Y-50930D01*
X49000Y-51930D01*
X48931Y-51765D01*
X48805Y-51638D01*
X48639Y-51570D01*
X48460Y-51569D01*
X48295Y-51638D01*
X48168Y-51764D01*
X48100Y-51930D01*
X48099Y-52109D01*
X48168Y-52274D01*
X48294Y-52401D01*
X48460Y-52469D01*
X48639Y-52470D01*
X48804Y-52401D01*
X48931Y-52275D01*
X48999Y-52109D01*
X49000Y-51930D01*
X49000Y-52930D01*
X48931Y-52765D01*
X48805Y-52638D01*
X48639Y-52570D01*
X48460Y-52569D01*
X48295Y-52638D01*
X48168Y-52764D01*
X48100Y-52930D01*
X48099Y-53109D01*
X48168Y-53274D01*
X48294Y-53401D01*
X48460Y-53469D01*
X48639Y-53470D01*
X48804Y-53401D01*
X48931Y-53275D01*
X48999Y-53109D01*
X49000Y-52930D01*
X49000Y-53930D01*
X48931Y-53765D01*
X48805Y-53638D01*
X48639Y-53570D01*
X48460Y-53569D01*
X48295Y-53638D01*
X48168Y-53764D01*
X48100Y-53930D01*
X48099Y-54109D01*
X48168Y-54274D01*
X48294Y-54401D01*
X48460Y-54469D01*
X48639Y-54470D01*
X48804Y-54401D01*
X48931Y-54275D01*
X48999Y-54109D01*
X49000Y-53930D01*
X49000Y-58750D01*
X48930Y-58750D01*
X48930Y-54770D01*
X48892Y-54678D01*
X48821Y-54608D01*
X48729Y-54570D01*
X48630Y-54569D01*
X48538Y-54607D01*
X48468Y-54678D01*
X48430Y-54770D01*
X48429Y-54869D01*
X48467Y-54961D01*
X48538Y-55031D01*
X48630Y-55069D01*
X48729Y-55070D01*
X48821Y-55032D01*
X48891Y-54961D01*
X48929Y-54869D01*
X48930Y-54770D01*
X48930Y-58750D01*
X47530Y-58750D01*
X47530Y-35470D01*
X49307Y-33721D01*
X49307Y-33783D01*
X49340Y-33864D01*
X49402Y-33926D01*
X49483Y-33960D01*
X49571Y-33960D01*
X49652Y-33926D01*
X49713Y-33864D01*
X49747Y-33784D01*
X49747Y-33696D01*
X49714Y-33615D01*
X49652Y-33553D01*
X49571Y-33520D01*
X49512Y-33520D01*
X51260Y-31800D01*
X66188Y-31800D01*
X65978Y-31886D01*
X65755Y-32109D01*
X65634Y-32400D01*
X65634Y-32716D01*
X65754Y-33007D01*
X65977Y-33230D01*
X66268Y-33351D01*
X66584Y-33351D01*
X66799Y-33262D01*
X66799Y-33279D01*
X66837Y-33371D01*
X66908Y-33441D01*
X67000Y-33479D01*
X67099Y-33480D01*
X67191Y-33442D01*
X67261Y-33371D01*
X67299Y-33279D01*
X67300Y-33180D01*
X67262Y-33088D01*
X67191Y-33018D01*
X67108Y-32983D01*
X67219Y-32717D01*
X67219Y-32402D01*
X67099Y-32110D01*
X66876Y-31887D01*
X66665Y-31800D01*
X69390Y-31800D01*
X69390Y-54928D01*
X69331Y-54888D01*
X69316Y-54884D01*
X69316Y-32239D01*
X69243Y-32052D01*
X69231Y-32035D01*
X69154Y-32000D01*
X69139Y-32014D01*
X69139Y-31985D01*
X69104Y-31908D01*
X68920Y-31827D01*
X68719Y-31823D01*
X68532Y-31896D01*
X68515Y-31908D01*
X68480Y-31985D01*
X68810Y-32315D01*
X69139Y-31985D01*
X69139Y-32014D01*
X68824Y-32330D01*
X69154Y-32659D01*
X69231Y-32624D01*
X69312Y-32440D01*
X69316Y-32239D01*
X69316Y-54884D01*
X69167Y-54851D01*
X69139Y-54851D01*
X69139Y-32674D01*
X68810Y-32344D01*
X68795Y-32358D01*
X68795Y-32330D01*
X68465Y-32000D01*
X68388Y-32035D01*
X68308Y-32216D01*
X68237Y-32044D01*
X68096Y-31902D01*
X67910Y-31825D01*
X67710Y-31825D01*
X67524Y-31902D01*
X67382Y-32043D01*
X67305Y-32229D01*
X67305Y-32429D01*
X67382Y-32615D01*
X67523Y-32757D01*
X67709Y-32834D01*
X67909Y-32834D01*
X68095Y-32757D01*
X68237Y-32616D01*
X68310Y-32438D01*
X68376Y-32607D01*
X68388Y-32624D01*
X68465Y-32659D01*
X68795Y-32330D01*
X68795Y-32358D01*
X68480Y-32674D01*
X68515Y-32751D01*
X68699Y-32832D01*
X68900Y-32836D01*
X69087Y-32763D01*
X69104Y-32751D01*
X69139Y-32674D01*
X69139Y-54851D01*
X69009Y-54851D01*
X69009Y-35537D01*
X68975Y-35456D01*
X68914Y-35394D01*
X68833Y-35360D01*
X68745Y-35360D01*
X68664Y-35394D01*
X68602Y-35455D01*
X68569Y-35536D01*
X68569Y-35624D01*
X68602Y-35705D01*
X68664Y-35767D01*
X68745Y-35800D01*
X68832Y-35800D01*
X68913Y-35767D01*
X68975Y-35705D01*
X69009Y-35624D01*
X69009Y-35537D01*
X69009Y-54851D01*
X68950Y-54851D01*
X68950Y-47310D01*
X68950Y-46310D01*
X68890Y-46165D01*
X68890Y-37340D01*
X68852Y-37248D01*
X68781Y-37178D01*
X68689Y-37140D01*
X68590Y-37139D01*
X68498Y-37177D01*
X68428Y-37248D01*
X68390Y-37340D01*
X68389Y-37439D01*
X68427Y-37531D01*
X68498Y-37601D01*
X68590Y-37639D01*
X68689Y-37640D01*
X68781Y-37602D01*
X68851Y-37531D01*
X68889Y-37439D01*
X68890Y-37340D01*
X68890Y-46165D01*
X68881Y-46145D01*
X68755Y-46018D01*
X68589Y-45950D01*
X68410Y-45949D01*
X68245Y-46018D01*
X68240Y-46023D01*
X68240Y-36340D01*
X68202Y-36248D01*
X68131Y-36178D01*
X68039Y-36140D01*
X67940Y-36139D01*
X67848Y-36177D01*
X67778Y-36248D01*
X67740Y-36340D01*
X67739Y-36439D01*
X67777Y-36531D01*
X67848Y-36601D01*
X67940Y-36639D01*
X68039Y-36640D01*
X68131Y-36602D01*
X68201Y-36531D01*
X68239Y-36439D01*
X68240Y-36340D01*
X68240Y-46023D01*
X68118Y-46144D01*
X68050Y-46310D01*
X68049Y-46489D01*
X68118Y-46654D01*
X68244Y-46781D01*
X68410Y-46849D01*
X68589Y-46850D01*
X68754Y-46781D01*
X68881Y-46655D01*
X68949Y-46489D01*
X68950Y-46310D01*
X68950Y-47310D01*
X68881Y-47145D01*
X68755Y-47018D01*
X68589Y-46950D01*
X68410Y-46949D01*
X68245Y-47018D01*
X68118Y-47144D01*
X68050Y-47310D01*
X68049Y-47489D01*
X68118Y-47654D01*
X68244Y-47781D01*
X68410Y-47849D01*
X68589Y-47850D01*
X68754Y-47781D01*
X68881Y-47655D01*
X68949Y-47489D01*
X68950Y-47310D01*
X68950Y-54851D01*
X68950Y-54851D01*
X68950Y-48729D01*
X68950Y-48670D01*
X68950Y-48070D01*
X68927Y-48015D01*
X68884Y-47972D01*
X68829Y-47950D01*
X68770Y-47950D01*
X68170Y-47950D01*
X68115Y-47972D01*
X68072Y-48015D01*
X68050Y-48070D01*
X68050Y-48129D01*
X68050Y-48729D01*
X68072Y-48784D01*
X68115Y-48827D01*
X68170Y-48850D01*
X68229Y-48850D01*
X68829Y-48850D01*
X68884Y-48827D01*
X68927Y-48784D01*
X68950Y-48729D01*
X68950Y-54851D01*
X68887Y-54851D01*
X68887Y-55271D01*
X68895Y-55271D01*
X68895Y-55291D01*
X68887Y-55291D01*
X68887Y-55711D01*
X69167Y-55711D01*
X69331Y-55674D01*
X69390Y-55634D01*
X69390Y-55920D01*
X69336Y-55884D01*
X69171Y-55851D01*
X68867Y-55851D01*
X68867Y-55711D01*
X68867Y-55291D01*
X68867Y-55271D01*
X68867Y-54851D01*
X68587Y-54851D01*
X68424Y-54888D01*
X68286Y-54984D01*
X68196Y-55126D01*
X68174Y-55204D01*
X68205Y-55271D01*
X68867Y-55271D01*
X68867Y-55291D01*
X68205Y-55291D01*
X68174Y-55358D01*
X68196Y-55436D01*
X68286Y-55578D01*
X68424Y-55674D01*
X68587Y-55711D01*
X68867Y-55711D01*
X68867Y-55851D01*
X68584Y-55851D01*
X68419Y-55884D01*
X68279Y-55977D01*
X68195Y-56104D01*
X68167Y-56076D01*
X68079Y-56039D01*
X67983Y-56039D01*
X67951Y-56052D01*
X67951Y-46318D01*
X67885Y-46151D01*
X67876Y-46138D01*
X67804Y-46109D01*
X67790Y-46123D01*
X67790Y-46095D01*
X67761Y-46023D01*
X67597Y-45951D01*
X67418Y-45948D01*
X67251Y-46014D01*
X67238Y-46023D01*
X67209Y-46095D01*
X67500Y-46385D01*
X67790Y-46095D01*
X67790Y-46123D01*
X67514Y-46400D01*
X67804Y-46690D01*
X67876Y-46661D01*
X67948Y-46497D01*
X67951Y-46318D01*
X67951Y-56052D01*
X67950Y-56053D01*
X67950Y-48310D01*
X67950Y-47310D01*
X67881Y-47145D01*
X67790Y-47054D01*
X67790Y-46704D01*
X67500Y-46414D01*
X67485Y-46428D01*
X67485Y-46400D01*
X67195Y-46109D01*
X67123Y-46138D01*
X67051Y-46302D01*
X67048Y-46481D01*
X67114Y-46648D01*
X67123Y-46661D01*
X67195Y-46690D01*
X67485Y-46400D01*
X67485Y-46428D01*
X67209Y-46704D01*
X67238Y-46776D01*
X67402Y-46848D01*
X67581Y-46851D01*
X67748Y-46785D01*
X67761Y-46776D01*
X67790Y-46704D01*
X67790Y-47054D01*
X67755Y-47018D01*
X67589Y-46950D01*
X67410Y-46949D01*
X67245Y-47018D01*
X67118Y-47144D01*
X67050Y-47310D01*
X67049Y-47489D01*
X67118Y-47654D01*
X67244Y-47781D01*
X67410Y-47849D01*
X67589Y-47850D01*
X67754Y-47781D01*
X67881Y-47655D01*
X67949Y-47489D01*
X67950Y-47310D01*
X67950Y-48310D01*
X67881Y-48145D01*
X67755Y-48018D01*
X67589Y-47950D01*
X67410Y-47949D01*
X67245Y-48018D01*
X67118Y-48144D01*
X67050Y-48310D01*
X67049Y-48489D01*
X67118Y-48654D01*
X67244Y-48781D01*
X67410Y-48849D01*
X67589Y-48850D01*
X67754Y-48781D01*
X67881Y-48655D01*
X67949Y-48489D01*
X67950Y-48310D01*
X67950Y-56053D01*
X67895Y-56075D01*
X67857Y-56113D01*
X67857Y-50655D01*
X67824Y-50574D01*
X67762Y-50512D01*
X67681Y-50478D01*
X67594Y-50478D01*
X67513Y-50512D01*
X67451Y-50574D01*
X67417Y-50654D01*
X67417Y-50742D01*
X67451Y-50823D01*
X67513Y-50885D01*
X67593Y-50918D01*
X67681Y-50918D01*
X67762Y-50885D01*
X67824Y-50823D01*
X67857Y-50742D01*
X67857Y-50655D01*
X67857Y-56113D01*
X67828Y-56143D01*
X67791Y-56231D01*
X67791Y-56327D01*
X67827Y-56415D01*
X67895Y-56482D01*
X67983Y-56519D01*
X68079Y-56519D01*
X68167Y-56483D01*
X68193Y-56456D01*
X68279Y-56585D01*
X68419Y-56678D01*
X68584Y-56711D01*
X69171Y-56711D01*
X69336Y-56678D01*
X69390Y-56642D01*
X69390Y-56920D01*
X69336Y-56884D01*
X69171Y-56851D01*
X68584Y-56851D01*
X68419Y-56884D01*
X68279Y-56977D01*
X68186Y-57116D01*
X68154Y-57281D01*
X68186Y-57446D01*
X68279Y-57585D01*
X68419Y-57678D01*
X68584Y-57711D01*
X69171Y-57711D01*
X69336Y-57678D01*
X69390Y-57642D01*
X69390Y-57920D01*
X69336Y-57884D01*
X69171Y-57851D01*
X68584Y-57851D01*
X68419Y-57884D01*
X68279Y-57977D01*
X68186Y-58116D01*
X68154Y-58281D01*
X68186Y-58446D01*
X68279Y-58585D01*
X68419Y-58678D01*
X68584Y-58711D01*
X69171Y-58711D01*
X69336Y-58678D01*
X69390Y-58642D01*
X69390Y-58750D01*
X69390Y-58750D01*
G37*
G54D23*
X69390Y-58750D02*
X68030Y-58750D01*
X68030Y-58250D01*
X67992Y-58158D01*
X67921Y-58088D01*
X67840Y-58054D01*
X67840Y-56452D01*
X67803Y-56364D01*
X67736Y-56296D01*
X67647Y-56260D01*
X67552Y-56259D01*
X67543Y-56263D01*
X67543Y-52932D01*
X67506Y-52844D01*
X67439Y-52776D01*
X67351Y-52740D01*
X67255Y-52740D01*
X67167Y-52776D01*
X67099Y-52844D01*
X67063Y-52932D01*
X67063Y-53027D01*
X67099Y-53116D01*
X67167Y-53183D01*
X67255Y-53220D01*
X67350Y-53220D01*
X67438Y-53183D01*
X67506Y-53116D01*
X67543Y-53028D01*
X67543Y-52932D01*
X67543Y-56263D01*
X67464Y-56296D01*
X67396Y-56363D01*
X67360Y-56452D01*
X67359Y-56547D01*
X67396Y-56635D01*
X67463Y-56703D01*
X67552Y-56739D01*
X67647Y-56740D01*
X67735Y-56703D01*
X67803Y-56636D01*
X67839Y-56547D01*
X67840Y-56452D01*
X67840Y-58054D01*
X67829Y-58050D01*
X67730Y-58049D01*
X67638Y-58087D01*
X67568Y-58158D01*
X67530Y-58250D01*
X67529Y-58349D01*
X67567Y-58441D01*
X67638Y-58511D01*
X67730Y-58549D01*
X67829Y-58550D01*
X67921Y-58512D01*
X67991Y-58441D01*
X68029Y-58349D01*
X68030Y-58250D01*
X68030Y-58750D01*
X67340Y-58750D01*
X67340Y-53852D01*
X67303Y-53764D01*
X67236Y-53696D01*
X67147Y-53660D01*
X67052Y-53659D01*
X67030Y-53669D01*
X67030Y-48360D01*
X66992Y-48268D01*
X66921Y-48198D01*
X66829Y-48160D01*
X66730Y-48159D01*
X66638Y-48197D01*
X66568Y-48268D01*
X66530Y-48360D01*
X66529Y-48459D01*
X66567Y-48551D01*
X66638Y-48621D01*
X66730Y-48659D01*
X66829Y-48660D01*
X66921Y-48622D01*
X66991Y-48551D01*
X67029Y-48459D01*
X67030Y-48360D01*
X67030Y-53669D01*
X66980Y-53689D01*
X66980Y-52000D01*
X66942Y-51908D01*
X66871Y-51838D01*
X66779Y-51800D01*
X66680Y-51799D01*
X66588Y-51837D01*
X66518Y-51908D01*
X66480Y-52000D01*
X66479Y-52099D01*
X66517Y-52191D01*
X66588Y-52261D01*
X66680Y-52299D01*
X66779Y-52300D01*
X66871Y-52262D01*
X66941Y-52191D01*
X66979Y-52099D01*
X66980Y-52000D01*
X66980Y-53689D01*
X66964Y-53696D01*
X66896Y-53763D01*
X66860Y-53852D01*
X66860Y-53859D01*
X66852Y-53859D01*
X66764Y-53896D01*
X66736Y-53924D01*
X66736Y-52728D01*
X66699Y-52639D01*
X66632Y-52572D01*
X66544Y-52535D01*
X66448Y-52535D01*
X66360Y-52572D01*
X66360Y-52572D01*
X66360Y-52240D01*
X66322Y-52148D01*
X66251Y-52078D01*
X66159Y-52040D01*
X66060Y-52039D01*
X66027Y-52053D01*
X66027Y-35478D01*
X65993Y-35397D01*
X65950Y-35353D01*
X65950Y-34560D01*
X65912Y-34468D01*
X65841Y-34398D01*
X65749Y-34360D01*
X65650Y-34359D01*
X65558Y-34397D01*
X65488Y-34468D01*
X65450Y-34560D01*
X65449Y-34659D01*
X65487Y-34751D01*
X65558Y-34821D01*
X65650Y-34859D01*
X65749Y-34860D01*
X65841Y-34822D01*
X65911Y-34751D01*
X65949Y-34659D01*
X65950Y-34560D01*
X65950Y-35353D01*
X65931Y-35335D01*
X65851Y-35301D01*
X65763Y-35301D01*
X65682Y-35335D01*
X65620Y-35396D01*
X65587Y-35477D01*
X65587Y-35565D01*
X65620Y-35646D01*
X65682Y-35708D01*
X65763Y-35741D01*
X65850Y-35741D01*
X65931Y-35708D01*
X65993Y-35646D01*
X66027Y-35565D01*
X66027Y-35478D01*
X66027Y-52053D01*
X66000Y-52064D01*
X66000Y-45190D01*
X65962Y-45098D01*
X65891Y-45028D01*
X65849Y-45010D01*
X65849Y-43696D01*
X65816Y-43615D01*
X65754Y-43553D01*
X65673Y-43520D01*
X65586Y-43520D01*
X65505Y-43553D01*
X65443Y-43615D01*
X65409Y-43696D01*
X65409Y-43783D01*
X65443Y-43864D01*
X65505Y-43926D01*
X65585Y-43960D01*
X65673Y-43960D01*
X65754Y-43926D01*
X65816Y-43864D01*
X65849Y-43784D01*
X65849Y-43696D01*
X65849Y-45010D01*
X65799Y-44990D01*
X65700Y-44989D01*
X65608Y-45027D01*
X65538Y-45098D01*
X65500Y-45190D01*
X65499Y-45289D01*
X65537Y-45381D01*
X65608Y-45451D01*
X65700Y-45489D01*
X65799Y-45490D01*
X65891Y-45452D01*
X65961Y-45381D01*
X65999Y-45289D01*
X66000Y-45190D01*
X66000Y-52064D01*
X65968Y-52077D01*
X65898Y-52148D01*
X65860Y-52240D01*
X65859Y-52339D01*
X65897Y-52431D01*
X65968Y-52501D01*
X66060Y-52539D01*
X66159Y-52540D01*
X66251Y-52502D01*
X66321Y-52431D01*
X66359Y-52339D01*
X66360Y-52240D01*
X66360Y-52572D01*
X66292Y-52639D01*
X66256Y-52727D01*
X66256Y-52823D01*
X66292Y-52911D01*
X66359Y-52978D01*
X66448Y-53015D01*
X66543Y-53015D01*
X66631Y-52979D01*
X66699Y-52911D01*
X66736Y-52823D01*
X66736Y-52728D01*
X66736Y-53924D01*
X66696Y-53963D01*
X66660Y-54052D01*
X66659Y-54147D01*
X66696Y-54235D01*
X66763Y-54303D01*
X66852Y-54339D01*
X66947Y-54340D01*
X67035Y-54303D01*
X67103Y-54236D01*
X67139Y-54147D01*
X67139Y-54140D01*
X67147Y-54140D01*
X67235Y-54103D01*
X67303Y-54036D01*
X67339Y-53947D01*
X67340Y-53852D01*
X67340Y-58750D01*
X66610Y-58750D01*
X66610Y-55420D01*
X66572Y-55328D01*
X66501Y-55258D01*
X66409Y-55220D01*
X66310Y-55219D01*
X66218Y-55257D01*
X66148Y-55328D01*
X66110Y-55420D01*
X66109Y-55519D01*
X66147Y-55611D01*
X66218Y-55681D01*
X66310Y-55719D01*
X66409Y-55720D01*
X66501Y-55682D01*
X66571Y-55611D01*
X66609Y-55519D01*
X66610Y-55420D01*
X66610Y-58750D01*
X66363Y-58750D01*
X66363Y-56496D01*
X66243Y-56205D01*
X66020Y-55982D01*
X65810Y-55894D01*
X65810Y-54720D01*
X65772Y-54628D01*
X65771Y-54628D01*
X65771Y-53023D01*
X65771Y-53022D01*
X65771Y-49976D01*
X65737Y-49895D01*
X65675Y-49833D01*
X65595Y-49799D01*
X65507Y-49799D01*
X65426Y-49833D01*
X65364Y-49894D01*
X65331Y-49975D01*
X65331Y-50063D01*
X65364Y-50144D01*
X65426Y-50206D01*
X65507Y-50239D01*
X65594Y-50239D01*
X65675Y-50206D01*
X65737Y-50144D01*
X65771Y-50063D01*
X65771Y-49976D01*
X65771Y-53022D01*
X65735Y-52935D01*
X65667Y-52867D01*
X65579Y-52830D01*
X65483Y-52830D01*
X65395Y-52867D01*
X65328Y-52934D01*
X65291Y-53022D01*
X65291Y-53118D01*
X65327Y-53206D01*
X65395Y-53274D01*
X65483Y-53310D01*
X65579Y-53310D01*
X65667Y-53274D01*
X65734Y-53206D01*
X65771Y-53118D01*
X65771Y-53023D01*
X65771Y-54628D01*
X65701Y-54558D01*
X65609Y-54520D01*
X65510Y-54519D01*
X65436Y-54550D01*
X65436Y-54460D01*
X65400Y-54372D01*
X65355Y-54327D01*
X65387Y-54250D01*
X65387Y-54155D01*
X65351Y-54066D01*
X65318Y-54034D01*
X65318Y-53653D01*
X65282Y-53565D01*
X65214Y-53497D01*
X65160Y-53475D01*
X65160Y-41541D01*
X65127Y-41460D01*
X65065Y-41398D01*
X64984Y-41364D01*
X64897Y-41364D01*
X64830Y-41392D01*
X64830Y-34750D01*
X64792Y-34658D01*
X64721Y-34588D01*
X64629Y-34550D01*
X64531Y-34549D01*
X64564Y-34469D01*
X64565Y-34370D01*
X64527Y-34278D01*
X64456Y-34208D01*
X64364Y-34170D01*
X64265Y-34169D01*
X64173Y-34207D01*
X64103Y-34278D01*
X64065Y-34370D01*
X64064Y-34469D01*
X64102Y-34561D01*
X64173Y-34631D01*
X64265Y-34669D01*
X64363Y-34670D01*
X64332Y-34744D01*
X64201Y-34690D01*
X64038Y-34689D01*
X63888Y-34752D01*
X63772Y-34867D01*
X63710Y-35018D01*
X63709Y-35181D01*
X63772Y-35331D01*
X63887Y-35447D01*
X64038Y-35509D01*
X64201Y-35510D01*
X64351Y-35447D01*
X64467Y-35332D01*
X64529Y-35181D01*
X64530Y-35049D01*
X64530Y-35049D01*
X64629Y-35050D01*
X64721Y-35012D01*
X64791Y-34941D01*
X64829Y-34849D01*
X64830Y-34750D01*
X64830Y-41392D01*
X64816Y-41398D01*
X64754Y-41459D01*
X64720Y-41540D01*
X64720Y-41628D01*
X64754Y-41709D01*
X64816Y-41771D01*
X64896Y-41804D01*
X64984Y-41804D01*
X65065Y-41771D01*
X65127Y-41709D01*
X65160Y-41628D01*
X65160Y-41541D01*
X65160Y-53475D01*
X65126Y-53460D01*
X65031Y-53460D01*
X64942Y-53497D01*
X64875Y-53564D01*
X64838Y-53652D01*
X64838Y-53748D01*
X64875Y-53836D01*
X64942Y-53904D01*
X65030Y-53940D01*
X65126Y-53940D01*
X65214Y-53904D01*
X65282Y-53836D01*
X65318Y-53748D01*
X65318Y-53653D01*
X65318Y-54034D01*
X65283Y-53999D01*
X65195Y-53962D01*
X65100Y-53962D01*
X65011Y-53999D01*
X64944Y-54066D01*
X64907Y-54154D01*
X64907Y-54250D01*
X64944Y-54338D01*
X64988Y-54383D01*
X64956Y-54459D01*
X64956Y-54555D01*
X64993Y-54643D01*
X65060Y-54711D01*
X65148Y-54747D01*
X65244Y-54747D01*
X65310Y-54720D01*
X65309Y-54819D01*
X65347Y-54911D01*
X65418Y-54981D01*
X65510Y-55019D01*
X65609Y-55020D01*
X65701Y-54982D01*
X65771Y-54911D01*
X65809Y-54819D01*
X65810Y-54720D01*
X65810Y-55894D01*
X65729Y-55861D01*
X65413Y-55860D01*
X65122Y-55981D01*
X64899Y-56204D01*
X64778Y-56495D01*
X64778Y-56810D01*
X64898Y-57101D01*
X65121Y-57325D01*
X65412Y-57445D01*
X65727Y-57446D01*
X66019Y-57325D01*
X66242Y-57103D01*
X66363Y-56811D01*
X66363Y-56496D01*
X66363Y-58750D01*
X65938Y-58750D01*
X65938Y-57948D01*
X65905Y-57867D01*
X65843Y-57805D01*
X65762Y-57772D01*
X65674Y-57772D01*
X65594Y-57805D01*
X65532Y-57867D01*
X65498Y-57948D01*
X65498Y-58035D01*
X65531Y-58116D01*
X65593Y-58178D01*
X65674Y-58212D01*
X65762Y-58212D01*
X65842Y-58178D01*
X65904Y-58116D01*
X65938Y-58036D01*
X65938Y-57948D01*
X65938Y-58750D01*
X64550Y-58750D01*
X64550Y-39295D01*
X64512Y-39203D01*
X64441Y-39133D01*
X64349Y-39095D01*
X64250Y-39094D01*
X64158Y-39132D01*
X64088Y-39203D01*
X64050Y-39295D01*
X64049Y-39394D01*
X64087Y-39486D01*
X64158Y-39556D01*
X64250Y-39594D01*
X64349Y-39595D01*
X64441Y-39557D01*
X64511Y-39486D01*
X64549Y-39394D01*
X64550Y-39295D01*
X64550Y-58750D01*
X64535Y-58750D01*
X64535Y-52275D01*
X64497Y-52183D01*
X64426Y-52113D01*
X64334Y-52075D01*
X64235Y-52074D01*
X64143Y-52112D01*
X64073Y-52183D01*
X64035Y-52275D01*
X64034Y-52374D01*
X64072Y-52466D01*
X64143Y-52536D01*
X64235Y-52574D01*
X64334Y-52575D01*
X64426Y-52537D01*
X64496Y-52466D01*
X64534Y-52374D01*
X64535Y-52275D01*
X64535Y-58750D01*
X64235Y-58750D01*
X64235Y-55468D01*
X64202Y-55387D01*
X64140Y-55325D01*
X64059Y-55291D01*
X63990Y-55291D01*
X63990Y-40720D01*
X63952Y-40628D01*
X63881Y-40558D01*
X63789Y-40520D01*
X63700Y-40519D01*
X63700Y-37260D01*
X63662Y-37168D01*
X63591Y-37098D01*
X63545Y-37078D01*
X63545Y-33640D01*
X63510Y-33555D01*
X63510Y-32240D01*
X63472Y-32148D01*
X63401Y-32078D01*
X63309Y-32040D01*
X63210Y-32039D01*
X63118Y-32077D01*
X63048Y-32148D01*
X63010Y-32240D01*
X63009Y-32339D01*
X63047Y-32431D01*
X63118Y-32501D01*
X63210Y-32539D01*
X63309Y-32540D01*
X63401Y-32502D01*
X63471Y-32431D01*
X63509Y-32339D01*
X63510Y-32240D01*
X63510Y-33555D01*
X63507Y-33548D01*
X63436Y-33478D01*
X63344Y-33440D01*
X63245Y-33439D01*
X63153Y-33477D01*
X63083Y-33548D01*
X63045Y-33640D01*
X63044Y-33739D01*
X63082Y-33831D01*
X63153Y-33901D01*
X63245Y-33939D01*
X63344Y-33940D01*
X63436Y-33902D01*
X63506Y-33831D01*
X63544Y-33739D01*
X63545Y-33640D01*
X63545Y-37078D01*
X63530Y-37072D01*
X63530Y-36018D01*
X63530Y-35018D01*
X63467Y-34868D01*
X63352Y-34752D01*
X63201Y-34690D01*
X63038Y-34689D01*
X62888Y-34752D01*
X62772Y-34867D01*
X62710Y-35018D01*
X62709Y-35181D01*
X62772Y-35331D01*
X62887Y-35447D01*
X63038Y-35509D01*
X63201Y-35510D01*
X63351Y-35447D01*
X63467Y-35332D01*
X63529Y-35181D01*
X63530Y-35018D01*
X63530Y-36018D01*
X63467Y-35868D01*
X63352Y-35752D01*
X63201Y-35690D01*
X63038Y-35689D01*
X62888Y-35752D01*
X62772Y-35867D01*
X62748Y-35925D01*
X62721Y-35898D01*
X62651Y-35868D01*
X62651Y-32328D01*
X62617Y-32247D01*
X62555Y-32185D01*
X62475Y-32152D01*
X62387Y-32152D01*
X62306Y-32185D01*
X62244Y-32247D01*
X62211Y-32328D01*
X62211Y-32415D01*
X62244Y-32496D01*
X62306Y-32558D01*
X62387Y-32592D01*
X62474Y-32592D01*
X62555Y-32558D01*
X62617Y-32496D01*
X62651Y-32416D01*
X62651Y-32328D01*
X62651Y-35868D01*
X62629Y-35860D01*
X62530Y-35859D01*
X62438Y-35897D01*
X62368Y-35968D01*
X62346Y-36021D01*
X62346Y-35310D01*
X62312Y-35229D01*
X62250Y-35167D01*
X62169Y-35134D01*
X62082Y-35134D01*
X62001Y-35167D01*
X61939Y-35229D01*
X61906Y-35310D01*
X61905Y-35397D01*
X61939Y-35478D01*
X62001Y-35540D01*
X62082Y-35574D01*
X62169Y-35574D01*
X62250Y-35540D01*
X62312Y-35479D01*
X62345Y-35398D01*
X62346Y-35310D01*
X62346Y-36021D01*
X62330Y-36060D01*
X62329Y-36159D01*
X62367Y-36251D01*
X62438Y-36321D01*
X62530Y-36359D01*
X62629Y-36360D01*
X62721Y-36322D01*
X62754Y-36289D01*
X62772Y-36331D01*
X62887Y-36447D01*
X63038Y-36509D01*
X63201Y-36510D01*
X63351Y-36447D01*
X63467Y-36332D01*
X63529Y-36181D01*
X63530Y-36018D01*
X63530Y-37072D01*
X63499Y-37060D01*
X63400Y-37059D01*
X63308Y-37097D01*
X63238Y-37168D01*
X63200Y-37260D01*
X63199Y-37359D01*
X63237Y-37451D01*
X63308Y-37521D01*
X63400Y-37559D01*
X63499Y-37560D01*
X63591Y-37522D01*
X63661Y-37451D01*
X63699Y-37359D01*
X63700Y-37260D01*
X63700Y-40519D01*
X63690Y-40519D01*
X63598Y-40557D01*
X63528Y-40628D01*
X63490Y-40720D01*
X63489Y-40819D01*
X63527Y-40911D01*
X63598Y-40981D01*
X63690Y-41019D01*
X63789Y-41020D01*
X63881Y-40982D01*
X63951Y-40911D01*
X63989Y-40819D01*
X63990Y-40720D01*
X63990Y-55291D01*
X63972Y-55291D01*
X63965Y-55294D01*
X63965Y-48477D01*
X63928Y-48389D01*
X63917Y-48377D01*
X63939Y-48322D01*
X63940Y-48227D01*
X63903Y-48139D01*
X63836Y-48071D01*
X63747Y-48035D01*
X63652Y-48034D01*
X63564Y-48071D01*
X63550Y-48085D01*
X63260Y-48085D01*
X63260Y-42329D01*
X63189Y-42158D01*
X63058Y-42027D01*
X62888Y-41956D01*
X62703Y-41956D01*
X62532Y-42026D01*
X62401Y-42157D01*
X62330Y-42328D01*
X62330Y-42513D01*
X62400Y-42684D01*
X62531Y-42815D01*
X62702Y-42886D01*
X62887Y-42886D01*
X63058Y-42815D01*
X63189Y-42684D01*
X63260Y-42514D01*
X63260Y-42329D01*
X63260Y-48085D01*
X62870Y-48085D01*
X62870Y-43672D01*
X62833Y-43584D01*
X62766Y-43516D01*
X62677Y-43480D01*
X62658Y-43480D01*
X62240Y-43061D01*
X62240Y-40770D01*
X62225Y-40697D01*
X62184Y-40635D01*
X61893Y-40344D01*
X61893Y-34858D01*
X61859Y-34777D01*
X61798Y-34715D01*
X61717Y-34681D01*
X61629Y-34681D01*
X61560Y-34710D01*
X61560Y-32438D01*
X61497Y-32288D01*
X61382Y-32172D01*
X61231Y-32110D01*
X61068Y-32109D01*
X60918Y-32172D01*
X60802Y-32287D01*
X60740Y-32438D01*
X60739Y-32601D01*
X60802Y-32751D01*
X60917Y-32867D01*
X61068Y-32929D01*
X61231Y-32930D01*
X61381Y-32867D01*
X61497Y-32752D01*
X61559Y-32601D01*
X61560Y-32438D01*
X61560Y-34710D01*
X61548Y-34714D01*
X61486Y-34776D01*
X61453Y-34857D01*
X61453Y-34945D01*
X61486Y-35026D01*
X61548Y-35087D01*
X61629Y-35121D01*
X61716Y-35121D01*
X61797Y-35088D01*
X61859Y-35026D01*
X61893Y-34945D01*
X61893Y-34858D01*
X61893Y-40344D01*
X61794Y-40245D01*
X61732Y-40204D01*
X61660Y-40190D01*
X61060Y-40190D01*
X61060Y-33188D01*
X60997Y-33038D01*
X60882Y-32922D01*
X60731Y-32860D01*
X60568Y-32859D01*
X60561Y-32863D01*
X60561Y-32444D01*
X60501Y-32293D01*
X60493Y-32282D01*
X60426Y-32258D01*
X60411Y-32272D01*
X60411Y-32243D01*
X60387Y-32176D01*
X60237Y-32111D01*
X60074Y-32108D01*
X59923Y-32168D01*
X59912Y-32176D01*
X59888Y-32243D01*
X60150Y-32505D01*
X60411Y-32243D01*
X60411Y-32272D01*
X60164Y-32520D01*
X60426Y-32781D01*
X60493Y-32757D01*
X60558Y-32607D01*
X60561Y-32444D01*
X60561Y-32863D01*
X60418Y-32922D01*
X60411Y-32928D01*
X60411Y-32796D01*
X60150Y-32534D01*
X60135Y-32548D01*
X60135Y-32520D01*
X59873Y-32258D01*
X59806Y-32282D01*
X59741Y-32432D01*
X59738Y-32595D01*
X59798Y-32746D01*
X59806Y-32757D01*
X59873Y-32781D01*
X60135Y-32520D01*
X60135Y-32548D01*
X59888Y-32796D01*
X59912Y-32863D01*
X60062Y-32928D01*
X60225Y-32931D01*
X60376Y-32871D01*
X60387Y-32863D01*
X60411Y-32796D01*
X60411Y-32928D01*
X60302Y-33037D01*
X60289Y-33069D01*
X60217Y-33040D01*
X60122Y-33039D01*
X60034Y-33076D01*
X59966Y-33143D01*
X59930Y-33232D01*
X59929Y-33327D01*
X59966Y-33415D01*
X60033Y-33483D01*
X60122Y-33519D01*
X60217Y-33520D01*
X60296Y-33487D01*
X60302Y-33501D01*
X60417Y-33617D01*
X60568Y-33679D01*
X60731Y-33680D01*
X60881Y-33617D01*
X60997Y-33502D01*
X61059Y-33351D01*
X61060Y-33188D01*
X61060Y-40190D01*
X61035Y-40190D01*
X61035Y-36275D01*
X60997Y-36183D01*
X60926Y-36113D01*
X60834Y-36075D01*
X60735Y-36074D01*
X60643Y-36112D01*
X60573Y-36183D01*
X60565Y-36201D01*
X60550Y-36164D01*
X60488Y-36102D01*
X60408Y-36069D01*
X60320Y-36069D01*
X60239Y-36102D01*
X60177Y-36164D01*
X60144Y-36245D01*
X60144Y-36332D01*
X60177Y-36413D01*
X60239Y-36475D01*
X60320Y-36509D01*
X60407Y-36509D01*
X60488Y-36475D01*
X60550Y-36414D01*
X60550Y-36413D01*
X60572Y-36466D01*
X60643Y-36536D01*
X60735Y-36574D01*
X60834Y-36575D01*
X60926Y-36537D01*
X60996Y-36466D01*
X61034Y-36374D01*
X61035Y-36275D01*
X61035Y-40190D01*
X60830Y-40190D01*
X60830Y-37535D01*
X60796Y-37454D01*
X60735Y-37392D01*
X60654Y-37358D01*
X60566Y-37358D01*
X60485Y-37392D01*
X60423Y-37453D01*
X60390Y-37534D01*
X60390Y-37622D01*
X60423Y-37703D01*
X60485Y-37765D01*
X60566Y-37798D01*
X60653Y-37798D01*
X60734Y-37765D01*
X60796Y-37703D01*
X60830Y-37622D01*
X60830Y-37535D01*
X60830Y-40190D01*
X60689Y-40190D01*
X60676Y-40176D01*
X60587Y-40140D01*
X60492Y-40139D01*
X60466Y-40150D01*
X60466Y-39883D01*
X60429Y-39795D01*
X60362Y-39727D01*
X60274Y-39691D01*
X60178Y-39691D01*
X60161Y-39698D01*
X60161Y-39212D01*
X60124Y-39124D01*
X60057Y-39056D01*
X59969Y-39019D01*
X59935Y-39019D01*
X59935Y-35304D01*
X59897Y-35212D01*
X59826Y-35142D01*
X59734Y-35104D01*
X59635Y-35104D01*
X59560Y-35135D01*
X59560Y-34483D01*
X59527Y-34403D01*
X59465Y-34341D01*
X59384Y-34307D01*
X59296Y-34307D01*
X59216Y-34340D01*
X59154Y-34402D01*
X59120Y-34483D01*
X59120Y-34571D01*
X59153Y-34652D01*
X59215Y-34713D01*
X59296Y-34747D01*
X59384Y-34747D01*
X59465Y-34714D01*
X59526Y-34652D01*
X59560Y-34571D01*
X59560Y-34483D01*
X59560Y-35135D01*
X59543Y-35142D01*
X59473Y-35212D01*
X59436Y-35301D01*
X59356Y-35301D01*
X59275Y-35335D01*
X59213Y-35396D01*
X59179Y-35477D01*
X59179Y-35565D01*
X59212Y-35646D01*
X59274Y-35708D01*
X59355Y-35741D01*
X59443Y-35741D01*
X59524Y-35708D01*
X59586Y-35646D01*
X59608Y-35593D01*
X59635Y-35604D01*
X59734Y-35604D01*
X59826Y-35566D01*
X59896Y-35496D01*
X59934Y-35404D01*
X59935Y-35304D01*
X59935Y-39019D01*
X59873Y-39019D01*
X59785Y-39056D01*
X59717Y-39123D01*
X59702Y-39160D01*
X59702Y-36460D01*
X59637Y-36302D01*
X59516Y-36181D01*
X59358Y-36115D01*
X59187Y-36115D01*
X59029Y-36180D01*
X58908Y-36301D01*
X58842Y-36459D01*
X58842Y-36630D01*
X58907Y-36788D01*
X59028Y-36910D01*
X59097Y-36938D01*
X59097Y-37584D01*
X58996Y-37684D01*
X58996Y-37331D01*
X58996Y-37174D01*
X58933Y-37015D01*
X58814Y-36892D01*
X58657Y-36824D01*
X58643Y-36821D01*
X58575Y-36851D01*
X58575Y-37242D01*
X58966Y-37242D01*
X58996Y-37174D01*
X58996Y-37331D01*
X58966Y-37262D01*
X58575Y-37262D01*
X58575Y-37653D01*
X58643Y-37684D01*
X58802Y-37621D01*
X58925Y-37502D01*
X58993Y-37345D01*
X58996Y-37331D01*
X58996Y-37684D01*
X58609Y-38071D01*
X58582Y-38005D01*
X58520Y-37943D01*
X58439Y-37909D01*
X58352Y-37909D01*
X58271Y-37943D01*
X58209Y-38005D01*
X58189Y-38052D01*
X58189Y-37471D01*
X58196Y-37490D01*
X58315Y-37613D01*
X58472Y-37681D01*
X58486Y-37684D01*
X58555Y-37653D01*
X58555Y-37262D01*
X58189Y-37262D01*
X58189Y-37242D01*
X58541Y-37242D01*
X58545Y-37247D01*
X58550Y-37242D01*
X58555Y-37242D01*
X58555Y-37237D01*
X58559Y-37233D01*
X58555Y-37228D01*
X58555Y-36851D01*
X58499Y-36826D01*
X58689Y-36637D01*
X58727Y-36580D01*
X58727Y-36580D01*
X58740Y-36513D01*
X58740Y-36231D01*
X58808Y-36203D01*
X58929Y-36082D01*
X58995Y-35924D01*
X58995Y-35753D01*
X58970Y-35691D01*
X58970Y-34415D01*
X58936Y-34334D01*
X58874Y-34272D01*
X58793Y-34238D01*
X58706Y-34238D01*
X58625Y-34272D01*
X58563Y-34333D01*
X58530Y-34414D01*
X58529Y-34502D01*
X58563Y-34583D01*
X58625Y-34645D01*
X58706Y-34678D01*
X58793Y-34678D01*
X58874Y-34645D01*
X58936Y-34583D01*
X58969Y-34502D01*
X58970Y-34415D01*
X58970Y-35691D01*
X58930Y-35595D01*
X58809Y-35474D01*
X58651Y-35408D01*
X58480Y-35408D01*
X58322Y-35473D01*
X58201Y-35594D01*
X58135Y-35752D01*
X58135Y-35923D01*
X58200Y-36081D01*
X58321Y-36202D01*
X58390Y-36231D01*
X58390Y-36440D01*
X58288Y-36542D01*
X58288Y-36460D01*
X58223Y-36302D01*
X58102Y-36181D01*
X57944Y-36115D01*
X57832Y-36115D01*
X57982Y-35966D01*
X58019Y-35909D01*
X58019Y-35909D01*
X58033Y-35842D01*
X58033Y-35524D01*
X58101Y-35496D01*
X58222Y-35375D01*
X58288Y-35217D01*
X58288Y-35046D01*
X58271Y-35004D01*
X58271Y-32682D01*
X58237Y-32601D01*
X58175Y-32539D01*
X58095Y-32506D01*
X58007Y-32506D01*
X57926Y-32539D01*
X57864Y-32601D01*
X57831Y-32682D01*
X57831Y-32769D01*
X57864Y-32850D01*
X57926Y-32912D01*
X58007Y-32946D01*
X58094Y-32946D01*
X58175Y-32912D01*
X58237Y-32851D01*
X58271Y-32770D01*
X58271Y-32682D01*
X58271Y-35004D01*
X58223Y-34888D01*
X58102Y-34767D01*
X57944Y-34701D01*
X57773Y-34701D01*
X57615Y-34766D01*
X57493Y-34887D01*
X57428Y-35045D01*
X57428Y-35216D01*
X57493Y-35374D01*
X57614Y-35495D01*
X57683Y-35524D01*
X57683Y-35770D01*
X57581Y-35872D01*
X57581Y-35753D01*
X57515Y-35595D01*
X57395Y-35474D01*
X57237Y-35408D01*
X57066Y-35408D01*
X56907Y-35473D01*
X56875Y-35506D01*
X56875Y-35209D01*
X56875Y-35053D01*
X56812Y-34893D01*
X56693Y-34770D01*
X56536Y-34702D01*
X56522Y-34700D01*
X56454Y-34730D01*
X56454Y-35121D01*
X56844Y-35121D01*
X56875Y-35053D01*
X56875Y-35209D01*
X56844Y-35141D01*
X56454Y-35141D01*
X56454Y-35532D01*
X56522Y-35562D01*
X56681Y-35499D01*
X56804Y-35381D01*
X56872Y-35224D01*
X56875Y-35209D01*
X56875Y-35506D01*
X56786Y-35594D01*
X56721Y-35752D01*
X56721Y-35923D01*
X56786Y-36081D01*
X56907Y-36202D01*
X57065Y-36268D01*
X57184Y-36268D01*
X56932Y-36520D01*
X56932Y-36462D01*
X56899Y-36381D01*
X56837Y-36319D01*
X56756Y-36285D01*
X56669Y-36285D01*
X56588Y-36319D01*
X56526Y-36381D01*
X56505Y-36431D01*
X56505Y-36376D01*
X56434Y-36204D01*
X56434Y-35532D01*
X56434Y-35141D01*
X56043Y-35141D01*
X56012Y-35209D01*
X56075Y-35369D01*
X56194Y-35491D01*
X56351Y-35560D01*
X56365Y-35562D01*
X56434Y-35532D01*
X56434Y-36204D01*
X56413Y-36155D01*
X56244Y-35985D01*
X56022Y-35893D01*
X55782Y-35893D01*
X55561Y-35984D01*
X55415Y-36130D01*
X55415Y-35794D01*
X55475Y-35855D01*
X55556Y-35889D01*
X55643Y-35889D01*
X55724Y-35855D01*
X55786Y-35794D01*
X55820Y-35713D01*
X55820Y-35625D01*
X55787Y-35544D01*
X55725Y-35482D01*
X55658Y-35455D01*
X56027Y-35086D01*
X56043Y-35121D01*
X56419Y-35121D01*
X56424Y-35125D01*
X56428Y-35121D01*
X56434Y-35121D01*
X56434Y-35116D01*
X56438Y-35111D01*
X56434Y-35107D01*
X56434Y-34730D01*
X56398Y-34714D01*
X56514Y-34599D01*
X56758Y-34599D01*
X56786Y-34667D01*
X56907Y-34788D01*
X57065Y-34854D01*
X57236Y-34854D01*
X57394Y-34789D01*
X57515Y-34668D01*
X57581Y-34510D01*
X57581Y-34339D01*
X57515Y-34181D01*
X57395Y-34060D01*
X57237Y-33994D01*
X57066Y-33994D01*
X56907Y-34059D01*
X56786Y-34180D01*
X56758Y-34249D01*
X56607Y-34249D01*
X56607Y-33155D01*
X56574Y-33074D01*
X56558Y-33058D01*
X56558Y-32131D01*
X56525Y-32050D01*
X56463Y-31988D01*
X56382Y-31955D01*
X56295Y-31955D01*
X56214Y-31988D01*
X56152Y-32050D01*
X56118Y-32131D01*
X56118Y-32218D01*
X56151Y-32299D01*
X56213Y-32361D01*
X56294Y-32395D01*
X56382Y-32395D01*
X56463Y-32361D01*
X56524Y-32299D01*
X56558Y-32219D01*
X56558Y-32131D01*
X56558Y-33058D01*
X56512Y-33012D01*
X56431Y-32978D01*
X56344Y-32978D01*
X56263Y-33012D01*
X56201Y-33074D01*
X56167Y-33154D01*
X56167Y-33242D01*
X56201Y-33323D01*
X56263Y-33385D01*
X56343Y-33418D01*
X56431Y-33418D01*
X56512Y-33385D01*
X56574Y-33323D01*
X56607Y-33242D01*
X56607Y-33155D01*
X56607Y-34249D01*
X56441Y-34249D01*
X56374Y-34262D01*
X56318Y-34300D01*
X55662Y-34955D01*
X55662Y-34730D01*
X55629Y-34649D01*
X55567Y-34587D01*
X55486Y-34553D01*
X55399Y-34553D01*
X55318Y-34587D01*
X55256Y-34648D01*
X55222Y-34729D01*
X55222Y-34817D01*
X55256Y-34898D01*
X55318Y-34960D01*
X55398Y-34993D01*
X55486Y-34993D01*
X55567Y-34960D01*
X55629Y-34898D01*
X55662Y-34817D01*
X55662Y-34730D01*
X55662Y-34955D01*
X55116Y-35502D01*
X55078Y-35559D01*
X55065Y-35626D01*
X55065Y-36170D01*
X55065Y-36317D01*
X54923Y-36458D01*
X54923Y-34795D01*
X54832Y-34573D01*
X54662Y-34404D01*
X54441Y-34312D01*
X54201Y-34312D01*
X53980Y-34403D01*
X53810Y-34573D01*
X53718Y-34794D01*
X53718Y-35034D01*
X53809Y-35255D01*
X53979Y-35425D01*
X54200Y-35517D01*
X54440Y-35517D01*
X54662Y-35426D01*
X54831Y-35256D01*
X54923Y-35035D01*
X54923Y-34795D01*
X54923Y-36458D01*
X54888Y-36494D01*
X54857Y-36419D01*
X54765Y-36327D01*
X54645Y-36277D01*
X54515Y-36277D01*
X54394Y-36327D01*
X54350Y-36371D01*
X54350Y-36264D01*
X54302Y-36143D01*
X54211Y-36050D01*
X54091Y-35999D01*
X54085Y-35998D01*
X54033Y-36030D01*
X54033Y-36316D01*
X54319Y-36316D01*
X54350Y-36264D01*
X54350Y-36371D01*
X54344Y-36377D01*
X54319Y-36336D01*
X54047Y-36336D01*
X54042Y-36331D01*
X54038Y-36336D01*
X54033Y-36336D01*
X54033Y-36341D01*
X54028Y-36346D01*
X54033Y-36350D01*
X54033Y-36622D01*
X54085Y-36654D01*
X54205Y-36605D01*
X54247Y-36564D01*
X54251Y-36568D01*
X54252Y-36567D01*
X54252Y-36669D01*
X54302Y-36789D01*
X54394Y-36881D01*
X54469Y-36913D01*
X54466Y-36916D01*
X54428Y-36973D01*
X54415Y-37040D01*
X54415Y-37647D01*
X54403Y-37636D01*
X54283Y-37586D01*
X54153Y-37585D01*
X54032Y-37635D01*
X53940Y-37727D01*
X53890Y-37847D01*
X53890Y-37978D01*
X53940Y-38098D01*
X54032Y-38190D01*
X54152Y-38240D01*
X54282Y-38240D01*
X54403Y-38190D01*
X54495Y-38098D01*
X54545Y-37978D01*
X54545Y-37862D01*
X54611Y-37928D01*
X54586Y-37987D01*
X54586Y-38117D01*
X54636Y-38237D01*
X54728Y-38329D01*
X54848Y-38379D01*
X54978Y-38379D01*
X55099Y-38329D01*
X55191Y-38237D01*
X55241Y-38117D01*
X55241Y-37987D01*
X55191Y-37867D01*
X55099Y-37775D01*
X54979Y-37725D01*
X54902Y-37725D01*
X54765Y-37587D01*
X54765Y-37509D01*
X54845Y-37543D01*
X54851Y-37544D01*
X54903Y-37513D01*
X54903Y-37241D01*
X54908Y-37236D01*
X54903Y-37232D01*
X54903Y-37227D01*
X54898Y-37227D01*
X54894Y-37222D01*
X54889Y-37227D01*
X54765Y-37227D01*
X54765Y-37207D01*
X54889Y-37207D01*
X54894Y-37211D01*
X54898Y-37207D01*
X54903Y-37207D01*
X54903Y-37201D01*
X54908Y-37197D01*
X54903Y-37193D01*
X54903Y-36973D01*
X54923Y-36953D01*
X54923Y-37207D01*
X55209Y-37207D01*
X55241Y-37155D01*
X55193Y-37034D01*
X55101Y-36941D01*
X54985Y-36892D01*
X55299Y-36578D01*
X55299Y-36615D01*
X55390Y-36837D01*
X55560Y-37006D01*
X55781Y-37098D01*
X56021Y-37099D01*
X56243Y-37007D01*
X56412Y-36838D01*
X56504Y-36616D01*
X56504Y-36579D01*
X56525Y-36630D01*
X56587Y-36692D01*
X56668Y-36725D01*
X56727Y-36725D01*
X56132Y-37320D01*
X55884Y-37320D01*
X55752Y-37320D01*
X55748Y-37310D01*
X55656Y-37218D01*
X55536Y-37168D01*
X55405Y-37168D01*
X55285Y-37218D01*
X55235Y-37268D01*
X55209Y-37227D01*
X54938Y-37227D01*
X54933Y-37222D01*
X54929Y-37227D01*
X54923Y-37227D01*
X54923Y-37232D01*
X54919Y-37236D01*
X54923Y-37241D01*
X54923Y-37513D01*
X54976Y-37544D01*
X55096Y-37496D01*
X55138Y-37455D01*
X55142Y-37459D01*
X55143Y-37457D01*
X55143Y-37560D01*
X55193Y-37680D01*
X55285Y-37772D01*
X55405Y-37822D01*
X55535Y-37822D01*
X55655Y-37773D01*
X55747Y-37681D01*
X55752Y-37670D01*
X55884Y-37670D01*
X56205Y-37670D01*
X56272Y-37657D01*
X56272Y-37657D01*
X56328Y-37619D01*
X57428Y-36519D01*
X57428Y-36630D01*
X57493Y-36788D01*
X57614Y-36910D01*
X57772Y-36975D01*
X57867Y-36975D01*
X57852Y-36997D01*
X57839Y-37064D01*
X57839Y-40298D01*
X57582Y-40556D01*
X57582Y-37909D01*
X57548Y-37828D01*
X57486Y-37766D01*
X57406Y-37732D01*
X57318Y-37732D01*
X57237Y-37766D01*
X57175Y-37827D01*
X57142Y-37908D01*
X57142Y-37996D01*
X57175Y-38077D01*
X57237Y-38139D01*
X57318Y-38172D01*
X57405Y-38172D01*
X57486Y-38139D01*
X57548Y-38077D01*
X57582Y-37996D01*
X57582Y-37909D01*
X57582Y-40556D01*
X56744Y-41394D01*
X56688Y-41394D01*
X56607Y-41427D01*
X56545Y-41489D01*
X56512Y-41570D01*
X56512Y-41657D01*
X56545Y-41738D01*
X56592Y-41785D01*
X56543Y-41835D01*
X56510Y-41916D01*
X56509Y-42003D01*
X56543Y-42084D01*
X56605Y-42146D01*
X56686Y-42179D01*
X56773Y-42180D01*
X56854Y-42146D01*
X56916Y-42084D01*
X56949Y-42003D01*
X56950Y-41958D01*
X58312Y-40596D01*
X58350Y-40539D01*
X58350Y-40539D01*
X58363Y-40472D01*
X58363Y-38812D01*
X59396Y-37780D01*
X59434Y-37723D01*
X59434Y-37723D01*
X59447Y-37656D01*
X59447Y-36938D01*
X59515Y-36910D01*
X59636Y-36789D01*
X59702Y-36631D01*
X59702Y-36460D01*
X59702Y-39160D01*
X59681Y-39211D01*
X59681Y-39307D01*
X59717Y-39395D01*
X59785Y-39463D01*
X59873Y-39499D01*
X59968Y-39499D01*
X60057Y-39463D01*
X60124Y-39395D01*
X60161Y-39307D01*
X60161Y-39212D01*
X60161Y-39698D01*
X60090Y-39727D01*
X60023Y-39794D01*
X59986Y-39883D01*
X59986Y-39978D01*
X60022Y-40066D01*
X60090Y-40134D01*
X60178Y-40171D01*
X60273Y-40171D01*
X60362Y-40134D01*
X60429Y-40067D01*
X60466Y-39979D01*
X60466Y-39883D01*
X60466Y-40150D01*
X60404Y-40176D01*
X60336Y-40243D01*
X60300Y-40332D01*
X60299Y-40427D01*
X60336Y-40515D01*
X60403Y-40583D01*
X60492Y-40619D01*
X60587Y-40620D01*
X60660Y-40589D01*
X60637Y-40644D01*
X60637Y-40740D01*
X60674Y-40828D01*
X60717Y-40872D01*
X60662Y-40926D01*
X60626Y-41015D01*
X60626Y-41110D01*
X60662Y-41198D01*
X60730Y-41266D01*
X60818Y-41302D01*
X60913Y-41303D01*
X61001Y-41266D01*
X61069Y-41199D01*
X61106Y-41110D01*
X61106Y-41015D01*
X61069Y-40927D01*
X61026Y-40883D01*
X61081Y-40829D01*
X61117Y-40740D01*
X61117Y-40645D01*
X61086Y-40570D01*
X61581Y-40570D01*
X61860Y-40848D01*
X61860Y-43140D01*
X61874Y-43212D01*
X61915Y-43274D01*
X62389Y-43748D01*
X62389Y-43767D01*
X62426Y-43855D01*
X62493Y-43923D01*
X62582Y-43959D01*
X62677Y-43960D01*
X62765Y-43923D01*
X62833Y-43856D01*
X62869Y-43767D01*
X62870Y-43672D01*
X62870Y-48085D01*
X61840Y-48085D01*
X61840Y-44752D01*
X61803Y-44664D01*
X61736Y-44596D01*
X61647Y-44560D01*
X61552Y-44559D01*
X61464Y-44596D01*
X61396Y-44663D01*
X61360Y-44752D01*
X61359Y-44847D01*
X61396Y-44935D01*
X61463Y-45003D01*
X61552Y-45039D01*
X61647Y-45040D01*
X61735Y-45003D01*
X61803Y-44936D01*
X61839Y-44847D01*
X61840Y-44752D01*
X61840Y-48085D01*
X61125Y-48085D01*
X61125Y-43485D01*
X61089Y-43397D01*
X61021Y-43330D01*
X60933Y-43293D01*
X60838Y-43293D01*
X60750Y-43329D01*
X60682Y-43397D01*
X60645Y-43485D01*
X60645Y-43580D01*
X60682Y-43669D01*
X60749Y-43736D01*
X60837Y-43773D01*
X60933Y-43773D01*
X61021Y-43737D01*
X61089Y-43669D01*
X61125Y-43581D01*
X61125Y-43485D01*
X61125Y-48085D01*
X60874Y-48085D01*
X60861Y-48071D01*
X60772Y-48035D01*
X60677Y-48034D01*
X60589Y-48071D01*
X60521Y-48138D01*
X60485Y-48227D01*
X60484Y-48322D01*
X60521Y-48410D01*
X60588Y-48478D01*
X60677Y-48514D01*
X60710Y-48514D01*
X60709Y-48597D01*
X60746Y-48685D01*
X60813Y-48753D01*
X60882Y-48781D01*
X60882Y-48866D01*
X60918Y-48954D01*
X60985Y-49022D01*
X61074Y-49058D01*
X61169Y-49058D01*
X61177Y-49055D01*
X61177Y-49122D01*
X61213Y-49210D01*
X61281Y-49278D01*
X61369Y-49314D01*
X61464Y-49314D01*
X61553Y-49278D01*
X61620Y-49210D01*
X61657Y-49122D01*
X61657Y-49027D01*
X61620Y-48939D01*
X61553Y-48871D01*
X61465Y-48834D01*
X61369Y-48834D01*
X61362Y-48837D01*
X61362Y-48771D01*
X61338Y-48715D01*
X63575Y-48715D01*
X63588Y-48728D01*
X63677Y-48764D01*
X63772Y-48765D01*
X63860Y-48728D01*
X63928Y-48661D01*
X63964Y-48572D01*
X63965Y-48477D01*
X63965Y-55294D01*
X63891Y-55325D01*
X63829Y-55387D01*
X63795Y-55467D01*
X63795Y-55555D01*
X63829Y-55636D01*
X63890Y-55698D01*
X63971Y-55731D01*
X64059Y-55731D01*
X64140Y-55698D01*
X64202Y-55636D01*
X64235Y-55555D01*
X64235Y-55468D01*
X64235Y-58750D01*
X63822Y-58750D01*
X63822Y-57180D01*
X63788Y-57099D01*
X63727Y-57038D01*
X63646Y-57004D01*
X63558Y-57004D01*
X63477Y-57037D01*
X63415Y-57099D01*
X63382Y-57180D01*
X63382Y-57267D01*
X63415Y-57348D01*
X63477Y-57410D01*
X63558Y-57444D01*
X63645Y-57444D01*
X63726Y-57411D01*
X63788Y-57349D01*
X63822Y-57268D01*
X63822Y-57180D01*
X63822Y-58750D01*
X63299Y-58750D01*
X63299Y-50464D01*
X63262Y-50376D01*
X63195Y-50308D01*
X63131Y-50281D01*
X63161Y-50209D01*
X63161Y-50113D01*
X63124Y-50025D01*
X63057Y-49958D01*
X62985Y-49928D01*
X63006Y-49907D01*
X63043Y-49819D01*
X63043Y-49724D01*
X63006Y-49635D01*
X62939Y-49568D01*
X62851Y-49531D01*
X62755Y-49531D01*
X62667Y-49568D01*
X62599Y-49635D01*
X62563Y-49723D01*
X62563Y-49819D01*
X62599Y-49907D01*
X62667Y-49974D01*
X62738Y-50004D01*
X62717Y-50025D01*
X62681Y-50113D01*
X62681Y-50208D01*
X62717Y-50297D01*
X62785Y-50364D01*
X62849Y-50391D01*
X62819Y-50463D01*
X62819Y-50559D01*
X62855Y-50647D01*
X62922Y-50715D01*
X63011Y-50751D01*
X63106Y-50751D01*
X63194Y-50715D01*
X63262Y-50647D01*
X63299Y-50559D01*
X63299Y-50464D01*
X63299Y-58750D01*
X62710Y-58750D01*
X62710Y-51222D01*
X62674Y-51133D01*
X62606Y-51066D01*
X62518Y-51029D01*
X62422Y-51029D01*
X62334Y-51066D01*
X62267Y-51133D01*
X62230Y-51221D01*
X62230Y-51317D01*
X62266Y-51405D01*
X62334Y-51473D01*
X62422Y-51509D01*
X62518Y-51509D01*
X62606Y-51473D01*
X62673Y-51405D01*
X62710Y-51317D01*
X62710Y-51222D01*
X62710Y-58750D01*
X62090Y-58750D01*
X62090Y-51300D01*
X62053Y-51212D01*
X61986Y-51145D01*
X61898Y-51108D01*
X61802Y-51108D01*
X61714Y-51144D01*
X61647Y-51212D01*
X61610Y-51300D01*
X61610Y-51360D01*
X61552Y-51359D01*
X61464Y-51396D01*
X61440Y-51420D01*
X61440Y-49852D01*
X61403Y-49764D01*
X61336Y-49696D01*
X61247Y-49660D01*
X61152Y-49659D01*
X61064Y-49696D01*
X60996Y-49763D01*
X60960Y-49852D01*
X60959Y-49947D01*
X60996Y-50035D01*
X61063Y-50103D01*
X61152Y-50139D01*
X61247Y-50140D01*
X61335Y-50103D01*
X61403Y-50036D01*
X61439Y-49947D01*
X61440Y-49852D01*
X61440Y-51420D01*
X61396Y-51463D01*
X61360Y-51552D01*
X61360Y-51559D01*
X61352Y-51559D01*
X61264Y-51596D01*
X61196Y-51663D01*
X61160Y-51752D01*
X61159Y-51847D01*
X61196Y-51935D01*
X61263Y-52003D01*
X61352Y-52039D01*
X61447Y-52040D01*
X61535Y-52003D01*
X61603Y-51936D01*
X61639Y-51847D01*
X61639Y-51840D01*
X61647Y-51840D01*
X61735Y-51803D01*
X61803Y-51736D01*
X61839Y-51647D01*
X61840Y-51588D01*
X61897Y-51588D01*
X61986Y-51552D01*
X62053Y-51484D01*
X62090Y-51396D01*
X62090Y-51300D01*
X62090Y-58750D01*
X61854Y-58750D01*
X61854Y-53357D01*
X61817Y-53269D01*
X61750Y-53202D01*
X61696Y-53179D01*
X61696Y-52810D01*
X61660Y-52722D01*
X61592Y-52654D01*
X61504Y-52618D01*
X61409Y-52618D01*
X61320Y-52654D01*
X61253Y-52722D01*
X61216Y-52810D01*
X61216Y-52905D01*
X61253Y-52994D01*
X61320Y-53061D01*
X61408Y-53098D01*
X61504Y-53098D01*
X61592Y-53061D01*
X61660Y-52994D01*
X61696Y-52906D01*
X61696Y-52810D01*
X61696Y-53179D01*
X61662Y-53165D01*
X61566Y-53165D01*
X61478Y-53201D01*
X61410Y-53269D01*
X61374Y-53357D01*
X61374Y-53453D01*
X61410Y-53541D01*
X61478Y-53608D01*
X61566Y-53645D01*
X61661Y-53645D01*
X61749Y-53609D01*
X61817Y-53541D01*
X61854Y-53453D01*
X61854Y-53357D01*
X61854Y-58750D01*
X61235Y-58750D01*
X61236Y-58749D01*
X61298Y-58687D01*
X61332Y-58606D01*
X61332Y-58519D01*
X61332Y-57023D01*
X61332Y-55852D01*
X61322Y-55829D01*
X61322Y-53338D01*
X61286Y-53250D01*
X61218Y-53182D01*
X61130Y-53145D01*
X61035Y-53145D01*
X60946Y-53182D01*
X60879Y-53249D01*
X60871Y-53269D01*
X60847Y-53260D01*
X60752Y-53259D01*
X60664Y-53296D01*
X60596Y-53363D01*
X60560Y-53452D01*
X60559Y-53534D01*
X60484Y-53566D01*
X60416Y-53633D01*
X60380Y-53721D01*
X60380Y-53775D01*
X60326Y-53775D01*
X60238Y-53812D01*
X60170Y-53879D01*
X60134Y-53967D01*
X60133Y-54063D01*
X60170Y-54151D01*
X60237Y-54219D01*
X60326Y-54255D01*
X60421Y-54255D01*
X60509Y-54219D01*
X60577Y-54151D01*
X60613Y-54063D01*
X60614Y-54009D01*
X60667Y-54009D01*
X60755Y-53973D01*
X60823Y-53905D01*
X60860Y-53817D01*
X60860Y-53734D01*
X60935Y-53703D01*
X61003Y-53636D01*
X61011Y-53616D01*
X61034Y-53625D01*
X61130Y-53625D01*
X61218Y-53589D01*
X61286Y-53521D01*
X61322Y-53433D01*
X61322Y-53338D01*
X61322Y-55829D01*
X61298Y-55771D01*
X61236Y-55709D01*
X61162Y-55678D01*
X61184Y-55624D01*
X61184Y-55537D01*
X61151Y-55456D01*
X61089Y-55394D01*
X61008Y-55360D01*
X60920Y-55360D01*
X60889Y-55373D01*
X60889Y-55291D01*
X60855Y-55210D01*
X60794Y-55148D01*
X60713Y-55114D01*
X60625Y-55114D01*
X60603Y-55123D01*
X60603Y-55045D01*
X60570Y-54964D01*
X60508Y-54902D01*
X60427Y-54868D01*
X60340Y-54868D01*
X60259Y-54901D01*
X60197Y-54963D01*
X60163Y-55044D01*
X60163Y-55132D01*
X60197Y-55213D01*
X60259Y-55274D01*
X60339Y-55308D01*
X60427Y-55308D01*
X60449Y-55299D01*
X60449Y-55378D01*
X60482Y-55459D01*
X60544Y-55521D01*
X60625Y-55554D01*
X60712Y-55554D01*
X60744Y-55541D01*
X60744Y-55624D01*
X60777Y-55705D01*
X60839Y-55767D01*
X60914Y-55798D01*
X60892Y-55851D01*
X60892Y-55939D01*
X60925Y-56020D01*
X60987Y-56082D01*
X61068Y-56115D01*
X61155Y-56115D01*
X61236Y-56082D01*
X61298Y-56020D01*
X61332Y-55939D01*
X61332Y-55852D01*
X61332Y-57023D01*
X61312Y-56975D01*
X61312Y-56413D01*
X61279Y-56332D01*
X61217Y-56270D01*
X61136Y-56236D01*
X61048Y-56236D01*
X60968Y-56270D01*
X60906Y-56331D01*
X60872Y-56412D01*
X60872Y-56500D01*
X60905Y-56581D01*
X60967Y-56643D01*
X61048Y-56676D01*
X61136Y-56676D01*
X61216Y-56643D01*
X61278Y-56581D01*
X61312Y-56500D01*
X61312Y-56413D01*
X61312Y-56975D01*
X61298Y-56942D01*
X61236Y-56880D01*
X61156Y-56846D01*
X61068Y-56846D01*
X60987Y-56880D01*
X60925Y-56942D01*
X60892Y-57022D01*
X60892Y-57110D01*
X60925Y-57191D01*
X60987Y-57253D01*
X61068Y-57286D01*
X61155Y-57286D01*
X61236Y-57253D01*
X61298Y-57191D01*
X61332Y-57110D01*
X61332Y-57023D01*
X61332Y-58519D01*
X61322Y-58495D01*
X61322Y-57781D01*
X61288Y-57700D01*
X61227Y-57638D01*
X61146Y-57604D01*
X61058Y-57604D01*
X60977Y-57638D01*
X60915Y-57700D01*
X60882Y-57780D01*
X60882Y-57868D01*
X60915Y-57949D01*
X60977Y-58011D01*
X61058Y-58044D01*
X61145Y-58044D01*
X61226Y-58011D01*
X61288Y-57949D01*
X61322Y-57868D01*
X61322Y-57781D01*
X61322Y-58495D01*
X61298Y-58438D01*
X61236Y-58376D01*
X61156Y-58343D01*
X61068Y-58342D01*
X60987Y-58376D01*
X60925Y-58438D01*
X60892Y-58519D01*
X60892Y-58606D01*
X60925Y-58687D01*
X60987Y-58749D01*
X60988Y-58750D01*
X60282Y-58750D01*
X60449Y-58638D01*
X60563Y-58468D01*
X60603Y-58267D01*
X60563Y-58067D01*
X60449Y-57897D01*
X60279Y-57783D01*
X60079Y-57743D01*
X60010Y-57743D01*
X60010Y-57118D01*
X59944Y-56958D01*
X59925Y-56939D01*
X59925Y-39932D01*
X59888Y-39844D01*
X59821Y-39776D01*
X59732Y-39740D01*
X59637Y-39740D01*
X59556Y-39773D01*
X59477Y-39740D01*
X59381Y-39740D01*
X59293Y-39776D01*
X59225Y-39844D01*
X59189Y-39932D01*
X59189Y-40027D01*
X59225Y-40116D01*
X59293Y-40183D01*
X59381Y-40220D01*
X59476Y-40220D01*
X59557Y-40187D01*
X59637Y-40220D01*
X59732Y-40220D01*
X59820Y-40183D01*
X59888Y-40116D01*
X59924Y-40028D01*
X59925Y-39932D01*
X59925Y-56939D01*
X59905Y-56919D01*
X59905Y-53377D01*
X59885Y-53330D01*
X59885Y-48794D01*
X59885Y-47196D01*
X59849Y-47108D01*
X59806Y-47065D01*
X59806Y-44873D01*
X59770Y-44785D01*
X59703Y-44717D01*
X59614Y-44681D01*
X59519Y-44681D01*
X59431Y-44717D01*
X59419Y-44729D01*
X59388Y-44698D01*
X59299Y-44661D01*
X59204Y-44661D01*
X59180Y-44671D01*
X59180Y-40702D01*
X59143Y-40614D01*
X59076Y-40546D01*
X58987Y-40510D01*
X58892Y-40509D01*
X58804Y-40546D01*
X58736Y-40613D01*
X58700Y-40702D01*
X58700Y-40721D01*
X56645Y-42775D01*
X56604Y-42837D01*
X56590Y-42910D01*
X56590Y-43671D01*
X56263Y-43997D01*
X56263Y-43279D01*
X56253Y-43254D01*
X56253Y-41275D01*
X56220Y-41194D01*
X56187Y-41161D01*
X56219Y-41128D01*
X56253Y-41047D01*
X56253Y-40960D01*
X56220Y-40879D01*
X56158Y-40817D01*
X56077Y-40783D01*
X55989Y-40783D01*
X55909Y-40817D01*
X55847Y-40879D01*
X55813Y-40959D01*
X55813Y-41047D01*
X55846Y-41128D01*
X55879Y-41161D01*
X55847Y-41194D01*
X55813Y-41274D01*
X55813Y-41362D01*
X55846Y-41443D01*
X55908Y-41505D01*
X55989Y-41538D01*
X56077Y-41538D01*
X56157Y-41505D01*
X56219Y-41443D01*
X56253Y-41362D01*
X56253Y-41275D01*
X56253Y-43254D01*
X56227Y-43191D01*
X56159Y-43123D01*
X56071Y-43086D01*
X55976Y-43086D01*
X55887Y-43123D01*
X55820Y-43190D01*
X55783Y-43278D01*
X55783Y-43374D01*
X55820Y-43462D01*
X55887Y-43530D01*
X55975Y-43566D01*
X56071Y-43566D01*
X56159Y-43530D01*
X56226Y-43462D01*
X56263Y-43374D01*
X56263Y-43279D01*
X56263Y-43997D01*
X56161Y-44100D01*
X56161Y-44039D01*
X56124Y-43950D01*
X56057Y-43883D01*
X55969Y-43846D01*
X55941Y-43846D01*
X55924Y-43805D01*
X55856Y-43737D01*
X55768Y-43700D01*
X55672Y-43700D01*
X55584Y-43737D01*
X55517Y-43804D01*
X55480Y-43892D01*
X55480Y-43988D01*
X55516Y-44076D01*
X55584Y-44144D01*
X55672Y-44180D01*
X55700Y-44180D01*
X55717Y-44222D01*
X55775Y-44280D01*
X54684Y-44280D01*
X54684Y-38544D01*
X54634Y-38424D01*
X54542Y-38331D01*
X54422Y-38282D01*
X54292Y-38281D01*
X54172Y-38331D01*
X54080Y-38423D01*
X54030Y-38543D01*
X54029Y-38673D01*
X54079Y-38794D01*
X54171Y-38886D01*
X54291Y-38936D01*
X54422Y-38936D01*
X54542Y-38886D01*
X54634Y-38794D01*
X54684Y-38674D01*
X54684Y-38544D01*
X54684Y-44280D01*
X54456Y-44280D01*
X54491Y-44226D01*
X54491Y-44226D01*
X54505Y-44160D01*
X54505Y-43950D01*
X54491Y-43883D01*
X54491Y-43883D01*
X54453Y-43826D01*
X53765Y-43137D01*
X53765Y-42709D01*
X53870Y-42815D01*
X54040Y-42886D01*
X54225Y-42886D01*
X54396Y-42815D01*
X54527Y-42684D01*
X54598Y-42514D01*
X54598Y-42329D01*
X54528Y-42158D01*
X54397Y-42027D01*
X54226Y-41956D01*
X54041Y-41956D01*
X53870Y-42026D01*
X53765Y-42132D01*
X53765Y-39510D01*
X53761Y-39493D01*
X53865Y-39493D01*
X53985Y-39443D01*
X54077Y-39351D01*
X54127Y-39231D01*
X54127Y-39101D01*
X54077Y-38980D01*
X53986Y-38888D01*
X53865Y-38838D01*
X53735Y-38838D01*
X53615Y-38888D01*
X53543Y-38960D01*
X53533Y-38946D01*
X53435Y-38847D01*
X53435Y-38706D01*
X53475Y-38747D01*
X53595Y-38797D01*
X53726Y-38797D01*
X53846Y-38747D01*
X53938Y-38655D01*
X53988Y-38535D01*
X53988Y-38405D01*
X53938Y-38284D01*
X53846Y-38192D01*
X53726Y-38142D01*
X53596Y-38142D01*
X53476Y-38192D01*
X53435Y-38233D01*
X53435Y-38090D01*
X53426Y-38045D01*
X53531Y-38045D01*
X53651Y-37995D01*
X53743Y-37903D01*
X53793Y-37783D01*
X53793Y-37653D01*
X53770Y-37598D01*
X53814Y-37554D01*
X53814Y-37554D01*
X53814Y-37554D01*
X53855Y-37492D01*
X53864Y-37449D01*
X53957Y-37488D01*
X54087Y-37488D01*
X54208Y-37439D01*
X54300Y-37347D01*
X54350Y-37226D01*
X54350Y-37096D01*
X54300Y-36976D01*
X54208Y-36884D01*
X54088Y-36834D01*
X53958Y-36834D01*
X53870Y-36870D01*
X53870Y-36616D01*
X53955Y-36652D01*
X53961Y-36654D01*
X54013Y-36622D01*
X54013Y-36350D01*
X54017Y-36346D01*
X54013Y-36341D01*
X54013Y-36336D01*
X54013Y-36316D01*
X54013Y-36030D01*
X53961Y-35998D01*
X53840Y-36047D01*
X53747Y-36138D01*
X53696Y-36258D01*
X53695Y-36264D01*
X53727Y-36316D01*
X54013Y-36316D01*
X54013Y-36336D01*
X54007Y-36336D01*
X54003Y-36331D01*
X53999Y-36336D01*
X53727Y-36336D01*
X53707Y-36368D01*
X53380Y-36041D01*
X53380Y-34509D01*
X53393Y-34496D01*
X53429Y-34407D01*
X53430Y-34312D01*
X53393Y-34224D01*
X53326Y-34156D01*
X53237Y-34120D01*
X53142Y-34119D01*
X53054Y-34156D01*
X52986Y-34223D01*
X52950Y-34312D01*
X52949Y-34407D01*
X52986Y-34495D01*
X53000Y-34509D01*
X53000Y-36120D01*
X53014Y-36192D01*
X53055Y-36254D01*
X53490Y-36688D01*
X53490Y-36735D01*
X53392Y-36695D01*
X53262Y-36695D01*
X53142Y-36744D01*
X53049Y-36836D01*
X53000Y-36957D01*
X52999Y-37087D01*
X53049Y-37207D01*
X53107Y-37265D01*
X53013Y-37359D01*
X52955Y-37301D01*
X52835Y-37252D01*
X52705Y-37251D01*
X52585Y-37301D01*
X52493Y-37393D01*
X52443Y-37513D01*
X52443Y-37643D01*
X52492Y-37764D01*
X52584Y-37856D01*
X52705Y-37906D01*
X52835Y-37906D01*
X52935Y-37865D01*
X52935Y-37940D01*
X52936Y-37947D01*
X52844Y-37947D01*
X52724Y-37997D01*
X52632Y-38089D01*
X52606Y-38151D01*
X52569Y-38135D01*
X52470Y-38135D01*
X52385Y-38170D01*
X52351Y-38090D01*
X52259Y-37997D01*
X52139Y-37948D01*
X52009Y-37947D01*
X51889Y-37997D01*
X51797Y-38089D01*
X51747Y-38209D01*
X51747Y-38339D01*
X51750Y-38347D01*
X50912Y-37509D01*
X50975Y-37483D01*
X51043Y-37416D01*
X51072Y-37346D01*
X51175Y-37389D01*
X51376Y-37389D01*
X51561Y-37312D01*
X51703Y-37171D01*
X51780Y-36985D01*
X51780Y-36785D01*
X51708Y-36609D01*
X51882Y-36682D01*
X52083Y-36682D01*
X52268Y-36605D01*
X52410Y-36463D01*
X52487Y-36278D01*
X52487Y-36078D01*
X52411Y-35892D01*
X52269Y-35750D01*
X52227Y-35733D01*
X52227Y-32013D01*
X52194Y-31932D01*
X52132Y-31870D01*
X52051Y-31837D01*
X51964Y-31837D01*
X51883Y-31870D01*
X51821Y-31932D01*
X51787Y-32013D01*
X51787Y-32100D01*
X51821Y-32181D01*
X51883Y-32243D01*
X51963Y-32277D01*
X52051Y-32277D01*
X52132Y-32243D01*
X52194Y-32181D01*
X52227Y-32101D01*
X52227Y-32013D01*
X52227Y-35733D01*
X52084Y-35673D01*
X51883Y-35673D01*
X51698Y-35750D01*
X51556Y-35891D01*
X51479Y-36077D01*
X51479Y-36277D01*
X51551Y-36453D01*
X51377Y-36380D01*
X51370Y-36380D01*
X51370Y-33280D01*
X51332Y-33188D01*
X51261Y-33118D01*
X51169Y-33080D01*
X51070Y-33079D01*
X50978Y-33117D01*
X50908Y-33188D01*
X50870Y-33280D01*
X50869Y-33379D01*
X50907Y-33471D01*
X50978Y-33541D01*
X51070Y-33579D01*
X51169Y-33580D01*
X51261Y-33542D01*
X51331Y-33471D01*
X51369Y-33379D01*
X51370Y-33280D01*
X51370Y-36380D01*
X51176Y-36380D01*
X50991Y-36457D01*
X50879Y-36568D01*
X50879Y-34793D01*
X50841Y-34701D01*
X50771Y-34630D01*
X50679Y-34592D01*
X50580Y-34592D01*
X50488Y-34630D01*
X50418Y-34700D01*
X50379Y-34792D01*
X50379Y-34892D01*
X50417Y-34983D01*
X50488Y-35054D01*
X50579Y-35092D01*
X50679Y-35092D01*
X50771Y-35054D01*
X50841Y-34984D01*
X50879Y-34892D01*
X50879Y-34793D01*
X50879Y-36568D01*
X50849Y-36598D01*
X50772Y-36784D01*
X50771Y-36984D01*
X50794Y-37039D01*
X50792Y-37039D01*
X50704Y-37076D01*
X50636Y-37143D01*
X50610Y-37207D01*
X49330Y-35927D01*
X49330Y-35513D01*
X49341Y-35501D01*
X49379Y-35409D01*
X49380Y-35310D01*
X49342Y-35218D01*
X49271Y-35148D01*
X49179Y-35110D01*
X49080Y-35109D01*
X48988Y-35147D01*
X48918Y-35218D01*
X48880Y-35310D01*
X48879Y-35409D01*
X48917Y-35501D01*
X48930Y-35513D01*
X48930Y-36010D01*
X48945Y-36086D01*
X48988Y-36151D01*
X50824Y-37987D01*
X50783Y-37970D01*
X50543Y-37970D01*
X50322Y-38061D01*
X50152Y-38231D01*
X50060Y-38452D01*
X50060Y-38692D01*
X50151Y-38913D01*
X50321Y-39083D01*
X50542Y-39175D01*
X50782Y-39175D01*
X51003Y-39084D01*
X51173Y-38914D01*
X51265Y-38693D01*
X51265Y-38453D01*
X51248Y-38411D01*
X51450Y-38612D01*
X51450Y-38830D01*
X51465Y-38906D01*
X51508Y-38971D01*
X51948Y-39411D01*
X52013Y-39454D01*
X52013Y-39454D01*
X52090Y-39470D01*
X52610Y-39470D01*
X52686Y-39454D01*
X52749Y-39412D01*
X52779Y-39443D01*
X52899Y-39493D01*
X53010Y-39493D01*
X52966Y-39537D01*
X52916Y-39657D01*
X52916Y-39787D01*
X52966Y-39907D01*
X53058Y-39999D01*
X53178Y-40049D01*
X53308Y-40049D01*
X53415Y-40005D01*
X53415Y-43210D01*
X53426Y-43266D01*
X53396Y-43236D01*
X53307Y-43200D01*
X53212Y-43199D01*
X53124Y-43236D01*
X53056Y-43303D01*
X53020Y-43392D01*
X53019Y-43487D01*
X53056Y-43575D01*
X53123Y-43643D01*
X53212Y-43679D01*
X53307Y-43680D01*
X53395Y-43643D01*
X53463Y-43576D01*
X53499Y-43487D01*
X53500Y-43392D01*
X53482Y-43349D01*
X54155Y-44022D01*
X54155Y-44087D01*
X53840Y-44402D01*
X53840Y-43877D01*
X53803Y-43789D01*
X53736Y-43721D01*
X53647Y-43685D01*
X53552Y-43684D01*
X53464Y-43721D01*
X53396Y-43788D01*
X53360Y-43877D01*
X53359Y-43972D01*
X53387Y-44039D01*
X53349Y-44055D01*
X53288Y-44117D01*
X53254Y-44198D01*
X53254Y-44285D01*
X53287Y-44366D01*
X53349Y-44428D01*
X53430Y-44462D01*
X53517Y-44462D01*
X53598Y-44428D01*
X53660Y-44366D01*
X53694Y-44286D01*
X53694Y-44198D01*
X53675Y-44153D01*
X53735Y-44128D01*
X53803Y-44061D01*
X53839Y-43972D01*
X53840Y-43877D01*
X53840Y-44402D01*
X53812Y-44429D01*
X53796Y-44429D01*
X53715Y-44463D01*
X53653Y-44525D01*
X53620Y-44606D01*
X53619Y-44693D01*
X53653Y-44774D01*
X53715Y-44836D01*
X53722Y-44839D01*
X53191Y-45370D01*
X52847Y-45370D01*
X52847Y-40034D01*
X52755Y-39813D01*
X52586Y-39643D01*
X52364Y-39551D01*
X52124Y-39551D01*
X51903Y-39642D01*
X51733Y-39812D01*
X51641Y-40033D01*
X51641Y-40273D01*
X51732Y-40495D01*
X51902Y-40664D01*
X52123Y-40756D01*
X52363Y-40757D01*
X52585Y-40665D01*
X52754Y-40496D01*
X52846Y-40274D01*
X52847Y-40034D01*
X52847Y-45370D01*
X52540Y-45370D01*
X52540Y-43852D01*
X52503Y-43764D01*
X52436Y-43696D01*
X52347Y-43660D01*
X52252Y-43659D01*
X52164Y-43696D01*
X52096Y-43763D01*
X52060Y-43852D01*
X52059Y-43947D01*
X52096Y-44035D01*
X52163Y-44103D01*
X52252Y-44139D01*
X52347Y-44140D01*
X52435Y-44103D01*
X52503Y-44036D01*
X52539Y-43947D01*
X52540Y-43852D01*
X52540Y-45370D01*
X51765Y-45370D01*
X51765Y-45094D01*
X51731Y-45013D01*
X51710Y-44991D01*
X51710Y-41970D01*
X51672Y-41878D01*
X51601Y-41808D01*
X51509Y-41770D01*
X51470Y-41770D01*
X51470Y-40399D01*
X51436Y-40318D01*
X51374Y-40256D01*
X51293Y-40222D01*
X51206Y-40222D01*
X51125Y-40256D01*
X51063Y-40318D01*
X51030Y-40398D01*
X51029Y-40486D01*
X51063Y-40567D01*
X51125Y-40629D01*
X51206Y-40662D01*
X51293Y-40662D01*
X51374Y-40629D01*
X51436Y-40567D01*
X51469Y-40486D01*
X51470Y-40399D01*
X51470Y-41770D01*
X51410Y-41769D01*
X51318Y-41807D01*
X51248Y-41878D01*
X51210Y-41970D01*
X51209Y-42069D01*
X51247Y-42161D01*
X51318Y-42231D01*
X51410Y-42269D01*
X51509Y-42270D01*
X51601Y-42232D01*
X51671Y-42161D01*
X51709Y-42069D01*
X51710Y-41970D01*
X51710Y-44991D01*
X51670Y-44951D01*
X51589Y-44917D01*
X51540Y-44917D01*
X51540Y-43602D01*
X51503Y-43514D01*
X51436Y-43446D01*
X51347Y-43410D01*
X51252Y-43409D01*
X51164Y-43446D01*
X51100Y-43510D01*
X51100Y-42360D01*
X51062Y-42268D01*
X50991Y-42198D01*
X50899Y-42160D01*
X50800Y-42159D01*
X50708Y-42197D01*
X50638Y-42268D01*
X50600Y-42360D01*
X50599Y-42459D01*
X50637Y-42551D01*
X50708Y-42621D01*
X50800Y-42659D01*
X50899Y-42660D01*
X50991Y-42622D01*
X51061Y-42551D01*
X51099Y-42459D01*
X51100Y-42360D01*
X51100Y-43510D01*
X51096Y-43513D01*
X51090Y-43529D01*
X51090Y-43290D01*
X51052Y-43198D01*
X50981Y-43128D01*
X50889Y-43090D01*
X50790Y-43089D01*
X50698Y-43127D01*
X50628Y-43198D01*
X50590Y-43290D01*
X50589Y-43389D01*
X50627Y-43481D01*
X50698Y-43551D01*
X50790Y-43589D01*
X50889Y-43590D01*
X50981Y-43552D01*
X51051Y-43481D01*
X51089Y-43389D01*
X51090Y-43290D01*
X51090Y-43529D01*
X51060Y-43602D01*
X51059Y-43697D01*
X51096Y-43785D01*
X51163Y-43853D01*
X51252Y-43889D01*
X51347Y-43890D01*
X51435Y-43853D01*
X51503Y-43786D01*
X51539Y-43697D01*
X51540Y-43602D01*
X51540Y-44917D01*
X51501Y-44917D01*
X51420Y-44951D01*
X51358Y-45013D01*
X51325Y-45093D01*
X51325Y-45181D01*
X51358Y-45262D01*
X51420Y-45324D01*
X51501Y-45357D01*
X51588Y-45357D01*
X51669Y-45324D01*
X51731Y-45262D01*
X51765Y-45181D01*
X51765Y-45094D01*
X51765Y-45370D01*
X51320Y-45370D01*
X51247Y-45384D01*
X51185Y-45425D01*
X50930Y-45681D01*
X50930Y-44322D01*
X50893Y-44234D01*
X50826Y-44166D01*
X50788Y-44150D01*
X50853Y-44086D01*
X50889Y-43997D01*
X50890Y-43902D01*
X50853Y-43814D01*
X50786Y-43746D01*
X50697Y-43710D01*
X50602Y-43709D01*
X50514Y-43746D01*
X50480Y-43780D01*
X50480Y-40152D01*
X50443Y-40064D01*
X50376Y-39996D01*
X50287Y-39960D01*
X50192Y-39959D01*
X50104Y-39996D01*
X50036Y-40063D01*
X50000Y-40152D01*
X49999Y-40247D01*
X50036Y-40335D01*
X50103Y-40403D01*
X50192Y-40439D01*
X50287Y-40440D01*
X50375Y-40403D01*
X50443Y-40336D01*
X50479Y-40247D01*
X50480Y-40152D01*
X50480Y-43780D01*
X50446Y-43813D01*
X50410Y-43902D01*
X50410Y-43935D01*
X50347Y-43910D01*
X50252Y-43909D01*
X50250Y-43910D01*
X50279Y-43839D01*
X50280Y-43740D01*
X50242Y-43648D01*
X50171Y-43578D01*
X50079Y-43540D01*
X49980Y-43539D01*
X49888Y-43577D01*
X49818Y-43648D01*
X49780Y-43740D01*
X49779Y-43839D01*
X49817Y-43931D01*
X49888Y-44001D01*
X49980Y-44039D01*
X50079Y-44040D01*
X50087Y-44036D01*
X50060Y-44102D01*
X50059Y-44197D01*
X50096Y-44285D01*
X50163Y-44353D01*
X50252Y-44389D01*
X50347Y-44390D01*
X50435Y-44353D01*
X50450Y-44339D01*
X50449Y-44417D01*
X50486Y-44505D01*
X50553Y-44573D01*
X50642Y-44609D01*
X50737Y-44610D01*
X50825Y-44573D01*
X50893Y-44506D01*
X50929Y-44417D01*
X50930Y-44322D01*
X50930Y-45681D01*
X50890Y-45721D01*
X50890Y-45080D01*
X50852Y-44988D01*
X50781Y-44918D01*
X50689Y-44880D01*
X50590Y-44879D01*
X50498Y-44917D01*
X50428Y-44988D01*
X50390Y-45080D01*
X50389Y-45179D01*
X50427Y-45271D01*
X50498Y-45341D01*
X50590Y-45379D01*
X50689Y-45380D01*
X50781Y-45342D01*
X50851Y-45271D01*
X50889Y-45179D01*
X50890Y-45080D01*
X50890Y-45721D01*
X50825Y-45785D01*
X50825Y-45785D01*
X50795Y-45805D01*
X50795Y-45805D01*
X50506Y-46095D01*
X50260Y-46095D01*
X50260Y-45220D01*
X50222Y-45128D01*
X50151Y-45058D01*
X50059Y-45020D01*
X49960Y-45019D01*
X49868Y-45057D01*
X49798Y-45128D01*
X49760Y-45220D01*
X49759Y-45319D01*
X49797Y-45411D01*
X49868Y-45481D01*
X49960Y-45519D01*
X50059Y-45520D01*
X50151Y-45482D01*
X50221Y-45411D01*
X50259Y-45319D01*
X50260Y-45220D01*
X50260Y-46095D01*
X50224Y-46095D01*
X50211Y-46081D01*
X50122Y-46045D01*
X50027Y-46044D01*
X49939Y-46081D01*
X49871Y-46148D01*
X49835Y-46237D01*
X49834Y-46332D01*
X49871Y-46420D01*
X49938Y-46488D01*
X50027Y-46524D01*
X50122Y-46525D01*
X50210Y-46488D01*
X50224Y-46475D01*
X50585Y-46475D01*
X50657Y-46460D01*
X50719Y-46419D01*
X51044Y-46094D01*
X51074Y-46074D01*
X51398Y-45750D01*
X52216Y-45750D01*
X52175Y-45790D01*
X52142Y-45871D01*
X52142Y-45958D01*
X52175Y-46039D01*
X52237Y-46101D01*
X52318Y-46135D01*
X52405Y-46135D01*
X52486Y-46101D01*
X52548Y-46040D01*
X52582Y-45959D01*
X52582Y-45871D01*
X52548Y-45790D01*
X52507Y-45750D01*
X53270Y-45750D01*
X53342Y-45735D01*
X53404Y-45694D01*
X54061Y-45037D01*
X54085Y-45094D01*
X54146Y-45156D01*
X54227Y-45190D01*
X54315Y-45190D01*
X54396Y-45157D01*
X54458Y-45095D01*
X54491Y-45014D01*
X54491Y-44926D01*
X54458Y-44846D01*
X54396Y-44784D01*
X54338Y-44760D01*
X54438Y-44660D01*
X56060Y-44660D01*
X56132Y-44645D01*
X56194Y-44604D01*
X56225Y-44572D01*
X56293Y-44640D01*
X56381Y-44676D01*
X56476Y-44677D01*
X56564Y-44640D01*
X56632Y-44573D01*
X56669Y-44484D01*
X56669Y-44389D01*
X56632Y-44301D01*
X56565Y-44233D01*
X56565Y-44233D01*
X56914Y-43884D01*
X56955Y-43822D01*
X56970Y-43750D01*
X56970Y-43750D01*
X56970Y-43749D01*
X56970Y-42988D01*
X58968Y-40990D01*
X58987Y-40990D01*
X59075Y-40953D01*
X59143Y-40886D01*
X59179Y-40797D01*
X59180Y-40702D01*
X59180Y-44671D01*
X59116Y-44697D01*
X59092Y-44721D01*
X59037Y-44666D01*
X58949Y-44630D01*
X58854Y-44630D01*
X58765Y-44666D01*
X58740Y-44692D01*
X58718Y-44670D01*
X58630Y-44634D01*
X58535Y-44633D01*
X58446Y-44670D01*
X58379Y-44737D01*
X58342Y-44826D01*
X58342Y-44921D01*
X58379Y-45009D01*
X58446Y-45077D01*
X58534Y-45113D01*
X58630Y-45114D01*
X58718Y-45077D01*
X58744Y-45052D01*
X58765Y-45073D01*
X58853Y-45110D01*
X58949Y-45110D01*
X59037Y-45073D01*
X59061Y-45050D01*
X59115Y-45104D01*
X59204Y-45141D01*
X59299Y-45141D01*
X59387Y-45105D01*
X59399Y-45093D01*
X59430Y-45124D01*
X59518Y-45161D01*
X59614Y-45161D01*
X59702Y-45124D01*
X59770Y-45057D01*
X59806Y-44969D01*
X59806Y-44873D01*
X59806Y-47065D01*
X59781Y-47040D01*
X59693Y-47004D01*
X59618Y-47004D01*
X59629Y-46977D01*
X59629Y-46881D01*
X59593Y-46793D01*
X59525Y-46725D01*
X59437Y-46689D01*
X59342Y-46689D01*
X59253Y-46725D01*
X59186Y-46793D01*
X59149Y-46881D01*
X59149Y-46976D01*
X59186Y-47064D01*
X59253Y-47132D01*
X59341Y-47169D01*
X59416Y-47169D01*
X59405Y-47196D01*
X59405Y-47291D01*
X59442Y-47379D01*
X59509Y-47447D01*
X59597Y-47484D01*
X59693Y-47484D01*
X59781Y-47447D01*
X59849Y-47380D01*
X59885Y-47292D01*
X59885Y-47196D01*
X59885Y-48794D01*
X59849Y-48706D01*
X59781Y-48639D01*
X59693Y-48602D01*
X59598Y-48602D01*
X59509Y-48638D01*
X59442Y-48706D01*
X59405Y-48794D01*
X59405Y-48890D01*
X59442Y-48978D01*
X59509Y-49045D01*
X59597Y-49082D01*
X59693Y-49082D01*
X59781Y-49046D01*
X59849Y-48978D01*
X59885Y-48890D01*
X59885Y-48794D01*
X59885Y-53330D01*
X59868Y-53289D01*
X59801Y-53221D01*
X59713Y-53185D01*
X59617Y-53185D01*
X59529Y-53221D01*
X59462Y-53289D01*
X59425Y-53377D01*
X59425Y-53472D01*
X59461Y-53560D01*
X59529Y-53628D01*
X59617Y-53665D01*
X59712Y-53665D01*
X59801Y-53628D01*
X59868Y-53561D01*
X59905Y-53473D01*
X59905Y-53377D01*
X59905Y-56919D01*
X59821Y-56835D01*
X59661Y-56769D01*
X59550Y-56769D01*
X59550Y-53822D01*
X59513Y-53734D01*
X59446Y-53666D01*
X59357Y-53630D01*
X59262Y-53629D01*
X59196Y-53657D01*
X58980Y-53441D01*
X58980Y-46924D01*
X58943Y-46836D01*
X58876Y-46769D01*
X58788Y-46732D01*
X58692Y-46732D01*
X58604Y-46768D01*
X58547Y-46826D01*
X58547Y-45436D01*
X58510Y-45348D01*
X58443Y-45280D01*
X58355Y-45244D01*
X58259Y-45244D01*
X58236Y-45253D01*
X58236Y-44818D01*
X58199Y-44730D01*
X58132Y-44662D01*
X58044Y-44626D01*
X57948Y-44626D01*
X57860Y-44662D01*
X57792Y-44730D01*
X57756Y-44818D01*
X57756Y-44913D01*
X57792Y-45001D01*
X57859Y-45069D01*
X57948Y-45106D01*
X58043Y-45106D01*
X58131Y-45069D01*
X58199Y-45002D01*
X58236Y-44914D01*
X58236Y-44818D01*
X58236Y-45253D01*
X58171Y-45280D01*
X58103Y-45348D01*
X58067Y-45436D01*
X58067Y-45531D01*
X58103Y-45620D01*
X58170Y-45687D01*
X58259Y-45724D01*
X58354Y-45724D01*
X58442Y-45687D01*
X58510Y-45620D01*
X58547Y-45532D01*
X58547Y-45436D01*
X58547Y-46826D01*
X58536Y-46836D01*
X58500Y-46924D01*
X58500Y-47019D01*
X58536Y-47108D01*
X58604Y-47175D01*
X58692Y-47212D01*
X58787Y-47212D01*
X58875Y-47176D01*
X58943Y-47108D01*
X58980Y-47020D01*
X58980Y-46924D01*
X58980Y-53441D01*
X57909Y-52370D01*
X57909Y-45413D01*
X57872Y-45324D01*
X57805Y-45257D01*
X57717Y-45220D01*
X57621Y-45220D01*
X57612Y-45224D01*
X57612Y-44844D01*
X57574Y-44752D01*
X57504Y-44681D01*
X57412Y-44643D01*
X57312Y-44643D01*
X57220Y-44681D01*
X57150Y-44751D01*
X57112Y-44843D01*
X57112Y-44943D01*
X57150Y-45035D01*
X57220Y-45105D01*
X57312Y-45143D01*
X57411Y-45143D01*
X57503Y-45105D01*
X57574Y-45035D01*
X57612Y-44943D01*
X57612Y-44844D01*
X57612Y-45224D01*
X57533Y-45257D01*
X57465Y-45324D01*
X57429Y-45412D01*
X57429Y-45508D01*
X57465Y-45596D01*
X57533Y-45663D01*
X57621Y-45700D01*
X57716Y-45700D01*
X57805Y-45664D01*
X57872Y-45596D01*
X57909Y-45508D01*
X57909Y-45413D01*
X57909Y-52370D01*
X57263Y-51724D01*
X57263Y-45417D01*
X57227Y-45328D01*
X57159Y-45261D01*
X57071Y-45224D01*
X56976Y-45224D01*
X56972Y-45226D01*
X56972Y-44818D01*
X56935Y-44730D01*
X56868Y-44662D01*
X56780Y-44626D01*
X56684Y-44626D01*
X56596Y-44662D01*
X56528Y-44730D01*
X56492Y-44818D01*
X56492Y-44913D01*
X56528Y-45001D01*
X56596Y-45069D01*
X56684Y-45106D01*
X56779Y-45106D01*
X56868Y-45069D01*
X56935Y-45002D01*
X56972Y-44914D01*
X56972Y-44818D01*
X56972Y-45226D01*
X56887Y-45260D01*
X56820Y-45328D01*
X56783Y-45416D01*
X56783Y-45512D01*
X56820Y-45600D01*
X56887Y-45667D01*
X56975Y-45704D01*
X57071Y-45704D01*
X57159Y-45668D01*
X57226Y-45600D01*
X57263Y-45512D01*
X57263Y-45417D01*
X57263Y-51724D01*
X55540Y-50001D01*
X55540Y-47552D01*
X55503Y-47464D01*
X55436Y-47396D01*
X55371Y-47369D01*
X55410Y-47353D01*
X55478Y-47286D01*
X55514Y-47197D01*
X55515Y-47102D01*
X55478Y-47014D01*
X55451Y-46987D01*
X55478Y-46961D01*
X55514Y-46872D01*
X55515Y-46777D01*
X55484Y-46704D01*
X55503Y-46686D01*
X55539Y-46597D01*
X55540Y-46502D01*
X55540Y-45377D01*
X55503Y-45289D01*
X55436Y-45221D01*
X55347Y-45185D01*
X55252Y-45184D01*
X55164Y-45221D01*
X55096Y-45288D01*
X55060Y-45377D01*
X55059Y-45472D01*
X55096Y-45560D01*
X55163Y-45628D01*
X55252Y-45664D01*
X55347Y-45665D01*
X55435Y-45628D01*
X55503Y-45561D01*
X55539Y-45472D01*
X55540Y-45377D01*
X55540Y-46502D01*
X55503Y-46414D01*
X55436Y-46346D01*
X55347Y-46310D01*
X55252Y-46309D01*
X55164Y-46346D01*
X55096Y-46413D01*
X55060Y-46502D01*
X55059Y-46597D01*
X55090Y-46670D01*
X55071Y-46688D01*
X55035Y-46777D01*
X55034Y-46872D01*
X55071Y-46960D01*
X55098Y-46987D01*
X55071Y-47013D01*
X55035Y-47102D01*
X55034Y-47197D01*
X55071Y-47285D01*
X55138Y-47353D01*
X55203Y-47380D01*
X55164Y-47396D01*
X55096Y-47463D01*
X55060Y-47552D01*
X55060Y-47559D01*
X55052Y-47559D01*
X54964Y-47596D01*
X54896Y-47663D01*
X54860Y-47752D01*
X54859Y-47847D01*
X54896Y-47935D01*
X54963Y-48003D01*
X55052Y-48039D01*
X55147Y-48040D01*
X55235Y-48003D01*
X55303Y-47936D01*
X55339Y-47847D01*
X55339Y-47840D01*
X55347Y-47840D01*
X55435Y-47803D01*
X55503Y-47736D01*
X55539Y-47647D01*
X55540Y-47552D01*
X55540Y-50001D01*
X54321Y-48783D01*
X54405Y-48783D01*
X54494Y-48746D01*
X54561Y-48679D01*
X54598Y-48591D01*
X54598Y-48495D01*
X54561Y-48407D01*
X54527Y-48373D01*
X54562Y-48288D01*
X54562Y-48192D01*
X54526Y-48104D01*
X54502Y-48080D01*
X54561Y-48021D01*
X54598Y-47933D01*
X54598Y-47838D01*
X54561Y-47750D01*
X54544Y-47732D01*
X54600Y-47675D01*
X54637Y-47587D01*
X54637Y-47491D01*
X54601Y-47403D01*
X54533Y-47336D01*
X54445Y-47299D01*
X54350Y-47299D01*
X54261Y-47335D01*
X54235Y-47361D01*
X54235Y-45763D01*
X54202Y-45682D01*
X54140Y-45620D01*
X54059Y-45587D01*
X53972Y-45587D01*
X53891Y-45620D01*
X53829Y-45682D01*
X53795Y-45763D01*
X53795Y-45850D01*
X53829Y-45931D01*
X53890Y-45993D01*
X53971Y-46027D01*
X54059Y-46027D01*
X54140Y-45993D01*
X54202Y-45931D01*
X54235Y-45851D01*
X54235Y-45763D01*
X54235Y-47361D01*
X54194Y-47403D01*
X54157Y-47491D01*
X54157Y-47586D01*
X54194Y-47675D01*
X54211Y-47692D01*
X54154Y-47749D01*
X54118Y-47837D01*
X54118Y-47933D01*
X54154Y-48021D01*
X54178Y-48045D01*
X54119Y-48104D01*
X54082Y-48192D01*
X54082Y-48287D01*
X54119Y-48375D01*
X54153Y-48410D01*
X54118Y-48495D01*
X54118Y-48579D01*
X53290Y-47752D01*
X53290Y-46088D01*
X53257Y-46007D01*
X53195Y-45945D01*
X53114Y-45911D01*
X53027Y-45911D01*
X52946Y-45945D01*
X52884Y-46007D01*
X52850Y-46087D01*
X52850Y-46175D01*
X52884Y-46256D01*
X52946Y-46318D01*
X53026Y-46351D01*
X53114Y-46351D01*
X53195Y-46318D01*
X53257Y-46256D01*
X53290Y-46175D01*
X53290Y-46088D01*
X53290Y-47752D01*
X52294Y-46755D01*
X52336Y-46755D01*
X52417Y-46722D01*
X52479Y-46660D01*
X52513Y-46579D01*
X52513Y-46491D01*
X52479Y-46410D01*
X52418Y-46349D01*
X52337Y-46315D01*
X52249Y-46315D01*
X52168Y-46348D01*
X52106Y-46410D01*
X52073Y-46491D01*
X52073Y-46534D01*
X51730Y-46191D01*
X51730Y-46172D01*
X51693Y-46084D01*
X51626Y-46016D01*
X51537Y-45980D01*
X51442Y-45979D01*
X51354Y-46016D01*
X51286Y-46083D01*
X51250Y-46172D01*
X51249Y-46267D01*
X51286Y-46355D01*
X51290Y-46359D01*
X51270Y-46359D01*
X51178Y-46397D01*
X51108Y-46468D01*
X51070Y-46560D01*
X51069Y-46659D01*
X51107Y-46751D01*
X51178Y-46821D01*
X51270Y-46859D01*
X51369Y-46860D01*
X51461Y-46822D01*
X51531Y-46751D01*
X51569Y-46659D01*
X51570Y-46568D01*
X59005Y-54004D01*
X59067Y-54045D01*
X59140Y-54060D01*
X59140Y-54060D01*
X59140Y-54060D01*
X59160Y-54060D01*
X59173Y-54073D01*
X59262Y-54109D01*
X59357Y-54110D01*
X59445Y-54073D01*
X59513Y-54006D01*
X59549Y-53917D01*
X59550Y-53822D01*
X59550Y-56769D01*
X59488Y-56769D01*
X59328Y-56835D01*
X59205Y-56957D01*
X59139Y-57117D01*
X59139Y-57290D01*
X59205Y-57451D01*
X59327Y-57573D01*
X59487Y-57640D01*
X59661Y-57640D01*
X59821Y-57574D01*
X59943Y-57451D01*
X60010Y-57291D01*
X60010Y-57118D01*
X60010Y-57743D01*
X59857Y-57743D01*
X59657Y-57783D01*
X59487Y-57897D01*
X59373Y-58067D01*
X59333Y-58267D01*
X59373Y-58468D01*
X59487Y-58638D01*
X59654Y-58750D01*
X58041Y-58750D01*
X58041Y-57118D01*
X57975Y-56958D01*
X57853Y-56835D01*
X57729Y-56784D01*
X57729Y-55182D01*
X57696Y-55101D01*
X57634Y-55039D01*
X57632Y-55038D01*
X57661Y-54969D01*
X57661Y-54873D01*
X57624Y-54785D01*
X57557Y-54717D01*
X57469Y-54681D01*
X57412Y-54681D01*
X57428Y-54642D01*
X57429Y-54546D01*
X57392Y-54458D01*
X57325Y-54391D01*
X57243Y-54357D01*
X57243Y-54350D01*
X57207Y-54261D01*
X57140Y-54194D01*
X57051Y-54157D01*
X57026Y-54157D01*
X56994Y-54080D01*
X56927Y-54013D01*
X56839Y-53976D01*
X56814Y-53976D01*
X56814Y-53936D01*
X56778Y-53848D01*
X56710Y-53780D01*
X56622Y-53744D01*
X56586Y-53744D01*
X56586Y-53724D01*
X56550Y-53635D01*
X56482Y-53568D01*
X56394Y-53531D01*
X56298Y-53531D01*
X56210Y-53568D01*
X56143Y-53635D01*
X56106Y-53723D01*
X56106Y-53819D01*
X56142Y-53907D01*
X56210Y-53974D01*
X56298Y-54011D01*
X56334Y-54011D01*
X56334Y-54031D01*
X56371Y-54120D01*
X56438Y-54187D01*
X56526Y-54224D01*
X56551Y-54224D01*
X56551Y-54264D01*
X56587Y-54352D01*
X56655Y-54419D01*
X56743Y-54456D01*
X56768Y-54456D01*
X56800Y-54533D01*
X56867Y-54600D01*
X56948Y-54634D01*
X56948Y-54642D01*
X56985Y-54730D01*
X57052Y-54797D01*
X57141Y-54834D01*
X57197Y-54834D01*
X57181Y-54873D01*
X57181Y-54968D01*
X57217Y-55057D01*
X57285Y-55124D01*
X57309Y-55134D01*
X57289Y-55182D01*
X57289Y-55269D01*
X57322Y-55348D01*
X57306Y-55354D01*
X57244Y-55416D01*
X57211Y-55497D01*
X57211Y-55557D01*
X57170Y-55557D01*
X57090Y-55590D01*
X57028Y-55652D01*
X56994Y-55733D01*
X56994Y-55821D01*
X57027Y-55902D01*
X57089Y-55963D01*
X57170Y-55997D01*
X57258Y-55997D01*
X57339Y-55964D01*
X57400Y-55902D01*
X57434Y-55821D01*
X57434Y-55761D01*
X57474Y-55761D01*
X57555Y-55727D01*
X57617Y-55666D01*
X57651Y-55585D01*
X57651Y-55497D01*
X57618Y-55419D01*
X57634Y-55412D01*
X57696Y-55351D01*
X57729Y-55270D01*
X57729Y-55182D01*
X57729Y-56784D01*
X57693Y-56769D01*
X57520Y-56769D01*
X57359Y-56835D01*
X57237Y-56957D01*
X57170Y-57117D01*
X57170Y-57290D01*
X57236Y-57451D01*
X57359Y-57573D01*
X57519Y-57640D01*
X57692Y-57640D01*
X57852Y-57574D01*
X57975Y-57451D01*
X58041Y-57291D01*
X58041Y-57118D01*
X58041Y-58750D01*
X57526Y-58750D01*
X57693Y-58638D01*
X57807Y-58468D01*
X57847Y-58267D01*
X57807Y-58067D01*
X57693Y-57897D01*
X57523Y-57783D01*
X57323Y-57743D01*
X57101Y-57743D01*
X56901Y-57783D01*
X56731Y-57897D01*
X56617Y-58067D01*
X56577Y-58267D01*
X56617Y-58468D01*
X56731Y-58638D01*
X56898Y-58750D01*
X56145Y-58750D01*
X56145Y-56389D01*
X56109Y-56301D01*
X56041Y-56233D01*
X55953Y-56197D01*
X55929Y-56197D01*
X55929Y-53054D01*
X55892Y-52966D01*
X55825Y-52899D01*
X55736Y-52862D01*
X55696Y-52862D01*
X55696Y-52830D01*
X55660Y-52742D01*
X55592Y-52674D01*
X55504Y-52637D01*
X55476Y-52637D01*
X55476Y-52606D01*
X55439Y-52517D01*
X55372Y-52450D01*
X55284Y-52413D01*
X55218Y-52413D01*
X55218Y-52407D01*
X55180Y-52315D01*
X55110Y-52244D01*
X55018Y-52206D01*
X54918Y-52206D01*
X54878Y-52223D01*
X54868Y-52198D01*
X54801Y-52131D01*
X54770Y-52118D01*
X54802Y-52040D01*
X54803Y-51944D01*
X54766Y-51856D01*
X54700Y-51790D01*
X54700Y-50735D01*
X54664Y-50647D01*
X54596Y-50580D01*
X54508Y-50543D01*
X54413Y-50543D01*
X54324Y-50579D01*
X54257Y-50647D01*
X54220Y-50735D01*
X54220Y-50830D01*
X54257Y-50919D01*
X54319Y-50982D01*
X54273Y-51001D01*
X54206Y-51068D01*
X54169Y-51156D01*
X54169Y-51252D01*
X54205Y-51340D01*
X54273Y-51408D01*
X54361Y-51444D01*
X54456Y-51444D01*
X54545Y-51408D01*
X54612Y-51340D01*
X54649Y-51252D01*
X54649Y-51157D01*
X54613Y-51068D01*
X54550Y-51006D01*
X54596Y-50987D01*
X54663Y-50919D01*
X54700Y-50831D01*
X54700Y-50735D01*
X54700Y-51790D01*
X54699Y-51788D01*
X54610Y-51752D01*
X54515Y-51752D01*
X54427Y-51788D01*
X54359Y-51855D01*
X54323Y-51944D01*
X54322Y-52039D01*
X54359Y-52127D01*
X54426Y-52195D01*
X54457Y-52208D01*
X54425Y-52286D01*
X54425Y-52382D01*
X54461Y-52470D01*
X54529Y-52537D01*
X54617Y-52574D01*
X54712Y-52574D01*
X54741Y-52562D01*
X54756Y-52598D01*
X54826Y-52668D01*
X54918Y-52706D01*
X54998Y-52706D01*
X55032Y-52789D01*
X55100Y-52856D01*
X55188Y-52893D01*
X55216Y-52893D01*
X55216Y-52925D01*
X55253Y-53013D01*
X55320Y-53081D01*
X55408Y-53117D01*
X55448Y-53117D01*
X55448Y-53149D01*
X55485Y-53238D01*
X55552Y-53305D01*
X55641Y-53342D01*
X55736Y-53342D01*
X55824Y-53305D01*
X55892Y-53238D01*
X55928Y-53150D01*
X55929Y-53054D01*
X55929Y-56197D01*
X55857Y-56196D01*
X55769Y-56233D01*
X55702Y-56300D01*
X55665Y-56389D01*
X55665Y-56484D01*
X55701Y-56572D01*
X55769Y-56640D01*
X55857Y-56676D01*
X55953Y-56677D01*
X56041Y-56640D01*
X56108Y-56573D01*
X56145Y-56484D01*
X56145Y-56389D01*
X56145Y-58750D01*
X53815Y-58750D01*
X53815Y-57868D01*
X53738Y-57683D01*
X53597Y-57541D01*
X53421Y-57468D01*
X53596Y-57396D01*
X53738Y-57254D01*
X53815Y-57069D01*
X53815Y-56868D01*
X53738Y-56683D01*
X53597Y-56541D01*
X53411Y-56464D01*
X53211Y-56464D01*
X53025Y-56540D01*
X52883Y-56682D01*
X52855Y-56751D01*
X52855Y-50630D01*
X52817Y-50538D01*
X52746Y-50468D01*
X52654Y-50430D01*
X52631Y-50430D01*
X52631Y-49877D01*
X52598Y-49796D01*
X52590Y-49788D01*
X52590Y-47750D01*
X52552Y-47658D01*
X52481Y-47588D01*
X52389Y-47550D01*
X52290Y-47549D01*
X52198Y-47587D01*
X52128Y-47658D01*
X52090Y-47750D01*
X52089Y-47849D01*
X52127Y-47941D01*
X52198Y-48011D01*
X52290Y-48049D01*
X52389Y-48050D01*
X52481Y-48012D01*
X52551Y-47941D01*
X52589Y-47849D01*
X52590Y-47750D01*
X52590Y-49788D01*
X52536Y-49734D01*
X52455Y-49701D01*
X52367Y-49701D01*
X52286Y-49734D01*
X52225Y-49796D01*
X52191Y-49877D01*
X52191Y-49964D01*
X52224Y-50045D01*
X52286Y-50107D01*
X52367Y-50141D01*
X52454Y-50141D01*
X52535Y-50107D01*
X52597Y-50046D01*
X52631Y-49965D01*
X52631Y-49877D01*
X52631Y-50430D01*
X52555Y-50429D01*
X52463Y-50467D01*
X52393Y-50538D01*
X52355Y-50630D01*
X52354Y-50729D01*
X52392Y-50821D01*
X52463Y-50891D01*
X52555Y-50929D01*
X52654Y-50930D01*
X52746Y-50892D01*
X52816Y-50821D01*
X52854Y-50729D01*
X52855Y-50630D01*
X52855Y-56751D01*
X52840Y-56787D01*
X52840Y-51702D01*
X52803Y-51614D01*
X52736Y-51546D01*
X52647Y-51510D01*
X52552Y-51509D01*
X52464Y-51546D01*
X52396Y-51613D01*
X52360Y-51702D01*
X52359Y-51797D01*
X52396Y-51885D01*
X52463Y-51953D01*
X52552Y-51989D01*
X52647Y-51990D01*
X52735Y-51953D01*
X52803Y-51886D01*
X52839Y-51797D01*
X52840Y-51702D01*
X52840Y-56787D01*
X52806Y-56867D01*
X52806Y-57068D01*
X52883Y-57253D01*
X53024Y-57395D01*
X53200Y-57468D01*
X53025Y-57540D01*
X52883Y-57682D01*
X52806Y-57867D01*
X52806Y-58068D01*
X52883Y-58253D01*
X53024Y-58395D01*
X53210Y-58472D01*
X53410Y-58472D01*
X53596Y-58396D01*
X53738Y-58254D01*
X53815Y-58069D01*
X53815Y-57868D01*
X53815Y-58750D01*
X52670Y-58750D01*
X52670Y-58312D01*
X52637Y-58231D01*
X52575Y-58169D01*
X52494Y-58136D01*
X52407Y-58136D01*
X52340Y-58164D01*
X52340Y-52780D01*
X52302Y-52688D01*
X52231Y-52618D01*
X52139Y-52580D01*
X52040Y-52579D01*
X51948Y-52617D01*
X51878Y-52688D01*
X51840Y-52780D01*
X51839Y-52879D01*
X51877Y-52971D01*
X51948Y-53041D01*
X51992Y-53060D01*
X51910Y-53059D01*
X51818Y-53097D01*
X51755Y-53160D01*
X51755Y-51255D01*
X51722Y-51174D01*
X51660Y-51112D01*
X51579Y-51079D01*
X51491Y-51079D01*
X51410Y-51112D01*
X51349Y-51174D01*
X51322Y-51238D01*
X51322Y-50045D01*
X51288Y-49964D01*
X51227Y-49902D01*
X51146Y-49868D01*
X51058Y-49868D01*
X50977Y-49901D01*
X50915Y-49963D01*
X50889Y-50027D01*
X50889Y-48214D01*
X50855Y-48133D01*
X50815Y-48092D01*
X50815Y-47252D01*
X50778Y-47164D01*
X50711Y-47096D01*
X50622Y-47060D01*
X50527Y-47059D01*
X50439Y-47096D01*
X50371Y-47163D01*
X50335Y-47252D01*
X50334Y-47347D01*
X50371Y-47435D01*
X50438Y-47503D01*
X50527Y-47539D01*
X50622Y-47540D01*
X50710Y-47503D01*
X50778Y-47436D01*
X50814Y-47347D01*
X50815Y-47252D01*
X50815Y-48092D01*
X50794Y-48071D01*
X50713Y-48037D01*
X50625Y-48037D01*
X50544Y-48071D01*
X50482Y-48133D01*
X50449Y-48213D01*
X50449Y-48301D01*
X50482Y-48382D01*
X50544Y-48444D01*
X50625Y-48477D01*
X50712Y-48477D01*
X50793Y-48444D01*
X50855Y-48382D01*
X50889Y-48301D01*
X50889Y-48214D01*
X50889Y-50027D01*
X50882Y-50044D01*
X50882Y-50132D01*
X50915Y-50213D01*
X50977Y-50274D01*
X51058Y-50308D01*
X51145Y-50308D01*
X51226Y-50275D01*
X51288Y-50213D01*
X51322Y-50132D01*
X51322Y-50045D01*
X51322Y-51238D01*
X51315Y-51255D01*
X51315Y-51342D01*
X51348Y-51423D01*
X51410Y-51485D01*
X51491Y-51519D01*
X51579Y-51519D01*
X51659Y-51485D01*
X51721Y-51423D01*
X51755Y-51343D01*
X51755Y-51255D01*
X51755Y-53160D01*
X51748Y-53168D01*
X51710Y-53260D01*
X51709Y-53359D01*
X51747Y-53451D01*
X51818Y-53521D01*
X51910Y-53559D01*
X52009Y-53560D01*
X52101Y-53522D01*
X52171Y-53451D01*
X52209Y-53359D01*
X52210Y-53260D01*
X52172Y-53168D01*
X52101Y-53098D01*
X52057Y-53079D01*
X52139Y-53080D01*
X52231Y-53042D01*
X52301Y-52971D01*
X52339Y-52879D01*
X52340Y-52780D01*
X52340Y-58164D01*
X52326Y-58169D01*
X52264Y-58231D01*
X52230Y-58312D01*
X52230Y-58399D01*
X52264Y-58480D01*
X52326Y-58542D01*
X52406Y-58576D01*
X52494Y-58576D01*
X52575Y-58542D01*
X52637Y-58481D01*
X52670Y-58400D01*
X52670Y-58312D01*
X52670Y-58750D01*
X51820Y-58750D01*
X51849Y-58679D01*
X51850Y-58580D01*
X51814Y-58494D01*
X51814Y-54867D01*
X51781Y-54786D01*
X51719Y-54725D01*
X51638Y-54691D01*
X51550Y-54691D01*
X51470Y-54724D01*
X51430Y-54764D01*
X51430Y-53245D01*
X51392Y-53153D01*
X51321Y-53083D01*
X51229Y-53045D01*
X51130Y-53044D01*
X51038Y-53082D01*
X50968Y-53153D01*
X50930Y-53245D01*
X50929Y-53344D01*
X50967Y-53436D01*
X51038Y-53506D01*
X51130Y-53544D01*
X51229Y-53545D01*
X51321Y-53507D01*
X51391Y-53436D01*
X51429Y-53344D01*
X51430Y-53245D01*
X51430Y-54764D01*
X51408Y-54786D01*
X51374Y-54867D01*
X51374Y-54954D01*
X51407Y-55035D01*
X51469Y-55097D01*
X51550Y-55131D01*
X51638Y-55131D01*
X51718Y-55098D01*
X51780Y-55036D01*
X51814Y-54955D01*
X51814Y-54867D01*
X51814Y-58494D01*
X51812Y-58488D01*
X51741Y-58418D01*
X51649Y-58380D01*
X51550Y-58379D01*
X51458Y-58417D01*
X51388Y-58488D01*
X51350Y-58580D01*
X51349Y-58679D01*
X51379Y-58750D01*
X50810Y-58750D01*
X50810Y-55292D01*
X50773Y-55204D01*
X50706Y-55136D01*
X50617Y-55100D01*
X50522Y-55099D01*
X50434Y-55136D01*
X50366Y-55203D01*
X50330Y-55292D01*
X50329Y-55387D01*
X50366Y-55475D01*
X50433Y-55543D01*
X50522Y-55579D01*
X50617Y-55580D01*
X50705Y-55543D01*
X50773Y-55476D01*
X50809Y-55387D01*
X50810Y-55292D01*
X50810Y-58750D01*
X50770Y-58750D01*
X50770Y-56102D01*
X50733Y-56014D01*
X50666Y-55946D01*
X50577Y-55910D01*
X50482Y-55909D01*
X50394Y-55946D01*
X50326Y-56013D01*
X50290Y-56102D01*
X50289Y-56197D01*
X50326Y-56285D01*
X50393Y-56353D01*
X50482Y-56389D01*
X50577Y-56390D01*
X50665Y-56353D01*
X50733Y-56286D01*
X50769Y-56197D01*
X50770Y-56102D01*
X50770Y-58750D01*
X50001Y-58750D01*
X50001Y-53938D01*
X50001Y-49938D01*
X49975Y-49872D01*
X49975Y-48140D01*
X49855Y-47848D01*
X49632Y-47625D01*
X49535Y-47585D01*
X49535Y-46962D01*
X49498Y-46874D01*
X49431Y-46806D01*
X49373Y-46782D01*
X49373Y-37968D01*
X49340Y-37887D01*
X49278Y-37825D01*
X49197Y-37791D01*
X49109Y-37791D01*
X49029Y-37825D01*
X48967Y-37887D01*
X48933Y-37967D01*
X48933Y-38055D01*
X48966Y-38136D01*
X49028Y-38198D01*
X49109Y-38231D01*
X49197Y-38231D01*
X49278Y-38198D01*
X49339Y-38136D01*
X49373Y-38055D01*
X49373Y-37968D01*
X49373Y-46782D01*
X49342Y-46770D01*
X49340Y-46770D01*
X49340Y-39852D01*
X49303Y-39764D01*
X49236Y-39696D01*
X49147Y-39660D01*
X49052Y-39659D01*
X48964Y-39696D01*
X48960Y-39700D01*
X48960Y-39472D01*
X48923Y-39384D01*
X48856Y-39316D01*
X48767Y-39280D01*
X48750Y-39280D01*
X48750Y-36270D01*
X48712Y-36178D01*
X48641Y-36108D01*
X48549Y-36070D01*
X48450Y-36069D01*
X48358Y-36107D01*
X48288Y-36178D01*
X48250Y-36270D01*
X48249Y-36369D01*
X48287Y-36461D01*
X48358Y-36531D01*
X48450Y-36569D01*
X48549Y-36570D01*
X48641Y-36532D01*
X48711Y-36461D01*
X48749Y-36369D01*
X48750Y-36270D01*
X48750Y-39280D01*
X48672Y-39279D01*
X48584Y-39316D01*
X48516Y-39383D01*
X48480Y-39472D01*
X48479Y-39567D01*
X48516Y-39655D01*
X48583Y-39723D01*
X48672Y-39759D01*
X48767Y-39760D01*
X48855Y-39723D01*
X48923Y-39656D01*
X48959Y-39567D01*
X48960Y-39472D01*
X48960Y-39700D01*
X48896Y-39763D01*
X48860Y-39852D01*
X48859Y-39947D01*
X48896Y-40035D01*
X48963Y-40103D01*
X49052Y-40139D01*
X49147Y-40140D01*
X49235Y-40103D01*
X49303Y-40036D01*
X49339Y-39947D01*
X49340Y-39852D01*
X49340Y-46770D01*
X49315Y-46770D01*
X49315Y-44252D01*
X49278Y-44164D01*
X49270Y-44155D01*
X49270Y-42892D01*
X49233Y-42804D01*
X49166Y-42736D01*
X49077Y-42700D01*
X48982Y-42699D01*
X48894Y-42736D01*
X48826Y-42803D01*
X48790Y-42892D01*
X48789Y-42987D01*
X48826Y-43075D01*
X48893Y-43143D01*
X48982Y-43179D01*
X49077Y-43180D01*
X49165Y-43143D01*
X49233Y-43076D01*
X49269Y-42987D01*
X49270Y-42892D01*
X49270Y-44155D01*
X49211Y-44096D01*
X49122Y-44060D01*
X49027Y-44059D01*
X48939Y-44096D01*
X48871Y-44163D01*
X48835Y-44252D01*
X48834Y-44347D01*
X48871Y-44435D01*
X48938Y-44503D01*
X49027Y-44539D01*
X49122Y-44540D01*
X49210Y-44503D01*
X49278Y-44436D01*
X49314Y-44347D01*
X49315Y-44252D01*
X49315Y-46770D01*
X49247Y-46769D01*
X49159Y-46806D01*
X49091Y-46873D01*
X49055Y-46962D01*
X49054Y-47057D01*
X49091Y-47145D01*
X49158Y-47213D01*
X49247Y-47249D01*
X49342Y-47250D01*
X49430Y-47213D01*
X49498Y-47146D01*
X49534Y-47057D01*
X49535Y-46962D01*
X49535Y-47585D01*
X49341Y-47504D01*
X49026Y-47504D01*
X48734Y-47625D01*
X48710Y-47649D01*
X48710Y-40212D01*
X48673Y-40124D01*
X48606Y-40056D01*
X48517Y-40020D01*
X48422Y-40019D01*
X48334Y-40056D01*
X48266Y-40123D01*
X48230Y-40212D01*
X48229Y-40307D01*
X48266Y-40395D01*
X48333Y-40463D01*
X48422Y-40499D01*
X48517Y-40500D01*
X48605Y-40463D01*
X48673Y-40396D01*
X48709Y-40307D01*
X48710Y-40212D01*
X48710Y-47649D01*
X48695Y-47664D01*
X48695Y-43367D01*
X48658Y-43279D01*
X48591Y-43211D01*
X48590Y-43211D01*
X48590Y-41652D01*
X48553Y-41564D01*
X48486Y-41496D01*
X48397Y-41460D01*
X48302Y-41459D01*
X48214Y-41496D01*
X48146Y-41563D01*
X48110Y-41652D01*
X48109Y-41747D01*
X48146Y-41835D01*
X48213Y-41903D01*
X48302Y-41939D01*
X48397Y-41940D01*
X48485Y-41903D01*
X48553Y-41836D01*
X48589Y-41747D01*
X48590Y-41652D01*
X48590Y-43211D01*
X48502Y-43175D01*
X48407Y-43174D01*
X48319Y-43211D01*
X48251Y-43278D01*
X48215Y-43367D01*
X48214Y-43462D01*
X48251Y-43550D01*
X48318Y-43618D01*
X48407Y-43654D01*
X48502Y-43655D01*
X48590Y-43618D01*
X48658Y-43551D01*
X48694Y-43462D01*
X48695Y-43367D01*
X48695Y-47664D01*
X48511Y-47847D01*
X48390Y-48138D01*
X48390Y-48454D01*
X48510Y-48745D01*
X48733Y-48968D01*
X49024Y-49089D01*
X49340Y-49089D01*
X49631Y-48969D01*
X49854Y-48746D01*
X49975Y-48455D01*
X49975Y-48140D01*
X49975Y-49872D01*
X49935Y-49771D01*
X49926Y-49758D01*
X49854Y-49729D01*
X49840Y-49743D01*
X49840Y-49715D01*
X49811Y-49643D01*
X49647Y-49571D01*
X49468Y-49568D01*
X49301Y-49634D01*
X49288Y-49643D01*
X49259Y-49715D01*
X49550Y-50005D01*
X49840Y-49715D01*
X49840Y-49743D01*
X49564Y-50020D01*
X49854Y-50310D01*
X49926Y-50281D01*
X49998Y-50117D01*
X50001Y-49938D01*
X50001Y-53938D01*
X50000Y-53934D01*
X50000Y-52930D01*
X50000Y-51930D01*
X50000Y-50930D01*
X49931Y-50765D01*
X49840Y-50674D01*
X49840Y-50324D01*
X49550Y-50034D01*
X49535Y-50048D01*
X49535Y-50020D01*
X49245Y-49729D01*
X49173Y-49758D01*
X49101Y-49922D01*
X49098Y-50101D01*
X49164Y-50268D01*
X49173Y-50281D01*
X49245Y-50310D01*
X49535Y-50020D01*
X49535Y-50048D01*
X49259Y-50324D01*
X49288Y-50396D01*
X49452Y-50468D01*
X49631Y-50471D01*
X49798Y-50405D01*
X49811Y-50396D01*
X49840Y-50324D01*
X49840Y-50674D01*
X49805Y-50638D01*
X49639Y-50570D01*
X49460Y-50569D01*
X49295Y-50638D01*
X49168Y-50764D01*
X49100Y-50930D01*
X49099Y-51109D01*
X49168Y-51274D01*
X49294Y-51401D01*
X49460Y-51469D01*
X49639Y-51470D01*
X49804Y-51401D01*
X49931Y-51275D01*
X49999Y-51109D01*
X50000Y-50930D01*
X50000Y-51930D01*
X49931Y-51765D01*
X49805Y-51638D01*
X49639Y-51570D01*
X49460Y-51569D01*
X49295Y-51638D01*
X49168Y-51764D01*
X49100Y-51930D01*
X49099Y-52109D01*
X49168Y-52274D01*
X49294Y-52401D01*
X49460Y-52469D01*
X49639Y-52470D01*
X49804Y-52401D01*
X49931Y-52275D01*
X49999Y-52109D01*
X50000Y-51930D01*
X50000Y-52930D01*
X49931Y-52765D01*
X49805Y-52638D01*
X49639Y-52570D01*
X49460Y-52569D01*
X49295Y-52638D01*
X49168Y-52764D01*
X49100Y-52930D01*
X49099Y-53109D01*
X49168Y-53274D01*
X49294Y-53401D01*
X49460Y-53469D01*
X49639Y-53470D01*
X49804Y-53401D01*
X49931Y-53275D01*
X49999Y-53109D01*
X50000Y-52930D01*
X50000Y-53934D01*
X49935Y-53771D01*
X49926Y-53758D01*
X49854Y-53729D01*
X49840Y-53743D01*
X49840Y-53715D01*
X49811Y-53643D01*
X49647Y-53571D01*
X49468Y-53568D01*
X49301Y-53634D01*
X49288Y-53643D01*
X49259Y-53715D01*
X49550Y-54005D01*
X49840Y-53715D01*
X49840Y-53743D01*
X49564Y-54020D01*
X49854Y-54310D01*
X49926Y-54281D01*
X49998Y-54117D01*
X50001Y-53938D01*
X50001Y-58750D01*
X49840Y-58750D01*
X49840Y-54324D01*
X49550Y-54034D01*
X49535Y-54048D01*
X49535Y-54020D01*
X49245Y-53729D01*
X49173Y-53758D01*
X49101Y-53922D01*
X49098Y-54101D01*
X49164Y-54268D01*
X49173Y-54281D01*
X49245Y-54310D01*
X49535Y-54020D01*
X49535Y-54048D01*
X49259Y-54324D01*
X49288Y-54396D01*
X49452Y-54468D01*
X49631Y-54471D01*
X49798Y-54405D01*
X49811Y-54396D01*
X49840Y-54324D01*
X49840Y-58750D01*
X49000Y-58750D01*
X49000Y-53930D01*
X49000Y-52930D01*
X49000Y-51930D01*
X49000Y-50930D01*
X49000Y-50930D01*
X49000Y-50349D01*
X49000Y-50290D01*
X49000Y-49690D01*
X48977Y-49635D01*
X48934Y-49592D01*
X48879Y-49570D01*
X48820Y-49570D01*
X48220Y-49570D01*
X48165Y-49592D01*
X48122Y-49635D01*
X48100Y-49690D01*
X48100Y-49749D01*
X48100Y-50349D01*
X48122Y-50404D01*
X48165Y-50447D01*
X48220Y-50470D01*
X48279Y-50470D01*
X48879Y-50470D01*
X48934Y-50447D01*
X48977Y-50404D01*
X49000Y-50349D01*
X49000Y-50930D01*
X48931Y-50765D01*
X48805Y-50638D01*
X48639Y-50570D01*
X48460Y-50569D01*
X48295Y-50638D01*
X48168Y-50764D01*
X48100Y-50930D01*
X48099Y-51109D01*
X48168Y-51274D01*
X48294Y-51401D01*
X48460Y-51469D01*
X48639Y-51470D01*
X48804Y-51401D01*
X48931Y-51275D01*
X48999Y-51109D01*
X49000Y-50930D01*
X49000Y-51930D01*
X48931Y-51765D01*
X48805Y-51638D01*
X48639Y-51570D01*
X48460Y-51569D01*
X48295Y-51638D01*
X48168Y-51764D01*
X48100Y-51930D01*
X48099Y-52109D01*
X48168Y-52274D01*
X48294Y-52401D01*
X48460Y-52469D01*
X48639Y-52470D01*
X48804Y-52401D01*
X48931Y-52275D01*
X48999Y-52109D01*
X49000Y-51930D01*
X49000Y-52930D01*
X48931Y-52765D01*
X48805Y-52638D01*
X48639Y-52570D01*
X48460Y-52569D01*
X48295Y-52638D01*
X48168Y-52764D01*
X48100Y-52930D01*
X48099Y-53109D01*
X48168Y-53274D01*
X48294Y-53401D01*
X48460Y-53469D01*
X48639Y-53470D01*
X48804Y-53401D01*
X48931Y-53275D01*
X48999Y-53109D01*
X49000Y-52930D01*
X49000Y-53930D01*
X48931Y-53765D01*
X48805Y-53638D01*
X48639Y-53570D01*
X48460Y-53569D01*
X48295Y-53638D01*
X48168Y-53764D01*
X48100Y-53930D01*
X48099Y-54109D01*
X48168Y-54274D01*
X48294Y-54401D01*
X48460Y-54469D01*
X48639Y-54470D01*
X48804Y-54401D01*
X48931Y-54275D01*
X48999Y-54109D01*
X49000Y-53930D01*
X49000Y-58750D01*
X48930Y-58750D01*
X48930Y-54770D01*
X48892Y-54678D01*
X48821Y-54608D01*
X48729Y-54570D01*
X48630Y-54569D01*
X48538Y-54607D01*
X48468Y-54678D01*
X48430Y-54770D01*
X48429Y-54869D01*
X48467Y-54961D01*
X48538Y-55031D01*
X48630Y-55069D01*
X48729Y-55070D01*
X48821Y-55032D01*
X48891Y-54961D01*
X48929Y-54869D01*
X48930Y-54770D01*
X48930Y-58750D01*
X47530Y-58750D01*
X47530Y-35470D01*
X49307Y-33721D01*
X49307Y-33783D01*
X49340Y-33864D01*
X49402Y-33926D01*
X49483Y-33960D01*
X49571Y-33960D01*
X49652Y-33926D01*
X49713Y-33864D01*
X49747Y-33784D01*
X49747Y-33696D01*
X49714Y-33615D01*
X49652Y-33553D01*
X49571Y-33520D01*
X49512Y-33520D01*
X51260Y-31800D01*
X66188Y-31800D01*
X65978Y-31886D01*
X65755Y-32109D01*
X65634Y-32400D01*
X65634Y-32716D01*
X65754Y-33007D01*
X65977Y-33230D01*
X66268Y-33351D01*
X66584Y-33351D01*
X66799Y-33262D01*
X66799Y-33279D01*
X66837Y-33371D01*
X66908Y-33441D01*
X67000Y-33479D01*
X67099Y-33480D01*
X67191Y-33442D01*
X67261Y-33371D01*
X67299Y-33279D01*
X67300Y-33180D01*
X67262Y-33088D01*
X67191Y-33018D01*
X67108Y-32983D01*
X67219Y-32717D01*
X67219Y-32402D01*
X67099Y-32110D01*
X66876Y-31887D01*
X66665Y-31800D01*
X69390Y-31800D01*
X69390Y-54928D01*
X69331Y-54888D01*
X69316Y-54884D01*
X69316Y-32239D01*
X69243Y-32052D01*
X69231Y-32035D01*
X69154Y-32000D01*
X69139Y-32014D01*
X69139Y-31985D01*
X69104Y-31908D01*
X68920Y-31827D01*
X68719Y-31823D01*
X68532Y-31896D01*
X68515Y-31908D01*
X68480Y-31985D01*
X68810Y-32315D01*
X69139Y-31985D01*
X69139Y-32014D01*
X68824Y-32330D01*
X69154Y-32659D01*
X69231Y-32624D01*
X69312Y-32440D01*
X69316Y-32239D01*
X69316Y-54884D01*
X69167Y-54851D01*
X69139Y-54851D01*
X69139Y-32674D01*
X68810Y-32344D01*
X68795Y-32358D01*
X68795Y-32330D01*
X68465Y-32000D01*
X68388Y-32035D01*
X68308Y-32216D01*
X68237Y-32044D01*
X68096Y-31902D01*
X67910Y-31825D01*
X67710Y-31825D01*
X67524Y-31902D01*
X67382Y-32043D01*
X67305Y-32229D01*
X67305Y-32429D01*
X67382Y-32615D01*
X67523Y-32757D01*
X67709Y-32834D01*
X67909Y-32834D01*
X68095Y-32757D01*
X68237Y-32616D01*
X68310Y-32438D01*
X68376Y-32607D01*
X68388Y-32624D01*
X68465Y-32659D01*
X68795Y-32330D01*
X68795Y-32358D01*
X68480Y-32674D01*
X68515Y-32751D01*
X68699Y-32832D01*
X68900Y-32836D01*
X69087Y-32763D01*
X69104Y-32751D01*
X69139Y-32674D01*
X69139Y-54851D01*
X69009Y-54851D01*
X69009Y-35537D01*
X68975Y-35456D01*
X68914Y-35394D01*
X68833Y-35360D01*
X68745Y-35360D01*
X68664Y-35394D01*
X68602Y-35455D01*
X68569Y-35536D01*
X68569Y-35624D01*
X68602Y-35705D01*
X68664Y-35767D01*
X68745Y-35800D01*
X68832Y-35800D01*
X68913Y-35767D01*
X68975Y-35705D01*
X69009Y-35624D01*
X69009Y-35537D01*
X69009Y-54851D01*
X68950Y-54851D01*
X68950Y-47310D01*
X68950Y-46310D01*
X68890Y-46165D01*
X68890Y-37340D01*
X68852Y-37248D01*
X68781Y-37178D01*
X68689Y-37140D01*
X68590Y-37139D01*
X68498Y-37177D01*
X68428Y-37248D01*
X68390Y-37340D01*
X68389Y-37439D01*
X68427Y-37531D01*
X68498Y-37601D01*
X68590Y-37639D01*
X68689Y-37640D01*
X68781Y-37602D01*
X68851Y-37531D01*
X68889Y-37439D01*
X68890Y-37340D01*
X68890Y-46165D01*
X68881Y-46145D01*
X68755Y-46018D01*
X68589Y-45950D01*
X68410Y-45949D01*
X68245Y-46018D01*
X68240Y-46023D01*
X68240Y-36340D01*
X68202Y-36248D01*
X68131Y-36178D01*
X68039Y-36140D01*
X67940Y-36139D01*
X67848Y-36177D01*
X67778Y-36248D01*
X67740Y-36340D01*
X67739Y-36439D01*
X67777Y-36531D01*
X67848Y-36601D01*
X67940Y-36639D01*
X68039Y-36640D01*
X68131Y-36602D01*
X68201Y-36531D01*
X68239Y-36439D01*
X68240Y-36340D01*
X68240Y-46023D01*
X68118Y-46144D01*
X68050Y-46310D01*
X68049Y-46489D01*
X68118Y-46654D01*
X68244Y-46781D01*
X68410Y-46849D01*
X68589Y-46850D01*
X68754Y-46781D01*
X68881Y-46655D01*
X68949Y-46489D01*
X68950Y-46310D01*
X68950Y-47310D01*
X68881Y-47145D01*
X68755Y-47018D01*
X68589Y-46950D01*
X68410Y-46949D01*
X68245Y-47018D01*
X68118Y-47144D01*
X68050Y-47310D01*
X68049Y-47489D01*
X68118Y-47654D01*
X68244Y-47781D01*
X68410Y-47849D01*
X68589Y-47850D01*
X68754Y-47781D01*
X68881Y-47655D01*
X68949Y-47489D01*
X68950Y-47310D01*
X68950Y-54851D01*
X68950Y-54851D01*
X68950Y-48729D01*
X68950Y-48670D01*
X68950Y-48070D01*
X68927Y-48015D01*
X68884Y-47972D01*
X68829Y-47950D01*
X68770Y-47950D01*
X68170Y-47950D01*
X68115Y-47972D01*
X68072Y-48015D01*
X68050Y-48070D01*
X68050Y-48129D01*
X68050Y-48729D01*
X68072Y-48784D01*
X68115Y-48827D01*
X68170Y-48850D01*
X68229Y-48850D01*
X68829Y-48850D01*
X68884Y-48827D01*
X68927Y-48784D01*
X68950Y-48729D01*
X68950Y-54851D01*
X68887Y-54851D01*
X68887Y-55271D01*
X68895Y-55271D01*
X68895Y-55291D01*
X68887Y-55291D01*
X68887Y-55711D01*
X69167Y-55711D01*
X69331Y-55674D01*
X69390Y-55634D01*
X69390Y-55920D01*
X69336Y-55884D01*
X69171Y-55851D01*
X68867Y-55851D01*
X68867Y-55711D01*
X68867Y-55291D01*
X68867Y-55271D01*
X68867Y-54851D01*
X68587Y-54851D01*
X68424Y-54888D01*
X68286Y-54984D01*
X68196Y-55126D01*
X68174Y-55204D01*
X68205Y-55271D01*
X68867Y-55271D01*
X68867Y-55291D01*
X68205Y-55291D01*
X68174Y-55358D01*
X68196Y-55436D01*
X68286Y-55578D01*
X68424Y-55674D01*
X68587Y-55711D01*
X68867Y-55711D01*
X68867Y-55851D01*
X68584Y-55851D01*
X68419Y-55884D01*
X68279Y-55977D01*
X68195Y-56104D01*
X68167Y-56076D01*
X68079Y-56039D01*
X67983Y-56039D01*
X67951Y-56052D01*
X67951Y-46318D01*
X67885Y-46151D01*
X67876Y-46138D01*
X67804Y-46109D01*
X67790Y-46123D01*
X67790Y-46095D01*
X67761Y-46023D01*
X67597Y-45951D01*
X67418Y-45948D01*
X67251Y-46014D01*
X67238Y-46023D01*
X67209Y-46095D01*
X67500Y-46385D01*
X67790Y-46095D01*
X67790Y-46123D01*
X67514Y-46400D01*
X67804Y-46690D01*
X67876Y-46661D01*
X67948Y-46497D01*
X67951Y-46318D01*
X67951Y-56052D01*
X67950Y-56053D01*
X67950Y-48310D01*
X67950Y-47310D01*
X67881Y-47145D01*
X67790Y-47054D01*
X67790Y-46704D01*
X67500Y-46414D01*
X67485Y-46428D01*
X67485Y-46400D01*
X67195Y-46109D01*
X67123Y-46138D01*
X67051Y-46302D01*
X67048Y-46481D01*
X67114Y-46648D01*
X67123Y-46661D01*
X67195Y-46690D01*
X67485Y-46400D01*
X67485Y-46428D01*
X67209Y-46704D01*
X67238Y-46776D01*
X67402Y-46848D01*
X67581Y-46851D01*
X67748Y-46785D01*
X67761Y-46776D01*
X67790Y-46704D01*
X67790Y-47054D01*
X67755Y-47018D01*
X67589Y-46950D01*
X67410Y-46949D01*
X67245Y-47018D01*
X67118Y-47144D01*
X67050Y-47310D01*
X67049Y-47489D01*
X67118Y-47654D01*
X67244Y-47781D01*
X67410Y-47849D01*
X67589Y-47850D01*
X67754Y-47781D01*
X67881Y-47655D01*
X67949Y-47489D01*
X67950Y-47310D01*
X67950Y-48310D01*
X67881Y-48145D01*
X67755Y-48018D01*
X67589Y-47950D01*
X67410Y-47949D01*
X67245Y-48018D01*
X67118Y-48144D01*
X67050Y-48310D01*
X67049Y-48489D01*
X67118Y-48654D01*
X67244Y-48781D01*
X67410Y-48849D01*
X67589Y-48850D01*
X67754Y-48781D01*
X67881Y-48655D01*
X67949Y-48489D01*
X67950Y-48310D01*
X67950Y-56053D01*
X67895Y-56075D01*
X67857Y-56113D01*
X67857Y-50655D01*
X67824Y-50574D01*
X67762Y-50512D01*
X67681Y-50478D01*
X67594Y-50478D01*
X67513Y-50512D01*
X67451Y-50574D01*
X67417Y-50654D01*
X67417Y-50742D01*
X67451Y-50823D01*
X67513Y-50885D01*
X67593Y-50918D01*
X67681Y-50918D01*
X67762Y-50885D01*
X67824Y-50823D01*
X67857Y-50742D01*
X67857Y-50655D01*
X67857Y-56113D01*
X67828Y-56143D01*
X67791Y-56231D01*
X67791Y-56327D01*
X67827Y-56415D01*
X67895Y-56482D01*
X67983Y-56519D01*
X68079Y-56519D01*
X68167Y-56483D01*
X68193Y-56456D01*
X68279Y-56585D01*
X68419Y-56678D01*
X68584Y-56711D01*
X69171Y-56711D01*
X69336Y-56678D01*
X69390Y-56642D01*
X69390Y-56920D01*
X69336Y-56884D01*
X69171Y-56851D01*
X68584Y-56851D01*
X68419Y-56884D01*
X68279Y-56977D01*
X68186Y-57116D01*
X68154Y-57281D01*
X68186Y-57446D01*
X68279Y-57585D01*
X68419Y-57678D01*
X68584Y-57711D01*
X69171Y-57711D01*
X69336Y-57678D01*
X69390Y-57642D01*
X69390Y-57920D01*
X69336Y-57884D01*
X69171Y-57851D01*
X68584Y-57851D01*
X68419Y-57884D01*
X68279Y-57977D01*
X68186Y-58116D01*
X68154Y-58281D01*
X68186Y-58446D01*
X68279Y-58585D01*
X68419Y-58678D01*
X68584Y-58711D01*
X69171Y-58711D01*
X69336Y-58678D01*
X69390Y-58642D01*
X69390Y-58750D01*
M02*
