%FSLAX34Y34*%
G04 Gerber Fmt 3.4, Leading zero omitted, Abs format*
G04 (created by PCBNEW (2014-03-19 BZR 4756)-product) date Sat 09 Aug 2014 12:53:28 PM PDT*
%MOIN*%
G01*
G70*
G90*
G04 APERTURE LIST*
%ADD10C,0.005906*%
%ADD11C,0.003937*%
%ADD12C,0.015748*%
%ADD13C,0.003500*%
G04 APERTURE END LIST*
G54D10*
G54D11*
X47375Y-35301D02*
X52943Y-40869D01*
X52943Y-40869D02*
X56617Y-37194D01*
X56617Y-37194D02*
X51049Y-31627D01*
G54D12*
X47383Y-35293D02*
X51041Y-31635D01*
G54D13*
X49172Y-34504D02*
X48894Y-34226D01*
X48960Y-34159D01*
X49013Y-34133D01*
X49066Y-34133D01*
X49106Y-34146D01*
X49172Y-34186D01*
X49212Y-34226D01*
X49251Y-34292D01*
X49265Y-34332D01*
X49265Y-34385D01*
X49238Y-34438D01*
X49172Y-34504D01*
X49185Y-33987D02*
X49185Y-33961D01*
X49198Y-33921D01*
X49265Y-33855D01*
X49304Y-33841D01*
X49331Y-33841D01*
X49371Y-33855D01*
X49397Y-33881D01*
X49424Y-33934D01*
X49424Y-34252D01*
X49596Y-34080D01*
G54D10*
X49759Y-33554D02*
X49421Y-33892D01*
X49361Y-33911D01*
X49321Y-33911D01*
X49262Y-33892D01*
X49182Y-33812D01*
X49162Y-33752D01*
X49162Y-33713D01*
X49182Y-33653D01*
X49520Y-33315D01*
X48685Y-33315D02*
X48924Y-33554D01*
X48804Y-33434D02*
X49222Y-33017D01*
X49202Y-33116D01*
X49202Y-33196D01*
X49222Y-33255D01*
X51340Y-35174D02*
X51399Y-35194D01*
X51459Y-35254D01*
X51499Y-35333D01*
X51499Y-35413D01*
X51479Y-35472D01*
X51419Y-35572D01*
X51360Y-35632D01*
X51260Y-35691D01*
X51201Y-35711D01*
X51121Y-35711D01*
X51042Y-35671D01*
X51002Y-35632D01*
X50962Y-35552D01*
X50962Y-35512D01*
X51101Y-35373D01*
X51181Y-35453D01*
X50783Y-35373D02*
X50703Y-35333D01*
X50604Y-35234D01*
X50584Y-35174D01*
X50584Y-35134D01*
X50604Y-35075D01*
X50644Y-35035D01*
X50703Y-35015D01*
X50743Y-35015D01*
X50803Y-35035D01*
X50902Y-35095D01*
X50962Y-35115D01*
X51002Y-35115D01*
X51061Y-35095D01*
X51101Y-35055D01*
X51121Y-34995D01*
X51121Y-34955D01*
X51101Y-34896D01*
X51002Y-34796D01*
X50922Y-34757D01*
X50425Y-34617D02*
X50346Y-34578D01*
X50306Y-34578D01*
X50246Y-34598D01*
X50186Y-34657D01*
X50167Y-34717D01*
X50167Y-34757D01*
X50186Y-34816D01*
X50346Y-34975D01*
X50763Y-34558D01*
X50624Y-34419D01*
X50564Y-34399D01*
X50525Y-34399D01*
X50465Y-34419D01*
X50425Y-34458D01*
X50405Y-34518D01*
X50405Y-34558D01*
X50425Y-34617D01*
X50564Y-34757D01*
X50385Y-34180D02*
X50127Y-33921D01*
X50107Y-34220D01*
X50047Y-34160D01*
X49988Y-34140D01*
X49948Y-34140D01*
X49888Y-34160D01*
X49789Y-34259D01*
X49769Y-34319D01*
X49769Y-34359D01*
X49789Y-34419D01*
X49908Y-34538D01*
X49968Y-34558D01*
X50007Y-34558D01*
X49312Y-33941D02*
X49550Y-34180D01*
X49431Y-34061D02*
X49848Y-33643D01*
X49829Y-33742D01*
X49829Y-33822D01*
X49848Y-33882D01*
X48914Y-33544D02*
X49152Y-33782D01*
X49033Y-33663D02*
X49451Y-33245D01*
X49431Y-33345D01*
X49431Y-33424D01*
X49451Y-33484D01*
X49133Y-33007D02*
X49133Y-32967D01*
X49113Y-32907D01*
X49013Y-32808D01*
X48954Y-32788D01*
X48914Y-32788D01*
X48854Y-32808D01*
X48814Y-32848D01*
X48775Y-32927D01*
X48775Y-33404D01*
X48516Y-33146D01*
X48795Y-32589D02*
X48536Y-32331D01*
X48516Y-32629D01*
X48456Y-32569D01*
X48397Y-32549D01*
X48357Y-32549D01*
X48297Y-32569D01*
X48198Y-32669D01*
X48178Y-32728D01*
X48178Y-32768D01*
X48198Y-32828D01*
X48317Y-32947D01*
X48377Y-32967D01*
X48417Y-32967D01*
X47721Y-32351D02*
X47959Y-32589D01*
X47840Y-32470D02*
X48258Y-32052D01*
X48238Y-32152D01*
X48238Y-32231D01*
X48258Y-32291D01*
X47542Y-32172D02*
X47959Y-31754D01*
X47761Y-31953D02*
X47522Y-31714D01*
X47303Y-31933D02*
X47721Y-31515D01*
X46866Y-31495D02*
X47204Y-31436D01*
X47104Y-31734D02*
X47522Y-31316D01*
X47363Y-31157D01*
X47303Y-31138D01*
X47263Y-31138D01*
X47204Y-31157D01*
X47144Y-31217D01*
X47124Y-31277D01*
X47124Y-31316D01*
X47144Y-31376D01*
X47303Y-31535D01*
G54D13*
X59959Y-46936D02*
X59730Y-47165D01*
X59717Y-47206D01*
X59717Y-47233D01*
X59730Y-47273D01*
X59784Y-47327D01*
X59824Y-47340D01*
X59851Y-47340D01*
X59892Y-47327D01*
X60121Y-47098D01*
X60215Y-47246D02*
X60242Y-47246D01*
X60282Y-47260D01*
X60350Y-47327D01*
X60363Y-47367D01*
X60363Y-47394D01*
X60350Y-47435D01*
X60323Y-47462D01*
X60269Y-47489D01*
X59946Y-47489D01*
X60121Y-47664D01*
X56214Y-49379D02*
X56349Y-49514D01*
X56107Y-49433D02*
X56484Y-49245D01*
X56295Y-49622D01*
X56632Y-49393D02*
X56793Y-49555D01*
X56430Y-49757D02*
X56713Y-49474D01*
X56861Y-49622D02*
X56766Y-50093D01*
X57049Y-49810D02*
X56578Y-49905D01*
X56874Y-50201D02*
X57157Y-49918D01*
X57049Y-50214D01*
X57346Y-50107D01*
X57063Y-50390D01*
X57346Y-50376D02*
X57440Y-50470D01*
X57332Y-50659D02*
X57197Y-50524D01*
X57480Y-50241D01*
X57615Y-50376D01*
X57871Y-50659D02*
X57857Y-50619D01*
X57817Y-50578D01*
X57763Y-50551D01*
X57709Y-50551D01*
X57669Y-50565D01*
X57602Y-50605D01*
X57561Y-50645D01*
X57521Y-50713D01*
X57507Y-50753D01*
X57507Y-50807D01*
X57534Y-50861D01*
X57561Y-50888D01*
X57615Y-50915D01*
X57642Y-50915D01*
X57736Y-50821D01*
X57682Y-50767D01*
X57804Y-50969D02*
X57938Y-51103D01*
X57696Y-51023D02*
X58073Y-50834D01*
X57884Y-51211D01*
X58221Y-51036D02*
X58248Y-51036D01*
X58288Y-51050D01*
X58356Y-51117D01*
X58369Y-51157D01*
X58369Y-51184D01*
X58356Y-51225D01*
X58329Y-51252D01*
X58275Y-51279D01*
X57952Y-51279D01*
X58127Y-51454D01*
X58666Y-51427D02*
X58531Y-51292D01*
X58383Y-51413D01*
X58410Y-51413D01*
X58450Y-51427D01*
X58517Y-51494D01*
X58531Y-51534D01*
X58531Y-51561D01*
X58517Y-51602D01*
X58450Y-51669D01*
X58410Y-51683D01*
X58383Y-51683D01*
X58342Y-51669D01*
X58275Y-51602D01*
X58262Y-51561D01*
X58262Y-51534D01*
X58921Y-51683D02*
X58868Y-51629D01*
X58827Y-51615D01*
X58800Y-51615D01*
X58733Y-51629D01*
X58666Y-51669D01*
X58558Y-51777D01*
X58544Y-51817D01*
X58544Y-51844D01*
X58558Y-51885D01*
X58612Y-51938D01*
X58652Y-51952D01*
X58679Y-51952D01*
X58719Y-51938D01*
X58787Y-51871D01*
X58800Y-51831D01*
X58800Y-51804D01*
X58787Y-51763D01*
X58733Y-51710D01*
X58693Y-51696D01*
X58666Y-51696D01*
X58625Y-51710D01*
X58854Y-52019D02*
X58989Y-52154D01*
X58746Y-52073D02*
X59124Y-51885D01*
X58935Y-52262D01*
X59285Y-52046D02*
X59460Y-52221D01*
X59258Y-52235D01*
X59299Y-52275D01*
X59312Y-52316D01*
X59312Y-52343D01*
X59299Y-52383D01*
X59231Y-52450D01*
X59191Y-52464D01*
X59164Y-52464D01*
X59124Y-52450D01*
X59043Y-52369D01*
X59029Y-52329D01*
X59029Y-52302D01*
X59406Y-52518D02*
X59622Y-52733D01*
X59716Y-52881D02*
X59851Y-53016D01*
X59608Y-52935D02*
X59986Y-52747D01*
X59797Y-53124D01*
X60174Y-52935D02*
X59945Y-53164D01*
X59932Y-53205D01*
X59932Y-53231D01*
X59945Y-53272D01*
X59999Y-53326D01*
X60039Y-53339D01*
X60066Y-53339D01*
X60107Y-53326D01*
X60336Y-53097D01*
X69098Y-54684D02*
X69098Y-54517D01*
X69360Y-54446D02*
X69360Y-54684D01*
X68860Y-54684D01*
X68860Y-54446D01*
X68860Y-54279D02*
X69360Y-53946D01*
X68860Y-53946D02*
X69360Y-54279D01*
X68860Y-53827D02*
X68860Y-53541D01*
X69360Y-53684D02*
X68860Y-53684D01*
X69407Y-53494D02*
X69407Y-53113D01*
X69336Y-53017D02*
X69360Y-52946D01*
X69360Y-52827D01*
X69336Y-52779D01*
X69312Y-52755D01*
X69264Y-52732D01*
X69217Y-52732D01*
X69169Y-52755D01*
X69145Y-52779D01*
X69121Y-52827D01*
X69098Y-52922D01*
X69074Y-52970D01*
X69050Y-52994D01*
X69002Y-53017D01*
X68955Y-53017D01*
X68907Y-52994D01*
X68883Y-52970D01*
X68860Y-52922D01*
X68860Y-52803D01*
X68883Y-52732D01*
X69098Y-52517D02*
X69098Y-52351D01*
X69360Y-52279D02*
X69360Y-52517D01*
X68860Y-52517D01*
X68860Y-52279D01*
X69360Y-52065D02*
X68860Y-52065D01*
X69360Y-51779D01*
X68860Y-51779D01*
X69336Y-51565D02*
X69360Y-51494D01*
X69360Y-51375D01*
X69336Y-51327D01*
X69312Y-51303D01*
X69264Y-51279D01*
X69217Y-51279D01*
X69169Y-51303D01*
X69145Y-51327D01*
X69121Y-51375D01*
X69098Y-51470D01*
X69074Y-51517D01*
X69050Y-51541D01*
X69002Y-51565D01*
X68955Y-51565D01*
X68907Y-51541D01*
X68883Y-51517D01*
X68860Y-51470D01*
X68860Y-51351D01*
X68883Y-51279D01*
X68860Y-50970D02*
X68860Y-50875D01*
X68883Y-50827D01*
X68931Y-50779D01*
X69026Y-50755D01*
X69193Y-50755D01*
X69288Y-50779D01*
X69336Y-50827D01*
X69360Y-50875D01*
X69360Y-50970D01*
X69336Y-51017D01*
X69288Y-51065D01*
X69193Y-51089D01*
X69026Y-51089D01*
X68931Y-51065D01*
X68883Y-51017D01*
X68860Y-50970D01*
X69360Y-50255D02*
X69121Y-50422D01*
X69360Y-50541D02*
X68860Y-50541D01*
X68860Y-50351D01*
X68883Y-50303D01*
X68907Y-50279D01*
X68955Y-50255D01*
X69026Y-50255D01*
X69074Y-50279D01*
X69098Y-50303D01*
X69121Y-50351D01*
X69121Y-50541D01*
X69360Y-49779D02*
X69360Y-50065D01*
X69360Y-49922D02*
X68860Y-49922D01*
X68931Y-49970D01*
X68979Y-50017D01*
X69002Y-50065D01*
X66974Y-57499D02*
X66974Y-57109D01*
X67066Y-57109D01*
X67122Y-57127D01*
X67159Y-57164D01*
X67178Y-57202D01*
X67196Y-57276D01*
X67196Y-57332D01*
X67178Y-57406D01*
X67159Y-57443D01*
X67122Y-57480D01*
X67066Y-57499D01*
X66974Y-57499D01*
X67345Y-57387D02*
X67531Y-57387D01*
X67308Y-57499D02*
X67438Y-57109D01*
X67568Y-57499D01*
X67642Y-57109D02*
X67865Y-57109D01*
X67754Y-57499D02*
X67754Y-57109D01*
X67976Y-57387D02*
X68162Y-57387D01*
X67939Y-57499D02*
X68069Y-57109D01*
X68199Y-57499D01*
X67287Y-56399D02*
X67268Y-56417D01*
X67213Y-56436D01*
X67176Y-56436D01*
X67120Y-56417D01*
X67083Y-56380D01*
X67064Y-56343D01*
X67046Y-56269D01*
X67046Y-56213D01*
X67064Y-56139D01*
X67083Y-56101D01*
X67120Y-56064D01*
X67176Y-56046D01*
X67213Y-56046D01*
X67268Y-56064D01*
X67287Y-56083D01*
X67640Y-56436D02*
X67454Y-56436D01*
X67454Y-56046D01*
X67770Y-56436D02*
X67770Y-56046D01*
X67993Y-56436D02*
X67826Y-56213D01*
X67993Y-56046D02*
X67770Y-56269D01*
X67419Y-55080D02*
X67382Y-55062D01*
X67326Y-55062D01*
X67270Y-55080D01*
X67233Y-55117D01*
X67215Y-55154D01*
X67196Y-55229D01*
X67196Y-55284D01*
X67215Y-55359D01*
X67233Y-55396D01*
X67270Y-55433D01*
X67326Y-55452D01*
X67363Y-55452D01*
X67419Y-55433D01*
X67437Y-55414D01*
X67437Y-55284D01*
X67363Y-55284D01*
X67605Y-55452D02*
X67605Y-55062D01*
X67827Y-55452D01*
X67827Y-55062D01*
X68013Y-55452D02*
X68013Y-55062D01*
X68106Y-55062D01*
X68162Y-55080D01*
X68199Y-55117D01*
X68217Y-55154D01*
X68236Y-55229D01*
X68236Y-55284D01*
X68217Y-55359D01*
X68199Y-55396D01*
X68162Y-55433D01*
X68106Y-55452D01*
X68013Y-55452D01*
X66702Y-58072D02*
X67012Y-58072D01*
X66845Y-58263D01*
X66917Y-58263D01*
X66964Y-58286D01*
X66988Y-58310D01*
X67012Y-58358D01*
X67012Y-58477D01*
X66988Y-58525D01*
X66964Y-58548D01*
X66917Y-58572D01*
X66774Y-58572D01*
X66726Y-58548D01*
X66702Y-58525D01*
X67226Y-58525D02*
X67250Y-58548D01*
X67226Y-58572D01*
X67202Y-58548D01*
X67226Y-58525D01*
X67226Y-58572D01*
X67417Y-58072D02*
X67726Y-58072D01*
X67559Y-58263D01*
X67631Y-58263D01*
X67679Y-58286D01*
X67702Y-58310D01*
X67726Y-58358D01*
X67726Y-58477D01*
X67702Y-58525D01*
X67679Y-58548D01*
X67631Y-58572D01*
X67488Y-58572D01*
X67440Y-58548D01*
X67417Y-58525D01*
X67869Y-58072D02*
X68036Y-58572D01*
X68202Y-58072D01*
X47276Y-51186D02*
X47633Y-51186D01*
X47704Y-51210D01*
X47752Y-51258D01*
X47776Y-51329D01*
X47776Y-51377D01*
X47776Y-50948D02*
X47276Y-50948D01*
X47276Y-50758D01*
X47300Y-50710D01*
X47323Y-50686D01*
X47371Y-50662D01*
X47442Y-50662D01*
X47490Y-50686D01*
X47514Y-50710D01*
X47538Y-50758D01*
X47538Y-50948D01*
X47276Y-50496D02*
X47276Y-50186D01*
X47466Y-50353D01*
X47466Y-50281D01*
X47490Y-50234D01*
X47514Y-50210D01*
X47561Y-50186D01*
X47680Y-50186D01*
X47728Y-50210D01*
X47752Y-50234D01*
X47776Y-50281D01*
X47776Y-50424D01*
X47752Y-50472D01*
X47728Y-50496D01*
X50633Y-53543D02*
X50633Y-53305D01*
X50776Y-53591D02*
X50276Y-53424D01*
X50776Y-53258D01*
X50276Y-53162D02*
X50776Y-52996D01*
X50276Y-52829D01*
X50776Y-52377D02*
X50538Y-52543D01*
X50776Y-52662D02*
X50276Y-52662D01*
X50276Y-52472D01*
X50300Y-52424D01*
X50323Y-52400D01*
X50371Y-52377D01*
X50442Y-52377D01*
X50490Y-52400D01*
X50514Y-52424D01*
X50538Y-52472D01*
X50538Y-52662D01*
X50585Y-52162D02*
X50585Y-51781D01*
X50276Y-51400D02*
X50633Y-51400D01*
X50704Y-51424D01*
X50752Y-51472D01*
X50776Y-51543D01*
X50776Y-51591D01*
X50276Y-51234D02*
X50276Y-50948D01*
X50776Y-51091D02*
X50276Y-51091D01*
X50633Y-50805D02*
X50633Y-50567D01*
X50776Y-50853D02*
X50276Y-50686D01*
X50776Y-50520D01*
X50300Y-50091D02*
X50276Y-50139D01*
X50276Y-50210D01*
X50300Y-50281D01*
X50347Y-50329D01*
X50395Y-50353D01*
X50490Y-50377D01*
X50561Y-50377D01*
X50657Y-50353D01*
X50704Y-50329D01*
X50752Y-50281D01*
X50776Y-50210D01*
X50776Y-50162D01*
X50752Y-50091D01*
X50728Y-50067D01*
X50561Y-50067D01*
X50561Y-50162D01*
X50585Y-49853D02*
X50585Y-49472D01*
X50776Y-48972D02*
X50776Y-49258D01*
X50776Y-49115D02*
X50276Y-49115D01*
X50347Y-49162D01*
X50395Y-49210D01*
X50419Y-49258D01*
X50276Y-48662D02*
X50276Y-48615D01*
X50300Y-48567D01*
X50323Y-48543D01*
X50371Y-48520D01*
X50466Y-48496D01*
X50585Y-48496D01*
X50680Y-48520D01*
X50728Y-48543D01*
X50752Y-48567D01*
X50776Y-48615D01*
X50776Y-48662D01*
X50752Y-48710D01*
X50728Y-48734D01*
X50680Y-48758D01*
X50585Y-48781D01*
X50466Y-48781D01*
X50371Y-48758D01*
X50323Y-48734D01*
X50300Y-48710D01*
X50276Y-48662D01*
X58245Y-33724D02*
X57992Y-33976D01*
X57925Y-34010D01*
X57858Y-34010D01*
X57790Y-33976D01*
X57757Y-33943D01*
X58060Y-34246D02*
X58413Y-33892D01*
X58548Y-34027D01*
X58565Y-34077D01*
X58565Y-34111D01*
X58548Y-34162D01*
X58497Y-34212D01*
X58447Y-34229D01*
X58413Y-34229D01*
X58363Y-34212D01*
X58228Y-34077D01*
X58598Y-34785D02*
X58396Y-34582D01*
X58497Y-34684D02*
X58851Y-34330D01*
X58767Y-34347D01*
X58700Y-34347D01*
X58649Y-34330D01*
X57332Y-36905D02*
X57551Y-37124D01*
X57299Y-37141D01*
X57349Y-37192D01*
X57366Y-37242D01*
X57366Y-37276D01*
X57349Y-37326D01*
X57265Y-37411D01*
X57215Y-37427D01*
X57181Y-37427D01*
X57130Y-37411D01*
X57029Y-37310D01*
X57013Y-37259D01*
X57013Y-37225D01*
X58107Y-37916D02*
X57871Y-38151D01*
X58157Y-37697D02*
X57821Y-37865D01*
X58040Y-38084D01*
X55240Y-35897D02*
X55408Y-36267D01*
X55038Y-36099D01*
X55745Y-36166D02*
X55509Y-36638D01*
X55981Y-36402D01*
X55829Y-36756D02*
X55997Y-36924D01*
X55694Y-36823D02*
X56166Y-36587D01*
X55930Y-37059D01*
X56216Y-37345D02*
X56048Y-37177D01*
X56401Y-36823D01*
X56688Y-37109D02*
X56401Y-37395D01*
X56385Y-37446D01*
X56385Y-37480D01*
X56401Y-37530D01*
X56469Y-37597D01*
X56519Y-37614D01*
X56553Y-37614D01*
X56603Y-37597D01*
X56890Y-37311D01*
X56890Y-37648D02*
X57008Y-37766D01*
X56873Y-38001D02*
X56705Y-37833D01*
X57058Y-37480D01*
X57226Y-37648D01*
X67583Y-38957D02*
X67583Y-38563D01*
X67677Y-38563D01*
X67733Y-38582D01*
X67770Y-38620D01*
X67789Y-38657D01*
X67808Y-38732D01*
X67808Y-38788D01*
X67789Y-38863D01*
X67770Y-38901D01*
X67733Y-38938D01*
X67677Y-38957D01*
X67583Y-38957D01*
X68183Y-38957D02*
X67958Y-38957D01*
X68070Y-38957D02*
X68070Y-38563D01*
X68033Y-38620D01*
X67995Y-38657D01*
X67958Y-38676D01*
X51210Y-58558D02*
X50710Y-58558D01*
X50710Y-58438D01*
X50734Y-58367D01*
X50781Y-58319D01*
X50829Y-58296D01*
X50924Y-58272D01*
X50996Y-58272D01*
X51091Y-58296D01*
X51139Y-58319D01*
X51186Y-58367D01*
X51210Y-58438D01*
X51210Y-58558D01*
X50710Y-58105D02*
X50710Y-57796D01*
X50900Y-57962D01*
X50900Y-57891D01*
X50924Y-57843D01*
X50948Y-57819D01*
X50996Y-57796D01*
X51115Y-57796D01*
X51162Y-57819D01*
X51186Y-57843D01*
X51210Y-57891D01*
X51210Y-58034D01*
X51186Y-58081D01*
X51162Y-58105D01*
X58952Y-32185D02*
X59176Y-32185D01*
X59064Y-32579D02*
X59064Y-32185D01*
X59514Y-32579D02*
X59289Y-32579D01*
X59401Y-32579D02*
X59401Y-32185D01*
X59364Y-32242D01*
X59326Y-32279D01*
X59289Y-32298D01*
X60507Y-32793D02*
X60530Y-32770D01*
X60578Y-32746D01*
X60697Y-32746D01*
X60745Y-32770D01*
X60769Y-32793D01*
X60792Y-32841D01*
X60792Y-32889D01*
X60769Y-32960D01*
X60483Y-33246D01*
X60792Y-33246D01*
X61083Y-32496D02*
X61392Y-32496D01*
X61226Y-32686D01*
X61297Y-32686D01*
X61345Y-32710D01*
X61369Y-32734D01*
X61392Y-32781D01*
X61392Y-32900D01*
X61369Y-32948D01*
X61345Y-32972D01*
X61297Y-32996D01*
X61154Y-32996D01*
X61107Y-32972D01*
X61083Y-32948D01*
X60092Y-32996D02*
X59807Y-32996D01*
X59950Y-32996D02*
X59950Y-32496D01*
X59902Y-32567D01*
X59854Y-32615D01*
X59807Y-32639D01*
X64581Y-36004D02*
X64806Y-36004D01*
X64694Y-36398D02*
X64694Y-36004D01*
X64919Y-36042D02*
X64938Y-36023D01*
X64975Y-36004D01*
X65069Y-36004D01*
X65106Y-36023D01*
X65125Y-36042D01*
X65144Y-36079D01*
X65144Y-36117D01*
X65125Y-36173D01*
X64900Y-36398D01*
X65144Y-36398D01*
X64262Y-35576D02*
X63977Y-35576D01*
X64120Y-35576D02*
X64120Y-35076D01*
X64072Y-35147D01*
X64024Y-35195D01*
X63977Y-35219D01*
X62977Y-35123D02*
X63000Y-35100D01*
X63048Y-35076D01*
X63167Y-35076D01*
X63215Y-35100D01*
X63239Y-35123D01*
X63262Y-35171D01*
X63262Y-35219D01*
X63239Y-35290D01*
X62953Y-35576D01*
X63262Y-35576D01*
X63203Y-35826D02*
X63512Y-35826D01*
X63346Y-36016D01*
X63417Y-36016D01*
X63465Y-36040D01*
X63489Y-36064D01*
X63512Y-36111D01*
X63512Y-36230D01*
X63489Y-36278D01*
X63465Y-36302D01*
X63417Y-36326D01*
X63274Y-36326D01*
X63227Y-36302D01*
X63203Y-36278D01*
X68140Y-30867D02*
X68140Y-31225D01*
X68116Y-31296D01*
X68068Y-31344D01*
X67997Y-31367D01*
X67949Y-31367D01*
X68640Y-31367D02*
X68354Y-31367D01*
X68497Y-31367D02*
X68497Y-30867D01*
X68449Y-30939D01*
X68402Y-30986D01*
X68354Y-31010D01*
X51601Y-37445D02*
X51853Y-37698D01*
X51887Y-37765D01*
X51887Y-37832D01*
X51853Y-37900D01*
X51820Y-37933D01*
X52123Y-37630D02*
X51769Y-37277D01*
X51904Y-37142D01*
X51954Y-37125D01*
X51988Y-37125D01*
X52039Y-37142D01*
X52089Y-37193D01*
X52106Y-37243D01*
X52106Y-37277D01*
X52089Y-37327D01*
X51954Y-37462D01*
X52140Y-36974D02*
X52140Y-36940D01*
X52156Y-36890D01*
X52241Y-36805D01*
X52291Y-36789D01*
X52325Y-36789D01*
X52375Y-36805D01*
X52409Y-36839D01*
X52443Y-36906D01*
X52443Y-37310D01*
X52661Y-37092D01*
X53899Y-57975D02*
X54256Y-57975D01*
X54327Y-57999D01*
X54375Y-58047D01*
X54399Y-58118D01*
X54399Y-58166D01*
X54399Y-57737D02*
X53899Y-57737D01*
X53899Y-57547D01*
X53923Y-57499D01*
X53947Y-57475D01*
X53994Y-57451D01*
X54066Y-57451D01*
X54113Y-57475D01*
X54137Y-57499D01*
X54161Y-57547D01*
X54161Y-57737D01*
X53899Y-57023D02*
X53899Y-57118D01*
X53923Y-57166D01*
X53947Y-57190D01*
X54018Y-57237D01*
X54113Y-57261D01*
X54304Y-57261D01*
X54351Y-57237D01*
X54375Y-57213D01*
X54399Y-57166D01*
X54399Y-57070D01*
X54375Y-57023D01*
X54351Y-56999D01*
X54304Y-56975D01*
X54185Y-56975D01*
X54137Y-56999D01*
X54113Y-57023D01*
X54089Y-57070D01*
X54089Y-57166D01*
X54113Y-57213D01*
X54137Y-57237D01*
X54185Y-57261D01*
M02*
