%FSLAX34Y34*%
G04 Gerber Fmt 3.4, Leading zero omitted, Abs format*
G04 (created by PCBNEW (2014-03-19 BZR 4756)-product) date Sat 09 Aug 2014 12:53:28 PM PDT*
%MOIN*%
G01*
G70*
G90*
G04 APERTURE LIST*
%ADD10C,0.005906*%
%ADD11R,0.031496X0.068898*%
%ADD12O,0.110236X0.090551*%
%ADD13R,0.074803X0.090551*%
%ADD14C,0.072835*%
%ADD15C,0.078740*%
%ADD16C,0.051181*%
%ADD17C,0.106299*%
%ADD18R,0.049764X0.046732*%
%ADD19R,0.078740X0.090551*%
%ADD20R,0.046732X0.049764*%
%ADD21R,0.090551X0.078740*%
%ADD22R,0.045827X0.047244*%
%ADD23R,0.031496X0.045276*%
%ADD24R,0.075748X0.075748*%
%ADD25C,0.075748*%
%ADD26R,0.031496X0.094488*%
%ADD27R,0.031496X0.055118*%
%ADD28R,0.055118X0.031496*%
%ADD29R,0.068110X0.037795*%
%ADD30R,0.149606X0.102362*%
%ADD31R,0.062992X0.102362*%
%ADD32O,0.127748X0.071748*%
%ADD33R,0.024016X0.029528*%
%ADD34R,0.029528X0.024016*%
%ADD35R,0.023622X0.029528*%
%ADD36R,0.086548X0.082648*%
%ADD37R,0.082648X0.086548*%
%ADD38R,0.066848X0.098348*%
%ADD39C,0.067748*%
%ADD40C,0.086614*%
G04 APERTURE END LIST*
G54D10*
G36*
X50636Y-34347D02*
X50052Y-33763D01*
X50664Y-33151D01*
X51248Y-33735D01*
X50636Y-34347D01*
X50636Y-34347D01*
G37*
G36*
X49495Y-35488D02*
X48911Y-34904D01*
X49523Y-34292D01*
X50107Y-34876D01*
X49495Y-35488D01*
X49495Y-35488D01*
G37*
G54D11*
X58846Y-57204D03*
G54D12*
X59968Y-58267D03*
X57212Y-58267D03*
G54D13*
X58196Y-58267D03*
X58984Y-58267D03*
G54D11*
X58078Y-57204D03*
X58334Y-57204D03*
X58590Y-57204D03*
X59102Y-57204D03*
G54D14*
X57606Y-57204D03*
X59574Y-57204D03*
G54D15*
X54133Y-42421D03*
X62795Y-42421D03*
G54D16*
X53243Y-39722D03*
X53800Y-39165D03*
X54357Y-38609D03*
X54913Y-38052D03*
X55470Y-37495D03*
X54913Y-37217D03*
X54218Y-37913D03*
X53661Y-38469D03*
X52965Y-39165D03*
G54D17*
X54321Y-34914D03*
X50663Y-38572D03*
X52244Y-40154D03*
X55902Y-36496D03*
G54D16*
X52074Y-38275D03*
X52770Y-37579D03*
X53327Y-37022D03*
X54023Y-36326D03*
X54579Y-36604D03*
X54023Y-37161D03*
X53466Y-37718D03*
X52909Y-38275D03*
X52352Y-38831D03*
G54D18*
X52775Y-47819D03*
X52775Y-48430D03*
G54D19*
X63819Y-32320D03*
X65040Y-32320D03*
G54D18*
X55669Y-43297D03*
X55669Y-42687D03*
G54D20*
X56633Y-39783D03*
X56023Y-39783D03*
X58366Y-39606D03*
X58976Y-39606D03*
G54D19*
X52667Y-52824D03*
X53887Y-52824D03*
G54D18*
X62990Y-37324D03*
X62990Y-37935D03*
X49500Y-44964D03*
X49500Y-45575D03*
X61259Y-40324D03*
X61259Y-40935D03*
X61259Y-41505D03*
X61259Y-42116D03*
X61259Y-42608D03*
X61259Y-43218D03*
G54D20*
X48054Y-45250D03*
X48665Y-45250D03*
G54D19*
X55187Y-54714D03*
X53966Y-54714D03*
G54D20*
X48244Y-42220D03*
X48855Y-42220D03*
G54D10*
G36*
X60283Y-54305D02*
X60635Y-54657D01*
X60305Y-54987D01*
X59953Y-54635D01*
X60283Y-54305D01*
X60283Y-54305D01*
G37*
G36*
X59852Y-54736D02*
X60204Y-55088D01*
X59873Y-55419D01*
X59521Y-55067D01*
X59852Y-54736D01*
X59852Y-54736D01*
G37*
G36*
X54535Y-48891D02*
X54887Y-49243D01*
X54557Y-49574D01*
X54205Y-49222D01*
X54535Y-48891D01*
X54535Y-48891D01*
G37*
G36*
X54104Y-49323D02*
X54456Y-49675D01*
X54125Y-50005D01*
X53773Y-49653D01*
X54104Y-49323D01*
X54104Y-49323D01*
G37*
G36*
X56265Y-53945D02*
X55913Y-54297D01*
X55583Y-53966D01*
X55935Y-53614D01*
X56265Y-53945D01*
X56265Y-53945D01*
G37*
G36*
X55834Y-53513D02*
X55482Y-53865D01*
X55151Y-53535D01*
X55503Y-53183D01*
X55834Y-53513D01*
X55834Y-53513D01*
G37*
G36*
X62508Y-52189D02*
X62860Y-52541D01*
X62529Y-52871D01*
X62177Y-52519D01*
X62508Y-52189D01*
X62508Y-52189D01*
G37*
G36*
X62076Y-52620D02*
X62428Y-52972D01*
X62098Y-53302D01*
X61746Y-52951D01*
X62076Y-52620D01*
X62076Y-52620D01*
G37*
G36*
X62663Y-49319D02*
X62311Y-49671D01*
X61980Y-49340D01*
X62332Y-48988D01*
X62663Y-49319D01*
X62663Y-49319D01*
G37*
G36*
X62231Y-48887D02*
X61879Y-49239D01*
X61549Y-48909D01*
X61901Y-48557D01*
X62231Y-48887D01*
X62231Y-48887D01*
G37*
G54D21*
X64421Y-47519D03*
X64421Y-46299D03*
G54D10*
G36*
X59777Y-47137D02*
X60129Y-46785D01*
X60460Y-47116D01*
X60108Y-47467D01*
X59777Y-47137D01*
X59777Y-47137D01*
G37*
G36*
X60209Y-47568D02*
X60561Y-47217D01*
X60891Y-47547D01*
X60539Y-47899D01*
X60209Y-47568D01*
X60209Y-47568D01*
G37*
G54D20*
X53167Y-33960D03*
X53777Y-33960D03*
G54D22*
X52350Y-42781D03*
X52727Y-42018D03*
X51972Y-42018D03*
G54D20*
X48685Y-44090D03*
X48074Y-44090D03*
X48726Y-41338D03*
X48116Y-41338D03*
X50196Y-57600D03*
X49586Y-57600D03*
G54D18*
X55232Y-57887D03*
X55232Y-57277D03*
G54D20*
X53171Y-33090D03*
X53781Y-33090D03*
X48159Y-40633D03*
X48769Y-40633D03*
X48096Y-39842D03*
X48706Y-39842D03*
G54D18*
X62870Y-33364D03*
X62870Y-33975D03*
G54D20*
X53246Y-43771D03*
X52635Y-43771D03*
X64294Y-33960D03*
X64905Y-33960D03*
X63695Y-39360D03*
X63084Y-39360D03*
G54D18*
X51176Y-53711D03*
X51176Y-54321D03*
X51951Y-53715D03*
X51951Y-54325D03*
G54D20*
X66354Y-54940D03*
X66965Y-54940D03*
X66210Y-52047D03*
X65600Y-52047D03*
G54D18*
X64990Y-53095D03*
X64990Y-52484D03*
X64429Y-53356D03*
X64429Y-53966D03*
G54D20*
X60242Y-56216D03*
X59631Y-56216D03*
X63080Y-40314D03*
X63690Y-40314D03*
G54D10*
G36*
X62387Y-47941D02*
X62035Y-48293D01*
X61705Y-47962D01*
X62057Y-47610D01*
X62387Y-47941D01*
X62387Y-47941D01*
G37*
G36*
X61956Y-47509D02*
X61604Y-47861D01*
X61273Y-47531D01*
X61625Y-47179D01*
X61956Y-47509D01*
X61956Y-47509D01*
G37*
G54D23*
X50855Y-46275D03*
X50600Y-46275D03*
X50344Y-46275D03*
X50344Y-47024D03*
X50600Y-47024D03*
X50855Y-47024D03*
X50344Y-45564D03*
X50600Y-45564D03*
X50855Y-45564D03*
X50855Y-44815D03*
X50600Y-44815D03*
X50344Y-44815D03*
X50855Y-42825D03*
X50600Y-42825D03*
X50344Y-42825D03*
X50344Y-43574D03*
X50600Y-43574D03*
X50855Y-43574D03*
G54D20*
X48357Y-56442D03*
X48968Y-56442D03*
X48373Y-55308D03*
X48983Y-55308D03*
X48357Y-57600D03*
X48968Y-57600D03*
G54D24*
X68500Y-48400D03*
G54D25*
X67500Y-48400D03*
X68500Y-47400D03*
X67500Y-47400D03*
X68500Y-46400D03*
X67500Y-46400D03*
G54D20*
X59805Y-34940D03*
X59194Y-34940D03*
X60795Y-35820D03*
X60184Y-35820D03*
G54D10*
G36*
X52750Y-50661D02*
X53102Y-50309D01*
X53432Y-50639D01*
X53080Y-50991D01*
X52750Y-50661D01*
X52750Y-50661D01*
G37*
G36*
X53181Y-51092D02*
X53533Y-50740D01*
X53864Y-51071D01*
X53512Y-51423D01*
X53181Y-51092D01*
X53181Y-51092D01*
G37*
G36*
X53301Y-50109D02*
X53653Y-49758D01*
X53983Y-50088D01*
X53631Y-50440D01*
X53301Y-50109D01*
X53301Y-50109D01*
G37*
G36*
X53732Y-50541D02*
X54084Y-50189D01*
X54415Y-50519D01*
X54063Y-50871D01*
X53732Y-50541D01*
X53732Y-50541D01*
G37*
G54D18*
X61259Y-43789D03*
X61259Y-44399D03*
G54D10*
G36*
X50878Y-39124D02*
X51230Y-39476D01*
X50899Y-39806D01*
X50547Y-39454D01*
X50878Y-39124D01*
X50878Y-39124D01*
G37*
G36*
X50446Y-39555D02*
X50798Y-39907D01*
X50468Y-40238D01*
X50116Y-39886D01*
X50446Y-39555D01*
X50446Y-39555D01*
G37*
G54D20*
X53430Y-44700D03*
X52819Y-44700D03*
X48665Y-43090D03*
X48054Y-43090D03*
X50235Y-56442D03*
X49625Y-56442D03*
X50231Y-55312D03*
X49621Y-55312D03*
G54D18*
X55901Y-57887D03*
X55901Y-57277D03*
G54D20*
X61244Y-34320D03*
X61855Y-34320D03*
G54D18*
X49600Y-43164D03*
X49600Y-43775D03*
G54D20*
X59616Y-39606D03*
X60226Y-39606D03*
X59639Y-55732D03*
X60250Y-55732D03*
X66375Y-45760D03*
X65764Y-45760D03*
G54D26*
X58307Y-40564D03*
G54D27*
X57992Y-40368D03*
X57677Y-40368D03*
X57362Y-40368D03*
X57047Y-40368D03*
X56732Y-40316D03*
G54D28*
X56360Y-40688D03*
X56411Y-41003D03*
X56411Y-41318D03*
X56411Y-41633D03*
X56411Y-41948D03*
X56411Y-42263D03*
X56411Y-42578D03*
X56411Y-42893D03*
X56411Y-43208D03*
X56411Y-43523D03*
X56411Y-43838D03*
X56360Y-44153D03*
G54D27*
X56732Y-44525D03*
X57047Y-44474D03*
X57362Y-44474D03*
X57677Y-44474D03*
X57992Y-44474D03*
X58307Y-44474D03*
X58622Y-44474D03*
X58937Y-44474D03*
X59251Y-44474D03*
X59566Y-44474D03*
X59881Y-44474D03*
X60196Y-44474D03*
G54D28*
X60517Y-44153D03*
X60517Y-43838D03*
X60517Y-43523D03*
X60517Y-43208D03*
X60517Y-42893D03*
X60517Y-42578D03*
X60517Y-42263D03*
X60517Y-41948D03*
X60517Y-41633D03*
X60517Y-41318D03*
X60517Y-41003D03*
X60568Y-40688D03*
G54D27*
X60196Y-40316D03*
X59881Y-40368D03*
X59566Y-40368D03*
X59251Y-40368D03*
X58937Y-40368D03*
X58622Y-40368D03*
G54D10*
G36*
X57636Y-47082D02*
X57903Y-46815D01*
X58346Y-47259D01*
X58079Y-47526D01*
X57636Y-47082D01*
X57636Y-47082D01*
G37*
G36*
X57413Y-47305D02*
X57680Y-47038D01*
X58124Y-47481D01*
X57857Y-47748D01*
X57413Y-47305D01*
X57413Y-47305D01*
G37*
G36*
X57190Y-47527D02*
X57457Y-47260D01*
X57901Y-47704D01*
X57634Y-47971D01*
X57190Y-47527D01*
X57190Y-47527D01*
G37*
G36*
X56967Y-47750D02*
X57234Y-47483D01*
X57678Y-47927D01*
X57411Y-48194D01*
X56967Y-47750D01*
X56967Y-47750D01*
G37*
G36*
X56745Y-47973D02*
X57012Y-47706D01*
X57455Y-48150D01*
X57188Y-48417D01*
X56745Y-47973D01*
X56745Y-47973D01*
G37*
G36*
X56522Y-48196D02*
X56789Y-47929D01*
X57233Y-48372D01*
X56966Y-48639D01*
X56522Y-48196D01*
X56522Y-48196D01*
G37*
G36*
X56299Y-48418D02*
X56566Y-48151D01*
X57010Y-48595D01*
X56743Y-48862D01*
X56299Y-48418D01*
X56299Y-48418D01*
G37*
G36*
X56077Y-48641D02*
X56343Y-48374D01*
X56787Y-48818D01*
X56520Y-49085D01*
X56077Y-48641D01*
X56077Y-48641D01*
G37*
G36*
X55855Y-48863D02*
X56121Y-48596D01*
X56565Y-49040D01*
X56298Y-49307D01*
X55855Y-48863D01*
X55855Y-48863D01*
G37*
G36*
X55632Y-49086D02*
X55899Y-48819D01*
X56342Y-49263D01*
X56075Y-49530D01*
X55632Y-49086D01*
X55632Y-49086D01*
G37*
G36*
X55409Y-49309D02*
X55676Y-49042D01*
X56120Y-49485D01*
X55853Y-49752D01*
X55409Y-49309D01*
X55409Y-49309D01*
G37*
G36*
X55186Y-49531D02*
X55453Y-49264D01*
X55897Y-49708D01*
X55630Y-49975D01*
X55186Y-49531D01*
X55186Y-49531D01*
G37*
G36*
X54964Y-49754D02*
X55230Y-49487D01*
X55674Y-49931D01*
X55407Y-50198D01*
X54964Y-49754D01*
X54964Y-49754D01*
G37*
G36*
X54741Y-49977D02*
X55008Y-49710D01*
X55451Y-50154D01*
X55185Y-50421D01*
X54741Y-49977D01*
X54741Y-49977D01*
G37*
G36*
X54518Y-50200D02*
X54785Y-49933D01*
X55229Y-50376D01*
X54962Y-50643D01*
X54518Y-50200D01*
X54518Y-50200D01*
G37*
G36*
X54295Y-50422D02*
X54562Y-50155D01*
X55006Y-50599D01*
X54739Y-50866D01*
X54295Y-50422D01*
X54295Y-50422D01*
G37*
G36*
X54295Y-51545D02*
X54739Y-51101D01*
X55006Y-51368D01*
X54562Y-51812D01*
X54295Y-51545D01*
X54295Y-51545D01*
G37*
G36*
X54518Y-51768D02*
X54962Y-51324D01*
X55229Y-51591D01*
X54785Y-52035D01*
X54518Y-51768D01*
X54518Y-51768D01*
G37*
G36*
X54741Y-51991D02*
X55185Y-51547D01*
X55451Y-51814D01*
X55008Y-52258D01*
X54741Y-51991D01*
X54741Y-51991D01*
G37*
G36*
X54964Y-52213D02*
X55407Y-51770D01*
X55674Y-52037D01*
X55230Y-52480D01*
X54964Y-52213D01*
X54964Y-52213D01*
G37*
G36*
X55186Y-52436D02*
X55630Y-51992D01*
X55897Y-52259D01*
X55453Y-52703D01*
X55186Y-52436D01*
X55186Y-52436D01*
G37*
G36*
X55409Y-52659D02*
X55853Y-52215D01*
X56120Y-52482D01*
X55676Y-52926D01*
X55409Y-52659D01*
X55409Y-52659D01*
G37*
G36*
X55632Y-52882D02*
X56075Y-52438D01*
X56342Y-52705D01*
X55899Y-53149D01*
X55632Y-52882D01*
X55632Y-52882D01*
G37*
G36*
X55855Y-53104D02*
X56298Y-52661D01*
X56565Y-52928D01*
X56121Y-53371D01*
X55855Y-53104D01*
X55855Y-53104D01*
G37*
G36*
X56077Y-53326D02*
X56520Y-52883D01*
X56787Y-53150D01*
X56343Y-53593D01*
X56077Y-53326D01*
X56077Y-53326D01*
G37*
G36*
X56299Y-53549D02*
X56743Y-53105D01*
X57010Y-53372D01*
X56566Y-53816D01*
X56299Y-53549D01*
X56299Y-53549D01*
G37*
G36*
X56522Y-53772D02*
X56966Y-53328D01*
X57233Y-53595D01*
X56789Y-54039D01*
X56522Y-53772D01*
X56522Y-53772D01*
G37*
G36*
X56745Y-53995D02*
X57188Y-53551D01*
X57455Y-53818D01*
X57012Y-54262D01*
X56745Y-53995D01*
X56745Y-53995D01*
G37*
G36*
X56967Y-54217D02*
X57411Y-53774D01*
X57678Y-54041D01*
X57234Y-54484D01*
X56967Y-54217D01*
X56967Y-54217D01*
G37*
G36*
X57190Y-54440D02*
X57634Y-53996D01*
X57901Y-54263D01*
X57457Y-54707D01*
X57190Y-54440D01*
X57190Y-54440D01*
G37*
G36*
X57413Y-54663D02*
X57857Y-54219D01*
X58124Y-54486D01*
X57680Y-54930D01*
X57413Y-54663D01*
X57413Y-54663D01*
G37*
G36*
X57636Y-54886D02*
X58079Y-54442D01*
X58346Y-54709D01*
X57903Y-55152D01*
X57636Y-54886D01*
X57636Y-54886D01*
G37*
G36*
X58582Y-54709D02*
X58849Y-54442D01*
X59292Y-54886D01*
X59026Y-55152D01*
X58582Y-54709D01*
X58582Y-54709D01*
G37*
G36*
X58805Y-54486D02*
X59071Y-54219D01*
X59515Y-54663D01*
X59248Y-54930D01*
X58805Y-54486D01*
X58805Y-54486D01*
G37*
G36*
X59027Y-54263D02*
X59294Y-53996D01*
X59738Y-54440D01*
X59471Y-54707D01*
X59027Y-54263D01*
X59027Y-54263D01*
G37*
G36*
X59250Y-54041D02*
X59517Y-53774D01*
X59961Y-54217D01*
X59694Y-54484D01*
X59250Y-54041D01*
X59250Y-54041D01*
G37*
G36*
X59473Y-53818D02*
X59740Y-53551D01*
X60183Y-53995D01*
X59916Y-54262D01*
X59473Y-53818D01*
X59473Y-53818D01*
G37*
G36*
X59696Y-53595D02*
X59962Y-53328D01*
X60406Y-53772D01*
X60139Y-54039D01*
X59696Y-53595D01*
X59696Y-53595D01*
G37*
G36*
X59918Y-53372D02*
X60185Y-53105D01*
X60629Y-53549D01*
X60362Y-53816D01*
X59918Y-53372D01*
X59918Y-53372D01*
G37*
G36*
X60141Y-53150D02*
X60408Y-52883D01*
X60852Y-53326D01*
X60585Y-53593D01*
X60141Y-53150D01*
X60141Y-53150D01*
G37*
G36*
X60363Y-52928D02*
X60630Y-52661D01*
X61074Y-53104D01*
X60807Y-53371D01*
X60363Y-52928D01*
X60363Y-52928D01*
G37*
G36*
X60586Y-52705D02*
X60853Y-52438D01*
X61296Y-52882D01*
X61029Y-53149D01*
X60586Y-52705D01*
X60586Y-52705D01*
G37*
G36*
X60808Y-52482D02*
X61075Y-52215D01*
X61519Y-52659D01*
X61252Y-52926D01*
X60808Y-52482D01*
X60808Y-52482D01*
G37*
G36*
X61031Y-52259D02*
X61298Y-51992D01*
X61742Y-52436D01*
X61475Y-52703D01*
X61031Y-52259D01*
X61031Y-52259D01*
G37*
G36*
X61254Y-52037D02*
X61521Y-51770D01*
X61965Y-52213D01*
X61698Y-52480D01*
X61254Y-52037D01*
X61254Y-52037D01*
G37*
G36*
X61477Y-51814D02*
X61744Y-51547D01*
X62187Y-51991D01*
X61920Y-52258D01*
X61477Y-51814D01*
X61477Y-51814D01*
G37*
G36*
X61699Y-51591D02*
X61966Y-51324D01*
X62410Y-51768D01*
X62143Y-52035D01*
X61699Y-51591D01*
X61699Y-51591D01*
G37*
G36*
X61922Y-51368D02*
X62189Y-51101D01*
X62633Y-51545D01*
X62366Y-51812D01*
X61922Y-51368D01*
X61922Y-51368D01*
G37*
G36*
X61922Y-50599D02*
X62366Y-50155D01*
X62633Y-50422D01*
X62189Y-50866D01*
X61922Y-50599D01*
X61922Y-50599D01*
G37*
G36*
X61699Y-50376D02*
X62143Y-49933D01*
X62410Y-50200D01*
X61966Y-50643D01*
X61699Y-50376D01*
X61699Y-50376D01*
G37*
G36*
X61477Y-50154D02*
X61920Y-49710D01*
X62187Y-49977D01*
X61744Y-50421D01*
X61477Y-50154D01*
X61477Y-50154D01*
G37*
G36*
X61254Y-49931D02*
X61698Y-49487D01*
X61965Y-49754D01*
X61521Y-50198D01*
X61254Y-49931D01*
X61254Y-49931D01*
G37*
G36*
X61031Y-49708D02*
X61475Y-49264D01*
X61742Y-49531D01*
X61298Y-49975D01*
X61031Y-49708D01*
X61031Y-49708D01*
G37*
G36*
X60808Y-49485D02*
X61252Y-49042D01*
X61519Y-49309D01*
X61075Y-49752D01*
X60808Y-49485D01*
X60808Y-49485D01*
G37*
G36*
X60586Y-49263D02*
X61029Y-48819D01*
X61296Y-49086D01*
X60853Y-49530D01*
X60586Y-49263D01*
X60586Y-49263D01*
G37*
G36*
X60363Y-49040D02*
X60807Y-48596D01*
X61074Y-48863D01*
X60630Y-49307D01*
X60363Y-49040D01*
X60363Y-49040D01*
G37*
G36*
X60141Y-48818D02*
X60585Y-48374D01*
X60852Y-48641D01*
X60408Y-49085D01*
X60141Y-48818D01*
X60141Y-48818D01*
G37*
G36*
X59918Y-48595D02*
X60362Y-48151D01*
X60629Y-48418D01*
X60185Y-48862D01*
X59918Y-48595D01*
X59918Y-48595D01*
G37*
G36*
X59696Y-48372D02*
X60139Y-47929D01*
X60406Y-48196D01*
X59962Y-48639D01*
X59696Y-48372D01*
X59696Y-48372D01*
G37*
G36*
X59473Y-48150D02*
X59916Y-47706D01*
X60183Y-47973D01*
X59740Y-48417D01*
X59473Y-48150D01*
X59473Y-48150D01*
G37*
G36*
X59250Y-47927D02*
X59694Y-47483D01*
X59961Y-47750D01*
X59517Y-48194D01*
X59250Y-47927D01*
X59250Y-47927D01*
G37*
G36*
X59027Y-47704D02*
X59471Y-47260D01*
X59738Y-47527D01*
X59294Y-47971D01*
X59027Y-47704D01*
X59027Y-47704D01*
G37*
G36*
X58805Y-47481D02*
X59248Y-47038D01*
X59515Y-47305D01*
X59071Y-47748D01*
X58805Y-47481D01*
X58805Y-47481D01*
G37*
G36*
X58582Y-47259D02*
X59026Y-46815D01*
X59292Y-47082D01*
X58849Y-47526D01*
X58582Y-47259D01*
X58582Y-47259D01*
G37*
G54D29*
X57984Y-55881D03*
X58929Y-55881D03*
X58929Y-56255D03*
X57984Y-55507D03*
X57984Y-56255D03*
X58929Y-55507D03*
G54D30*
X67060Y-36400D03*
G54D31*
X67965Y-33959D03*
X67060Y-33959D03*
X66154Y-33959D03*
G54D32*
X68877Y-58281D03*
X68877Y-57281D03*
X68877Y-56281D03*
X68877Y-55281D03*
G54D24*
X48550Y-50020D03*
G54D25*
X49550Y-50020D03*
X48550Y-51020D03*
X49550Y-51020D03*
X48550Y-52020D03*
X49550Y-52020D03*
X48550Y-53020D03*
X49550Y-53020D03*
X48550Y-54020D03*
X49550Y-54020D03*
G54D33*
X66358Y-53366D03*
X66200Y-53366D03*
X66043Y-53366D03*
X65885Y-53366D03*
X65728Y-53366D03*
X65570Y-53366D03*
G54D34*
X65433Y-53503D03*
X65433Y-53661D03*
X65433Y-53818D03*
X65433Y-53976D03*
X65433Y-54133D03*
X65433Y-54291D03*
G54D35*
X65570Y-54429D03*
G54D33*
X65728Y-54429D03*
X65885Y-54429D03*
X66043Y-54429D03*
X66200Y-54429D03*
X66358Y-54429D03*
G54D34*
X66496Y-54291D03*
X66496Y-54133D03*
X66496Y-53976D03*
X66496Y-53818D03*
X66496Y-53661D03*
X66496Y-53503D03*
G54D36*
X67043Y-38000D03*
X68657Y-38000D03*
G54D37*
X51673Y-56338D03*
X51673Y-57952D03*
G54D38*
X67036Y-41296D03*
X67036Y-44911D03*
X68767Y-41296D03*
X68767Y-44911D03*
G54D39*
X60150Y-32520D03*
X60650Y-33270D03*
X61150Y-32520D03*
X64120Y-35100D03*
X63120Y-35100D03*
X63120Y-36100D03*
G54D40*
X68810Y-32330D03*
X67810Y-32330D03*
X51983Y-36177D03*
X51276Y-36885D03*
X53311Y-57968D03*
X53311Y-56968D03*
M02*
