%FSLAX34Y34*%
G04 Gerber Fmt 3.4, Leading zero omitted, Abs format*
G04 (created by PCBNEW (2014-03-19 BZR 4756)-product) date Sat 09 Aug 2014 11:49:59 AM PDT*
%MOIN*%
G01*
G70*
G90*
G04 APERTURE LIST*
%ADD10C,0.005906*%
%ADD11C,0.011811*%
%ADD12C,0.015748*%
%ADD13R,0.031496X0.068898*%
%ADD14O,0.110236X0.090551*%
%ADD15R,0.074803X0.090551*%
%ADD16C,0.072835*%
%ADD17C,0.078740*%
%ADD18C,0.051181*%
%ADD19C,0.106299*%
%ADD20R,0.049764X0.046732*%
%ADD21R,0.078740X0.090551*%
%ADD22R,0.046732X0.049764*%
%ADD23R,0.090551X0.078740*%
%ADD24R,0.045827X0.047244*%
%ADD25R,0.031496X0.045276*%
%ADD26R,0.075748X0.075748*%
%ADD27C,0.075748*%
%ADD28R,0.031496X0.094488*%
%ADD29R,0.031496X0.055118*%
%ADD30R,0.055118X0.031496*%
%ADD31R,0.068110X0.037795*%
%ADD32R,0.149606X0.102362*%
%ADD33R,0.062992X0.102362*%
%ADD34O,0.127748X0.071748*%
%ADD35R,0.024016X0.029528*%
%ADD36R,0.029528X0.024016*%
%ADD37R,0.023622X0.029528*%
%ADD38R,0.086548X0.082648*%
%ADD39R,0.082648X0.086548*%
%ADD40R,0.066848X0.098348*%
%ADD41C,0.067748*%
%ADD42C,0.086614*%
G04 APERTURE END LIST*
G54D10*
X69685Y-65357D02*
X69685Y-77955D01*
X112205Y-77955D01*
X112205Y-65357D01*
X69685Y-65357D01*
X3937Y-3937D02*
X3937Y-78742D01*
X112992Y-78742D01*
X112992Y-3937D01*
X3937Y-3937D01*
X4724Y-4724D02*
X4724Y-77955D01*
X112205Y-77955D01*
X112205Y-4724D01*
X4724Y-4724D01*
X23622Y-4724D02*
X23622Y-3937D01*
X43307Y-4724D02*
X43307Y-3937D01*
X62992Y-4724D02*
X62992Y-3937D01*
X82677Y-4724D02*
X82677Y-3937D01*
X102362Y-4724D02*
X102362Y-3937D01*
X14169Y-4562D02*
X13877Y-4562D01*
X14023Y-4562D02*
X14023Y-4050D01*
X13974Y-4123D01*
X13925Y-4172D01*
X13877Y-4196D01*
X33562Y-4099D02*
X33586Y-4074D01*
X33635Y-4050D01*
X33757Y-4050D01*
X33805Y-4074D01*
X33830Y-4099D01*
X33854Y-4147D01*
X33854Y-4196D01*
X33830Y-4269D01*
X33537Y-4562D01*
X33854Y-4562D01*
X53222Y-4050D02*
X53539Y-4050D01*
X53368Y-4245D01*
X53442Y-4245D01*
X53490Y-4269D01*
X53515Y-4294D01*
X53539Y-4342D01*
X53539Y-4464D01*
X53515Y-4513D01*
X53490Y-4537D01*
X53442Y-4562D01*
X53295Y-4562D01*
X53247Y-4537D01*
X53222Y-4513D01*
X73175Y-4221D02*
X73175Y-4562D01*
X73053Y-4026D02*
X72932Y-4391D01*
X73248Y-4391D01*
X92885Y-4050D02*
X92641Y-4050D01*
X92617Y-4294D01*
X92641Y-4269D01*
X92690Y-4245D01*
X92812Y-4245D01*
X92860Y-4269D01*
X92885Y-4294D01*
X92909Y-4342D01*
X92909Y-4464D01*
X92885Y-4513D01*
X92860Y-4537D01*
X92812Y-4562D01*
X92690Y-4562D01*
X92641Y-4537D01*
X92617Y-4513D01*
X112545Y-4050D02*
X112448Y-4050D01*
X112399Y-4074D01*
X112375Y-4099D01*
X112326Y-4172D01*
X112302Y-4269D01*
X112302Y-4464D01*
X112326Y-4513D01*
X112350Y-4537D01*
X112399Y-4562D01*
X112497Y-4562D01*
X112545Y-4537D01*
X112570Y-4513D01*
X112594Y-4464D01*
X112594Y-4342D01*
X112570Y-4294D01*
X112545Y-4269D01*
X112497Y-4245D01*
X112399Y-4245D01*
X112350Y-4269D01*
X112326Y-4294D01*
X112302Y-4342D01*
X23622Y-77955D02*
X23622Y-78742D01*
X43307Y-77955D02*
X43307Y-78742D01*
X62992Y-77955D02*
X62992Y-78742D01*
X82677Y-77955D02*
X82677Y-78742D01*
X102362Y-77955D02*
X102362Y-78742D01*
X14169Y-78580D02*
X13877Y-78580D01*
X14023Y-78580D02*
X14023Y-78069D01*
X13974Y-78142D01*
X13925Y-78190D01*
X13877Y-78215D01*
X33562Y-78117D02*
X33586Y-78093D01*
X33635Y-78069D01*
X33757Y-78069D01*
X33805Y-78093D01*
X33830Y-78117D01*
X33854Y-78166D01*
X33854Y-78215D01*
X33830Y-78288D01*
X33537Y-78580D01*
X33854Y-78580D01*
X53222Y-78069D02*
X53539Y-78069D01*
X53368Y-78263D01*
X53442Y-78263D01*
X53490Y-78288D01*
X53515Y-78312D01*
X53539Y-78361D01*
X53539Y-78483D01*
X53515Y-78532D01*
X53490Y-78556D01*
X53442Y-78580D01*
X53295Y-78580D01*
X53247Y-78556D01*
X53222Y-78532D01*
X73175Y-78239D02*
X73175Y-78580D01*
X73053Y-78044D02*
X72932Y-78410D01*
X73248Y-78410D01*
X92885Y-78069D02*
X92641Y-78069D01*
X92617Y-78312D01*
X92641Y-78288D01*
X92690Y-78263D01*
X92812Y-78263D01*
X92860Y-78288D01*
X92885Y-78312D01*
X92909Y-78361D01*
X92909Y-78483D01*
X92885Y-78532D01*
X92860Y-78556D01*
X92812Y-78580D01*
X92690Y-78580D01*
X92641Y-78556D01*
X92617Y-78532D01*
X112545Y-78069D02*
X112448Y-78069D01*
X112399Y-78093D01*
X112375Y-78117D01*
X112326Y-78190D01*
X112302Y-78288D01*
X112302Y-78483D01*
X112326Y-78532D01*
X112350Y-78556D01*
X112399Y-78580D01*
X112497Y-78580D01*
X112545Y-78556D01*
X112570Y-78532D01*
X112594Y-78483D01*
X112594Y-78361D01*
X112570Y-78312D01*
X112545Y-78288D01*
X112497Y-78263D01*
X112399Y-78263D01*
X112350Y-78288D01*
X112326Y-78312D01*
X112302Y-78361D01*
X3937Y-23622D02*
X4724Y-23622D01*
X3937Y-43307D02*
X4724Y-43307D01*
X3937Y-62992D02*
X4724Y-62992D01*
X4208Y-13864D02*
X4452Y-13864D01*
X4160Y-14011D02*
X4330Y-13499D01*
X4501Y-14011D01*
X4367Y-33428D02*
X4440Y-33452D01*
X4464Y-33476D01*
X4489Y-33525D01*
X4489Y-33598D01*
X4464Y-33647D01*
X4440Y-33671D01*
X4391Y-33696D01*
X4196Y-33696D01*
X4196Y-33184D01*
X4367Y-33184D01*
X4416Y-33208D01*
X4440Y-33233D01*
X4464Y-33281D01*
X4464Y-33330D01*
X4440Y-33379D01*
X4416Y-33403D01*
X4367Y-33428D01*
X4196Y-33428D01*
X4489Y-53332D02*
X4464Y-53356D01*
X4391Y-53381D01*
X4342Y-53381D01*
X4269Y-53356D01*
X4221Y-53308D01*
X4196Y-53259D01*
X4172Y-53161D01*
X4172Y-53088D01*
X4196Y-52991D01*
X4221Y-52942D01*
X4269Y-52893D01*
X4342Y-52869D01*
X4391Y-52869D01*
X4464Y-52893D01*
X4489Y-52918D01*
X4196Y-73066D02*
X4196Y-72554D01*
X4318Y-72554D01*
X4391Y-72578D01*
X4440Y-72627D01*
X4464Y-72676D01*
X4489Y-72773D01*
X4489Y-72846D01*
X4464Y-72944D01*
X4440Y-72993D01*
X4391Y-73041D01*
X4318Y-73066D01*
X4196Y-73066D01*
X112992Y-23622D02*
X112205Y-23622D01*
X112992Y-43307D02*
X112205Y-43307D01*
X112992Y-62992D02*
X112205Y-62992D01*
X112477Y-13864D02*
X112721Y-13864D01*
X112428Y-14011D02*
X112599Y-13499D01*
X112769Y-14011D01*
X112635Y-33428D02*
X112708Y-33452D01*
X112733Y-33476D01*
X112757Y-33525D01*
X112757Y-33598D01*
X112733Y-33647D01*
X112708Y-33671D01*
X112660Y-33696D01*
X112465Y-33696D01*
X112465Y-33184D01*
X112635Y-33184D01*
X112684Y-33208D01*
X112708Y-33233D01*
X112733Y-33281D01*
X112733Y-33330D01*
X112708Y-33379D01*
X112684Y-33403D01*
X112635Y-33428D01*
X112465Y-33428D01*
X112757Y-53332D02*
X112733Y-53356D01*
X112660Y-53381D01*
X112611Y-53381D01*
X112538Y-53356D01*
X112489Y-53308D01*
X112465Y-53259D01*
X112440Y-53161D01*
X112440Y-53088D01*
X112465Y-52991D01*
X112489Y-52942D01*
X112538Y-52893D01*
X112611Y-52869D01*
X112660Y-52869D01*
X112733Y-52893D01*
X112757Y-52918D01*
X112465Y-73066D02*
X112465Y-72554D01*
X112587Y-72554D01*
X112660Y-72578D01*
X112708Y-72627D01*
X112733Y-72676D01*
X112757Y-72773D01*
X112757Y-72846D01*
X112733Y-72944D01*
X112708Y-72993D01*
X112660Y-73041D01*
X112587Y-73066D01*
X112465Y-73066D01*
X78881Y-76293D02*
X78881Y-75703D01*
X79022Y-75703D01*
X79106Y-75731D01*
X79162Y-75787D01*
X79190Y-75843D01*
X79219Y-75956D01*
X79219Y-76040D01*
X79190Y-76153D01*
X79162Y-76209D01*
X79106Y-76265D01*
X79022Y-76293D01*
X78881Y-76293D01*
X79725Y-76293D02*
X79725Y-75984D01*
X79697Y-75928D01*
X79640Y-75899D01*
X79528Y-75899D01*
X79472Y-75928D01*
X79725Y-76265D02*
X79669Y-76293D01*
X79528Y-76293D01*
X79472Y-76265D01*
X79444Y-76209D01*
X79444Y-76153D01*
X79472Y-76096D01*
X79528Y-76068D01*
X79669Y-76068D01*
X79725Y-76040D01*
X79922Y-75899D02*
X80147Y-75899D01*
X80006Y-75703D02*
X80006Y-76209D01*
X80034Y-76265D01*
X80090Y-76293D01*
X80147Y-76293D01*
X80568Y-76265D02*
X80512Y-76293D01*
X80400Y-76293D01*
X80343Y-76265D01*
X80315Y-76209D01*
X80315Y-75984D01*
X80343Y-75928D01*
X80400Y-75899D01*
X80512Y-75899D01*
X80568Y-75928D01*
X80597Y-75984D01*
X80597Y-76040D01*
X80315Y-76096D01*
X80850Y-76237D02*
X80878Y-76265D01*
X80850Y-76293D01*
X80822Y-76265D01*
X80850Y-76237D01*
X80850Y-76293D01*
X80850Y-75928D02*
X80878Y-75956D01*
X80850Y-75984D01*
X80822Y-75956D01*
X80850Y-75928D01*
X80850Y-75984D01*
X69685Y-76577D02*
X112205Y-76577D01*
X70220Y-77395D02*
X70220Y-76805D01*
X70557Y-77395D02*
X70304Y-77058D01*
X70557Y-76805D02*
X70220Y-77142D01*
X70810Y-77395D02*
X70810Y-77002D01*
X70810Y-76805D02*
X70782Y-76833D01*
X70810Y-76861D01*
X70838Y-76833D01*
X70810Y-76805D01*
X70810Y-76861D01*
X71429Y-77339D02*
X71401Y-77367D01*
X71316Y-77395D01*
X71260Y-77395D01*
X71176Y-77367D01*
X71120Y-77311D01*
X71091Y-77255D01*
X71063Y-77142D01*
X71063Y-77058D01*
X71091Y-76946D01*
X71120Y-76889D01*
X71176Y-76833D01*
X71260Y-76805D01*
X71316Y-76805D01*
X71401Y-76833D01*
X71429Y-76861D01*
X71935Y-77395D02*
X71935Y-77086D01*
X71907Y-77030D01*
X71851Y-77002D01*
X71738Y-77002D01*
X71682Y-77030D01*
X71935Y-77367D02*
X71879Y-77395D01*
X71738Y-77395D01*
X71682Y-77367D01*
X71654Y-77311D01*
X71654Y-77255D01*
X71682Y-77199D01*
X71738Y-77171D01*
X71879Y-77171D01*
X71935Y-77142D01*
X72469Y-77395D02*
X72469Y-76805D01*
X72469Y-77367D02*
X72413Y-77395D01*
X72301Y-77395D01*
X72244Y-77367D01*
X72216Y-77339D01*
X72188Y-77283D01*
X72188Y-77114D01*
X72216Y-77058D01*
X72244Y-77030D01*
X72301Y-77002D01*
X72413Y-77002D01*
X72469Y-77030D01*
X73201Y-77086D02*
X73397Y-77086D01*
X73482Y-77395D02*
X73201Y-77395D01*
X73201Y-76805D01*
X73482Y-76805D01*
X73735Y-77339D02*
X73763Y-77367D01*
X73735Y-77395D01*
X73707Y-77367D01*
X73735Y-77339D01*
X73735Y-77395D01*
X74016Y-77395D02*
X74016Y-76805D01*
X74157Y-76805D01*
X74241Y-76833D01*
X74297Y-76889D01*
X74325Y-76946D01*
X74354Y-77058D01*
X74354Y-77142D01*
X74325Y-77255D01*
X74297Y-77311D01*
X74241Y-77367D01*
X74157Y-77395D01*
X74016Y-77395D01*
X74607Y-77339D02*
X74635Y-77367D01*
X74607Y-77395D01*
X74579Y-77367D01*
X74607Y-77339D01*
X74607Y-77395D01*
X74860Y-77227D02*
X75141Y-77227D01*
X74804Y-77395D02*
X75000Y-76805D01*
X75197Y-77395D01*
X75394Y-77339D02*
X75422Y-77367D01*
X75394Y-77395D01*
X75366Y-77367D01*
X75394Y-77339D01*
X75394Y-77395D01*
X76575Y-77002D02*
X76575Y-77592D01*
X76575Y-77030D02*
X76631Y-77002D01*
X76744Y-77002D01*
X76800Y-77030D01*
X76828Y-77058D01*
X76856Y-77114D01*
X76856Y-77283D01*
X76828Y-77339D01*
X76800Y-77367D01*
X76744Y-77395D01*
X76631Y-77395D01*
X76575Y-77367D01*
X77363Y-77367D02*
X77306Y-77395D01*
X77194Y-77395D01*
X77138Y-77367D01*
X77109Y-77339D01*
X77081Y-77283D01*
X77081Y-77114D01*
X77109Y-77058D01*
X77138Y-77030D01*
X77194Y-77002D01*
X77306Y-77002D01*
X77363Y-77030D01*
X77616Y-77395D02*
X77616Y-76805D01*
X77616Y-77030D02*
X77672Y-77002D01*
X77784Y-77002D01*
X77841Y-77030D01*
X77869Y-77058D01*
X77897Y-77114D01*
X77897Y-77283D01*
X77869Y-77339D01*
X77841Y-77367D01*
X77784Y-77395D01*
X77672Y-77395D01*
X77616Y-77367D01*
X78150Y-77002D02*
X78150Y-77395D01*
X78150Y-77058D02*
X78178Y-77030D01*
X78234Y-77002D01*
X78319Y-77002D01*
X78375Y-77030D01*
X78403Y-77086D01*
X78403Y-77395D01*
X78909Y-77367D02*
X78853Y-77395D01*
X78741Y-77395D01*
X78684Y-77367D01*
X78656Y-77311D01*
X78656Y-77086D01*
X78684Y-77030D01*
X78741Y-77002D01*
X78853Y-77002D01*
X78909Y-77030D01*
X78937Y-77086D01*
X78937Y-77142D01*
X78656Y-77199D01*
X79134Y-77002D02*
X79247Y-77395D01*
X79359Y-77114D01*
X79472Y-77395D01*
X79584Y-77002D01*
X80428Y-77620D02*
X80400Y-77592D01*
X80343Y-77508D01*
X80315Y-77452D01*
X80287Y-77367D01*
X80259Y-77227D01*
X80259Y-77114D01*
X80287Y-76974D01*
X80315Y-76889D01*
X80343Y-76833D01*
X80400Y-76749D01*
X80428Y-76721D01*
X80625Y-76861D02*
X80653Y-76833D01*
X80709Y-76805D01*
X80850Y-76805D01*
X80906Y-76833D01*
X80934Y-76861D01*
X80962Y-76917D01*
X80962Y-76974D01*
X80934Y-77058D01*
X80597Y-77395D01*
X80962Y-77395D01*
X81328Y-76805D02*
X81384Y-76805D01*
X81440Y-76833D01*
X81468Y-76861D01*
X81496Y-76917D01*
X81525Y-77030D01*
X81525Y-77171D01*
X81496Y-77283D01*
X81468Y-77339D01*
X81440Y-77367D01*
X81384Y-77395D01*
X81328Y-77395D01*
X81271Y-77367D01*
X81243Y-77339D01*
X81215Y-77283D01*
X81187Y-77171D01*
X81187Y-77030D01*
X81215Y-76917D01*
X81243Y-76861D01*
X81271Y-76833D01*
X81328Y-76805D01*
X82087Y-77395D02*
X81750Y-77395D01*
X81918Y-77395D02*
X81918Y-76805D01*
X81862Y-76889D01*
X81806Y-76946D01*
X81750Y-76974D01*
X82593Y-77002D02*
X82593Y-77395D01*
X82453Y-76777D02*
X82312Y-77199D01*
X82678Y-77199D01*
X82903Y-77171D02*
X83352Y-77171D01*
X83746Y-76805D02*
X83802Y-76805D01*
X83859Y-76833D01*
X83887Y-76861D01*
X83915Y-76917D01*
X83943Y-77030D01*
X83943Y-77171D01*
X83915Y-77283D01*
X83887Y-77339D01*
X83859Y-77367D01*
X83802Y-77395D01*
X83746Y-77395D01*
X83690Y-77367D01*
X83662Y-77339D01*
X83634Y-77283D01*
X83606Y-77171D01*
X83606Y-77030D01*
X83634Y-76917D01*
X83662Y-76861D01*
X83690Y-76833D01*
X83746Y-76805D01*
X84140Y-76805D02*
X84505Y-76805D01*
X84309Y-77030D01*
X84393Y-77030D01*
X84449Y-77058D01*
X84477Y-77086D01*
X84505Y-77142D01*
X84505Y-77283D01*
X84477Y-77339D01*
X84449Y-77367D01*
X84393Y-77395D01*
X84224Y-77395D01*
X84168Y-77367D01*
X84140Y-77339D01*
X84759Y-77171D02*
X85208Y-77171D01*
X85799Y-77395D02*
X85462Y-77395D01*
X85630Y-77395D02*
X85630Y-76805D01*
X85574Y-76889D01*
X85518Y-76946D01*
X85462Y-76974D01*
X86080Y-77395D02*
X86193Y-77395D01*
X86249Y-77367D01*
X86277Y-77339D01*
X86333Y-77255D01*
X86361Y-77142D01*
X86361Y-76917D01*
X86333Y-76861D01*
X86305Y-76833D01*
X86249Y-76805D01*
X86136Y-76805D01*
X86080Y-76833D01*
X86052Y-76861D01*
X86024Y-76917D01*
X86024Y-77058D01*
X86052Y-77114D01*
X86080Y-77142D01*
X86136Y-77171D01*
X86249Y-77171D01*
X86305Y-77142D01*
X86333Y-77114D01*
X86361Y-77058D01*
X87261Y-77086D02*
X87346Y-77114D01*
X87374Y-77142D01*
X87402Y-77199D01*
X87402Y-77283D01*
X87374Y-77339D01*
X87346Y-77367D01*
X87289Y-77395D01*
X87064Y-77395D01*
X87064Y-76805D01*
X87261Y-76805D01*
X87318Y-76833D01*
X87346Y-76861D01*
X87374Y-76917D01*
X87374Y-76974D01*
X87346Y-77030D01*
X87318Y-77058D01*
X87261Y-77086D01*
X87064Y-77086D01*
X87599Y-76805D02*
X87992Y-76805D01*
X87599Y-77395D01*
X87992Y-77395D01*
X88555Y-77395D02*
X88358Y-77114D01*
X88217Y-77395D02*
X88217Y-76805D01*
X88442Y-76805D01*
X88499Y-76833D01*
X88527Y-76861D01*
X88555Y-76917D01*
X88555Y-77002D01*
X88527Y-77058D01*
X88499Y-77086D01*
X88442Y-77114D01*
X88217Y-77114D01*
X89511Y-77002D02*
X89511Y-77395D01*
X89370Y-76777D02*
X89230Y-77199D01*
X89595Y-77199D01*
X89764Y-76805D02*
X90158Y-76805D01*
X89905Y-77395D01*
X90664Y-76805D02*
X90383Y-76805D01*
X90355Y-77086D01*
X90383Y-77058D01*
X90439Y-77030D01*
X90580Y-77030D01*
X90636Y-77058D01*
X90664Y-77086D01*
X90692Y-77142D01*
X90692Y-77283D01*
X90664Y-77339D01*
X90636Y-77367D01*
X90580Y-77395D01*
X90439Y-77395D01*
X90383Y-77367D01*
X90355Y-77339D01*
X91198Y-76805D02*
X91086Y-76805D01*
X91030Y-76833D01*
X91001Y-76861D01*
X90945Y-76946D01*
X90917Y-77058D01*
X90917Y-77283D01*
X90945Y-77339D01*
X90973Y-77367D01*
X91030Y-77395D01*
X91142Y-77395D01*
X91198Y-77367D01*
X91226Y-77339D01*
X91255Y-77283D01*
X91255Y-77142D01*
X91226Y-77086D01*
X91198Y-77058D01*
X91142Y-77030D01*
X91030Y-77030D01*
X90973Y-77058D01*
X90945Y-77086D01*
X90917Y-77142D01*
X91451Y-77620D02*
X91480Y-77592D01*
X91536Y-77508D01*
X91564Y-77452D01*
X91592Y-77367D01*
X91620Y-77227D01*
X91620Y-77114D01*
X91592Y-76974D01*
X91564Y-76889D01*
X91536Y-76833D01*
X91480Y-76749D01*
X91451Y-76721D01*
X91901Y-77171D02*
X92351Y-77171D01*
X92633Y-77002D02*
X92633Y-77592D01*
X92633Y-77030D02*
X92689Y-77002D01*
X92801Y-77002D01*
X92858Y-77030D01*
X92886Y-77058D01*
X92914Y-77114D01*
X92914Y-77283D01*
X92886Y-77339D01*
X92858Y-77367D01*
X92801Y-77395D01*
X92689Y-77395D01*
X92633Y-77367D01*
X93167Y-77395D02*
X93167Y-77002D01*
X93167Y-77114D02*
X93195Y-77058D01*
X93223Y-77030D01*
X93279Y-77002D01*
X93336Y-77002D01*
X93617Y-77395D02*
X93561Y-77367D01*
X93532Y-77339D01*
X93504Y-77283D01*
X93504Y-77114D01*
X93532Y-77058D01*
X93561Y-77030D01*
X93617Y-77002D01*
X93701Y-77002D01*
X93757Y-77030D01*
X93786Y-77058D01*
X93814Y-77114D01*
X93814Y-77283D01*
X93786Y-77339D01*
X93757Y-77367D01*
X93701Y-77395D01*
X93617Y-77395D01*
X94320Y-77395D02*
X94320Y-76805D01*
X94320Y-77367D02*
X94264Y-77395D01*
X94151Y-77395D01*
X94095Y-77367D01*
X94067Y-77339D01*
X94039Y-77283D01*
X94039Y-77114D01*
X94067Y-77058D01*
X94095Y-77030D01*
X94151Y-77002D01*
X94264Y-77002D01*
X94320Y-77030D01*
X94854Y-77002D02*
X94854Y-77395D01*
X94601Y-77002D02*
X94601Y-77311D01*
X94629Y-77367D01*
X94685Y-77395D01*
X94770Y-77395D01*
X94826Y-77367D01*
X94854Y-77339D01*
X95388Y-77367D02*
X95332Y-77395D01*
X95220Y-77395D01*
X95163Y-77367D01*
X95135Y-77339D01*
X95107Y-77283D01*
X95107Y-77114D01*
X95135Y-77058D01*
X95163Y-77030D01*
X95220Y-77002D01*
X95332Y-77002D01*
X95388Y-77030D01*
X95557Y-77002D02*
X95782Y-77002D01*
X95642Y-76805D02*
X95642Y-77311D01*
X95670Y-77367D01*
X95726Y-77395D01*
X95782Y-77395D01*
X69685Y-75396D02*
X112205Y-75396D01*
G54D11*
X104022Y-76293D02*
X103825Y-76012D01*
X103684Y-76293D02*
X103684Y-75703D01*
X103909Y-75703D01*
X103965Y-75731D01*
X103994Y-75759D01*
X104022Y-75815D01*
X104022Y-75899D01*
X103994Y-75956D01*
X103965Y-75984D01*
X103909Y-76012D01*
X103684Y-76012D01*
X104500Y-76265D02*
X104444Y-76293D01*
X104331Y-76293D01*
X104275Y-76265D01*
X104247Y-76209D01*
X104247Y-75984D01*
X104275Y-75928D01*
X104331Y-75899D01*
X104444Y-75899D01*
X104500Y-75928D01*
X104528Y-75984D01*
X104528Y-76040D01*
X104247Y-76096D01*
X104725Y-75899D02*
X104865Y-76293D01*
X105006Y-75899D01*
X105231Y-76237D02*
X105259Y-76265D01*
X105231Y-76293D01*
X105203Y-76265D01*
X105231Y-76237D01*
X105231Y-76293D01*
X105231Y-75928D02*
X105259Y-75956D01*
X105231Y-75984D01*
X105203Y-75956D01*
X105231Y-75928D01*
X105231Y-75984D01*
G54D10*
X70192Y-76265D02*
X70276Y-76293D01*
X70417Y-76293D01*
X70473Y-76265D01*
X70501Y-76237D01*
X70529Y-76181D01*
X70529Y-76124D01*
X70501Y-76068D01*
X70473Y-76040D01*
X70417Y-76012D01*
X70304Y-75984D01*
X70248Y-75956D01*
X70220Y-75928D01*
X70192Y-75871D01*
X70192Y-75815D01*
X70220Y-75759D01*
X70248Y-75731D01*
X70304Y-75703D01*
X70445Y-75703D01*
X70529Y-75731D01*
X70782Y-76293D02*
X70782Y-75899D01*
X70782Y-75703D02*
X70754Y-75731D01*
X70782Y-75759D01*
X70810Y-75731D01*
X70782Y-75703D01*
X70782Y-75759D01*
X71007Y-75899D02*
X71316Y-75899D01*
X71007Y-76293D01*
X71316Y-76293D01*
X71766Y-76265D02*
X71710Y-76293D01*
X71598Y-76293D01*
X71541Y-76265D01*
X71513Y-76209D01*
X71513Y-75984D01*
X71541Y-75928D01*
X71598Y-75899D01*
X71710Y-75899D01*
X71766Y-75928D01*
X71795Y-75984D01*
X71795Y-76040D01*
X71513Y-76096D01*
X72048Y-76237D02*
X72076Y-76265D01*
X72048Y-76293D01*
X72019Y-76265D01*
X72048Y-76237D01*
X72048Y-76293D01*
X72048Y-75928D02*
X72076Y-75956D01*
X72048Y-75984D01*
X72019Y-75956D01*
X72048Y-75928D01*
X72048Y-75984D01*
X72751Y-76124D02*
X73032Y-76124D01*
X72694Y-76293D02*
X72891Y-75703D01*
X73088Y-76293D01*
X73538Y-75899D02*
X73538Y-76293D01*
X73397Y-75674D02*
X73257Y-76096D01*
X73622Y-76096D01*
X103684Y-77395D02*
X103684Y-76805D01*
X104219Y-77395D02*
X104219Y-76805D01*
X104219Y-77367D02*
X104162Y-77395D01*
X104050Y-77395D01*
X103994Y-77367D01*
X103965Y-77339D01*
X103937Y-77283D01*
X103937Y-77114D01*
X103965Y-77058D01*
X103994Y-77030D01*
X104050Y-77002D01*
X104162Y-77002D01*
X104219Y-77030D01*
X104500Y-77339D02*
X104528Y-77367D01*
X104500Y-77395D01*
X104472Y-77367D01*
X104500Y-77339D01*
X104500Y-77395D01*
X104500Y-77030D02*
X104528Y-77058D01*
X104500Y-77086D01*
X104472Y-77058D01*
X104500Y-77030D01*
X104500Y-77086D01*
X105540Y-77395D02*
X105203Y-77395D01*
X105372Y-77395D02*
X105372Y-76805D01*
X105315Y-76889D01*
X105259Y-76946D01*
X105203Y-76974D01*
X106215Y-76777D02*
X105709Y-77536D01*
X106721Y-77395D02*
X106384Y-77395D01*
X106553Y-77395D02*
X106553Y-76805D01*
X106496Y-76889D01*
X106440Y-76946D01*
X106384Y-76974D01*
X69685Y-73821D02*
X112205Y-73821D01*
G54D12*
X70257Y-74099D02*
X70707Y-74099D01*
X70384Y-74886D02*
X70482Y-74099D01*
X70871Y-74886D02*
X70937Y-74361D01*
X70970Y-74099D02*
X70927Y-74136D01*
X70960Y-74174D01*
X71002Y-74136D01*
X70970Y-74099D01*
X70960Y-74174D01*
X71199Y-74361D02*
X71499Y-74361D01*
X71345Y-74099D02*
X71260Y-74774D01*
X71288Y-74849D01*
X71359Y-74886D01*
X71434Y-74886D01*
X71809Y-74886D02*
X71738Y-74849D01*
X71710Y-74774D01*
X71795Y-74099D01*
X72413Y-74849D02*
X72334Y-74886D01*
X72184Y-74886D01*
X72113Y-74849D01*
X72085Y-74774D01*
X72123Y-74474D01*
X72169Y-74399D01*
X72249Y-74361D01*
X72399Y-74361D01*
X72469Y-74399D01*
X72498Y-74474D01*
X72488Y-74549D01*
X72104Y-74624D01*
X72793Y-74811D02*
X72826Y-74849D01*
X72783Y-74886D01*
X72751Y-74849D01*
X72793Y-74811D01*
X72783Y-74886D01*
X72844Y-74399D02*
X72877Y-74436D01*
X72835Y-74474D01*
X72802Y-74436D01*
X72844Y-74399D01*
X72835Y-74474D01*
G54D10*
X70417Y-73070D02*
X70220Y-73070D01*
X70220Y-73380D02*
X70220Y-72789D01*
X70501Y-72789D01*
X70726Y-73380D02*
X70726Y-72986D01*
X70726Y-72789D02*
X70698Y-72817D01*
X70726Y-72845D01*
X70754Y-72817D01*
X70726Y-72789D01*
X70726Y-72845D01*
X71091Y-73380D02*
X71035Y-73352D01*
X71007Y-73295D01*
X71007Y-72789D01*
X71541Y-73352D02*
X71485Y-73380D01*
X71373Y-73380D01*
X71316Y-73352D01*
X71288Y-73295D01*
X71288Y-73070D01*
X71316Y-73014D01*
X71373Y-72986D01*
X71485Y-72986D01*
X71541Y-73014D01*
X71570Y-73070D01*
X71570Y-73127D01*
X71288Y-73183D01*
X71823Y-73323D02*
X71851Y-73352D01*
X71823Y-73380D01*
X71795Y-73352D01*
X71823Y-73323D01*
X71823Y-73380D01*
X71823Y-73014D02*
X71851Y-73042D01*
X71823Y-73070D01*
X71795Y-73042D01*
X71823Y-73014D01*
X71823Y-73070D01*
X72526Y-73352D02*
X72582Y-73380D01*
X72694Y-73380D01*
X72751Y-73352D01*
X72779Y-73295D01*
X72779Y-73267D01*
X72751Y-73211D01*
X72694Y-73183D01*
X72610Y-73183D01*
X72554Y-73155D01*
X72526Y-73099D01*
X72526Y-73070D01*
X72554Y-73014D01*
X72610Y-72986D01*
X72694Y-72986D01*
X72751Y-73014D01*
X72947Y-72986D02*
X73172Y-72986D01*
X73032Y-72789D02*
X73032Y-73295D01*
X73060Y-73352D01*
X73116Y-73380D01*
X73172Y-73380D01*
X73594Y-73352D02*
X73538Y-73380D01*
X73426Y-73380D01*
X73369Y-73352D01*
X73341Y-73295D01*
X73341Y-73070D01*
X73369Y-73014D01*
X73426Y-72986D01*
X73538Y-72986D01*
X73594Y-73014D01*
X73622Y-73070D01*
X73622Y-73127D01*
X73341Y-73183D01*
X73876Y-73380D02*
X73876Y-72986D01*
X73876Y-73099D02*
X73904Y-73042D01*
X73932Y-73014D01*
X73988Y-72986D01*
X74044Y-72986D01*
X74466Y-73352D02*
X74410Y-73380D01*
X74297Y-73380D01*
X74241Y-73352D01*
X74213Y-73295D01*
X74213Y-73070D01*
X74241Y-73014D01*
X74297Y-72986D01*
X74410Y-72986D01*
X74466Y-73014D01*
X74494Y-73070D01*
X74494Y-73127D01*
X74213Y-73183D01*
X74832Y-73380D02*
X74775Y-73352D01*
X74747Y-73323D01*
X74719Y-73267D01*
X74719Y-73099D01*
X74747Y-73042D01*
X74775Y-73014D01*
X74832Y-72986D01*
X74916Y-72986D01*
X74972Y-73014D01*
X75000Y-73042D01*
X75028Y-73099D01*
X75028Y-73267D01*
X75000Y-73323D01*
X74972Y-73352D01*
X74916Y-73380D01*
X74832Y-73380D01*
X75282Y-73155D02*
X75732Y-73155D01*
X76266Y-73352D02*
X76210Y-73380D01*
X76097Y-73380D01*
X76041Y-73352D01*
X76013Y-73323D01*
X75985Y-73267D01*
X75985Y-73099D01*
X76013Y-73042D01*
X76041Y-73014D01*
X76097Y-72986D01*
X76210Y-72986D01*
X76266Y-73014D01*
X76772Y-73380D02*
X76772Y-73070D01*
X76744Y-73014D01*
X76688Y-72986D01*
X76575Y-72986D01*
X76519Y-73014D01*
X76772Y-73352D02*
X76716Y-73380D01*
X76575Y-73380D01*
X76519Y-73352D01*
X76491Y-73295D01*
X76491Y-73239D01*
X76519Y-73183D01*
X76575Y-73155D01*
X76716Y-73155D01*
X76772Y-73127D01*
X77053Y-73380D02*
X77053Y-72986D01*
X77053Y-73042D02*
X77081Y-73014D01*
X77138Y-72986D01*
X77222Y-72986D01*
X77278Y-73014D01*
X77306Y-73070D01*
X77306Y-73380D01*
X77306Y-73070D02*
X77334Y-73014D01*
X77391Y-72986D01*
X77475Y-72986D01*
X77531Y-73014D01*
X77559Y-73070D01*
X77559Y-73380D01*
X78066Y-73352D02*
X78009Y-73380D01*
X77897Y-73380D01*
X77841Y-73352D01*
X77813Y-73295D01*
X77813Y-73070D01*
X77841Y-73014D01*
X77897Y-72986D01*
X78009Y-72986D01*
X78066Y-73014D01*
X78094Y-73070D01*
X78094Y-73127D01*
X77813Y-73183D01*
X78347Y-73380D02*
X78347Y-72986D01*
X78347Y-73099D02*
X78375Y-73042D01*
X78403Y-73014D01*
X78459Y-72986D01*
X78516Y-72986D01*
X78965Y-73380D02*
X78965Y-73070D01*
X78937Y-73014D01*
X78881Y-72986D01*
X78769Y-72986D01*
X78712Y-73014D01*
X78965Y-73352D02*
X78909Y-73380D01*
X78769Y-73380D01*
X78712Y-73352D01*
X78684Y-73295D01*
X78684Y-73239D01*
X78712Y-73183D01*
X78769Y-73155D01*
X78909Y-73155D01*
X78965Y-73127D01*
X79247Y-73155D02*
X79697Y-73155D01*
X79978Y-73380D02*
X79978Y-72789D01*
X79978Y-73014D02*
X80034Y-72986D01*
X80147Y-72986D01*
X80203Y-73014D01*
X80231Y-73042D01*
X80259Y-73099D01*
X80259Y-73267D01*
X80231Y-73323D01*
X80203Y-73352D01*
X80147Y-73380D01*
X80034Y-73380D01*
X79978Y-73352D01*
X80597Y-73380D02*
X80540Y-73352D01*
X80512Y-73323D01*
X80484Y-73267D01*
X80484Y-73099D01*
X80512Y-73042D01*
X80540Y-73014D01*
X80597Y-72986D01*
X80681Y-72986D01*
X80737Y-73014D01*
X80765Y-73042D01*
X80793Y-73099D01*
X80793Y-73267D01*
X80765Y-73323D01*
X80737Y-73352D01*
X80681Y-73380D01*
X80597Y-73380D01*
X81300Y-73380D02*
X81300Y-73070D01*
X81271Y-73014D01*
X81215Y-72986D01*
X81103Y-72986D01*
X81046Y-73014D01*
X81300Y-73352D02*
X81243Y-73380D01*
X81103Y-73380D01*
X81046Y-73352D01*
X81018Y-73295D01*
X81018Y-73239D01*
X81046Y-73183D01*
X81103Y-73155D01*
X81243Y-73155D01*
X81300Y-73127D01*
X81581Y-73380D02*
X81581Y-72986D01*
X81581Y-73099D02*
X81609Y-73042D01*
X81637Y-73014D01*
X81693Y-72986D01*
X81750Y-72986D01*
X82199Y-73380D02*
X82199Y-72789D01*
X82199Y-73352D02*
X82143Y-73380D01*
X82031Y-73380D01*
X81974Y-73352D01*
X81946Y-73323D01*
X81918Y-73267D01*
X81918Y-73099D01*
X81946Y-73042D01*
X81974Y-73014D01*
X82031Y-72986D01*
X82143Y-72986D01*
X82199Y-73014D01*
X82481Y-73323D02*
X82509Y-73352D01*
X82481Y-73380D01*
X82453Y-73352D01*
X82481Y-73323D01*
X82481Y-73380D01*
X82762Y-73380D02*
X82762Y-72789D01*
X82818Y-73155D02*
X82987Y-73380D01*
X82987Y-72986D02*
X82762Y-73211D01*
X83240Y-73380D02*
X83240Y-72986D01*
X83240Y-72789D02*
X83212Y-72817D01*
X83240Y-72845D01*
X83268Y-72817D01*
X83240Y-72789D01*
X83240Y-72845D01*
X83774Y-73352D02*
X83718Y-73380D01*
X83606Y-73380D01*
X83549Y-73352D01*
X83521Y-73323D01*
X83493Y-73267D01*
X83493Y-73099D01*
X83521Y-73042D01*
X83549Y-73014D01*
X83606Y-72986D01*
X83718Y-72986D01*
X83774Y-73014D01*
X84280Y-73380D02*
X84280Y-73070D01*
X84252Y-73014D01*
X84196Y-72986D01*
X84084Y-72986D01*
X84027Y-73014D01*
X84280Y-73352D02*
X84224Y-73380D01*
X84084Y-73380D01*
X84027Y-73352D01*
X83999Y-73295D01*
X83999Y-73239D01*
X84027Y-73183D01*
X84084Y-73155D01*
X84224Y-73155D01*
X84280Y-73127D01*
X84815Y-73380D02*
X84815Y-72789D01*
X84815Y-73352D02*
X84759Y-73380D01*
X84646Y-73380D01*
X84590Y-73352D01*
X84562Y-73323D01*
X84534Y-73267D01*
X84534Y-73099D01*
X84562Y-73042D01*
X84590Y-73014D01*
X84646Y-72986D01*
X84759Y-72986D01*
X84815Y-73014D01*
X84955Y-73436D02*
X85405Y-73436D01*
X85546Y-72986D02*
X85546Y-73577D01*
X85546Y-73014D02*
X85602Y-72986D01*
X85715Y-72986D01*
X85771Y-73014D01*
X85799Y-73042D01*
X85827Y-73099D01*
X85827Y-73267D01*
X85799Y-73323D01*
X85771Y-73352D01*
X85715Y-73380D01*
X85602Y-73380D01*
X85546Y-73352D01*
X86333Y-73352D02*
X86277Y-73380D01*
X86165Y-73380D01*
X86108Y-73352D01*
X86080Y-73323D01*
X86052Y-73267D01*
X86052Y-73099D01*
X86080Y-73042D01*
X86108Y-73014D01*
X86165Y-72986D01*
X86277Y-72986D01*
X86333Y-73014D01*
X86586Y-73380D02*
X86586Y-72789D01*
X86586Y-73014D02*
X86643Y-72986D01*
X86755Y-72986D01*
X86811Y-73014D01*
X86840Y-73042D01*
X86868Y-73099D01*
X86868Y-73267D01*
X86840Y-73323D01*
X86811Y-73352D01*
X86755Y-73380D01*
X86643Y-73380D01*
X86586Y-73352D01*
X69685Y-71459D02*
X112205Y-71459D01*
X70192Y-72289D02*
X70276Y-72317D01*
X70417Y-72317D01*
X70473Y-72289D01*
X70501Y-72260D01*
X70529Y-72204D01*
X70529Y-72148D01*
X70501Y-72092D01*
X70473Y-72064D01*
X70417Y-72036D01*
X70304Y-72007D01*
X70248Y-71979D01*
X70220Y-71951D01*
X70192Y-71895D01*
X70192Y-71839D01*
X70220Y-71782D01*
X70248Y-71754D01*
X70304Y-71726D01*
X70445Y-71726D01*
X70529Y-71754D01*
X70782Y-72317D02*
X70782Y-71726D01*
X71035Y-72317D02*
X71035Y-72007D01*
X71007Y-71951D01*
X70951Y-71923D01*
X70867Y-71923D01*
X70810Y-71951D01*
X70782Y-71979D01*
X71541Y-72289D02*
X71485Y-72317D01*
X71373Y-72317D01*
X71316Y-72289D01*
X71288Y-72232D01*
X71288Y-72007D01*
X71316Y-71951D01*
X71373Y-71923D01*
X71485Y-71923D01*
X71541Y-71951D01*
X71570Y-72007D01*
X71570Y-72064D01*
X71288Y-72120D01*
X72048Y-72289D02*
X71991Y-72317D01*
X71879Y-72317D01*
X71823Y-72289D01*
X71795Y-72232D01*
X71795Y-72007D01*
X71823Y-71951D01*
X71879Y-71923D01*
X71991Y-71923D01*
X72048Y-71951D01*
X72076Y-72007D01*
X72076Y-72064D01*
X71795Y-72120D01*
X72244Y-71923D02*
X72469Y-71923D01*
X72329Y-71726D02*
X72329Y-72232D01*
X72357Y-72289D01*
X72413Y-72317D01*
X72469Y-72317D01*
X72666Y-72260D02*
X72694Y-72289D01*
X72666Y-72317D01*
X72638Y-72289D01*
X72666Y-72260D01*
X72666Y-72317D01*
X72666Y-71951D02*
X72694Y-71979D01*
X72666Y-72007D01*
X72638Y-71979D01*
X72666Y-71951D01*
X72666Y-72007D01*
X77559Y-75396D02*
X77559Y-76577D01*
X102756Y-75396D02*
X102756Y-77955D01*
G36*
X50636Y-34347D02*
X50052Y-33763D01*
X50664Y-33151D01*
X51248Y-33735D01*
X50636Y-34347D01*
X50636Y-34347D01*
G37*
G36*
X49495Y-35488D02*
X48911Y-34904D01*
X49523Y-34292D01*
X50107Y-34876D01*
X49495Y-35488D01*
X49495Y-35488D01*
G37*
G54D13*
X58846Y-57204D03*
G54D14*
X59968Y-58267D03*
X57212Y-58267D03*
G54D15*
X58196Y-58267D03*
X58984Y-58267D03*
G54D13*
X58078Y-57204D03*
X58334Y-57204D03*
X58590Y-57204D03*
X59102Y-57204D03*
G54D16*
X57606Y-57204D03*
X59574Y-57204D03*
G54D17*
X54133Y-42421D03*
X62795Y-42421D03*
G54D18*
X53243Y-39722D03*
X53800Y-39165D03*
X54357Y-38609D03*
X54913Y-38052D03*
X55470Y-37495D03*
X54913Y-37217D03*
X54218Y-37913D03*
X53661Y-38469D03*
X52965Y-39165D03*
G54D19*
X54321Y-34914D03*
X50663Y-38572D03*
X52244Y-40154D03*
X55902Y-36496D03*
G54D18*
X52074Y-38275D03*
X52770Y-37579D03*
X53327Y-37022D03*
X54023Y-36326D03*
X54579Y-36604D03*
X54023Y-37161D03*
X53466Y-37718D03*
X52909Y-38275D03*
X52352Y-38831D03*
G54D20*
X52775Y-47819D03*
X52775Y-48430D03*
G54D21*
X63819Y-32320D03*
X65040Y-32320D03*
G54D20*
X55669Y-43297D03*
X55669Y-42687D03*
G54D22*
X56633Y-39783D03*
X56023Y-39783D03*
X58366Y-39606D03*
X58976Y-39606D03*
G54D21*
X52667Y-52824D03*
X53887Y-52824D03*
G54D20*
X62990Y-37324D03*
X62990Y-37935D03*
X49500Y-44964D03*
X49500Y-45575D03*
X61259Y-40324D03*
X61259Y-40935D03*
X61259Y-41505D03*
X61259Y-42116D03*
X61259Y-42608D03*
X61259Y-43218D03*
G54D22*
X48054Y-45250D03*
X48665Y-45250D03*
G54D21*
X55187Y-54714D03*
X53966Y-54714D03*
G54D22*
X48244Y-42220D03*
X48855Y-42220D03*
G54D10*
G36*
X60283Y-54305D02*
X60635Y-54657D01*
X60305Y-54987D01*
X59953Y-54635D01*
X60283Y-54305D01*
X60283Y-54305D01*
G37*
G36*
X59852Y-54736D02*
X60204Y-55088D01*
X59873Y-55419D01*
X59521Y-55067D01*
X59852Y-54736D01*
X59852Y-54736D01*
G37*
G36*
X54535Y-48891D02*
X54887Y-49243D01*
X54557Y-49574D01*
X54205Y-49222D01*
X54535Y-48891D01*
X54535Y-48891D01*
G37*
G36*
X54104Y-49323D02*
X54456Y-49675D01*
X54125Y-50005D01*
X53773Y-49653D01*
X54104Y-49323D01*
X54104Y-49323D01*
G37*
G36*
X56265Y-53945D02*
X55913Y-54297D01*
X55583Y-53966D01*
X55935Y-53614D01*
X56265Y-53945D01*
X56265Y-53945D01*
G37*
G36*
X55834Y-53513D02*
X55482Y-53865D01*
X55151Y-53535D01*
X55503Y-53183D01*
X55834Y-53513D01*
X55834Y-53513D01*
G37*
G36*
X62508Y-52189D02*
X62860Y-52541D01*
X62529Y-52871D01*
X62177Y-52519D01*
X62508Y-52189D01*
X62508Y-52189D01*
G37*
G36*
X62076Y-52620D02*
X62428Y-52972D01*
X62098Y-53302D01*
X61746Y-52951D01*
X62076Y-52620D01*
X62076Y-52620D01*
G37*
G36*
X62663Y-49319D02*
X62311Y-49671D01*
X61980Y-49340D01*
X62332Y-48988D01*
X62663Y-49319D01*
X62663Y-49319D01*
G37*
G36*
X62231Y-48887D02*
X61879Y-49239D01*
X61549Y-48909D01*
X61901Y-48557D01*
X62231Y-48887D01*
X62231Y-48887D01*
G37*
G54D23*
X64421Y-47519D03*
X64421Y-46299D03*
G54D10*
G36*
X59777Y-47137D02*
X60129Y-46785D01*
X60460Y-47116D01*
X60108Y-47467D01*
X59777Y-47137D01*
X59777Y-47137D01*
G37*
G36*
X60209Y-47568D02*
X60561Y-47217D01*
X60891Y-47547D01*
X60539Y-47899D01*
X60209Y-47568D01*
X60209Y-47568D01*
G37*
G54D22*
X53167Y-33960D03*
X53777Y-33960D03*
G54D24*
X52350Y-42781D03*
X52727Y-42018D03*
X51972Y-42018D03*
G54D22*
X48685Y-44090D03*
X48074Y-44090D03*
X48726Y-41338D03*
X48116Y-41338D03*
X50196Y-57600D03*
X49586Y-57600D03*
G54D20*
X55232Y-57887D03*
X55232Y-57277D03*
G54D22*
X53171Y-33090D03*
X53781Y-33090D03*
X48159Y-40633D03*
X48769Y-40633D03*
X48096Y-39842D03*
X48706Y-39842D03*
G54D20*
X62870Y-33364D03*
X62870Y-33975D03*
G54D22*
X53246Y-43771D03*
X52635Y-43771D03*
X64294Y-33960D03*
X64905Y-33960D03*
X63695Y-39360D03*
X63084Y-39360D03*
G54D20*
X51176Y-53711D03*
X51176Y-54321D03*
X51951Y-53715D03*
X51951Y-54325D03*
G54D22*
X66354Y-54940D03*
X66965Y-54940D03*
X66210Y-52047D03*
X65600Y-52047D03*
G54D20*
X64990Y-53095D03*
X64990Y-52484D03*
X64429Y-53356D03*
X64429Y-53966D03*
G54D22*
X60242Y-56216D03*
X59631Y-56216D03*
X63080Y-40314D03*
X63690Y-40314D03*
G54D10*
G36*
X62387Y-47941D02*
X62035Y-48293D01*
X61705Y-47962D01*
X62057Y-47610D01*
X62387Y-47941D01*
X62387Y-47941D01*
G37*
G36*
X61956Y-47509D02*
X61604Y-47861D01*
X61273Y-47531D01*
X61625Y-47179D01*
X61956Y-47509D01*
X61956Y-47509D01*
G37*
G54D25*
X50855Y-46275D03*
X50600Y-46275D03*
X50344Y-46275D03*
X50344Y-47024D03*
X50600Y-47024D03*
X50855Y-47024D03*
X50344Y-45564D03*
X50600Y-45564D03*
X50855Y-45564D03*
X50855Y-44815D03*
X50600Y-44815D03*
X50344Y-44815D03*
X50855Y-42825D03*
X50600Y-42825D03*
X50344Y-42825D03*
X50344Y-43574D03*
X50600Y-43574D03*
X50855Y-43574D03*
G54D22*
X48357Y-56442D03*
X48968Y-56442D03*
X48373Y-55308D03*
X48983Y-55308D03*
X48357Y-57600D03*
X48968Y-57600D03*
G54D26*
X68500Y-48400D03*
G54D27*
X67500Y-48400D03*
X68500Y-47400D03*
X67500Y-47400D03*
X68500Y-46400D03*
X67500Y-46400D03*
G54D22*
X59805Y-34940D03*
X59194Y-34940D03*
X60795Y-35820D03*
X60184Y-35820D03*
G54D10*
G36*
X52750Y-50661D02*
X53102Y-50309D01*
X53432Y-50639D01*
X53080Y-50991D01*
X52750Y-50661D01*
X52750Y-50661D01*
G37*
G36*
X53181Y-51092D02*
X53533Y-50740D01*
X53864Y-51071D01*
X53512Y-51423D01*
X53181Y-51092D01*
X53181Y-51092D01*
G37*
G36*
X53301Y-50109D02*
X53653Y-49758D01*
X53983Y-50088D01*
X53631Y-50440D01*
X53301Y-50109D01*
X53301Y-50109D01*
G37*
G36*
X53732Y-50541D02*
X54084Y-50189D01*
X54415Y-50519D01*
X54063Y-50871D01*
X53732Y-50541D01*
X53732Y-50541D01*
G37*
G54D20*
X61259Y-43789D03*
X61259Y-44399D03*
G54D10*
G36*
X50878Y-39124D02*
X51230Y-39476D01*
X50899Y-39806D01*
X50547Y-39454D01*
X50878Y-39124D01*
X50878Y-39124D01*
G37*
G36*
X50446Y-39555D02*
X50798Y-39907D01*
X50468Y-40238D01*
X50116Y-39886D01*
X50446Y-39555D01*
X50446Y-39555D01*
G37*
G54D22*
X53430Y-44700D03*
X52819Y-44700D03*
X48665Y-43090D03*
X48054Y-43090D03*
X50235Y-56442D03*
X49625Y-56442D03*
X50231Y-55312D03*
X49621Y-55312D03*
G54D20*
X55901Y-57887D03*
X55901Y-57277D03*
G54D22*
X61244Y-34320D03*
X61855Y-34320D03*
G54D20*
X49600Y-43164D03*
X49600Y-43775D03*
G54D22*
X59616Y-39606D03*
X60226Y-39606D03*
X59639Y-55732D03*
X60250Y-55732D03*
X66375Y-45760D03*
X65764Y-45760D03*
G54D28*
X58307Y-40564D03*
G54D29*
X57992Y-40368D03*
X57677Y-40368D03*
X57362Y-40368D03*
X57047Y-40368D03*
X56732Y-40316D03*
G54D30*
X56360Y-40688D03*
X56411Y-41003D03*
X56411Y-41318D03*
X56411Y-41633D03*
X56411Y-41948D03*
X56411Y-42263D03*
X56411Y-42578D03*
X56411Y-42893D03*
X56411Y-43208D03*
X56411Y-43523D03*
X56411Y-43838D03*
X56360Y-44153D03*
G54D29*
X56732Y-44525D03*
X57047Y-44474D03*
X57362Y-44474D03*
X57677Y-44474D03*
X57992Y-44474D03*
X58307Y-44474D03*
X58622Y-44474D03*
X58937Y-44474D03*
X59251Y-44474D03*
X59566Y-44474D03*
X59881Y-44474D03*
X60196Y-44474D03*
G54D30*
X60517Y-44153D03*
X60517Y-43838D03*
X60517Y-43523D03*
X60517Y-43208D03*
X60517Y-42893D03*
X60517Y-42578D03*
X60517Y-42263D03*
X60517Y-41948D03*
X60517Y-41633D03*
X60517Y-41318D03*
X60517Y-41003D03*
X60568Y-40688D03*
G54D29*
X60196Y-40316D03*
X59881Y-40368D03*
X59566Y-40368D03*
X59251Y-40368D03*
X58937Y-40368D03*
X58622Y-40368D03*
G54D10*
G36*
X57636Y-47082D02*
X57903Y-46815D01*
X58346Y-47259D01*
X58079Y-47526D01*
X57636Y-47082D01*
X57636Y-47082D01*
G37*
G36*
X57413Y-47305D02*
X57680Y-47038D01*
X58124Y-47481D01*
X57857Y-47748D01*
X57413Y-47305D01*
X57413Y-47305D01*
G37*
G36*
X57190Y-47527D02*
X57457Y-47260D01*
X57901Y-47704D01*
X57634Y-47971D01*
X57190Y-47527D01*
X57190Y-47527D01*
G37*
G36*
X56967Y-47750D02*
X57234Y-47483D01*
X57678Y-47927D01*
X57411Y-48194D01*
X56967Y-47750D01*
X56967Y-47750D01*
G37*
G36*
X56745Y-47973D02*
X57012Y-47706D01*
X57455Y-48150D01*
X57188Y-48417D01*
X56745Y-47973D01*
X56745Y-47973D01*
G37*
G36*
X56522Y-48196D02*
X56789Y-47929D01*
X57233Y-48372D01*
X56966Y-48639D01*
X56522Y-48196D01*
X56522Y-48196D01*
G37*
G36*
X56299Y-48418D02*
X56566Y-48151D01*
X57010Y-48595D01*
X56743Y-48862D01*
X56299Y-48418D01*
X56299Y-48418D01*
G37*
G36*
X56077Y-48641D02*
X56343Y-48374D01*
X56787Y-48818D01*
X56520Y-49085D01*
X56077Y-48641D01*
X56077Y-48641D01*
G37*
G36*
X55855Y-48863D02*
X56121Y-48596D01*
X56565Y-49040D01*
X56298Y-49307D01*
X55855Y-48863D01*
X55855Y-48863D01*
G37*
G36*
X55632Y-49086D02*
X55899Y-48819D01*
X56342Y-49263D01*
X56075Y-49530D01*
X55632Y-49086D01*
X55632Y-49086D01*
G37*
G36*
X55409Y-49309D02*
X55676Y-49042D01*
X56120Y-49485D01*
X55853Y-49752D01*
X55409Y-49309D01*
X55409Y-49309D01*
G37*
G36*
X55186Y-49531D02*
X55453Y-49264D01*
X55897Y-49708D01*
X55630Y-49975D01*
X55186Y-49531D01*
X55186Y-49531D01*
G37*
G36*
X54964Y-49754D02*
X55230Y-49487D01*
X55674Y-49931D01*
X55407Y-50198D01*
X54964Y-49754D01*
X54964Y-49754D01*
G37*
G36*
X54741Y-49977D02*
X55008Y-49710D01*
X55451Y-50154D01*
X55185Y-50421D01*
X54741Y-49977D01*
X54741Y-49977D01*
G37*
G36*
X54518Y-50200D02*
X54785Y-49933D01*
X55229Y-50376D01*
X54962Y-50643D01*
X54518Y-50200D01*
X54518Y-50200D01*
G37*
G36*
X54295Y-50422D02*
X54562Y-50155D01*
X55006Y-50599D01*
X54739Y-50866D01*
X54295Y-50422D01*
X54295Y-50422D01*
G37*
G36*
X54295Y-51545D02*
X54739Y-51101D01*
X55006Y-51368D01*
X54562Y-51812D01*
X54295Y-51545D01*
X54295Y-51545D01*
G37*
G36*
X54518Y-51768D02*
X54962Y-51324D01*
X55229Y-51591D01*
X54785Y-52035D01*
X54518Y-51768D01*
X54518Y-51768D01*
G37*
G36*
X54741Y-51991D02*
X55185Y-51547D01*
X55451Y-51814D01*
X55008Y-52258D01*
X54741Y-51991D01*
X54741Y-51991D01*
G37*
G36*
X54964Y-52213D02*
X55407Y-51770D01*
X55674Y-52037D01*
X55230Y-52480D01*
X54964Y-52213D01*
X54964Y-52213D01*
G37*
G36*
X55186Y-52436D02*
X55630Y-51992D01*
X55897Y-52259D01*
X55453Y-52703D01*
X55186Y-52436D01*
X55186Y-52436D01*
G37*
G36*
X55409Y-52659D02*
X55853Y-52215D01*
X56120Y-52482D01*
X55676Y-52926D01*
X55409Y-52659D01*
X55409Y-52659D01*
G37*
G36*
X55632Y-52882D02*
X56075Y-52438D01*
X56342Y-52705D01*
X55899Y-53149D01*
X55632Y-52882D01*
X55632Y-52882D01*
G37*
G36*
X55855Y-53104D02*
X56298Y-52661D01*
X56565Y-52928D01*
X56121Y-53371D01*
X55855Y-53104D01*
X55855Y-53104D01*
G37*
G36*
X56077Y-53326D02*
X56520Y-52883D01*
X56787Y-53150D01*
X56343Y-53593D01*
X56077Y-53326D01*
X56077Y-53326D01*
G37*
G36*
X56299Y-53549D02*
X56743Y-53105D01*
X57010Y-53372D01*
X56566Y-53816D01*
X56299Y-53549D01*
X56299Y-53549D01*
G37*
G36*
X56522Y-53772D02*
X56966Y-53328D01*
X57233Y-53595D01*
X56789Y-54039D01*
X56522Y-53772D01*
X56522Y-53772D01*
G37*
G36*
X56745Y-53995D02*
X57188Y-53551D01*
X57455Y-53818D01*
X57012Y-54262D01*
X56745Y-53995D01*
X56745Y-53995D01*
G37*
G36*
X56967Y-54217D02*
X57411Y-53774D01*
X57678Y-54041D01*
X57234Y-54484D01*
X56967Y-54217D01*
X56967Y-54217D01*
G37*
G36*
X57190Y-54440D02*
X57634Y-53996D01*
X57901Y-54263D01*
X57457Y-54707D01*
X57190Y-54440D01*
X57190Y-54440D01*
G37*
G36*
X57413Y-54663D02*
X57857Y-54219D01*
X58124Y-54486D01*
X57680Y-54930D01*
X57413Y-54663D01*
X57413Y-54663D01*
G37*
G36*
X57636Y-54886D02*
X58079Y-54442D01*
X58346Y-54709D01*
X57903Y-55152D01*
X57636Y-54886D01*
X57636Y-54886D01*
G37*
G36*
X58582Y-54709D02*
X58849Y-54442D01*
X59292Y-54886D01*
X59026Y-55152D01*
X58582Y-54709D01*
X58582Y-54709D01*
G37*
G36*
X58805Y-54486D02*
X59071Y-54219D01*
X59515Y-54663D01*
X59248Y-54930D01*
X58805Y-54486D01*
X58805Y-54486D01*
G37*
G36*
X59027Y-54263D02*
X59294Y-53996D01*
X59738Y-54440D01*
X59471Y-54707D01*
X59027Y-54263D01*
X59027Y-54263D01*
G37*
G36*
X59250Y-54041D02*
X59517Y-53774D01*
X59961Y-54217D01*
X59694Y-54484D01*
X59250Y-54041D01*
X59250Y-54041D01*
G37*
G36*
X59473Y-53818D02*
X59740Y-53551D01*
X60183Y-53995D01*
X59916Y-54262D01*
X59473Y-53818D01*
X59473Y-53818D01*
G37*
G36*
X59696Y-53595D02*
X59962Y-53328D01*
X60406Y-53772D01*
X60139Y-54039D01*
X59696Y-53595D01*
X59696Y-53595D01*
G37*
G36*
X59918Y-53372D02*
X60185Y-53105D01*
X60629Y-53549D01*
X60362Y-53816D01*
X59918Y-53372D01*
X59918Y-53372D01*
G37*
G36*
X60141Y-53150D02*
X60408Y-52883D01*
X60852Y-53326D01*
X60585Y-53593D01*
X60141Y-53150D01*
X60141Y-53150D01*
G37*
G36*
X60363Y-52928D02*
X60630Y-52661D01*
X61074Y-53104D01*
X60807Y-53371D01*
X60363Y-52928D01*
X60363Y-52928D01*
G37*
G36*
X60586Y-52705D02*
X60853Y-52438D01*
X61296Y-52882D01*
X61029Y-53149D01*
X60586Y-52705D01*
X60586Y-52705D01*
G37*
G36*
X60808Y-52482D02*
X61075Y-52215D01*
X61519Y-52659D01*
X61252Y-52926D01*
X60808Y-52482D01*
X60808Y-52482D01*
G37*
G36*
X61031Y-52259D02*
X61298Y-51992D01*
X61742Y-52436D01*
X61475Y-52703D01*
X61031Y-52259D01*
X61031Y-52259D01*
G37*
G36*
X61254Y-52037D02*
X61521Y-51770D01*
X61965Y-52213D01*
X61698Y-52480D01*
X61254Y-52037D01*
X61254Y-52037D01*
G37*
G36*
X61477Y-51814D02*
X61744Y-51547D01*
X62187Y-51991D01*
X61920Y-52258D01*
X61477Y-51814D01*
X61477Y-51814D01*
G37*
G36*
X61699Y-51591D02*
X61966Y-51324D01*
X62410Y-51768D01*
X62143Y-52035D01*
X61699Y-51591D01*
X61699Y-51591D01*
G37*
G36*
X61922Y-51368D02*
X62189Y-51101D01*
X62633Y-51545D01*
X62366Y-51812D01*
X61922Y-51368D01*
X61922Y-51368D01*
G37*
G36*
X61922Y-50599D02*
X62366Y-50155D01*
X62633Y-50422D01*
X62189Y-50866D01*
X61922Y-50599D01*
X61922Y-50599D01*
G37*
G36*
X61699Y-50376D02*
X62143Y-49933D01*
X62410Y-50200D01*
X61966Y-50643D01*
X61699Y-50376D01*
X61699Y-50376D01*
G37*
G36*
X61477Y-50154D02*
X61920Y-49710D01*
X62187Y-49977D01*
X61744Y-50421D01*
X61477Y-50154D01*
X61477Y-50154D01*
G37*
G36*
X61254Y-49931D02*
X61698Y-49487D01*
X61965Y-49754D01*
X61521Y-50198D01*
X61254Y-49931D01*
X61254Y-49931D01*
G37*
G36*
X61031Y-49708D02*
X61475Y-49264D01*
X61742Y-49531D01*
X61298Y-49975D01*
X61031Y-49708D01*
X61031Y-49708D01*
G37*
G36*
X60808Y-49485D02*
X61252Y-49042D01*
X61519Y-49309D01*
X61075Y-49752D01*
X60808Y-49485D01*
X60808Y-49485D01*
G37*
G36*
X60586Y-49263D02*
X61029Y-48819D01*
X61296Y-49086D01*
X60853Y-49530D01*
X60586Y-49263D01*
X60586Y-49263D01*
G37*
G36*
X60363Y-49040D02*
X60807Y-48596D01*
X61074Y-48863D01*
X60630Y-49307D01*
X60363Y-49040D01*
X60363Y-49040D01*
G37*
G36*
X60141Y-48818D02*
X60585Y-48374D01*
X60852Y-48641D01*
X60408Y-49085D01*
X60141Y-48818D01*
X60141Y-48818D01*
G37*
G36*
X59918Y-48595D02*
X60362Y-48151D01*
X60629Y-48418D01*
X60185Y-48862D01*
X59918Y-48595D01*
X59918Y-48595D01*
G37*
G36*
X59696Y-48372D02*
X60139Y-47929D01*
X60406Y-48196D01*
X59962Y-48639D01*
X59696Y-48372D01*
X59696Y-48372D01*
G37*
G36*
X59473Y-48150D02*
X59916Y-47706D01*
X60183Y-47973D01*
X59740Y-48417D01*
X59473Y-48150D01*
X59473Y-48150D01*
G37*
G36*
X59250Y-47927D02*
X59694Y-47483D01*
X59961Y-47750D01*
X59517Y-48194D01*
X59250Y-47927D01*
X59250Y-47927D01*
G37*
G36*
X59027Y-47704D02*
X59471Y-47260D01*
X59738Y-47527D01*
X59294Y-47971D01*
X59027Y-47704D01*
X59027Y-47704D01*
G37*
G36*
X58805Y-47481D02*
X59248Y-47038D01*
X59515Y-47305D01*
X59071Y-47748D01*
X58805Y-47481D01*
X58805Y-47481D01*
G37*
G36*
X58582Y-47259D02*
X59026Y-46815D01*
X59292Y-47082D01*
X58849Y-47526D01*
X58582Y-47259D01*
X58582Y-47259D01*
G37*
G54D31*
X57984Y-55881D03*
X58929Y-55881D03*
X58929Y-56255D03*
X57984Y-55507D03*
X57984Y-56255D03*
X58929Y-55507D03*
G54D32*
X67060Y-36400D03*
G54D33*
X67965Y-33959D03*
X67060Y-33959D03*
X66154Y-33959D03*
G54D34*
X68877Y-58281D03*
X68877Y-57281D03*
X68877Y-56281D03*
X68877Y-55281D03*
G54D26*
X48550Y-50020D03*
G54D27*
X49550Y-50020D03*
X48550Y-51020D03*
X49550Y-51020D03*
X48550Y-52020D03*
X49550Y-52020D03*
X48550Y-53020D03*
X49550Y-53020D03*
X48550Y-54020D03*
X49550Y-54020D03*
G54D35*
X66358Y-53366D03*
X66200Y-53366D03*
X66043Y-53366D03*
X65885Y-53366D03*
X65728Y-53366D03*
X65570Y-53366D03*
G54D36*
X65433Y-53503D03*
X65433Y-53661D03*
X65433Y-53818D03*
X65433Y-53976D03*
X65433Y-54133D03*
X65433Y-54291D03*
G54D37*
X65570Y-54429D03*
G54D35*
X65728Y-54429D03*
X65885Y-54429D03*
X66043Y-54429D03*
X66200Y-54429D03*
X66358Y-54429D03*
G54D36*
X66496Y-54291D03*
X66496Y-54133D03*
X66496Y-53976D03*
X66496Y-53818D03*
X66496Y-53661D03*
X66496Y-53503D03*
G54D38*
X67043Y-38000D03*
X68657Y-38000D03*
G54D39*
X51673Y-56338D03*
X51673Y-57952D03*
G54D40*
X67036Y-41296D03*
X67036Y-44911D03*
X68767Y-41296D03*
X68767Y-44911D03*
G54D41*
X60150Y-32520D03*
X60650Y-33270D03*
X61150Y-32520D03*
X64120Y-35100D03*
X63120Y-35100D03*
X63120Y-36100D03*
G54D42*
X68810Y-32330D03*
X67810Y-32330D03*
X51983Y-36177D03*
X51276Y-36885D03*
X53311Y-57968D03*
X53311Y-56968D03*
M02*
