<?xml version="1.0" standalone="no"?>
 <!DOCTYPE svg PUBLIC "-//W3C//DTD SVG 1.1//EN" 
 "http://www.w3.org/Graphics/SVG/1.1/DTD/svg11.dtd"> 
<svg xmlns="http://www.w3.org/2000/svg" version="1.1" 
    width="29.7002cm" height="21.0007cm" viewBox="0 0 116930 82680 ">
<title>SVG Picture created as stereo-camera-board-F_SilkS.svg date 2014/07/21 21:50:20 </title>
  <desc>Picture generated by PCBNEW </desc>
<g style="fill:#000000; fill-opacity:1;stroke:#000000; stroke-opacity:1;
stroke-linecap:round; stroke-linejoin:round; "
 transform="translate(0 0) scale(1 1)">
</g>
<g style="fill:#000000; fill-opacity:0.0; 
stroke:#000000; stroke-width:59.0551; stroke-opacity:1; 
stroke-linecap:round; stroke-linejoin:round;">
</g>
<g style="fill:#000000; fill-opacity:1.0; 
stroke:#000000; stroke-width:59.0551; stroke-opacity:1; 
stroke-linecap:round; stroke-linejoin:round;">
<rect x="39733.1" y="22862.9" width="34036.3" height="40011.9" rx="0" />
</g>
<g style="fill:#FFFFFF; fill-opacity:1.0; 
stroke:#FFFFFF; stroke-width:39.3701; stroke-opacity:1; 
stroke-linecap:round; stroke-linejoin:round;">
<path d="M55118 39074
L61811 39074
" />
<path d="M61811 39074
L61811 45767
" />
<path d="M61811 45767
L55118 45767
" />
<path d="M55118 45767
L55118 39074
" />
</g>
<g style="fill:#FFFFFF; fill-opacity:1.0; 
stroke:#FFFFFF; stroke-width:196.85; stroke-opacity:1; 
stroke-linecap:round; stroke-linejoin:round;">
<path d="M54527 38484
L62401 38484
" />
<path d="M54527 46358
L62401 46358
" />
<path d="M54527 38484
L54527 41240
" />
</g>
<g style="fill:#FFFFFF; fill-opacity:0.0; 
stroke:#FFFFFF; stroke-width:196.85; stroke-opacity:1; 
stroke-linecap:round; stroke-linejoin:round;">
<path d="M54133.9 41633.9 A393.701 393.701 0.0 0 0 54527.6 41240.2 " />
<path d="M54133.9 41633.9 A787.402 787.402 0.0 0 0 54133.9 43208.7 " />
<path d="M54527.6 43602.4 A393.701 393.701 0.0 0 0 54133.9 43208.7 " />
<circle cx="54133.9" cy="42421.3" r="314.961" /> 
<path d="M54527 43602
L54527 46358
" />
<path d="M62401 38484
L62401 41240
" />
<path d="M62401.6 41240.2 A393.701 393.701 0.0 0 0 62795.3 41633.9 " />
<path d="M62795.3 43208.7 A787.402 787.402 0.0 0 0 62795.3 41633.9 " />
<path d="M62795.3 43208.7 A393.701 393.701 0.0 0 0 62401.6 43602.4 " />
<circle cx="62795.3" cy="42421.3" r="314.961" /> 
<path d="M62401 43602
L62401 46358
" />
</g>
<g style="fill:#FFFFFF; fill-opacity:0.0; 
stroke:#FFFFFF; stroke-width:26; stroke-opacity:1; 
stroke-linecap:round; stroke-linejoin:round;">
<path d="M68600 48500
L68600 48300
" />
<path d="M68600 48300
L68400 48300
" />
<path d="M68400 48500
L68400 48300
" />
<path d="M68600 48500
L68400 48500
" />
<path d="M67600 48500
L67600 48300
" />
<path d="M67600 48300
L67400 48300
" />
<path d="M67400 48500
L67400 48300
" />
<path d="M67600 48500
L67400 48500
" />
<path d="M67600 47500
L67600 47300
" />
<path d="M67600 47300
L67400 47300
" />
<path d="M67400 47500
L67400 47300
" />
<path d="M67600 47500
L67400 47500
" />
<path d="M68600 47500
L68600 47300
" />
<path d="M68600 47300
L68400 47300
" />
<path d="M68400 47500
L68400 47300
" />
<path d="M68600 47500
L68400 47500
" />
<path d="M67600 46500
L67600 46300
" />
<path d="M67600 46300
L67400 46300
" />
<path d="M67400 46500
L67400 46300
" />
<path d="M67600 46500
L67400 46500
" />
<path d="M68600 46500
L68600 46300
" />
<path d="M68600 46300
L68400 46300
" />
<path d="M68400 46500
L68400 46300
" />
<path d="M68600 46500
L68400 46500
" />
</g>
<g style="fill:#FFFFFF; fill-opacity:0.0; 
stroke:#FFFFFF; stroke-width:100; stroke-opacity:1; 
stroke-linecap:round; stroke-linejoin:round;">
<path d="M67000 48900
L67000 45900
" />
<path d="M67000 45900
L69000 45900
" />
<path d="M69000 45900
L69000 48900
" />
<path d="M69000 48900
L67000 48900
" />
</g>
<g style="fill:#FFFFFF; fill-opacity:0.0; 
stroke:#FFFFFF; stroke-width:26; stroke-opacity:1; 
stroke-linecap:round; stroke-linejoin:round;">
<path d="M60475 52900
L60779 53204
" />
<path d="M60779 53204
L60906 53077
" />
<path d="M60602 52773
L60906 53077
" />
<path d="M60475 52900
L60602 52773
" />
<path d="M60698 52677
L61002 52981
" />
<path d="M61002 52981
L61129 52854
" />
<path d="M60825 52550
L61129 52854
" />
<path d="M60698 52677
L60825 52550
" />
<path d="M60921 52455
L61225 52759
" />
<path d="M61225 52759
L61352 52631
" />
<path d="M61048 52327
L61352 52631
" />
<path d="M60921 52455
L61048 52327
" />
<path d="M61143 52232
L61447 52536
" />
<path d="M61447 52536
L61575 52409
" />
<path d="M61271 52105
L61575 52409
" />
<path d="M61143 52232
L61271 52105
" />
<path d="M61366 52009
L61670 52313
" />
<path d="M61670 52313
L61797 52186
" />
<path d="M61493 51882
L61797 52186
" />
<path d="M61366 52009
L61493 51882
" />
<path d="M61589 51786
L61893 52090
" />
<path d="M61893 52090
L62020 51963
" />
<path d="M61716 51659
L62020 51963
" />
<path d="M61589 51786
L61716 51659
" />
<path d="M61812 51564
L62116 51868
" />
<path d="M62116 51868
L62243 51740
" />
<path d="M61939 51436
L62243 51740
" />
<path d="M61812 51564
L61939 51436
" />
<path d="M62034 51341
L62338 51645
" />
<path d="M62338 51645
L62466 51518
" />
<path d="M62162 51214
L62466 51518
" />
<path d="M62034 51341
L62162 51214
" />
<path d="M60253 53122
L60557 53426
" />
<path d="M60557 53426
L60684 53299
" />
<path d="M60380 52995
L60684 53299
" />
<path d="M60253 53122
L60380 52995
" />
<path d="M60030 53345
L60334 53649
" />
<path d="M60334 53649
L60462 53522
" />
<path d="M60158 53218
L60462 53522
" />
<path d="M60030 53345
L60158 53218
" />
<path d="M59808 53568
L60112 53872
" />
<path d="M60112 53872
L60239 53744
" />
<path d="M59935 53440
L60239 53744
" />
<path d="M59808 53568
L59935 53440
" />
<path d="M59585 53790
L59889 54094
" />
<path d="M59889 54094
L60016 53967
" />
<path d="M59712 53663
L60016 53967
" />
<path d="M59585 53790
L59712 53663
" />
<path d="M59362 54013
L59666 54317
" />
<path d="M59666 54317
L59793 54190
" />
<path d="M59489 53886
L59793 54190
" />
<path d="M59362 54013
L59489 53886
" />
<path d="M59139 54236
L59443 54540
" />
<path d="M59443 54540
L59571 54413
" />
<path d="M59267 54108
L59571 54413
" />
<path d="M59139 54236
L59267 54108
" />
<path d="M58917 54458
L59221 54763
" />
<path d="M59221 54763
L59348 54635
" />
<path d="M59044 54331
L59348 54635
" />
<path d="M58917 54458
L59044 54331
" />
<path d="M58694 54681
L58998 54985
" />
<path d="M58998 54985
L59125 54858
" />
<path d="M58821 54554
L59125 54858
" />
<path d="M58694 54681
L58821 54554
" />
<path d="M56244 53299
L56371 53426
" />
<path d="M56371 53426
L56675 53122
" />
<path d="M56548 52995
L56675 53122
" />
<path d="M56244 53299
L56548 52995
" />
<path d="M56466 53522
L56594 53649
" />
<path d="M56594 53649
L56898 53345
" />
<path d="M56771 53218
L56898 53345
" />
<path d="M56466 53522
L56771 53218
" />
<path d="M56689 53744
L56817 53872
" />
<path d="M56817 53872
L57121 53568
" />
<path d="M56993 53440
L57121 53568
" />
<path d="M56689 53744
L56993 53440
" />
<path d="M56912 53967
L57039 54094
" />
<path d="M57039 54094
L57343 53790
" />
<path d="M57216 53663
L57343 53790
" />
<path d="M56912 53967
L57216 53663
" />
<path d="M57135 54190
L57262 54317
" />
<path d="M57262 54317
L57566 54013
" />
<path d="M57439 53886
L57566 54013
" />
<path d="M57135 54190
L57439 53886
" />
<path d="M57357 54413
L57485 54540
" />
<path d="M57485 54540
L57789 54236
" />
<path d="M57662 54108
L57789 54236
" />
<path d="M57357 54413
L57662 54108
" />
<path d="M57580 54635
L57707 54763
" />
<path d="M57707 54763
L58012 54458
" />
<path d="M57884 54331
L58012 54458
" />
<path d="M57580 54635
L57884 54331
" />
<path d="M57803 54858
L57930 54985
" />
<path d="M57930 54985
L58234 54681
" />
<path d="M58107 54554
L58234 54681
" />
<path d="M57803 54858
L58107 54554
" />
<path d="M56022 53077
L56149 53204
" />
<path d="M56149 53204
L56453 52900
" />
<path d="M56326 52773
L56453 52900
" />
<path d="M56022 53077
L56326 52773
" />
<path d="M55799 52854
L55926 52981
" />
<path d="M55926 52981
L56230 52677
" />
<path d="M56103 52550
L56230 52677
" />
<path d="M55799 52854
L56103 52550
" />
<path d="M55576 52631
L55704 52759
" />
<path d="M55704 52759
L56008 52455
" />
<path d="M55880 52327
L56008 52455
" />
<path d="M55576 52631
L55880 52327
" />
<path d="M55354 52409
L55481 52536
" />
<path d="M55481 52536
L55785 52232
" />
<path d="M55658 52105
L55785 52232
" />
<path d="M55354 52409
L55658 52105
" />
<path d="M55131 52186
L55258 52313
" />
<path d="M55258 52313
L55562 52009
" />
<path d="M55435 51882
L55562 52009
" />
<path d="M55131 52186
L55435 51882
" />
<path d="M54908 51963
L55035 52090
" />
<path d="M55035 52090
L55339 51786
" />
<path d="M55212 51659
L55339 51786
" />
<path d="M54908 51963
L55212 51659
" />
<path d="M54685 51740
L54813 51868
" />
<path d="M54813 51868
L55117 51564
" />
<path d="M54989 51436
L55117 51564
" />
<path d="M54685 51740
L54989 51436
" />
<path d="M54463 51518
L54590 51645
" />
<path d="M54590 51645
L54894 51341
" />
<path d="M54767 51214
L54894 51341
" />
<path d="M54463 51518
L54767 51214
" />
<path d="M56022 48891
L56326 49195
" />
<path d="M56326 49195
L56453 49067
" />
<path d="M56149 48763
L56453 49067
" />
<path d="M56022 48891
L56149 48763
" />
<path d="M55799 49113
L56103 49418
" />
<path d="M56103 49418
L56230 49290
" />
<path d="M55926 48986
L56230 49290
" />
<path d="M55799 49113
L55926 48986
" />
<path d="M55576 49336
L55880 49640
" />
<path d="M55880 49640
L56008 49513
" />
<path d="M55704 49209
L56008 49513
" />
<path d="M55576 49336
L55704 49209
" />
<path d="M55354 49559
L55658 49863
" />
<path d="M55658 49863
L55785 49736
" />
<path d="M55481 49432
L55785 49736
" />
<path d="M55354 49559
L55481 49432
" />
<path d="M55131 49782
L55435 50086
" />
<path d="M55435 50086
L55562 49958
" />
<path d="M55258 49654
L55562 49958
" />
<path d="M55131 49782
L55258 49654
" />
<path d="M54908 50004
L55212 50308
" />
<path d="M55212 50308
L55339 50181
" />
<path d="M55035 49877
L55339 50181
" />
<path d="M54908 50004
L55035 49877
" />
<path d="M54685 50227
L54989 50531
" />
<path d="M54989 50531
L55117 50404
" />
<path d="M54813 50100
L55117 50404
" />
<path d="M54685 50227
L54813 50100
" />
<path d="M54463 50450
L54767 50754
" />
<path d="M54767 50754
L54894 50627
" />
<path d="M54590 50323
L54894 50627
" />
<path d="M54463 50450
L54590 50323
" />
<path d="M56244 48669
L56548 48973
" />
<path d="M56548 48973
L56675 48845
" />
<path d="M56371 48541
L56675 48845
" />
<path d="M56244 48669
L56371 48541
" />
<path d="M56466 48446
L56771 48750
" />
<path d="M56771 48750
L56898 48623
" />
<path d="M56594 48319
L56898 48623
" />
<path d="M56466 48446
L56594 48319
" />
<path d="M56689 48223
L56993 48527
" />
<path d="M56993 48527
L57121 48400
" />
<path d="M56817 48096
L57121 48400
" />
<path d="M56689 48223
L56817 48096
" />
<path d="M56912 48000
L57216 48305
" />
<path d="M57216 48305
L57343 48177
" />
<path d="M57039 47873
L57343 48177
" />
<path d="M56912 48000
L57039 47873
" />
<path d="M57135 47778
L57439 48082
" />
<path d="M57439 48082
L57566 47955
" />
<path d="M57262 47650
L57566 47955
" />
<path d="M57135 47778
L57262 47650
" />
<path d="M57357 47555
L57662 47859
" />
<path d="M57662 47859
L57789 47732
" />
<path d="M57485 47428
L57789 47732
" />
<path d="M57357 47555
L57485 47428
" />
<path d="M57580 47332
L57884 47636
" />
<path d="M57884 47636
L58012 47509
" />
<path d="M57707 47205
L58012 47509
" />
<path d="M57580 47332
L57707 47205
" />
<path d="M57803 47110
L58107 47414
" />
<path d="M58107 47414
L58234 47286
" />
<path d="M57930 46982
L58234 47286
" />
<path d="M57803 47110
L57930 46982
" />
<path d="M60253 48845
L60380 48973
" />
<path d="M60380 48973
L60684 48669
" />
<path d="M60557 48541
L60684 48669
" />
<path d="M60253 48845
L60557 48541
" />
<path d="M60030 48623
L60158 48750
" />
<path d="M60158 48750
L60462 48446
" />
<path d="M60334 48319
L60462 48446
" />
<path d="M60030 48623
L60334 48319
" />
<path d="M59808 48400
L59935 48527
" />
<path d="M59935 48527
L60239 48223
" />
<path d="M60112 48096
L60239 48223
" />
<path d="M59808 48400
L60112 48096
" />
<path d="M59585 48177
L59712 48305
" />
<path d="M59712 48305
L60016 48000
" />
<path d="M59889 47873
L60016 48000
" />
<path d="M59585 48177
L59889 47873
" />
<path d="M59362 47955
L59489 48082
" />
<path d="M59489 48082
L59793 47778
" />
<path d="M59666 47650
L59793 47778
" />
<path d="M59362 47955
L59666 47650
" />
<path d="M59139 47732
L59267 47859
" />
<path d="M59267 47859
L59571 47555
" />
<path d="M59443 47428
L59571 47555
" />
<path d="M59139 47732
L59443 47428
" />
<path d="M58917 47509
L59044 47636
" />
<path d="M59044 47636
L59348 47332
" />
<path d="M59221 47205
L59348 47332
" />
<path d="M58917 47509
L59221 47205
" />
<path d="M58694 47286
L58821 47414
" />
<path d="M58821 47414
L59125 47110
" />
<path d="M58998 46982
L59125 47110
" />
<path d="M58694 47286
L58998 46982
" />
<path d="M60475 49067
L60602 49195
" />
<path d="M60602 49195
L60906 48891
" />
<path d="M60779 48763
L60906 48891
" />
<path d="M60475 49067
L60779 48763
" />
<path d="M60698 49290
L60825 49418
" />
<path d="M60825 49418
L61129 49113
" />
<path d="M61002 48986
L61129 49113
" />
<path d="M60698 49290
L61002 48986
" />
<path d="M60921 49513
L61048 49640
" />
<path d="M61048 49640
L61352 49336
" />
<path d="M61225 49209
L61352 49336
" />
<path d="M60921 49513
L61225 49209
" />
<path d="M61143 49736
L61271 49863
" />
<path d="M61271 49863
L61575 49559
" />
<path d="M61447 49432
L61575 49559
" />
<path d="M61143 49736
L61447 49432
" />
<path d="M61366 49958
L61493 50086
" />
<path d="M61493 50086
L61797 49782
" />
<path d="M61670 49654
L61797 49782
" />
<path d="M61366 49958
L61670 49654
" />
<path d="M61589 50181
L61716 50308
" />
<path d="M61716 50308
L62020 50004
" />
<path d="M61893 49877
L62020 50004
" />
<path d="M61589 50181
L61893 49877
" />
<path d="M61812 50404
L61939 50531
" />
<path d="M61939 50531
L62243 50227
" />
<path d="M62116 50100
L62243 50227
" />
<path d="M61812 50404
L62116 50100
" />
<path d="M62034 50627
L62162 50754
" />
<path d="M62162 50754
L62466 50450
" />
<path d="M62338 50323
L62466 50450
" />
<path d="M62034 50627
L62338 50323
" />
</g>
<g style="fill:#FFFFFF; fill-opacity:0.0; 
stroke:#FFFFFF; stroke-width:70; stroke-opacity:1; 
stroke-linecap:round; stroke-linejoin:round;">
<path d="M62381 50984
L58464 54901
" />
<path d="M58464 54901
L54547 50984
" />
<path d="M54547 50984
L58344 47187
" />
<path d="M58584 47187
L62381 50984
" />
<path d="M58344 47187
L58584 47187
" />
</g>
<g style="fill:#FFFFFF; fill-opacity:0.0; 
stroke:#FFFFFF; stroke-width:7; stroke-opacity:1; 
stroke-linecap:round; stroke-linejoin:round;">
<path d="M58576 47310
L62138 50872
" />
<path d="M62138 50872
L62138 51095
" />
<path d="M62138 51095
L58576 54658
" />
<path d="M58576 54658
L58352 54658
" />
<path d="M58352 54658
L54790 51095
" />
<path d="M54790 51095
L54790 50872
" />
<path d="M54790 50872
L58352 47310
" />
<path d="M58352 47310
L58576 47310
" />
</g>
<g style="fill:#FFFFFF; fill-opacity:0.0; 
stroke:#FFFFFF; stroke-width:0.0472441; stroke-opacity:1; 
stroke-linecap:round; stroke-linejoin:round;">
<circle cx="58464.6" cy="47697.6" r="77.7819" /> 
</g>
<g style="fill:#FFFFFF; fill-opacity:0.0; 
stroke:#FFFFFF; stroke-width:39.3701; stroke-opacity:1; 
stroke-linecap:round; stroke-linejoin:round;">
<path d="M57015 59074
L60165 59074
" />
<path d="M56779 58838
L60401 58838
" />
<path d="M60401 58838
L60401 56555
" />
<path d="M60401 56555
L56779 56555
" />
<path d="M56779 56555
L56779 58838
" />
</g>
<g style="fill:#FFFFFF; fill-opacity:0.0; 
stroke:#FFFFFF; stroke-width:26; stroke-opacity:1; 
stroke-linecap:round; stroke-linejoin:round;">
<path d="M68997 58401
L68997 58161
" />
<path d="M68997 58161
L68757 58161
" />
<path d="M68757 58401
L68757 58161
" />
<path d="M68997 58401
L68757 58401
" />
<path d="M68997 57401
L68997 57161
" />
<path d="M68997 57161
L68757 57161
" />
<path d="M68757 57401
L68757 57161
" />
<path d="M68997 57401
L68757 57401
" />
<path d="M68997 56401
L68997 56161
" />
<path d="M68997 56161
L68757 56161
" />
<path d="M68757 56401
L68757 56161
" />
<path d="M68997 56401
L68757 56401
" />
<path d="M68997 55401
L68997 55161
" />
<path d="M68997 55161
L68757 55161
" />
<path d="M68757 55401
L68757 55161
" />
<path d="M68997 55401
L68757 55401
" />
</g>
<g style="fill:#FFFFFF; fill-opacity:0.0; 
stroke:#FFFFFF; stroke-width:60; stroke-opacity:1; 
stroke-linecap:round; stroke-linejoin:round;">
<path d="M69277 58781
L68477 58781
" />
<path d="M68377 55881
L68377 56681
" />
<path d="M68477 56781
L68377 56681
" />
<path d="M69377 55881
L69377 56681
" />
<path d="M69277 56781
L69377 56681
" />
<path d="M69377 55881
L69277 55781
" />
<path d="M68377 55881
L68477 55781
" />
<path d="M68377 56881
L68477 56781
" />
<path d="M68377 56881
L68377 57681
" />
<path d="M68477 57781
L68377 57681
" />
<path d="M68377 57881
L68477 57781
" />
<path d="M68477 58781
L68377 58681
" />
<path d="M68377 57881
L68377 58681
" />
<path d="M69377 56881
L69277 56781
" />
<path d="M69277 57781
L69377 57681
" />
<path d="M69377 57881
L69277 57781
" />
<path d="M69277 58781
L69377 58681
" />
<path d="M69377 56881
L69377 57681
" />
<path d="M69377 57881
L69377 58681
" />
<path d="M68477 54781
L69277 54781
" />
<path d="M68377 54881
L68477 54781
" />
<path d="M69377 54881
L69277 54781
" />
<path d="M69277 55781
L69377 55681
" />
<path d="M68477 55781
L68377 55681
" />
<path d="M68377 54881
L68377 55681
" />
<path d="M69377 54881
L69377 55681
" />
</g>
<g style="fill:#FFFFFF; fill-opacity:0.0; 
stroke:#FFFFFF; stroke-width:26; stroke-opacity:1; 
stroke-linecap:round; stroke-linejoin:round;">
<path d="M48450 49920
L48450 50120
" />
<path d="M48450 50120
L48650 50120
" />
<path d="M48650 49920
L48650 50120
" />
<path d="M48450 49920
L48650 49920
" />
<path d="M49450 49920
L49450 50120
" />
<path d="M49450 50120
L49650 50120
" />
<path d="M49650 49920
L49650 50120
" />
<path d="M49450 49920
L49650 49920
" />
<path d="M49450 50920
L49450 51120
" />
<path d="M49450 51120
L49650 51120
" />
<path d="M49650 50920
L49650 51120
" />
<path d="M49450 50920
L49650 50920
" />
<path d="M48450 50920
L48450 51120
" />
<path d="M48450 51120
L48650 51120
" />
<path d="M48650 50920
L48650 51120
" />
<path d="M48450 50920
L48650 50920
" />
<path d="M49450 51920
L49450 52120
" />
<path d="M49450 52120
L49650 52120
" />
<path d="M49650 51920
L49650 52120
" />
<path d="M49450 51920
L49650 51920
" />
<path d="M48450 51920
L48450 52120
" />
<path d="M48450 52120
L48650 52120
" />
<path d="M48650 51920
L48650 52120
" />
<path d="M48450 51920
L48650 51920
" />
<path d="M49450 52920
L49450 53120
" />
<path d="M49450 53120
L49650 53120
" />
<path d="M49650 52920
L49650 53120
" />
<path d="M49450 52920
L49650 52920
" />
<path d="M48450 52920
L48450 53120
" />
<path d="M48450 53120
L48650 53120
" />
<path d="M48650 52920
L48650 53120
" />
<path d="M48450 52920
L48650 52920
" />
<path d="M49450 53920
L49450 54120
" />
<path d="M49450 54120
L49650 54120
" />
<path d="M49650 53920
L49650 54120
" />
<path d="M49450 53920
L49650 53920
" />
<path d="M48450 53920
L48450 54120
" />
<path d="M48450 54120
L48650 54120
" />
<path d="M48650 53920
L48650 54120
" />
<path d="M48450 53920
L48650 53920
" />
</g>
<g style="fill:#FFFFFF; fill-opacity:0.0; 
stroke:#FFFFFF; stroke-width:100; stroke-opacity:1; 
stroke-linecap:round; stroke-linejoin:round;">
<path d="M50050 49520
L50050 54520
" />
<path d="M50050 54520
L48050 54520
" />
<path d="M48050 54520
L48050 49520
" />
<path d="M48050 49520
L50050 49520
" />
</g>
<g style="fill:#FFFFFF; fill-opacity:0.0; 
stroke:#FFFFFF; stroke-width:19.685; stroke-opacity:1; 
stroke-linecap:round; stroke-linejoin:round;">
<path d="M66263 53562
L66263 54232
" />
<path d="M66263 54232
L65665 54232
" />
<path d="M65665 54232
L65665 53562
" />
<path d="M65665 53562
L66263 53562
" />
</g>
<g style="fill:#FFFFFF; fill-opacity:0.0; 
stroke:#FFFFFF; stroke-width:39.3701; stroke-opacity:1; 
stroke-linecap:round; stroke-linejoin:round;">
<circle cx="66358.3" cy="53503.9" r="78.7402" /> 
</g>
<g style="fill:#FFFFFF; fill-opacity:0.0; 
stroke:#FFFFFF; stroke-width:3.93701; stroke-opacity:1; 
stroke-linecap:round; stroke-linejoin:round;">
<path d="M66555 53307
L66555 54488
" />
<path d="M66555 54488
L65374 54488
" />
<path d="M65374 53307
L65374 54488
" />
<path d="M66555 53307
L65374 53307
" />
</g>
<g style="fill:#FFFFFF; fill-opacity:0.0; 
stroke:#FFFFFF; stroke-width:26; stroke-opacity:1; 
stroke-linecap:round; stroke-linejoin:round;">
<path d="M68893 37725
L68794 37725
" />
<path d="M68794 37725
L68794 38255
" />
<path d="M68893 38255
L68794 38255
" />
<path d="M68893 37725
L68893 38255
" />
<path d="M66906 37725
L66807 37725
" />
<path d="M66807 37725
L66807 38255
" />
<path d="M66906 38255
L66807 38255
" />
<path d="M66906 37725
L66906 38255
" />
<path d="M68243 37587
L68125 37587
" />
<path d="M68125 37587
L68125 38413
" />
<path d="M68243 38413
L68125 38413
" />
<path d="M68243 37587
L68243 38413
" />
</g>
<g style="fill:#FFFFFF; fill-opacity:0.0; 
stroke:#FFFFFF; stroke-width:100; stroke-opacity:1; 
stroke-linecap:round; stroke-linejoin:round;">
<path d="M68755 38393
L66945 38393
" />
<path d="M66945 38393
L66945 37626
" />
<path d="M66945 37626
L68755 37626
" />
<path d="M68755 37626
L68755 38393
" />
<path d="M68164 38000
L67752 38295
" />
<path d="M67752 38295
L67752 37725
" />
<path d="M67752 37725
L68164 38000
" />
</g>
<g style="fill:#FFFFFF; fill-opacity:0.0; 
stroke:#FFFFFF; stroke-width:26; stroke-opacity:1; 
stroke-linecap:round; stroke-linejoin:round;">
<path d="M49536 35251
L49606 35181
" />
<path d="M49606 35181
L49232 34807
" />
<path d="M49162 34877
L49232 34807
" />
<path d="M49536 35251
L49162 34877
" />
<path d="M50941 33846
L51011 33776
" />
<path d="M51011 33776
L50637 33402
" />
<path d="M50567 33472
L50637 33402
" />
<path d="M50941 33846
L50567 33472
" />
<path d="M50094 34889
L50177 34806
" />
<path d="M50177 34806
L49593 34222
" />
<path d="M49510 34305
L49593 34222
" />
<path d="M50094 34889
L49510 34305
" />
</g>
<g style="fill:#FFFFFF; fill-opacity:0.0; 
stroke:#FFFFFF; stroke-width:100; stroke-opacity:1; 
stroke-linecap:round; stroke-linejoin:round;">
<path d="M49162 34682
L50442 33402
" />
<path d="M50442 33402
L50984 33944
" />
<path d="M50984 33944
L49704 35224
" />
<path d="M49704 35224
L49162 34682
" />
<path d="M49857 34542
L49940 34042
" />
<path d="M49940 34042
L50343 34445
" />
<path d="M50343 34445
L49857 34542
" />
</g>
<g style="fill:#FFFFFF; fill-opacity:0.0; 
stroke:#FFFFFF; stroke-width:26; stroke-opacity:1; 
stroke-linecap:round; stroke-linejoin:round;">
<path d="M51948 58188
L51948 58089
" />
<path d="M51948 58089
L51418 58089
" />
<path d="M51418 58188
L51418 58089
" />
<path d="M51948 58188
L51418 58188
" />
<path d="M51948 56201
L51948 56102
" />
<path d="M51948 56102
L51418 56102
" />
<path d="M51418 56201
L51418 56102
" />
<path d="M51948 56201
L51418 56201
" />
<path d="M52086 57538
L52086 57420
" />
<path d="M52086 57420
L51260 57420
" />
<path d="M51260 57538
L51260 57420
" />
<path d="M52086 57538
L51260 57538
" />
</g>
<g style="fill:#FFFFFF; fill-opacity:0.0; 
stroke:#FFFFFF; stroke-width:100; stroke-opacity:1; 
stroke-linecap:round; stroke-linejoin:round;">
<path d="M51280 58050
L51280 56240
" />
<path d="M51280 56240
L52047 56240
" />
<path d="M52047 56240
L52047 58050
" />
<path d="M52047 58050
L51280 58050
" />
<path d="M51673 57459
L51378 57047
" />
<path d="M51378 57047
L51948 57047
" />
<path d="M51948 57047
L51673 57459
" />
</g>
<g style="fill:#FFFFFF; fill-opacity:0.0; 
stroke:#FFFFFF; stroke-width:50; stroke-opacity:1; 
stroke-linecap:round; stroke-linejoin:round;">
<path d="M66798 41919
L66798 41723
" />
<path d="M66798 41723
L67271 41723
" />
<path d="M67271 41723
L67271 41919
" />
<path d="M68529 41919
L68529 41723
" />
<path d="M68529 41723
L69002 41723
" />
<path d="M69002 41723
L69002 41919
" />
<path d="M69002 44281
L69002 44477
" />
<path d="M69002 44477
L68529 44477
" />
<path d="M68529 44477
L68529 44281
" />
<path d="M66798 44281
L66798 44477
" />
<path d="M66798 44477
L67271 44477
" />
<path d="M67271 44477
L67271 44281
" />
<path d="M66719 41959
L66719 44241
" />
<path d="M66759 44281
L69041 44281
" />
<path d="M69081 44241
L69081 41959
" />
<path d="M69041 41919
L66759 41919
" />
</g>
<g style="fill:#FFFFFF; fill-opacity:0.0; 
stroke:#FFFFFF; stroke-width:25; stroke-opacity:1; 
stroke-linecap:round; stroke-linejoin:round;">
<circle cx="67900" cy="43100" r="417.193" /> 
<circle cx="66916" cy="42116" r="55.1543" /> 
<circle cx="68884" cy="42116" r="55.1543" /> 
<circle cx="68884" cy="44084" r="55.1543" /> 
<circle cx="66916" cy="44084" r="55.1543" /> 
</g>
<g style="fill:#FFFFFF; fill-opacity:0.0; 
stroke:#FFFFFF; stroke-width:50; stroke-opacity:1; 
stroke-linecap:round; stroke-linejoin:round;">
<path d="M66759 41919 A40 40 0.0 0 0 66719 41959 " />
<path d="M66719 44241 A40 40 0.0 0 0 66759 44281 " />
<path d="M69041 44281 A40 40 0.0 0 0 69081 44241 " />
<path d="M69081 41959 A40 40 0.0 0 0 69041 41919 " />
<path d="M61474 31870
L59826 31870
" />
<path d="M61537 32420
L60762 32420
" />
<path d="M61695 32420
L61537 32420
" />
<path d="M60762 32420
L60538 32420
" />
<path d="M59763 32420
L59605 32420
" />
<path d="M60538 32420
L59763 32420
" />
<path d="M61694.6 32418.2 A1049.51 1049.51 0.0 0 0 61474 31870 " />
<path d="M60959.8 33523 A1049.77 1049.77 0.0 0 0 61695 32420 " />
<path d="M59824.4 31872.1 A1049.52 1049.52 0.0 0 0 60341 33523 " />
<path d="M60341.8 33523.2 A1049.52 1049.52 0.0 0 0 60959 33523 " />
<path d="M65170 35400
L65170 35800
" />
<path d="M65170 35400
L64752 35400
" />
<path d="M65170 35800
L64752 35800
" />
</g>
<g style="fill:#FFFFFF; fill-opacity:0.0; 
stroke:#FFFFFF; stroke-width:25; stroke-opacity:1; 
stroke-linecap:round; stroke-linejoin:round;">
<circle cx="63620" cy="35600" r="813.173" /> 
</g>
<g style="fill:#FFFFFF; fill-opacity:0.0; 
stroke:#FFFFFF; stroke-width:20; stroke-opacity:1; 
stroke-linecap:round; stroke-linejoin:round;">
<path d="M62744.4 35965.9 A949 949 0.0 0 0 63255 36476 " />
<path d="M63254.1 34724.4 A949 949 0.0 0 0 62744 35235 " />
<path d="M63255.6 36476.3 A949 949 0.0 0 0 64496 35235 " />
<path d="M64495.6 35234.1 A949 949 0.0 0 0 63985 34724 " />
<path d="M63984.4 34723.7 A949 949 0.0 0 0 63255 34724 " />
<path d="M62743.7 35235.6 A949 949 0.0 0 0 62744 35965 " />
</g>
<g style="fill:#FFFFFF; fill-opacity:0.0; 
stroke:#FFFFFF; stroke-width:26; stroke-opacity:1; 
stroke-linecap:round; stroke-linejoin:round;">
<path d="M67930 32450
L67930 32210
" />
<path d="M67930 32210
L67690 32210
" />
<path d="M67690 32450
L67690 32210
" />
<path d="M67930 32450
L67690 32450
" />
<path d="M68930 32450
L68930 32210
" />
<path d="M68930 32210
L68690 32210
" />
<path d="M68690 32450
L68690 32210
" />
<path d="M68930 32450
L68690 32450
" />
</g>
<g style="fill:#FFFFFF; fill-opacity:0.0; 
stroke:#FFFFFF; stroke-width:60; stroke-opacity:1; 
stroke-linecap:round; stroke-linejoin:round;">
<path d="M68310 32730
L68210 32830
" />
<path d="M68310 32730
L68410 32830
" />
<path d="M68310 31930
L68210 31830
" />
<path d="M68310 31930
L68410 31830
" />
<path d="M68410 31830
L69210 31830
" />
<path d="M69310 31930
L69210 31830
" />
<path d="M67410 31830
L67310 31930
" />
<path d="M67410 31830
L68210 31830
" />
<path d="M67310 31930
L67310 32730
" />
<path d="M67410 32830
L67310 32730
" />
<path d="M67410 32830
L68210 32830
" />
<path d="M68410 32830
L69210 32830
" />
<path d="M69310 32730
L69210 32830
" />
<path d="M69310 32730
L69310 31930
" />
</g>
<g style="fill:#FFFFFF; fill-opacity:0.0; 
stroke:#FFFFFF; stroke-width:26; stroke-opacity:1; 
stroke-linecap:round; stroke-linejoin:round;">
<path d="M51446 36885
L51276 36715
" />
<path d="M51276 36715
L51106 36885
" />
<path d="M51276 37054
L51106 36885
" />
<path d="M51446 36885
L51276 37054
" />
<path d="M52153 36177
L51983 36008
" />
<path d="M51983 36008
L51813 36177
" />
<path d="M51983 36347
L51813 36177
" />
<path d="M52153 36177
L51983 36347
" />
</g>
<g style="fill:#FFFFFF; fill-opacity:0.0; 
stroke:#FFFFFF; stroke-width:60; stroke-opacity:1; 
stroke-linecap:round; stroke-linejoin:round;">
<path d="M51912 36814
L51912 36955
" />
<path d="M51912 36814
L52054 36814
" />
<path d="M51347 36248
L51205 36248
" />
<path d="M51347 36248
L51347 36107
" />
<path d="M51347 36107
L51912 35541
" />
<path d="M52054 35541
L51912 35541
" />
<path d="M50639 36814
L50639 36955
" />
<path d="M50639 36814
L51205 36248
" />
<path d="M50639 36955
L51205 37521
" />
<path d="M51347 37521
L51205 37521
" />
<path d="M51347 37521
L51912 36955
" />
<path d="M52054 36814
L52619 36248
" />
<path d="M52619 36107
L52619 36248
" />
<path d="M52619 36107
L52054 35541
" />
</g>
<g style="fill:#FFFFFF; fill-opacity:0.0; 
stroke:#FFFFFF; stroke-width:26; stroke-opacity:1; 
stroke-linecap:round; stroke-linejoin:round;">
<path d="M53191 57088
L53431 57088
" />
<path d="M53431 57088
L53431 56848
" />
<path d="M53191 56848
L53431 56848
" />
<path d="M53191 57088
L53191 56848
" />
<path d="M53191 58088
L53431 58088
" />
<path d="M53431 58088
L53431 57848
" />
<path d="M53191 57848
L53431 57848
" />
<path d="M53191 58088
L53191 57848
" />
</g>
<g style="fill:#FFFFFF; fill-opacity:0.0; 
stroke:#FFFFFF; stroke-width:60; stroke-opacity:1; 
stroke-linecap:round; stroke-linejoin:round;">
<path d="M52911 57468
L52811 57368
" />
<path d="M52911 57468
L52811 57568
" />
<path d="M53711 57468
L53811 57368
" />
<path d="M53711 57468
L53811 57568
" />
<path d="M53811 57568
L53811 58368
" />
<path d="M53711 58468
L53811 58368
" />
<path d="M53811 56568
L53711 56468
" />
<path d="M53811 56568
L53811 57368
" />
<path d="M53711 56468
L52911 56468
" />
<path d="M52811 56568
L52911 56468
" />
<path d="M52811 56568
L52811 57368
" />
<path d="M52811 57568
L52811 58368
" />
<path d="M52911 58468
L52811 58368
" />
<path d="M52911 58468
L53711 58468
" />
</g>
<g style="fill:#FFFFFF; fill-opacity:0.0; 
stroke:#FFFFFF; stroke-width:59.0551; stroke-opacity:1; 
stroke-linecap:round; stroke-linejoin:round;">
<path d="M57882 41766
L57854 41794
L57769 41822
L57713 41822
L57629 41794
L57573 41737
L57544 41681
L57516 41569
L57516 41484
L57544 41372
L57573 41316
L57629 41259
L57713 41231
L57769 41231
L57854 41259
L57882 41287
" />
<path d="M58135 41822
L58135 41231
L58332 41653
L58529 41231
L58529 41822
" />
<path d="M58726 41231
L59063 41231
" />
<path d="M58894 41822
L58894 41231
" />
<path d="M59569 41822
L59232 41822
" />
<path d="M59401 41822
L59401 41231
L59344 41316
L59288 41372
L59232 41400
" />
<path d="M65906 32530
L65878 32559
L65793 32587
L65737 32587
L65653 32559
L65597 32502
L65568 32446
L65540 32334
L65540 32249
L65568 32137
L65597 32080
L65653 32024
L65737 31996
L65793 31996
L65878 32024
L65906 32052
" />
<path d="M66468 32587
L66131 32587
" />
<path d="M66300 32587
L66300 31996
L66243 32080
L66187 32137
L66131 32165
" />
<path d="M54753 53035
L54725 53063
L54641 53091
L54585 53091
L54500 53063
L54444 53007
L54416 52951
L54388 52838
L54388 52754
L54416 52642
L54444 52585
L54500 52529
L54585 52501
L54641 52501
L54725 52529
L54753 52557
" />
<path d="M55288 52501
L55007 52501
L54978 52782
L55007 52754
L55063 52726
L55203 52726
L55260 52754
L55288 52782
L55316 52838
L55316 52979
L55288 53035
L55260 53063
L55203 53091
L55063 53091
L55007 53063
L54978 53035
" />
<path d="M52327 54925
L52298 54953
L52214 54981
L52158 54981
L52073 54953
L52017 54897
L51989 54841
L51961 54728
L51961 54644
L51989 54531
L52017 54475
L52073 54419
L52158 54391
L52214 54391
L52298 54419
L52327 54447
" />
<path d="M52889 54981
L52552 54981
" />
<path d="M52720 54981
L52720 54391
L52664 54475
L52608 54531
L52552 54559
" />
<path d="M53395 54588
L53395 54981
" />
<path d="M53255 54363
L53114 54784
L53480 54784
" />
<path d="M63632 47289
L63660 47317
L63688 47401
L63688 47457
L63660 47542
L63604 47598
L63547 47626
L63435 47654
L63350 47654
L63238 47626
L63182 47598
L63125 47542
L63097 47457
L63097 47401
L63125 47317
L63154 47289
" />
<path d="M63154 47064
L63125 47035
L63097 46979
L63097 46839
L63125 46782
L63154 46754
L63210 46726
L63266 46726
L63350 46754
L63688 47092
L63688 46726
" />
<path d="M63688 46164
L63688 46501
" />
<path d="M63688 46332
L63097 46332
L63182 46389
L63238 46445
L63266 46501
" />
<path d="M51773 43667
L51773 43076
" />
<path d="M52392 43610
L52364 43639
L52279 43667
L52223 43667
L52139 43639
L52082 43582
L52054 43526
L52026 43414
L52026 43329
L52054 43217
L52082 43160
L52139 43104
L52223 43076
L52279 43076
L52364 43104
L52392 43132
" />
<path d="M52617 43132
L52645 43104
L52701 43076
L52842 43076
L52898 43104
L52926 43132
L52954 43189
L52954 43245
L52926 43329
L52589 43667
L52954 43667
" />
<path d="M50023 47917
L50023 47326
" />
<path d="M50642 47860
L50614 47889
L50529 47917
L50473 47917
L50389 47889
L50332 47832
L50304 47776
L50276 47664
L50276 47579
L50304 47467
L50332 47410
L50389 47354
L50473 47326
L50529 47326
L50614 47354
L50642 47382
" />
<path d="M50839 47326
L51204 47326
L51007 47551
L51092 47551
L51148 47579
L51176 47607
L51204 47664
L51204 47804
L51176 47860
L51148 47889
L51092 47917
L50923 47917
L50867 47889
L50839 47860
" />
<path d="M50023 44457
L50023 43866
" />
<path d="M50642 44400
L50614 44429
L50529 44457
L50473 44457
L50389 44429
L50332 44372
L50304 44316
L50276 44204
L50276 44119
L50304 44007
L50332 43950
L50389 43894
L50473 43866
L50529 43866
L50614 43894
L50642 43922
" />
<path d="M51148 44063
L51148 44457
" />
<path d="M51007 43838
L50867 44260
L51232 44260
" />
<path d="M50023 44467
L50023 43876
" />
<path d="M50642 44410
L50614 44439
L50529 44467
L50473 44467
L50389 44439
L50332 44382
L50304 44326
L50276 44214
L50276 44129
L50304 44017
L50332 43960
L50389 43904
L50473 43876
L50529 43876
L50614 43904
L50642 43932
" />
<path d="M51176 43876
L50895 43876
L50867 44157
L50895 44129
L50951 44101
L51092 44101
L51148 44129
L51176 44157
L51204 44214
L51204 44354
L51176 44410
L51148 44439
L51092 44467
L50951 44467
L50895 44439
L50867 44410
" />
<path d="M58014 41660
L58098 41688
L58239 41688
L58295 41660
L58323 41632
L58352 41575
L58352 41519
L58323 41463
L58295 41435
L58239 41407
L58127 41379
L58070 41350
L58042 41322
L58014 41266
L58014 41210
L58042 41154
L58070 41125
L58127 41097
L58267 41097
L58352 41125
" />
<path d="M58577 41154
L58605 41125
L58661 41097
L58802 41097
L58858 41125
L58886 41154
L58914 41210
L58914 41266
L58886 41350
L58548 41688
L58914 41688
" />
<path d="M58006 56739
L58006 57217
L58034 57273
L58062 57302
L58119 57330
L58231 57330
L58287 57302
L58316 57273
L58344 57217
L58344 56739
" />
<path d="M58569 56739
L58934 56739
L58737 56964
L58822 56964
L58878 56992
L58906 57020
L58934 57077
L58934 57217
L58906 57273
L58878 57302
L58822 57330
L58653 57330
L58597 57302
L58569 57273
" />
<path d="M56333 54967
L56333 54377
L56530 54799
L56727 54377
L56727 54967
" />
<path d="M56980 54799
L57261 54799
" />
<path d="M56924 54967
L57120 54377
L57317 54967
" />
<path d="M57458 54377
L57852 54967
" />
<path d="M57852 54377
L57458 54967
" />
<path d="M58020 54377
L58386 54377
L58189 54602
L58273 54602
L58330 54630
L58358 54658
L58386 54714
L58386 54855
L58358 54911
L58330 54939
L58273 54967
L58105 54967
L58048 54939
L58020 54911
" />
<path d="M58611 54433
L58639 54405
L58695 54377
L58836 54377
L58892 54405
L58920 54433
L58948 54489
L58948 54546
L58920 54630
L58583 54967
L58948 54967
" />
<path d="M59314 54377
L59370 54377
L59426 54405
L59455 54433
L59483 54489
L59511 54602
L59511 54742
L59483 54855
L59455 54911
L59426 54939
L59370 54967
L59314 54967
L59258 54939
L59230 54911
L59201 54855
L59173 54742
L59173 54602
L59201 54489
L59230 54433
L59258 54405
L59314 54377
" />
<path d="M59708 54377
L60101 54377
L59848 54967
" />
<path d="M60326 54658
L60523 54658
" />
<path d="M60607 54967
L60326 54967
L60326 54377
L60607 54377
" />
<path d="M57564 59145
L57564 59623
L57592 59679
L57620 59707
L57676 59735
L57789 59735
L57845 59707
L57873 59679
L57901 59623
L57901 59145
" />
<path d="M58154 59707
L58239 59735
L58379 59735
L58435 59707
L58464 59679
L58492 59623
L58492 59566
L58464 59510
L58435 59482
L58379 59454
L58267 59426
L58210 59398
L58182 59370
L58154 59313
L58154 59257
L58182 59201
L58210 59173
L58267 59145
L58407 59145
L58492 59173
" />
<path d="M58942 59426
L59026 59454
L59054 59482
L59082 59538
L59082 59623
L59054 59679
L59026 59707
L58970 59735
L58745 59735
L58745 59145
L58942 59145
L58998 59173
L59026 59201
L59054 59257
L59054 59313
L59026 59370
L58998 59398
L58942 59426
L58745 59426
" />
<path d="M59645 59735
L59307 59735
" />
<path d="M59476 59735
L59476 59145
L59420 59229
L59363 59285
L59307 59313
" />
<path d="M52924 60208
L52924 60686
L52952 60742
L52980 60770
L53036 60798
L53149 60798
L53205 60770
L53233 60742
L53261 60686
L53261 60208
" />
<path d="M53514 60770
L53598 60798
L53739 60798
L53795 60770
L53823 60742
L53852 60686
L53852 60629
L53823 60573
L53795 60545
L53739 60517
L53627 60489
L53570 60461
L53542 60433
L53514 60376
L53514 60320
L53542 60264
L53570 60236
L53627 60208
L53767 60208
L53852 60236
" />
<path d="M54302 60489
L54386 60517
L54414 60545
L54442 60601
L54442 60686
L54414 60742
L54386 60770
L54330 60798
L54105 60798
L54105 60208
L54302 60208
L54358 60236
L54386 60264
L54414 60320
L54414 60376
L54386 60433
L54358 60461
L54302 60489
L54105 60489
" />
<path d="M54555 60854
L55005 60854
" />
<path d="M55145 60798
L55145 60208
L55342 60629
L55539 60208
L55539 60798
" />
<path d="M55933 60208
L56045 60208
L56101 60236
L56158 60292
L56186 60404
L56186 60601
L56158 60714
L56101 60770
L56045 60798
L55933 60798
L55876 60770
L55820 60714
L55792 60601
L55792 60404
L55820 60292
L55876 60236
L55933 60208
" />
<path d="M56720 60798
L56439 60798
L56439 60208
" />
<path d="M56917 60489
L57114 60489
" />
<path d="M57198 60798
L56917 60798
L56917 60208
L57198 60208
" />
<path d="M57395 60208
L57789 60798
" />
<path d="M57789 60208
L57395 60798
" />
<path d="M58014 60573
L58464 60573
" />
<path d="M58998 60404
L58998 60798
" />
<path d="M58857 60179
L58717 60601
L59082 60601
" />
<path d="M59251 60208
L59645 60208
L59392 60798
" />
<path d="M59813 60208
L60179 60208
L59982 60433
L60066 60433
L60123 60461
L60151 60489
L60179 60545
L60179 60686
L60151 60742
L60123 60770
L60066 60798
L59898 60798
L59841 60770
L59813 60742
" />
<path d="M60685 60404
L60685 60798
" />
<path d="M60544 60179
L60404 60601
L60769 60601
" />
<path d="M61248 60208
L61135 60208
L61079 60236
L61051 60264
L60994 60348
L60966 60461
L60966 60686
L60994 60742
L61023 60770
L61079 60798
L61191 60798
L61248 60770
L61276 60742
L61304 60686
L61304 60545
L61276 60489
L61248 60461
L61191 60433
L61079 60433
L61023 60461
L60994 60489
L60966 60545
" />
<path d="M61557 60573
L62007 60573
" />
<path d="M62401 60208
L62457 60208
L62513 60236
L62541 60264
L62569 60320
L62597 60433
L62597 60573
L62569 60686
L62541 60742
L62513 60770
L62457 60798
L62401 60798
L62344 60770
L62316 60742
L62288 60686
L62260 60573
L62260 60433
L62288 60320
L62316 60264
L62344 60236
L62401 60208
" />
<path d="M62963 60208
L63019 60208
L63075 60236
L63104 60264
L63132 60320
L63160 60433
L63160 60573
L63132 60686
L63104 60742
L63075 60770
L63019 60798
L62963 60798
L62907 60770
L62879 60742
L62850 60686
L62822 60573
L62822 60433
L62850 60320
L62879 60264
L62907 60236
L62963 60208
" />
<path d="M63525 60208
L63582 60208
L63638 60236
L63666 60264
L63694 60320
L63722 60433
L63722 60573
L63694 60686
L63666 60742
L63638 60770
L63582 60798
L63525 60798
L63469 60770
L63441 60742
L63413 60686
L63385 60573
L63385 60433
L63413 60320
L63441 60264
L63469 60236
L63525 60208
" />
<path d="M64285 60798
L63947 60798
" />
<path d="M64116 60798
L64116 60208
L64060 60292
L64003 60348
L63947 60376
" />
<path d="M66483 36447
L66483 35856
" />
<path d="M67102 36390
L67074 36419
L66989 36447
L66933 36447
L66849 36419
L66792 36362
L66764 36306
L66736 36194
L66736 36109
L66764 35997
L66792 35940
L66849 35884
L66933 35856
L66989 35856
L67074 35884
L67102 35912
" />
<path d="M67664 36447
L67327 36447
" />
<path d="M67495 36447
L67495 35856
L67439 35940
L67383 35997
L67327 36025
" />
</g>
<g style="fill:#FFFFFF; fill-opacity:0.0; 
stroke:#FFFFFF; stroke-width:49.2126; stroke-opacity:1; 
stroke-linecap:round; stroke-linejoin:round;">
<path d="M66722 54047
L66882 54047
L66901 54038
L66910 54028
L66919 54010
L66919 53972
L66910 53953
L66901 53944
L66882 53935
L66722 53935
" />
<path d="M66788 53757
L66919 53757
" />
<path d="M66713 53803
L66854 53850
L66854 53728
" />
</g>
<g style="fill:#FFFFFF; fill-opacity:0.0; 
stroke:#FFFFFF; stroke-width:35; stroke-opacity:1; 
stroke-linecap:round; stroke-linejoin:round;">
<path d="M58311 33924
L58058 34176
L58024 34244
L58024 34311
L58058 34378
L58092 34412
" />
<path d="M57789 34109
L58142 33755
L58008 33621
L57957 33604
L57923 33604
L57873 33621
L57822 33671
L57806 33722
L57806 33755
L57822 33806
L57957 33941
" />
<path d="M57250 33570
L57452 33772
" />
<path d="M57351 33671
L57705 33318
L57688 33402
L57688 33469
L57705 33520
" />
<path d="M57568 37141
L57349 36922
L57332 37175
L57282 37124
L57231 37108
L57198 37108
L57147 37124
L57063 37209
L57046 37259
L57046 37293
L57063 37343
L57164 37444
L57215 37461
L57248 37461
" />
<path d="M59262 35040
L58891 34872
L59060 35242
" />
<path d="M58588 34838
L58942 34484
L58386 34636
L58740 34282
" />
<path d="M58336 34383
L58168 34215
" />
<path d="M58269 34518
L58504 34047
L58033 34282
" />
<path d="M57915 34165
L58269 33811
L57898 33946
L58033 33575
L57679 33929
" />
<path d="M57696 33575
L57578 33457
" />
<path d="M57343 33592
L57511 33761
L57865 33407
L57696 33239
" />
<path d="M57972 37781
L57737 38017
" />
<path d="M58191 37730
L58023 38067
L57804 37848
" />
<path d="M57092 37749
L56721 37581
L56890 37951
" />
<path d="M56822 37244
L56351 37480
L56587 37008
" />
<path d="M56233 37160
L56065 36991
" />
<path d="M56166 37294
L56401 36823
L55930 37059
" />
<path d="M55644 36772
L55812 36941
L56166 36587
" />
<path d="M55880 36301
L55593 36587
L55543 36604
L55509 36604
L55459 36587
L55391 36520
L55374 36469
L55374 36436
L55391 36385
L55678 36099
" />
<path d="M55341 36099
L55223 35981
" />
<path d="M54987 36116
L55156 36284
L55509 35931
L55341 35762
" />
</g> 
</svg>
