<?xml version="1.0" standalone="no"?>
 <!DOCTYPE svg PUBLIC "-//W3C//DTD SVG 1.1//EN" 
 "http://www.w3.org/Graphics/SVG/1.1/DTD/svg11.dtd"> 
<svg xmlns="http://www.w3.org/2000/svg" version="1.1" 
    width="29.7002cm" height="21.0007cm" viewBox="0 0 116930 82680 ">
<title>SVG Picture created as stereo-camera-board-Inner2_Cu.svg date 2014/07/21 21:50:20 </title>
  <desc>Picture generated by PCBNEW </desc>
<g style="fill:#000000; fill-opacity:1;stroke:#000000; stroke-opacity:1;
stroke-linecap:round; stroke-linejoin:round; "
 transform="translate(0 0) scale(1 1)">
</g>
<g style="fill:#000000; fill-opacity:0.0; 
stroke:#000000; stroke-width:59.0551; stroke-opacity:1; 
stroke-linecap:round; stroke-linejoin:round;">
</g>
<g style="fill:#000000; fill-opacity:1.0; 
stroke:#000000; stroke-width:59.0551; stroke-opacity:1; 
stroke-linecap:round; stroke-linejoin:round;">
<rect x="39733.1" y="22862.9" width="34036.3" height="40011.9" rx="0" />
</g>
<g style="fill:#FFFFFF; fill-opacity:1.0; 
stroke:#FFFFFF; stroke-width:59.0551; stroke-opacity:1; 
stroke-linecap:round; stroke-linejoin:round;">
<circle cx="53243.7" cy="39722.7" r="147.638" /> 
<circle cx="53800.4" cy="39166" r="147.638" /> 
<circle cx="54357.2" cy="38609.2" r="147.638" /> 
<circle cx="54914" cy="38052.4" r="147.638" /> 
<circle cx="55470.8" cy="37495.6" r="147.638" /> 
<circle cx="54914" cy="37217.2" r="147.638" /> 
<circle cx="54218" cy="37913.2" r="147.638" /> 
<circle cx="53661.2" cy="38470" r="147.638" /> 
<circle cx="52965.3" cy="39166" r="147.638" /> 
<circle cx="52074.4" cy="38275.1" r="147.638" /> 
<circle cx="52770.4" cy="37579.1" r="147.638" /> 
<circle cx="53327.2" cy="37022.4" r="147.638" /> 
<circle cx="54023.2" cy="36326.4" r="147.638" /> 
<circle cx="54579.9" cy="36604.8" r="147.638" /> 
<circle cx="54023.2" cy="37161.6" r="147.638" /> 
<circle cx="53466.4" cy="37718.3" r="147.638" /> 
<circle cx="52909.6" cy="38275.1" r="147.638" /> 
<circle cx="52352.8" cy="38831.9" r="147.638" /> 
<polyline style="fill-rule:evenodd;"
points="68770,48670
68229,48670
68229,48129
68770,48129
68770,48670
" /> 
<circle cx="67500" cy="48400" r="270.472" /> 
<circle cx="68500" cy="47400" r="270.472" /> 
<circle cx="67500" cy="47400" r="270.472" /> 
<circle cx="68500" cy="46400" r="270.472" /> 
<circle cx="67500" cy="46400" r="270.472" /> 
</g>
<g style="fill:#FFFFFF; fill-opacity:1.0; 
stroke:#FFFFFF; stroke-width:472.441; stroke-opacity:1; 
stroke-linecap:round; stroke-linejoin:round;">
<path d="M59968 58129
L59968 58405
" />
<path d="M57212 58129
L57212 58405
" />
</g>
<g style="fill:#FFFFFF; fill-opacity:1.0; 
stroke:#FFFFFF; stroke-width:59.0551; stroke-opacity:1; 
stroke-linecap:round; stroke-linejoin:round;">
<circle cx="57606.3" cy="57204.7" r="255.906" /> 
<circle cx="59574.8" cy="57204.7" r="255.906" /> 
<polyline style="fill-rule:evenodd;"
points="48279,49749
48820,49749
48820,50290
48279,50290
48279,49749
" /> 
<circle cx="49550" cy="50020" r="270.472" /> 
<circle cx="48550" cy="51020" r="270.472" /> 
<circle cx="49550" cy="51020" r="270.472" /> 
<circle cx="48550" cy="52020" r="270.472" /> 
<circle cx="49550" cy="52020" r="270.472" /> 
<circle cx="48550" cy="53020" r="270.472" /> 
<circle cx="49550" cy="53020" r="270.472" /> 
<circle cx="48550" cy="54020" r="270.472" /> 
<circle cx="49550" cy="54020" r="270.472" /> 
<circle cx="68810" cy="32330" r="324.803" /> 
<circle cx="67810" cy="32330" r="324.803" /> 
<circle cx="51983.5" cy="36177.9" r="324.803" /> 
<circle cx="51276.4" cy="36885" r="324.803" /> 
<circle cx="53311" cy="57968.5" r="324.803" /> 
<circle cx="53311" cy="56968.5" r="324.803" /> 
<circle cx="50030" cy="43790" r="70.4724" /> 
<circle cx="50840" cy="43340" r="70.4724" /> 
<circle cx="52605" cy="50680" r="70.4724" /> 
<circle cx="52340" cy="47800" r="70.4724" /> 
<circle cx="52090" cy="52830" r="70.4724" /> 
<circle cx="51960" cy="53310" r="70.4724" /> 
<circle cx="51180" cy="53295" r="70.4724" /> 
<circle cx="60785" cy="36325" r="70.4724" /> 
<circle cx="63740" cy="40770" r="70.4724" /> 
<circle cx="64300" cy="39345" r="70.4724" /> 
<circle cx="59450" cy="34600" r="70.4724" /> 
<circle cx="48680" cy="54820" r="70.4724" /> 
<circle cx="50010" cy="45270" r="70.4724" /> 
<circle cx="51320" cy="46610" r="70.4724" /> 
<circle cx="50850" cy="42410" r="70.4724" /> 
<circle cx="51460" cy="42020" r="70.4724" /> 
<circle cx="65560" cy="54770" r="70.4724" /> 
<circle cx="67780" cy="58300" r="70.4724" /> 
<circle cx="66360" cy="55470" r="70.4724" /> 
<circle cx="66110" cy="52290" r="70.4724" /> 
<circle cx="66730" cy="52050" r="70.4724" /> 
<circle cx="66780" cy="48410" r="70.4724" /> 
<circle cx="65750" cy="45240" r="70.4724" /> 
<circle cx="63450" cy="37310" r="70.4724" /> 
<circle cx="67990" cy="36390" r="70.4724" /> 
<circle cx="67050" cy="33230" r="70.4724" /> 
<circle cx="64055.1" cy="52342.5" r="70.4724" /> 
<circle cx="63295" cy="33690" r="70.4724" /> 
<circle cx="64315" cy="34420" r="70.4724" /> 
<circle cx="63260" cy="32290" r="70.4724" /> 
<circle cx="48500" cy="36320" r="70.4724" /> 
<circle cx="51600" cy="58630" r="70.4724" /> 
<circle cx="68640" cy="37390" r="70.4724" /> 
<circle cx="65700" cy="34610" r="70.4724" /> 
<circle cx="64580" cy="34800" r="70.4724" /> 
<circle cx="55660" cy="42230" r="70.4724" /> 
<circle cx="56310" cy="40325" r="70.4724" /> 
<circle cx="48310" cy="46585" r="70.4724" /> 
<circle cx="48895" cy="46145" r="70.4724" /> 
<circle cx="61395" cy="50180" r="70.4724" /> 
<circle cx="60905" cy="39705" r="70.4724" /> 
<circle cx="60895" cy="42000" r="70.4724" /> 
<circle cx="66555" cy="44770" r="70.4724" /> 
<circle cx="55280" cy="50305" r="70.4724" /> 
<circle cx="61805" cy="53160" r="70.4724" /> 
<circle cx="48720" cy="39520" r="60.4724" /> 
<circle cx="50840" cy="37280" r="60.4724" /> 
<circle cx="49100" cy="39900" r="60.4724" /> 
<circle cx="53260" cy="43440" r="60.4724" /> 
<circle cx="55300" cy="45425" r="60.4724" /> 
<circle cx="53600" cy="43925" r="60.4724" /> 
<circle cx="59310" cy="53870" r="60.4724" /> 
<circle cx="51490" cy="46220" r="60.4724" /> 
<circle cx="49075" cy="44300" r="60.4724" /> 
<circle cx="50690" cy="44370" r="60.4724" /> 
<circle cx="59685" cy="39980.3" r="60.4724" /> 
<circle cx="61417.3" cy="49074.8" r="60.4724" /> 
<circle cx="63059.1" cy="50511.8" r="60.4724" /> 
<circle cx="60878" cy="40692.9" r="60.4724" /> 
<circle cx="63725" cy="48525" r="60.4724" /> 
<circle cx="60950" cy="48550" r="60.4724" /> 
<circle cx="57003.9" cy="54397.6" r="60.4724" /> 
<circle cx="50570" cy="55340" r="60.4724" /> 
<circle cx="59645.7" cy="47244.1" r="60.4724" /> 
<circle cx="59566.9" cy="44921.3" r="60.4724" /> 
<circle cx="60492.1" cy="40378" r="60.4724" /> 
<circle cx="62921.3" cy="50161.4" r="60.4724" /> 
<circle cx="57669.3" cy="45460.6" r="60.4724" /> 
<circle cx="54665.4" cy="52334.6" r="60.4724" /> 
<circle cx="57996.1" cy="44866.1" r="60.4724" /> 
<circle cx="54563" cy="51992.1" r="60.4724" /> 
<circle cx="60866.1" cy="41063" r="60.4724" /> 
<circle cx="62470.5" cy="51269.7" r="60.4724" /> 
<circle cx="62803.1" cy="49771.7" r="60.4724" /> 
<circle cx="59921.3" cy="39259.8" r="60.4724" /> 
<circle cx="56429.1" cy="44437" r="60.4724" /> 
<circle cx="55689" cy="53102.4" r="60.4724" /> 
<circle cx="57189" cy="54594.5" r="60.4724" /> 
<circle cx="50530" cy="56150" r="60.4724" /> 
<circle cx="56023.6" cy="43326.8" r="60.4724" /> 
<circle cx="56791.3" cy="54216.5" r="60.4724" /> 
<circle cx="57421.3" cy="54921.3" r="60.4724" /> 
<circle cx="55905.5" cy="56437" r="60.4724" /> 
<circle cx="56732.3" cy="44866.1" r="60.4724" /> 
<circle cx="55456.7" cy="52878" r="60.4724" /> 
<circle cx="57023.6" cy="45464.6" r="60.4724" /> 
<circle cx="55236.2" cy="52653.5" r="60.4724" /> 
<circle cx="53190" cy="34360" r="60.4724" /> 
<circle cx="54358.3" cy="48543.3" r="60.4724" /> 
<circle cx="54397.6" cy="47539.4" r="60.4724" /> 
<circle cx="54358.3" cy="47885.8" r="60.4724" /> 
<circle cx="54322.8" cy="48240.2" r="60.4724" /> 
<circle cx="58940" cy="40750" r="60.4724" /> 
<circle cx="50075" cy="46285" r="60.4724" /> 
<circle cx="49130" cy="35360" r="70.4724" /> 
<circle cx="57362.2" cy="44893.7" r="70.4724" /> 
<circle cx="54968.5" cy="52456.7" r="70.4724" /> 
<circle cx="48350" cy="41700" r="60.4724" /> 
<circle cx="55300" cy="46550" r="60.4724" /> 
<circle cx="61082.7" cy="53385.8" r="60.4724" /> 
<circle cx="65078.7" cy="53700.8" r="60.4724" /> 
<circle cx="67100" cy="53900" r="60.4724" /> 
<circle cx="60800" cy="53500" r="60.4724" /> 
<circle cx="60170" cy="33280" r="60.4724" /> 
<circle cx="48470" cy="40260" r="60.4724" /> 
<circle cx="59665.4" cy="53425.2" r="60.4724" /> 
<circle cx="60226.4" cy="39931.1" r="60.4724" /> 
<circle cx="50575" cy="47300" r="60.4724" /> 
<circle cx="55100" cy="47800" r="60.4724" /> 
<circle cx="61600" cy="44800" r="60.4724" /> 
<circle cx="61600" cy="51600" r="60.4724" /> 
<circle cx="58740.2" cy="46972.4" r="60.4724" /> 
<circle cx="58901.6" cy="44870.1" r="60.4724" /> 
<circle cx="59429.1" cy="39980.3" r="60.4724" /> 
<circle cx="61122" cy="48818.9" r="60.4724" /> 
<circle cx="62580" cy="36110" r="70.4724" /> 
<circle cx="51120" cy="33330" r="70.4724" /> 
<circle cx="61200" cy="49900" r="60.4724" /> 
<circle cx="61400" cy="51800" r="60.4724" /> 
<circle cx="61614.2" cy="53405.5" r="60.4724" /> 
<circle cx="66496.1" cy="52775.6" r="60.4724" /> 
<circle cx="58307.1" cy="45484.3" r="60.4724" /> 
<circle cx="54460.6" cy="50783.5" r="60.4724" /> 
<circle cx="55720.5" cy="43940.9" r="60.4724" /> 
<circle cx="56574.8" cy="53984.3" r="60.4724" /> 
<circle cx="59252" cy="44901.6" r="60.4724" /> 
<circle cx="59389.8" cy="46929.1" r="60.4724" /> 
<circle cx="60885.8" cy="43533.5" r="60.4724" /> 
<circle cx="61850.4" cy="51348.4" r="60.4724" /> 
<circle cx="60620.1" cy="53769.7" r="60.4724" /> 
<circle cx="65147.6" cy="54202.8" r="60.4724" /> 
<circle cx="67303.1" cy="52980.3" r="60.4724" /> 
<circle cx="61456.7" cy="52858.3" r="60.4724" /> 
<circle cx="67600" cy="56500" r="60.4724" /> 
<circle cx="66900" cy="54100" r="60.4724" /> 
<circle cx="68031.5" cy="56279.5" r="60.4724" /> 
<circle cx="65531.5" cy="53070.9" r="60.4724" /> 
<circle cx="65196.9" cy="54507.9" r="60.4724" /> 
<circle cx="60374" cy="54015.7" r="60.4724" /> 
<circle cx="48455" cy="43415" r="60.4724" /> 
<circle cx="49295" cy="47010" r="60.4724" /> 
<circle cx="49030" cy="42940" r="60.4724" /> 
<circle cx="50240" cy="40200" r="60.4724" /> 
<circle cx="55921.3" cy="44086.6" r="60.4724" /> 
<circle cx="56346.5" cy="53771.7" r="60.4724" /> 
<circle cx="54409.4" cy="51204.7" r="60.4724" /> 
<circle cx="58582.7" cy="44874" r="60.4724" /> 
<circle cx="50300" cy="44150" r="60.4724" /> 
<circle cx="52300" cy="43900" r="60.4724" /> 
<circle cx="56033.5" cy="41003.9" r="40.4724" /> 
<circle cx="56033.5" cy="41318.9" r="40.4724" /> 
<circle cx="56790" cy="41600" r="40.4724" /> 
<circle cx="56730" cy="41960" r="40.4724" /> 
<circle cx="53840" cy="44650" r="40.4724" /> 
<circle cx="52600" cy="51750" r="60.4724" /> 
<circle cx="63700" cy="48275" r="60.4724" /> 
<circle cx="60725" cy="48275" r="60.4724" /> 
<circle cx="59645.7" cy="48842.5" r="60.4724" /> 
<circle cx="51300" cy="43650" r="60.4724" /> 
<circle cx="55275" cy="46825" r="60.4724" /> 
<circle cx="50650" cy="43950" r="60.4724" /> 
<circle cx="55275" cy="47150" r="60.4724" /> 
<circle cx="50640" cy="45130" r="70.4724" /> 
<circle cx="55300" cy="47600" r="60.4724" /> 
</g>
<g style="fill:#FFFFFF; fill-opacity:1.0; 
stroke:#FFFFFF; stroke-width:80; stroke-opacity:1; 
stroke-linecap:round; stroke-linejoin:round;">
<path d="M48023 51066
L48023 51062
" />
<path d="M48023 50066
L48023 50059
" />
<path d="M48720 39400
L48720 39520
" />
<path d="M50840 37280
L48720 39400
" />
<path d="M49100 39900
L50400 41200
" />
<path d="M50400 41200
L53000 41200
" />
<path d="M53000 41200
L53260 41460
" />
<path d="M53260 41460
L53260 43440
" />
<path d="M55300 45425
L53800 43925
" />
<path d="M53800 43925
L53600 43925
" />
<path d="M50690 44370
L50680 44360
" />
<path d="M59685 43907
L59685 39980
" />
<path d="M59901 44124
L59685 43907
" />
<path d="M60442 44124
L59901 44124
" />
<path d="M61377 45059
L60442 44124
" />
<path d="M61377 49035
L61377 45059
" />
<path d="M61417 49074
L61377 49035
" />
<path d="M63429 50141
L63059 50511
" />
<path d="M63429 41905
L63429 50141
" />
<path d="M62787 41263
L63429 41905
" />
<path d="M61448 41263
L62787 41263
" />
<path d="M60877 40692
L61448 41263
" />
<path d="M68025 48850
L68050 48850
" />
<path d="M64050 48850
L68025 48850
" />
<path d="M63725 48525
L64050 48850
" />
<path d="M68050 48850
L68500 48400
" />
<path d="M57003 54397
L56962 54397
" />
<path d="M56020 55340
L50570 55340
" />
<path d="M56962 54397
L56020 55340
" />
<path d="M59645 45000
L59645 47244
" />
<path d="M59566 44921
L59645 45000
" />
<path d="M60492 42606
L60492 40377
" />
<path d="M63118 45232
L60492 42606
" />
<path d="M63118 49964
L63118 45232
" />
<path d="M62921 50161
L63118 49964
" />
<path d="M57669 48547
L57669 45460
" />
<path d="M54263 51952
L57669 48547
" />
<path d="M54346 52145
L54263 51952
" />
<path d="M54665 52334
L54346 52145
" />
<path d="M57996 48559
L57996 44866
" />
<path d="M54562 51992
L57996 48559
" />
<path d="M62803 45724
L62803 49771
" />
<path d="M60007 42929
L62803 45724
" />
<path d="M60007 39346
L60007 42929
" />
<path d="M59921 39259
L60007 39346
" />
<path d="M56429 47807
L56429 44437
" />
<path d="M53464 50771
L56429 47807
" />
<path d="M53464 52429
L53464 50771
" />
<path d="M54287 53251
L53464 52429
" />
<path d="M55539 53251
L54287 53251
" />
<path d="M55688 53102
L55539 53251
" />
<path d="M57188 54594
L57188 54611
" />
<path d="M50990 55690
L50530 56150
" />
<path d="M56110 55690
L50990 55690
" />
<path d="M57188 54611
L56110 55690
" />
<path d="M55503 43846
L56023 43326
" />
<path d="M55503 47736
L55503 43846
" />
<path d="M52830 50409
L55503 47736
" />
<path d="M52830 52665
L52830 50409
" />
<path d="M54444 54279
L52830 52665
" />
<path d="M56728 54279
L54444 54279
" />
<path d="M56791 54216
L56728 54279
" />
<path d="M55905 56437
L57421 54921
" />
<path d="M56732 47846
L56732 44866
" />
<path d="M53677 50901
L56732 47846
" />
<path d="M53677 52307
L53677 50901
" />
<path d="M54401 53031
L53677 52307
" />
<path d="M55303 53031
L54401 53031
" />
<path d="M55456 52877
L55303 53031
" />
<path d="M57023 47937
L57023 45464
" />
<path d="M53905 51055
L57023 47937
" />
<path d="M53905 52255
L53905 51055
" />
<path d="M54488 52838
L53905 52255
" />
<path d="M55051 52838
L54488 52838
" />
<path d="M55236 52653
L55051 52838
" />
<path d="M52330 50570
L48999 50570
" />
<path d="M54358 48543
L52330 50570
" />
<path d="M48999 50570
L48550 51020
" />
<path d="M48550 50020
L48700 50020
" />
<path d="M54322 48240
L53003 49559
" />
<path d="M49160 49559
L53003 49559
" />
<path d="M48700 50020
L49160 49559
" />
</g>
<g style="fill:#FFFFFF; fill-opacity:1.0; 
stroke:#FFFFFF; stroke-width:100; stroke-opacity:1; 
stroke-linecap:round; stroke-linejoin:round;">
<path d="M57362 48531
L57362 44893
" />
<path d="M54094 51799
L57362 48531
" />
<path d="M54094 52153
L54094 51799
" />
<path d="M54559 52618
L54094 52153
" />
<path d="M54807 52618
L54559 52618
" />
<path d="M54968 52456
L54807 52618
" />
</g>
<g style="fill:#FFFFFF; fill-opacity:1.0; 
stroke:#FFFFFF; stroke-width:80; stroke-opacity:1; 
stroke-linecap:round; stroke-linejoin:round;">
<path d="M50650 41700
L48350 41700
" />
<path d="M51525 42575
L50650 41700
" />
<path d="M51525 43550
L51525 42575
" />
<path d="M52275 44300
L51525 43550
" />
<path d="M52450 44300
L52275 44300
" />
<path d="M55300 46550
L53050 44300
" />
<path d="M53050 44300
L52450 44300
" />
<path d="M61102 53385
L61082 53385
" />
<path d="M61417 53700
L61102 53385
" />
<path d="M65078 53700
L61417 53700
" />
<path d="M58750 32550
L59480 33280
" />
<path d="M59480 33280
L60170 33280
" />
<path d="M48450 40260
L48290 40100
" />
<path d="M48290 40100
L48290 38190
" />
<path d="M48290 38190
L52730 33750
" />
<path d="M52730 33750
L52730 32790
" />
<path d="M52730 32790
L52970 32550
" />
<path d="M52970 32550
L58750 32550
" />
<path d="M48450 40260
L48470 40260
" />
<path d="M48470 40260
L48440 40230
" />
<path d="M50575 47375
L50575 47300
" />
<path d="M50675 47475
L50575 47375
" />
<path d="M51175 47475
L50675 47475
" />
<path d="M51350 47300
L51175 47475
" />
<path d="M54600 47300
L51350 47300
" />
<path d="M55100 47800
L54600 47300
" />
<path d="M58740 45031
L58740 46972
" />
<path d="M58901 44870
L58740 45031
" />
<path d="M59429 44055
L59429 39980
" />
<path d="M59773 44399
L59429 44055
" />
<path d="M60314 44399
L59773 44399
" />
<path d="M61141 45226
L60314 44399
" />
<path d="M61141 48799
L61141 45226
" />
<path d="M61122 48818
L61141 48799
" />
<path d="M55720 47850
L55720 43940
" />
<path d="M53035 50535
L55720 47850
" />
<path d="M53035 52555
L53035 50535
" />
<path d="M54574 54094
L53035 52555
" />
<path d="M56464 54094
L54574 54094
" />
<path d="M56574 53984
L56464 54094
" />
<path d="M66874 52551
L67303 52980
" />
<path d="M61763 52551
L66874 52551
" />
<path d="M61456 52858
L61763 52551
" />
<path d="M67600 54800
L67600 56500
" />
<path d="M66900 54100
L67600 54800
" />
<path d="M65531 53070
L66811 53070
" />
<path d="M68031 54291
L68031 56279
" />
<path d="M66811 53070
L68031 54291
" />
<path d="M60866 54507
L65196 54507
" />
<path d="M60374 54015
L60866 54507
" />
<path d="M55921 47980
L55921 44086
" />
<path d="M53236 50665
L55921 47980
" />
<path d="M53236 52484
L53236 50665
" />
<path d="M54637 53885
L53236 52484
" />
<path d="M56232 53885
L54637 53885
" />
<path d="M56346 53771
L56232 53885
" />
<path d="M49550 52020
L50870 52020
" />
<path d="M51140 51750
L52600 51750
" />
<path d="M50870 52020
L51140 51750
" />
<path d="M49500 51775
L49525 51750
" />
<path d="M68025 46875
L68500 46400
" />
<path d="M66825 46875
L68025 46875
" />
<path d="M65600 48100
L66825 46875
" />
<path d="M63875 48100
L65600 48100
" />
<path d="M63700 48275
L63875 48100
" />
<path d="M51300 44125
L51300 43650
" />
<path d="M53725 46550
L51300 44125
" />
<path d="M55000 46550
L53725 46550
" />
<path d="M55275 46825
L55000 46550
" />
<path d="M53575 46875
L50650 43950
" />
<path d="M55000 46875
L53575 46875
" />
<path d="M55275 47150
L55000 46875
" />
</g>
<g style="fill:#FFFFFF; fill-opacity:1.0; 
stroke:#FFFFFF; stroke-width:100; stroke-opacity:1; 
stroke-linecap:round; stroke-linejoin:round;">
<path d="M51340 45200
L50710 45200
" />
<path d="M50710 45200
L50640 45130
" />
</g>
<g style="fill:#FFFFFF; fill-opacity:1.0; 
stroke:#FFFFFF; stroke-width:80; stroke-opacity:1; 
stroke-linecap:round; stroke-linejoin:round;">
<path d="M53240 47100
L51340 45200
" />
<path d="M51340 45200
L51335 45195
" />
<path d="M54800 47100
L53240 47100
" />
<path d="M55300 47600
L54800 47100
" />
</g>
<g style="fill:#FFFFFF; fill-opacity:1.0; 
stroke:#FFFFFF; stroke-width:59.0551; stroke-opacity:1; 
stroke-linecap:round; stroke-linejoin:round;">
<polyline style="fill-rule:evenodd;"
points="56621,54469
55941,55150
50719,55150
50706,55136
50617,55100
50522,55099
50434,55136
50366,55203
50330,55292
50329,55387
50366,55475
50433,55543
50522,55579
50617,55580
50705,55543
50719,55530
50894,55530
50864,55549
50811,55550
50809,55601
50501,55909
50482,55909
50394,55946
50326,56013
50290,56102
50289,56197
50326,56285
50393,56353
50482,56389
50577,56390
50665,56353
50733,56286
50769,56197
50769,56178
50796,56151
50751,58070
50000,58070
50000,53930
50000,52930
49931,52765
49805,52638
49639,52570
49460,52569
49295,52638
49168,52764
49100,52930
49099,53109
49168,53274
49294,53401
49460,53469
49639,53470
49804,53401
49931,53275
49999,53109
50000,52930
50000,53930
49931,53765
49805,53638
49639,53570
49460,53569
49295,53638
49168,53764
49100,53930
49099,54109
49168,54274
49294,54401
49460,54469
49639,54470
49804,54401
49931,54275
49999,54109
50000,53930
50000,58070
49000,58070
49000,53930
49000,52930
49000,51930
48931,51765
48805,51638
48639,51570
48460,51569
48295,51638
48168,51764
48100,51930
48099,52109
48168,52274
48294,52401
48460,52469
48639,52470
48804,52401
48931,52275
48999,52109
49000,51930
49000,52930
48931,52765
48805,52638
48639,52570
48460,52569
48295,52638
48168,52764
48100,52930
48099,53109
48168,53274
48294,53401
48460,53469
48639,53470
48804,53401
48931,53275
48999,53109
49000,52930
49000,53930
48931,53765
48805,53638
48639,53570
48460,53569
48295,53638
48168,53764
48100,53930
48099,54109
48168,54274
48294,54401
48460,54469
48639,54470
48804,54401
48931,54275
48999,54109
49000,53930
49000,58070
48717,58070
48059,57555
48043,51252
48096,51242
48142,51211
48168,51274
48294,51401
48460,51469
48639,51470
48804,51401
48931,51275
48999,51109
49000,50930
48973,50865
49077,50760
49172,50760
49168,50764
49100,50930
49099,51109
49168,51274
49294,51401
49460,51469
49639,51470
49804,51401
49931,51275
49999,51109
50000,50930
49931,50765
49927,50760
52330,50760
52403,50746
52465,50705
52640,50529
52640,51510
52552,51509
52464,51546
52450,51560
51140,51560
51140,51559
51067,51574
51005,51615
51005,51615
50791,51830
49958,51830
49931,51765
49805,51638
49639,51570
49575,51570
49525,51559
49475,51569
49460,51569
49295,51638
49168,51764
49100,51930
49099,52109
49168,52274
49294,52401
49460,52469
49639,52470
49804,52401
49931,52275
49958,52210
50870,52210
50942,52195
51004,52154
51218,51940
52450,51940
52463,51953
52552,51989
52640,51990
52640,52665
52655,52738
52696,52799
54310,54413
54310,54413
54310,54413
54372,54455
54444,54469
54444,54469
54444,54469
56621,54469
" /> 
</g>
<g style="fill:#FFFFFF; fill-opacity:0.0; 
stroke:#FFFFFF; stroke-width:100; stroke-opacity:1; 
stroke-linecap:round; stroke-linejoin:round;">
<polyline fill="none;"
points="56621,54469
55941,55150
50719,55150
50706,55136
50617,55100
50522,55099
50434,55136
50366,55203
50330,55292
50329,55387
50366,55475
50433,55543
50522,55579
50617,55580
50705,55543
50719,55530
50894,55530
50864,55549
50811,55550
50809,55601
50501,55909
50482,55909
50394,55946
50326,56013
50290,56102
50289,56197
50326,56285
50393,56353
50482,56389
50577,56390
50665,56353
50733,56286
50769,56197
50769,56178
50796,56151
50751,58070
50000,58070
50000,53930
50000,52930
49931,52765
49805,52638
49639,52570
49460,52569
49295,52638
49168,52764
49100,52930
49099,53109
49168,53274
49294,53401
49460,53469
49639,53470
49804,53401
49931,53275
49999,53109
50000,52930
50000,53930
49931,53765
49805,53638
49639,53570
49460,53569
49295,53638
49168,53764
49100,53930
49099,54109
49168,54274
49294,54401
49460,54469
49639,54470
49804,54401
49931,54275
49999,54109
50000,53930
50000,58070
49000,58070
49000,53930
49000,52930
49000,51930
48931,51765
48805,51638
48639,51570
48460,51569
48295,51638
48168,51764
48100,51930
48099,52109
48168,52274
48294,52401
48460,52469
48639,52470
48804,52401
48931,52275
48999,52109
49000,51930
49000,52930
48931,52765
48805,52638
48639,52570
48460,52569
48295,52638
48168,52764
48100,52930
48099,53109
48168,53274
48294,53401
48460,53469
48639,53470
48804,53401
48931,53275
48999,53109
49000,52930
49000,53930
48931,53765
48805,53638
48639,53570
48460,53569
48295,53638
48168,53764
48100,53930
48099,54109
48168,54274
48294,54401
48460,54469
48639,54470
48804,54401
48931,54275
48999,54109
49000,53930
49000,58070
48717,58070
48059,57555
48043,51252
48096,51242
48142,51211
48168,51274
48294,51401
48460,51469
48639,51470
48804,51401
48931,51275
48999,51109
49000,50930
48973,50865
49077,50760
49172,50760
49168,50764
49100,50930
49099,51109
49168,51274
49294,51401
49460,51469
49639,51470
49804,51401
49931,51275
49999,51109
50000,50930
49931,50765
49927,50760
52330,50760
52403,50746
52465,50705
52640,50529
52640,51510
52552,51509
52464,51546
52450,51560
51140,51560
51140,51559
51067,51574
51005,51615
51005,51615
50791,51830
49958,51830
49931,51765
49805,51638
49639,51570
49575,51570
49525,51559
49475,51569
49460,51569
49295,51638
49168,51764
49100,51930
49099,52109
49168,52274
49294,52401
49460,52469
49639,52470
49804,52401
49931,52275
49958,52210
50870,52210
50942,52195
51004,52154
51218,51940
52450,51940
52463,51953
52552,51989
52640,51990
52640,52665
52655,52738
52696,52799
54310,54413
54310,54413
54310,54413
54372,54455
54444,54469
54444,54469
54444,54469
56621,54469
" /> 
</g>
<g style="fill:#FFFFFF; fill-opacity:1.0; 
stroke:#FFFFFF; stroke-width:59.0551; stroke-opacity:1; 
stroke-linecap:round; stroke-linejoin:round;">
<polyline style="fill-rule:evenodd;"
points="69409,58749
69208,58749
69208,58216
69208,57216
69208,56216
69208,55216
69157,55094
69065,55001
68950,54954
68950,47310
68950,46310
68881,46145
68755,46018
68589,45950
68410,45949
68245,46018
68118,46144
68050,46310
68049,46489
68076,46554
67946,46685
67851,46685
67881,46655
67949,46489
67950,46310
67881,46145
67755,46018
67589,45950
67410,45949
67245,46018
67118,46144
67050,46310
67049,46489
67118,46654
67148,46685
66825,46685
66805,46688
66805,44720
66767,44628
66696,44558
66604,44520
66505,44519
66413,44557
66343,44628
66305,44720
66304,44819
66342,44911
66413,44981
66505,45019
66604,45020
66696,44982
66766,44911
66804,44819
66805,44720
66805,46688
66752,46699
66690,46740
66690,46740
65521,47910
63875,47910
63802,47924
63740,47965
63671,48034
63652,48034
63619,48048
63619,41905
63604,41832
63563,41771
62921,41129
62860,41088
62787,41073
61527,41073
61155,40701
61155,39655
61117,39563
61046,39493
60954,39455
60855,39454
60763,39492
60693,39563
60655,39655
60654,39754
60692,39846
60763,39916
60855,39954
60954,39955
61046,39917
61116,39846
61154,39754
61155,39655
61155,40701
61117,40664
61117,40645
61081,40557
61014,40489
60925,40452
60830,40452
60742,40489
60682,40549
60682,40527
60695,40514
60732,40425
60732,40330
60695,40242
60628,40174
60540,40137
60444,40137
60356,40174
60288,40241
60252,40330
60252,40425
60288,40513
60302,40527
60302,42606
60316,42679
60357,42740
60910,43293
60838,43293
60750,43329
60713,43366
60197,42850
60197,40171
60273,40171
60362,40134
60429,40067
60466,39979
60466,39883
60429,39795
60362,39727
60274,39691
60197,39691
60197,39346
60183,39273
60161,39240
60161,39212
60124,39124
60057,39056
59969,39019
59873,39019
59785,39056
59717,39123
59681,39211
59681,39307
59717,39395
59785,39463
59817,39476
59817,39775
59732,39740
59637,39740
59602,39754
59602,36480
59552,36359
59459,36266
59338,36215
59207,36215
59085,36265
58992,36358
58942,36479
58942,36611
58992,36732
59085,36825
59206,36875
59337,36875
59459,36825
59552,36732
59602,36611
59602,36480
59602,39754
59556,39773
59477,39740
59381,39740
59293,39776
59225,39844
59189,39932
59189,40027
59225,40116
59239,40129
59239,44055
59253,44127
59294,44189
59639,44533
59700,44575
59773,44589
60236,44589
60951,45305
60951,48195
60928,48139
60861,48071
60772,48035
60677,48034
60589,48071
60521,48138
60485,48227
60484,48322
60521,48410
60588,48478
60677,48514
60710,48514
60709,48597
60746,48685
60813,48753
60882,48781
60882,48866
60918,48954
60985,49022
61074,49058
61169,49058
61177,49055
61177,49122
61213,49210
61281,49278
61369,49314
61464,49314
61553,49278
61620,49210
61657,49122
61657,49027
61620,48939
61567,48885
61567,45059
61564,45039
61647,45040
61735,45003
61774,44964
62613,45803
62613,49622
62599,49635
62563,49723
62563,49819
62599,49907
62667,49974
62738,50004
62717,50025
62681,50113
62681,50208
62717,50297
62785,50364
62849,50391
62819,50463
62819,50559
62855,50647
62922,50715
63011,50751
63106,50751
63194,50715
63262,50647
63299,50559
63299,50540
63563,50276
63604,50214
63619,50141
63619,50141
63619,50141
63619,48740
63677,48764
63696,48764
63915,48984
63977,49025
64050,49040
68025,49040
68050,49040
68122,49025
68184,48984
68318,48850
68829,48850
68884,48827
68927,48784
68950,48729
68950,48670
68950,48070
68927,48015
68884,47972
68829,47950
68770,47950
68170,47950
68115,47972
68072,48015
68050,48070
68050,48129
68050,48581
67971,48660
67877,48660
67948,48497
67951,48318
67885,48151
67876,48138
67804,48109
67790,48123
67790,48095
67761,48023
67597,47951
67418,47948
67251,48014
67238,48023
67209,48095
67500,48385
67790,48095
67790,48123
67514,48400
67519,48405
67505,48419
67500,48414
67494,48419
67480,48405
67485,48400
67195,48109
67123,48138
67051,48302
67048,48481
67114,48648
67121,48660
64128,48660
63965,48496
63965,48477
63928,48389
63917,48377
63939,48322
63939,48303
63953,48290
65600,48290
65672,48275
65734,48234
66903,47065
67198,47065
67118,47144
67050,47310
67049,47489
67118,47654
67244,47781
67410,47849
67589,47850
67754,47781
67881,47655
67949,47489
67950,47310
67881,47145
67801,47065
68025,47065
68097,47050
68159,47009
68345,46823
68410,46849
68589,46850
68754,46781
68881,46655
68949,46489
68950,46310
68950,47310
68881,47145
68755,47018
68589,46950
68410,46949
68245,47018
68118,47144
68050,47310
68049,47489
68118,47654
68244,47781
68410,47849
68589,47850
68754,47781
68881,47655
68949,47489
68950,47310
68950,54954
68943,54951
68812,54951
68691,55001
68598,55094
68548,55215
68547,55346
68598,55468
68690,55561
68812,55611
68943,55611
69064,55561
69157,55468
69207,55347
69208,55216
69208,56216
69157,56094
69065,56001
68943,55951
68812,55951
68691,56001
68598,56094
68548,56215
68547,56346
68598,56468
68690,56561
68812,56611
68943,56611
69064,56561
69157,56468
69207,56347
69208,56216
69208,57216
69157,57094
69065,57001
68943,56951
68812,56951
68691,57001
68598,57094
68548,57215
68547,57346
68598,57468
68690,57561
68812,57611
68943,57611
69064,57561
69157,57468
69207,57347
69208,57216
69208,58216
69157,58094
69065,58001
68943,57951
68812,57951
68691,58001
68598,58094
68548,58215
68547,58346
68598,58468
68690,58561
68812,58611
68943,58611
69064,58561
69157,58468
69207,58347
69208,58216
69208,58749
68271,58749
68271,56231
68235,56143
68221,56130
68221,54291
68207,54218
68165,54156
67210,53201
67255,53220
67350,53220
67438,53183
67506,53116
67543,53028
67543,52932
67506,52844
67439,52776
67351,52740
67331,52740
67008,52416
66946,52375
66874,52361
62710,52361
62710,51222
62674,51133
62606,51066
62518,51029
62422,51029
62334,51066
62267,51133
62230,51221
62230,51317
62266,51405
62334,51473
62422,51509
62518,51509
62606,51473
62673,51405
62710,51317
62710,51222
62710,52361
62090,52361
62090,51300
62053,51212
61986,51145
61898,51108
61802,51108
61714,51144
61647,51212
61645,51217
61645,50130
61607,50038
61536,49968
61444,49930
61439,49930
61440,49852
61403,49764
61336,49696
61247,49660
61152,49659
61064,49696
60996,49763
60960,49852
60959,49947
60996,50035
61063,50103
61145,50137
61144,50229
61182,50321
61253,50391
61345,50429
61444,50430
61536,50392
61606,50321
61644,50229
61645,50130
61645,51217
61610,51300
61610,51360
61552,51359
61464,51396
61396,51463
61360,51552
61360,51559
61352,51559
61264,51596
61196,51663
61160,51752
61159,51847
61196,51935
61263,52003
61352,52039
61447,52040
61535,52003
61603,51936
61639,51847
61639,51840
61647,51840
61735,51803
61803,51736
61839,51647
61840,51588
61897,51588
61986,51552
62053,51484
62090,51396
62090,51300
62090,52361
61763,52361
61763,52361
61691,52375
61629,52416
61629,52416
61428,52618
61409,52618
61320,52654
61253,52722
61216,52810
61216,52905
61253,52994
61320,53061
61408,53098
61504,53098
61571,53070
61555,53110
61554,53170
61478,53201
61410,53269
61374,53357
61374,53388
61322,53336
61286,53250
61218,53182
61130,53145
61035,53145
60946,53182
60879,53249
60871,53269
60847,53260
60752,53259
60664,53296
60596,53363
60560,53452
60559,53534
60484,53566
60416,53633
60380,53721
60380,53775
60326,53775
60238,53812
60170,53879
60134,53967
60133,54063
60170,54151
60237,54219
60326,54255
60345,54255
60731,54642
60793,54683
60866,54697
65047,54697
65060,54711
65148,54747
65244,54747
65332,54711
65400,54644
65436,54555
65436,54460
65400,54372
65355,54327
65387,54250
65387,54155
65351,54066
65283,53999
65195,53962
65100,53962
65011,53999
64944,54066
64907,54154
64907,54250
64935,54317
60944,54317
60636,54009
60667,54009
60755,53973
60823,53905
60860,53817
60860,53734
60935,53703
61003,53636
61011,53616
61034,53625
61073,53625
61282,53835
61344,53876
61417,53890
64929,53890
64942,53904
65030,53940
65126,53940
65214,53904
65282,53836
65318,53748
65318,53653
65282,53565
65214,53497
65126,53460
65031,53460
64942,53497
64929,53510
61830,53510
61854,53453
61854,53410
61854,53410
61946,53372
62016,53301
62054,53209
62055,53110
62017,53018
61946,52948
61854,52910
61755,52909
61682,52940
61696,52906
61696,52886
61842,52741
66256,52741
66256,52823
66279,52880
65680,52880
65667,52867
65579,52830
65483,52830
65395,52867
65328,52934
65291,53022
65291,53118
65327,53206
65395,53274
65483,53310
65579,53310
65667,53274
65680,53260
66732,53260
67131,53660
67052,53659
66964,53696
66896,53763
66860,53852
66860,53859
66852,53859
66764,53896
66696,53963
66660,54052
66659,54147
66696,54235
66763,54303
66852,54339
66871,54339
67410,54878
67410,56350
67396,56363
67360,56452
67359,56547
67396,56635
67463,56703
67552,56739
67647,56740
67735,56703
67803,56636
67839,56547
67840,56452
67803,56364
67790,56350
67790,54800
67790,54800
67790,54800
67775,54727
67734,54665
67190,54122
67235,54103
67303,54036
67339,53947
67340,53868
67841,54370
67841,56130
67828,56143
67791,56231
67791,56327
67827,56415
67895,56482
67983,56519
68079,56519
68167,56483
68234,56415
68271,56327
68271,56231
68271,58749
60159,58743
60241,58688
60325,58563
60354,58415
60354,58119
60325,57971
60241,57846
60116,57762
60010,57741
60010,57118
59944,56958
59905,56919
59905,53377
59885,53330
59885,48794
59885,47196
59849,47108
59835,47094
59835,45000
59835,45000
59835,45000
59821,44927
59806,44905
59806,44873
59770,44785
59703,44717
59614,44681
59519,44681
59431,44717
59419,44729
59388,44698
59299,44661
59204,44661
59180,44671
59180,40702
59143,40614
59076,40546
58987,40510
58895,40509
58895,37187
58895,35773
58845,35651
58752,35558
58631,35508
58500,35508
58378,35558
58285,35651
58235,35772
58235,35903
58285,36025
58378,36118
58499,36168
58630,36168
58752,36118
58844,36025
58895,35904
58895,35773
58895,37187
58845,37066
58752,36973
58631,36922
58500,36922
58378,36972
58285,37065
58235,37186
58235,37318
58285,37439
58378,37532
58499,37582
58630,37582
58752,37532
58844,37439
58895,37318
58895,37187
58895,40509
58892,40509
58804,40546
58736,40613
58700,40702
58699,40797
58736,40885
58803,40953
58892,40989
58987,40990
59075,40953
59143,40886
59179,40797
59180,40702
59180,44671
59116,44697
59092,44721
59037,44666
58949,44630
58854,44630
58765,44666
58740,44692
58718,44670
58630,44634
58535,44633
58446,44670
58379,44737
58342,44826
58342,44921
58379,45009
58446,45077
58534,45113
58550,45113
58550,46822
58536,46836
58500,46924
58500,47019
58536,47108
58604,47175
58692,47212
58787,47212
58875,47176
58943,47108
58980,47020
58980,46924
58943,46836
58930,46823
58930,45110
58930,45110
58949,45110
59037,45073
59061,45050
59115,45104
59204,45141
59299,45141
59387,45105
59399,45093
59430,45124
59455,45134
59455,46696
59437,46689
59342,46689
59253,46725
59186,46793
59149,46881
59149,46976
59186,47064
59253,47132
59341,47169
59416,47169
59405,47196
59405,47291
59442,47379
59509,47447
59597,47484
59693,47484
59781,47447
59849,47380
59885,47292
59885,47196
59885,48794
59849,48706
59781,48639
59693,48602
59598,48602
59509,48638
59442,48706
59405,48794
59405,48890
59442,48978
59509,49045
59597,49082
59693,49082
59781,49046
59849,48978
59885,48890
59885,48794
59885,53330
59868,53289
59801,53221
59713,53185
59617,53185
59529,53221
59462,53289
59425,53377
59425,53472
59461,53560
59529,53628
59617,53665
59712,53665
59801,53628
59868,53561
59905,53473
59905,53377
59905,56919
59821,56835
59661,56769
59550,56769
59550,53822
59513,53734
59446,53666
59357,53630
59262,53629
59174,53666
59106,53733
59070,53822
59069,53917
59106,54005
59173,54073
59262,54109
59357,54110
59445,54073
59513,54006
59549,53917
59550,53822
59550,56769
59488,56769
59328,56835
59205,56957
59139,57117
59139,57290
59205,57451
59327,57573
59487,57640
59661,57640
59821,57574
59943,57451
60010,57291
60010,57118
60010,57741
59968,57733
59820,57762
59695,57846
59611,57971
59582,58119
59582,58415
59611,58563
59695,58688
59776,58743
58041,58742
58041,57118
57975,56958
57853,56835
57693,56769
57520,56769
57359,56835
57237,56957
57170,57117
57170,57290
57236,57451
57359,57573
57519,57640
57692,57640
57852,57574
57975,57451
58041,57291
58041,57118
58041,58742
57406,58741
57485,58688
57569,58563
57598,58415
57598,58119
57569,57971
57485,57846
57360,57762
57212,57733
57064,57762
56939,57846
56855,57971
56826,58119
56826,58415
56855,58563
56939,58688
57018,58741
54890,58740
54899,55880
56110,55880
56182,55865
56244,55824
57181,54887
57181,54892
55876,56196
55857,56196
55769,56233
55702,56300
55665,56389
55665,56484
55701,56572
55769,56640
55857,56676
55953,56677
56041,56640
56108,56573
56145,56484
56145,56465
57449,55161
57468,55161
57557,55124
57624,55057
57661,54969
57661,54873
57624,54785
57557,54717
57469,54681
57412,54681
57428,54642
57429,54546
57392,54458
57325,54391
57243,54357
57243,54350
57207,54261
57140,54194
57051,54157
57026,54157
56994,54080
56927,54013
56839,53976
56814,53976
56814,53936
56778,53848
56710,53780
56622,53744
56586,53744
56586,53724
56550,53635
56482,53568
56394,53531
56298,53531
56210,53568
56143,53635
56118,53695
54716,53695
54462,53441
55539,53441
55612,53427
55673,53386
55717,53342
55736,53342
55824,53305
55892,53238
55928,53150
55929,53054
55892,52966
55825,52899
55736,52862
55696,52862
55696,52830
55660,52742
55592,52674
55504,52637
55476,52637
55476,52606
55439,52517
55372,52450
55284,52413
55218,52413
55218,52407
55180,52315
55110,52244
55018,52206
54918,52206
54878,52223
54868,52198
54801,52131
54770,52118
54802,52040
54802,52020
58130,48693
58171,48631
58186,48559
58186,45693
58259,45724
58354,45724
58442,45687
58510,45620
58547,45532
58547,45436
58510,45348
58443,45280
58355,45244
58259,45244
58186,45274
58186,45015
58199,45002
58236,44914
58236,44818
58199,44730
58188,44719
58188,36480
58188,35066
58138,34944
58045,34851
57924,34801
57792,34801
57671,34851
57578,34944
57528,35065
57528,35196
57578,35318
57671,35411
57792,35461
57923,35461
58044,35411
58137,35318
58188,35197
58188,35066
58188,36480
58138,36359
58045,36266
57924,36215
57792,36215
57671,36265
57578,36358
57528,36479
57528,36611
57578,36732
57671,36825
57792,36875
57923,36875
58044,36825
58137,36732
58188,36611
58188,36480
58188,44719
58132,44662
58044,44626
57948,44626
57860,44662
57792,44730
57756,44818
57756,44913
57792,45001
57806,45015
57806,45257
57805,45257
57717,45220
57621,45220
57562,45245
57562,45047
57574,45035
57612,44943
57612,44844
57574,44752
57504,44681
57481,44672
57481,35773
57431,35651
57338,35558
57217,35508
57085,35508
56964,35558
56871,35651
56821,35772
56821,35903
56871,36025
56963,36118
57085,36168
57216,36168
57337,36118
57430,36025
57481,35904
57481,35773
57481,44672
57412,44643
57312,44643
57220,44681
57150,44751
57112,44843
57112,44943
57150,45035
57162,45047
57162,45263
57159,45261
57071,45224
57010,45224
57010,41556
56976,41475
56914,41413
56833,41380
56774,41379
56774,35066
56723,34944
56631,34851
56509,34801
56378,34801
56257,34851
56164,34944
56114,35065
56113,35196
56164,35318
56256,35411
56378,35461
56509,35461
56630,35411
56723,35318
56773,35197
56774,35066
56774,41379
56746,41379
56665,41413
56603,41475
56570,41556
56569,41643
56603,41724
56638,41759
56605,41773
56560,41818
56560,40275
56522,40183
56505,40166
56505,36376
56413,36155
56244,35985
56022,35893
55782,35893
55561,35984
55391,36154
55299,36375
55299,36615
55390,36837
55560,37006
55781,37098
56021,37099
56243,37007
56412,36838
56504,36616
56505,36376
56505,40166
56451,40113
56359,40075
56260,40074
56168,40112
56098,40183
56060,40275
56059,40374
56097,40466
56168,40536
56260,40574
56359,40575
56451,40537
56521,40466
56559,40374
56560,40275
56560,41818
56543,41835
56510,41916
56509,42003
56543,42084
56605,42146
56686,42179
56773,42180
56854,42146
56916,42084
56949,42003
56950,41916
56916,41835
56881,41800
56914,41786
56976,41724
57009,41643
57010,41556
57010,45224
56976,45224
56922,45246
56922,45015
56935,45002
56972,44914
56972,44818
56935,44730
56868,44662
56780,44626
56684,44626
56619,44653
56619,44586
56632,44573
56669,44484
56669,44389
56632,44301
56565,44233
56477,44197
56381,44196
56293,44233
56225,44300
56189,44389
56189,44484
56225,44572
56239,44586
56239,47728
56111,47856
56111,44236
56124,44222
56161,44134
56161,44039
56124,43950
56057,43883
55969,43846
55941,43846
55924,43805
55869,43750
56052,43566
56071,43566
56159,43530
56226,43462
56263,43374
56263,43279
56253,43254
56253,41275
56220,41194
56187,41161
56219,41128
56253,41047
56253,40960
56220,40879
56158,40817
56077,40783
55989,40783
55909,40817
55847,40879
55813,40959
55813,41047
55846,41128
55879,41161
55847,41194
55813,41274
55813,41362
55846,41443
55908,41505
55989,41538
56077,41538
56157,41505
56219,41443
56253,41362
56253,41275
56253,43254
56227,43191
56159,43123
56071,43086
55976,43086
55910,43114
55910,42180
55872,42088
55801,42018
55797,42016
55797,37430
55748,37310
55656,37218
55536,37168
55405,37168
55285,37218
55241,37262
55241,37152
55191,37032
55099,36940
54979,36890
54907,36890
54907,36539
54857,36419
54765,36327
54645,36277
54515,36277
54394,36327
54350,36371
54350,36261
54300,36141
54208,36049
54088,35999
53958,35999
53838,36048
53745,36140
53696,36261
53695,36391
53745,36511
53837,36603
53957,36653
54087,36653
54208,36603
54252,36559
54252,36669
54302,36789
54394,36881
54514,36931
54644,36932
54765,36882
54857,36790
54907,36670
54907,36539
54907,36890
54849,36890
54728,36939
54636,37031
54586,37151
54586,37282
54636,37402
54728,37494
54848,37544
54978,37544
55099,37494
55143,37450
55143,37560
55193,37680
55285,37772
55405,37822
55535,37822
55655,37773
55747,37681
55797,37560
55797,37430
55797,42016
55709,41980
55610,41979
55518,42017
55448,42088
55410,42180
55409,42279
55447,42371
55518,42441
55610,42479
55709,42480
55801,42442
55871,42371
55909,42279
55910,42180
55910,43114
55887,43123
55820,43190
55783,43278
55783,43298
55369,43712
55328,43773
55313,43846
55313,45170
55241,45097
55241,37987
55191,37867
55099,37775
54979,37725
54849,37725
54728,37774
54636,37866
54586,37987
54586,38117
54636,38237
54728,38329
54848,38379
54978,38379
55099,38329
55191,38237
55241,38117
55241,37987
55241,45097
54684,44540
54684,38544
54634,38424
54545,38334
54545,37848
54495,37728
54403,37636
54350,37613
54350,37096
54300,36976
54208,36884
54088,36834
53958,36834
53838,36884
53745,36976
53696,37096
53695,37226
53745,37346
53837,37438
53957,37488
54087,37488
54208,37439
54300,37347
54350,37226
54350,37096
54350,37613
54283,37586
54153,37585
54032,37635
53940,37727
53890,37847
53890,37978
53940,38098
54032,38190
54152,38240
54282,38240
54403,38190
54495,38098
54545,37978
54545,37848
54545,38334
54542,38331
54422,38282
54292,38281
54172,38331
54080,38423
54030,38543
54029,38673
54079,38794
54171,38886
54291,38936
54422,38936
54542,38886
54634,38794
54684,38674
54684,38544
54684,44540
54598,44455
54598,42329
54528,42158
54397,42027
54226,41956
54127,41956
54127,39101
54077,38980
53988,38891
53988,38405
53938,38284
53846,38192
53793,38170
53793,37653
53743,37533
53654,37443
53654,36957
53604,36837
53512,36745
53392,36695
53262,36695
53142,36744
53049,36836
53000,36957
52999,37087
53049,37207
53141,37299
53261,37349
53391,37349
53512,37299
53604,37207
53654,37087
53654,36957
53654,37443
53651,37441
53531,37391
53401,37391
53281,37440
53189,37532
53139,37652
53139,37783
53188,37903
53280,37995
53401,38045
53531,38045
53651,37995
53743,37903
53793,37783
53793,37653
53793,38170
53726,38142
53596,38142
53476,38192
53384,38284
53334,38404
53334,38534
53383,38655
53475,38747
53595,38797
53726,38797
53846,38747
53938,38655
53988,38535
53988,38405
53988,38891
53986,38888
53865,38838
53735,38838
53615,38888
53523,38980
53473,39100
53473,39230
53522,39351
53614,39443
53735,39493
53865,39493
53985,39443
54077,39351
54127,39231
54127,39101
54127,41956
54041,41956
53870,42026
53739,42157
53668,42328
53668,42513
53739,42684
53870,42815
54040,42886
54225,42886
54396,42815
54527,42684
54598,42514
54598,42329
54598,44455
53934,43790
53872,43749
53800,43735
53749,43735
53736,43721
53647,43685
53570,43684
53570,39657
53521,39537
53429,39445
53309,39395
53198,39395
53242,39351
53292,39231
53292,39101
53242,38980
53236,38974
53236,38210
53187,38090
53097,38000
53097,37514
53047,37394
52955,37301
52835,37252
52705,37251
52585,37301
52493,37393
52443,37513
52443,37643
52492,37764
52584,37856
52705,37906
52835,37906
52955,37856
53047,37764
53097,37644
53097,37514
53097,38000
53095,37997
52974,37948
52844,37947
52724,37997
52632,38089
52582,38209
52582,38339
52632,38460
52724,38552
52844,38602
52974,38602
53094,38552
53186,38460
53236,38340
53236,38210
53236,38974
53150,38888
53030,38838
52900,38838
52780,38888
52688,38980
52680,38999
52680,38767
52630,38646
52538,38554
52418,38504
52307,38504
52351,38460
52401,38340
52401,38210
52351,38090
52259,37997
52139,37948
52009,37947
51889,37997
51797,38089
51747,38209
51747,38339
51796,38460
51888,38552
52009,38602
52119,38602
52075,38646
52025,38766
52025,38896
52075,39016
52167,39109
52287,39159
52417,39159
52537,39109
52630,39017
52679,38897
52680,38767
52680,38999
52638,39100
52638,39230
52687,39351
52779,39443
52899,39493
53010,39493
52966,39537
52916,39657
52916,39787
52966,39907
53058,39999
53178,40049
53308,40049
53428,40000
53520,39908
53570,39788
53570,39657
53570,43684
53552,43684
53500,43706
53500,43392
53463,43304
53450,43290
53450,41460
53450,41460
53450,41460
53435,41387
53394,41325
53394,41325
53394,41325
53134,41065
53072,41024
53000,41010
52847,41010
52847,40034
52755,39813
52586,39643
52364,39551
52124,39551
51903,39642
51733,39812
51641,40033
51641,40273
51732,40495
51902,40664
52123,40756
52363,40757
52585,40665
52754,40496
52846,40274
52847,40034
52847,41010
50480,41010
50480,40152
50443,40064
50376,39996
50287,39960
50192,39959
50104,39996
50036,40063
50000,40152
49999,40247
50036,40335
50103,40403
50192,40439
50287,40440
50375,40403
50443,40336
50479,40247
50480,40152
50480,41010
50478,41010
49340,39871
49340,39852
49303,39764
49236,39696
49147,39660
49052,39659
48964,39696
48896,39763
48860,39852
48859,39947
48896,40035
48963,40103
49052,40139
49071,40139
50265,41334
50327,41375
50400,41390
52921,41390
53070,41538
53070,43290
53056,43303
53020,43392
53019,43487
53056,43575
53123,43643
53212,43679
53307,43680
53395,43643
53463,43576
53499,43487
53500,43392
53500,43706
53464,43721
53396,43788
53360,43877
53359,43972
53396,44060
53463,44128
53552,44164
53647,44165
53735,44128
55059,45453
55059,45472
55096,45560
55163,45628
55252,45664
55313,45665
55313,46295
53887,44868
53964,44836
54026,44774
54059,44693
54060,44606
54026,44525
53964,44463
53883,44430
53796,44429
53715,44463
53653,44525
53621,44602
53184,44165
53122,44124
53050,44110
52450,44110
52420,44110
52435,44103
52503,44036
52539,43947
52540,43852
52503,43764
52436,43696
52347,43660
52252,43659
52164,43696
52096,43763
52070,43826
51715,43471
51715,42575
51715,42575
51715,42575
51700,42502
51659,42440
51659,42440
51659,42440
50784,41565
50722,41524
50650,41510
48499,41510
48486,41496
48397,41460
48302,41459
48214,41496
48146,41563
48110,41652
48109,41747
48146,41835
48213,41903
48302,41939
48397,41940
48485,41903
48499,41890
50571,41890
51335,42653
51335,43410
51252,43409
51164,43446
51096,43513
51090,43529
51090,43290
51052,43198
50981,43128
50889,43090
50790,43089
50698,43127
50628,43198
50590,43290
50589,43389
50627,43481
50698,43551
50790,43589
50889,43590
50981,43552
51051,43481
51089,43389
51090,43290
51090,43529
51060,43602
51059,43697
51096,43785
51110,43799
51110,44125
51114,44145
50890,43921
50890,43902
50853,43814
50786,43746
50697,43710
50602,43709
50514,43746
50446,43813
50410,43902
50410,43935
50347,43910
50252,43909
50250,43910
50279,43839
50280,43740
50242,43648
50171,43578
50079,43540
49980,43539
49888,43577
49818,43648
49780,43740
49779,43839
49817,43931
49888,44001
49980,44039
50079,44040
50087,44036
50060,44102
50059,44197
50096,44285
50163,44353
50252,44389
50347,44390
50435,44353
50450,44339
50449,44417
50486,44505
50553,44573
50642,44609
50737,44610
50825,44573
50893,44506
50906,44474
53341,46910
53318,46910
51509,45101
51481,45058
51416,45015
51340,45000
50856,45000
50852,44988
50781,44918
50689,44880
50590,44879
50498,44917
50428,44988
50390,45080
50389,45179
50427,45271
50498,45341
50590,45379
50626,45379
50633,45384
50633,45384
50710,45400
51271,45400
52981,47110
51730,47110
51730,46172
51693,46084
51626,46016
51537,45980
51442,45979
51354,46016
51286,46083
51250,46172
51249,46267
51286,46355
51353,46423
51442,46459
51537,46460
51625,46423
51693,46356
51729,46267
51730,46172
51730,47110
51350,47110
51277,47124
51215,47165
51096,47285
50815,47285
50815,47252
50778,47164
50711,47096
50622,47060
50527,47059
50439,47096
50371,47163
50335,47252
50334,47347
50371,47435
50432,47496
50440,47509
50540,47609
50602,47650
50675,47665
51175,47665
51247,47650
51309,47609
51428,47490
54158,47490
54157,47491
54157,47586
54194,47675
54211,47692
54154,47749
54118,47837
54118,47933
54154,48021
54178,48045
54119,48104
54082,48192
54082,48211
52925,49369
50315,49369
50315,46237
50278,46149
50211,46081
50122,46045
50027,46044
49939,46081
49871,46148
49835,46237
49834,46332
49871,46420
49938,46488
50027,46524
50122,46525
50210,46488
50278,46421
50314,46332
50315,46237
50315,49369
49535,49369
49535,46962
49498,46874
49431,46806
49342,46770
49315,46770
49315,44252
49278,44164
49270,44155
49270,42892
49233,42804
49166,42736
49077,42700
48982,42699
48894,42736
48826,42803
48790,42892
48789,42987
48826,43075
48893,43143
48982,43179
49077,43180
49165,43143
49233,43076
49269,42987
49270,42892
49270,44155
49211,44096
49122,44060
49027,44059
48939,44096
48871,44163
48835,44252
48834,44347
48871,44435
48938,44503
49027,44539
49122,44540
49210,44503
49278,44436
49314,44347
49315,44252
49315,46770
49247,46769
49159,46806
49145,46820
49145,46095
49107,46003
49036,45933
48944,45895
48845,45894
48753,45932
48695,45991
48695,43367
48658,43279
48591,43211
48502,43175
48407,43174
48319,43211
48251,43278
48215,43367
48214,43462
48251,43550
48318,43618
48407,43654
48502,43655
48590,43618
48658,43551
48694,43462
48695,43367
48695,45991
48683,46003
48645,46095
48644,46194
48682,46286
48753,46356
48845,46394
48944,46395
49036,46357
49106,46286
49144,46194
49145,46095
49145,46820
49091,46873
49055,46962
49054,47057
49091,47145
49158,47213
49247,47249
49342,47250
49430,47213
49498,47146
49534,47057
49535,46962
49535,49369
49160,49369
49088,49383
49026,49424
48880,49570
48879,49570
48820,49570
48560,49570
48560,46535
48522,46443
48451,46373
48359,46335
48260,46334
48168,46372
48098,46443
48060,46535
48059,46634
48097,46726
48168,46796
48260,46834
48359,46835
48451,46797
48521,46726
48559,46634
48560,46535
48560,49570
48220,49570
48165,49592
48122,49635
48100,49690
48100,49749
48100,49885
48096,49883
48039,49872
48010,38350
48100,38260
48100,40100
48114,40172
48155,40234
48230,40309
48266,40395
48333,40463
48422,40499
48517,40500
48605,40463
48673,40396
48709,40307
48710,40212
48673,40124
48606,40056
48517,40020
48480,40020
48480,39567
48516,39655
48583,39723
48672,39759
48767,39760
48855,39723
48923,39656
48959,39567
48960,39472
48947,39441
50148,38240
50060,38452
50060,38692
50151,38913
50321,39083
50542,39175
50782,39175
51003,39084
51173,38914
51265,38693
51265,38453
51174,38232
51004,38062
50783,37970
50543,37970
50330,38058
50868,37520
50887,37520
50975,37483
51043,37416
51072,37346
51175,37389
51376,37389
51561,37312
51703,37171
51780,36985
51780,36785
51708,36609
51882,36682
52083,36682
52268,36605
52410,36463
52487,36278
52487,36078
52411,35892
52269,35750
52084,35673
51883,35673
51698,35750
51556,35891
51479,36077
51479,36277
51551,36453
51377,36380
51176,36380
50991,36457
50849,36598
50772,36784
50771,36984
50794,37039
50792,37039
50704,37076
50636,37143
50600,37232
50600,37251
48585,39265
48544,39327
48537,39363
48516,39383
48480,39472
48480,39519
48480,38268
52389,34359
52950,34358
52949,34407
52986,34495
53053,34563
53142,34599
53237,34600
53325,34563
53393,34496
53429,34407
53430,34358
54092,34357
53980,34403
53810,34573
53718,34794
53718,35034
53809,35255
53979,35425
54200,35517
54440,35517
54662,35426
54831,35256
54923,35035
54923,34795
54832,34573
54662,34404
54547,34356
56823,34353
56821,34358
56821,34489
56871,34611
56963,34703
57085,34754
57216,34754
57337,34704
57430,34611
57481,34490
57481,34359
57478,34352
59349,34350
62139,37150
64449,37130
64419,39490
69360,39490
69409,58749
" /> 
</g>
<g style="fill:#FFFFFF; fill-opacity:0.0; 
stroke:#FFFFFF; stroke-width:100; stroke-opacity:1; 
stroke-linecap:round; stroke-linejoin:round;">
<polyline fill="none;"
points="69409,58749
69208,58749
69208,58216
69208,57216
69208,56216
69208,55216
69157,55094
69065,55001
68950,54954
68950,47310
68950,46310
68881,46145
68755,46018
68589,45950
68410,45949
68245,46018
68118,46144
68050,46310
68049,46489
68076,46554
67946,46685
67851,46685
67881,46655
67949,46489
67950,46310
67881,46145
67755,46018
67589,45950
67410,45949
67245,46018
67118,46144
67050,46310
67049,46489
67118,46654
67148,46685
66825,46685
66805,46688
66805,44720
66767,44628
66696,44558
66604,44520
66505,44519
66413,44557
66343,44628
66305,44720
66304,44819
66342,44911
66413,44981
66505,45019
66604,45020
66696,44982
66766,44911
66804,44819
66805,44720
66805,46688
66752,46699
66690,46740
66690,46740
65521,47910
63875,47910
63802,47924
63740,47965
63671,48034
63652,48034
63619,48048
63619,41905
63604,41832
63563,41771
62921,41129
62860,41088
62787,41073
61527,41073
61155,40701
61155,39655
61117,39563
61046,39493
60954,39455
60855,39454
60763,39492
60693,39563
60655,39655
60654,39754
60692,39846
60763,39916
60855,39954
60954,39955
61046,39917
61116,39846
61154,39754
61155,39655
61155,40701
61117,40664
61117,40645
61081,40557
61014,40489
60925,40452
60830,40452
60742,40489
60682,40549
60682,40527
60695,40514
60732,40425
60732,40330
60695,40242
60628,40174
60540,40137
60444,40137
60356,40174
60288,40241
60252,40330
60252,40425
60288,40513
60302,40527
60302,42606
60316,42679
60357,42740
60910,43293
60838,43293
60750,43329
60713,43366
60197,42850
60197,40171
60273,40171
60362,40134
60429,40067
60466,39979
60466,39883
60429,39795
60362,39727
60274,39691
60197,39691
60197,39346
60183,39273
60161,39240
60161,39212
60124,39124
60057,39056
59969,39019
59873,39019
59785,39056
59717,39123
59681,39211
59681,39307
59717,39395
59785,39463
59817,39476
59817,39775
59732,39740
59637,39740
59602,39754
59602,36480
59552,36359
59459,36266
59338,36215
59207,36215
59085,36265
58992,36358
58942,36479
58942,36611
58992,36732
59085,36825
59206,36875
59337,36875
59459,36825
59552,36732
59602,36611
59602,36480
59602,39754
59556,39773
59477,39740
59381,39740
59293,39776
59225,39844
59189,39932
59189,40027
59225,40116
59239,40129
59239,44055
59253,44127
59294,44189
59639,44533
59700,44575
59773,44589
60236,44589
60951,45305
60951,48195
60928,48139
60861,48071
60772,48035
60677,48034
60589,48071
60521,48138
60485,48227
60484,48322
60521,48410
60588,48478
60677,48514
60710,48514
60709,48597
60746,48685
60813,48753
60882,48781
60882,48866
60918,48954
60985,49022
61074,49058
61169,49058
61177,49055
61177,49122
61213,49210
61281,49278
61369,49314
61464,49314
61553,49278
61620,49210
61657,49122
61657,49027
61620,48939
61567,48885
61567,45059
61564,45039
61647,45040
61735,45003
61774,44964
62613,45803
62613,49622
62599,49635
62563,49723
62563,49819
62599,49907
62667,49974
62738,50004
62717,50025
62681,50113
62681,50208
62717,50297
62785,50364
62849,50391
62819,50463
62819,50559
62855,50647
62922,50715
63011,50751
63106,50751
63194,50715
63262,50647
63299,50559
63299,50540
63563,50276
63604,50214
63619,50141
63619,50141
63619,50141
63619,48740
63677,48764
63696,48764
63915,48984
63977,49025
64050,49040
68025,49040
68050,49040
68122,49025
68184,48984
68318,48850
68829,48850
68884,48827
68927,48784
68950,48729
68950,48670
68950,48070
68927,48015
68884,47972
68829,47950
68770,47950
68170,47950
68115,47972
68072,48015
68050,48070
68050,48129
68050,48581
67971,48660
67877,48660
67948,48497
67951,48318
67885,48151
67876,48138
67804,48109
67790,48123
67790,48095
67761,48023
67597,47951
67418,47948
67251,48014
67238,48023
67209,48095
67500,48385
67790,48095
67790,48123
67514,48400
67519,48405
67505,48419
67500,48414
67494,48419
67480,48405
67485,48400
67195,48109
67123,48138
67051,48302
67048,48481
67114,48648
67121,48660
64128,48660
63965,48496
63965,48477
63928,48389
63917,48377
63939,48322
63939,48303
63953,48290
65600,48290
65672,48275
65734,48234
66903,47065
67198,47065
67118,47144
67050,47310
67049,47489
67118,47654
67244,47781
67410,47849
67589,47850
67754,47781
67881,47655
67949,47489
67950,47310
67881,47145
67801,47065
68025,47065
68097,47050
68159,47009
68345,46823
68410,46849
68589,46850
68754,46781
68881,46655
68949,46489
68950,46310
68950,47310
68881,47145
68755,47018
68589,46950
68410,46949
68245,47018
68118,47144
68050,47310
68049,47489
68118,47654
68244,47781
68410,47849
68589,47850
68754,47781
68881,47655
68949,47489
68950,47310
68950,54954
68943,54951
68812,54951
68691,55001
68598,55094
68548,55215
68547,55346
68598,55468
68690,55561
68812,55611
68943,55611
69064,55561
69157,55468
69207,55347
69208,55216
69208,56216
69157,56094
69065,56001
68943,55951
68812,55951
68691,56001
68598,56094
68548,56215
68547,56346
68598,56468
68690,56561
68812,56611
68943,56611
69064,56561
69157,56468
69207,56347
69208,56216
69208,57216
69157,57094
69065,57001
68943,56951
68812,56951
68691,57001
68598,57094
68548,57215
68547,57346
68598,57468
68690,57561
68812,57611
68943,57611
69064,57561
69157,57468
69207,57347
69208,57216
69208,58216
69157,58094
69065,58001
68943,57951
68812,57951
68691,58001
68598,58094
68548,58215
68547,58346
68598,58468
68690,58561
68812,58611
68943,58611
69064,58561
69157,58468
69207,58347
69208,58216
69208,58749
68271,58749
68271,56231
68235,56143
68221,56130
68221,54291
68207,54218
68165,54156
67210,53201
67255,53220
67350,53220
67438,53183
67506,53116
67543,53028
67543,52932
67506,52844
67439,52776
67351,52740
67331,52740
67008,52416
66946,52375
66874,52361
62710,52361
62710,51222
62674,51133
62606,51066
62518,51029
62422,51029
62334,51066
62267,51133
62230,51221
62230,51317
62266,51405
62334,51473
62422,51509
62518,51509
62606,51473
62673,51405
62710,51317
62710,51222
62710,52361
62090,52361
62090,51300
62053,51212
61986,51145
61898,51108
61802,51108
61714,51144
61647,51212
61645,51217
61645,50130
61607,50038
61536,49968
61444,49930
61439,49930
61440,49852
61403,49764
61336,49696
61247,49660
61152,49659
61064,49696
60996,49763
60960,49852
60959,49947
60996,50035
61063,50103
61145,50137
61144,50229
61182,50321
61253,50391
61345,50429
61444,50430
61536,50392
61606,50321
61644,50229
61645,50130
61645,51217
61610,51300
61610,51360
61552,51359
61464,51396
61396,51463
61360,51552
61360,51559
61352,51559
61264,51596
61196,51663
61160,51752
61159,51847
61196,51935
61263,52003
61352,52039
61447,52040
61535,52003
61603,51936
61639,51847
61639,51840
61647,51840
61735,51803
61803,51736
61839,51647
61840,51588
61897,51588
61986,51552
62053,51484
62090,51396
62090,51300
62090,52361
61763,52361
61763,52361
61691,52375
61629,52416
61629,52416
61428,52618
61409,52618
61320,52654
61253,52722
61216,52810
61216,52905
61253,52994
61320,53061
61408,53098
61504,53098
61571,53070
61555,53110
61554,53170
61478,53201
61410,53269
61374,53357
61374,53388
61322,53336
61286,53250
61218,53182
61130,53145
61035,53145
60946,53182
60879,53249
60871,53269
60847,53260
60752,53259
60664,53296
60596,53363
60560,53452
60559,53534
60484,53566
60416,53633
60380,53721
60380,53775
60326,53775
60238,53812
60170,53879
60134,53967
60133,54063
60170,54151
60237,54219
60326,54255
60345,54255
60731,54642
60793,54683
60866,54697
65047,54697
65060,54711
65148,54747
65244,54747
65332,54711
65400,54644
65436,54555
65436,54460
65400,54372
65355,54327
65387,54250
65387,54155
65351,54066
65283,53999
65195,53962
65100,53962
65011,53999
64944,54066
64907,54154
64907,54250
64935,54317
60944,54317
60636,54009
60667,54009
60755,53973
60823,53905
60860,53817
60860,53734
60935,53703
61003,53636
61011,53616
61034,53625
61073,53625
61282,53835
61344,53876
61417,53890
64929,53890
64942,53904
65030,53940
65126,53940
65214,53904
65282,53836
65318,53748
65318,53653
65282,53565
65214,53497
65126,53460
65031,53460
64942,53497
64929,53510
61830,53510
61854,53453
61854,53410
61854,53410
61946,53372
62016,53301
62054,53209
62055,53110
62017,53018
61946,52948
61854,52910
61755,52909
61682,52940
61696,52906
61696,52886
61842,52741
66256,52741
66256,52823
66279,52880
65680,52880
65667,52867
65579,52830
65483,52830
65395,52867
65328,52934
65291,53022
65291,53118
65327,53206
65395,53274
65483,53310
65579,53310
65667,53274
65680,53260
66732,53260
67131,53660
67052,53659
66964,53696
66896,53763
66860,53852
66860,53859
66852,53859
66764,53896
66696,53963
66660,54052
66659,54147
66696,54235
66763,54303
66852,54339
66871,54339
67410,54878
67410,56350
67396,56363
67360,56452
67359,56547
67396,56635
67463,56703
67552,56739
67647,56740
67735,56703
67803,56636
67839,56547
67840,56452
67803,56364
67790,56350
67790,54800
67790,54800
67790,54800
67775,54727
67734,54665
67190,54122
67235,54103
67303,54036
67339,53947
67340,53868
67841,54370
67841,56130
67828,56143
67791,56231
67791,56327
67827,56415
67895,56482
67983,56519
68079,56519
68167,56483
68234,56415
68271,56327
68271,56231
68271,58749
60159,58743
60241,58688
60325,58563
60354,58415
60354,58119
60325,57971
60241,57846
60116,57762
60010,57741
60010,57118
59944,56958
59905,56919
59905,53377
59885,53330
59885,48794
59885,47196
59849,47108
59835,47094
59835,45000
59835,45000
59835,45000
59821,44927
59806,44905
59806,44873
59770,44785
59703,44717
59614,44681
59519,44681
59431,44717
59419,44729
59388,44698
59299,44661
59204,44661
59180,44671
59180,40702
59143,40614
59076,40546
58987,40510
58895,40509
58895,37187
58895,35773
58845,35651
58752,35558
58631,35508
58500,35508
58378,35558
58285,35651
58235,35772
58235,35903
58285,36025
58378,36118
58499,36168
58630,36168
58752,36118
58844,36025
58895,35904
58895,35773
58895,37187
58845,37066
58752,36973
58631,36922
58500,36922
58378,36972
58285,37065
58235,37186
58235,37318
58285,37439
58378,37532
58499,37582
58630,37582
58752,37532
58844,37439
58895,37318
58895,37187
58895,40509
58892,40509
58804,40546
58736,40613
58700,40702
58699,40797
58736,40885
58803,40953
58892,40989
58987,40990
59075,40953
59143,40886
59179,40797
59180,40702
59180,44671
59116,44697
59092,44721
59037,44666
58949,44630
58854,44630
58765,44666
58740,44692
58718,44670
58630,44634
58535,44633
58446,44670
58379,44737
58342,44826
58342,44921
58379,45009
58446,45077
58534,45113
58550,45113
58550,46822
58536,46836
58500,46924
58500,47019
58536,47108
58604,47175
58692,47212
58787,47212
58875,47176
58943,47108
58980,47020
58980,46924
58943,46836
58930,46823
58930,45110
58930,45110
58949,45110
59037,45073
59061,45050
59115,45104
59204,45141
59299,45141
59387,45105
59399,45093
59430,45124
59455,45134
59455,46696
59437,46689
59342,46689
59253,46725
59186,46793
59149,46881
59149,46976
59186,47064
59253,47132
59341,47169
59416,47169
59405,47196
59405,47291
59442,47379
59509,47447
59597,47484
59693,47484
59781,47447
59849,47380
59885,47292
59885,47196
59885,48794
59849,48706
59781,48639
59693,48602
59598,48602
59509,48638
59442,48706
59405,48794
59405,48890
59442,48978
59509,49045
59597,49082
59693,49082
59781,49046
59849,48978
59885,48890
59885,48794
59885,53330
59868,53289
59801,53221
59713,53185
59617,53185
59529,53221
59462,53289
59425,53377
59425,53472
59461,53560
59529,53628
59617,53665
59712,53665
59801,53628
59868,53561
59905,53473
59905,53377
59905,56919
59821,56835
59661,56769
59550,56769
59550,53822
59513,53734
59446,53666
59357,53630
59262,53629
59174,53666
59106,53733
59070,53822
59069,53917
59106,54005
59173,54073
59262,54109
59357,54110
59445,54073
59513,54006
59549,53917
59550,53822
59550,56769
59488,56769
59328,56835
59205,56957
59139,57117
59139,57290
59205,57451
59327,57573
59487,57640
59661,57640
59821,57574
59943,57451
60010,57291
60010,57118
60010,57741
59968,57733
59820,57762
59695,57846
59611,57971
59582,58119
59582,58415
59611,58563
59695,58688
59776,58743
58041,58742
58041,57118
57975,56958
57853,56835
57693,56769
57520,56769
57359,56835
57237,56957
57170,57117
57170,57290
57236,57451
57359,57573
57519,57640
57692,57640
57852,57574
57975,57451
58041,57291
58041,57118
58041,58742
57406,58741
57485,58688
57569,58563
57598,58415
57598,58119
57569,57971
57485,57846
57360,57762
57212,57733
57064,57762
56939,57846
56855,57971
56826,58119
56826,58415
56855,58563
56939,58688
57018,58741
54890,58740
54899,55880
56110,55880
56182,55865
56244,55824
57181,54887
57181,54892
55876,56196
55857,56196
55769,56233
55702,56300
55665,56389
55665,56484
55701,56572
55769,56640
55857,56676
55953,56677
56041,56640
56108,56573
56145,56484
56145,56465
57449,55161
57468,55161
57557,55124
57624,55057
57661,54969
57661,54873
57624,54785
57557,54717
57469,54681
57412,54681
57428,54642
57429,54546
57392,54458
57325,54391
57243,54357
57243,54350
57207,54261
57140,54194
57051,54157
57026,54157
56994,54080
56927,54013
56839,53976
56814,53976
56814,53936
56778,53848
56710,53780
56622,53744
56586,53744
56586,53724
56550,53635
56482,53568
56394,53531
56298,53531
56210,53568
56143,53635
56118,53695
54716,53695
54462,53441
55539,53441
55612,53427
55673,53386
55717,53342
55736,53342
55824,53305
55892,53238
55928,53150
55929,53054
55892,52966
55825,52899
55736,52862
55696,52862
55696,52830
55660,52742
55592,52674
55504,52637
55476,52637
55476,52606
55439,52517
55372,52450
55284,52413
55218,52413
55218,52407
55180,52315
55110,52244
55018,52206
54918,52206
54878,52223
54868,52198
54801,52131
54770,52118
54802,52040
54802,52020
58130,48693
58171,48631
58186,48559
58186,45693
58259,45724
58354,45724
58442,45687
58510,45620
58547,45532
58547,45436
58510,45348
58443,45280
58355,45244
58259,45244
58186,45274
58186,45015
58199,45002
58236,44914
58236,44818
58199,44730
58188,44719
58188,36480
58188,35066
58138,34944
58045,34851
57924,34801
57792,34801
57671,34851
57578,34944
57528,35065
57528,35196
57578,35318
57671,35411
57792,35461
57923,35461
58044,35411
58137,35318
58188,35197
58188,35066
58188,36480
58138,36359
58045,36266
57924,36215
57792,36215
57671,36265
57578,36358
57528,36479
57528,36611
57578,36732
57671,36825
57792,36875
57923,36875
58044,36825
58137,36732
58188,36611
58188,36480
58188,44719
58132,44662
58044,44626
57948,44626
57860,44662
57792,44730
57756,44818
57756,44913
57792,45001
57806,45015
57806,45257
57805,45257
57717,45220
57621,45220
57562,45245
57562,45047
57574,45035
57612,44943
57612,44844
57574,44752
57504,44681
57481,44672
57481,35773
57431,35651
57338,35558
57217,35508
57085,35508
56964,35558
56871,35651
56821,35772
56821,35903
56871,36025
56963,36118
57085,36168
57216,36168
57337,36118
57430,36025
57481,35904
57481,35773
57481,44672
57412,44643
57312,44643
57220,44681
57150,44751
57112,44843
57112,44943
57150,45035
57162,45047
57162,45263
57159,45261
57071,45224
57010,45224
57010,41556
56976,41475
56914,41413
56833,41380
56774,41379
56774,35066
56723,34944
56631,34851
56509,34801
56378,34801
56257,34851
56164,34944
56114,35065
56113,35196
56164,35318
56256,35411
56378,35461
56509,35461
56630,35411
56723,35318
56773,35197
56774,35066
56774,41379
56746,41379
56665,41413
56603,41475
56570,41556
56569,41643
56603,41724
56638,41759
56605,41773
56560,41818
56560,40275
56522,40183
56505,40166
56505,36376
56413,36155
56244,35985
56022,35893
55782,35893
55561,35984
55391,36154
55299,36375
55299,36615
55390,36837
55560,37006
55781,37098
56021,37099
56243,37007
56412,36838
56504,36616
56505,36376
56505,40166
56451,40113
56359,40075
56260,40074
56168,40112
56098,40183
56060,40275
56059,40374
56097,40466
56168,40536
56260,40574
56359,40575
56451,40537
56521,40466
56559,40374
56560,40275
56560,41818
56543,41835
56510,41916
56509,42003
56543,42084
56605,42146
56686,42179
56773,42180
56854,42146
56916,42084
56949,42003
56950,41916
56916,41835
56881,41800
56914,41786
56976,41724
57009,41643
57010,41556
57010,45224
56976,45224
56922,45246
56922,45015
56935,45002
56972,44914
56972,44818
56935,44730
56868,44662
56780,44626
56684,44626
56619,44653
56619,44586
56632,44573
56669,44484
56669,44389
56632,44301
56565,44233
56477,44197
56381,44196
56293,44233
56225,44300
56189,44389
56189,44484
56225,44572
56239,44586
56239,47728
56111,47856
56111,44236
56124,44222
56161,44134
56161,44039
56124,43950
56057,43883
55969,43846
55941,43846
55924,43805
55869,43750
56052,43566
56071,43566
56159,43530
56226,43462
56263,43374
56263,43279
56253,43254
56253,41275
56220,41194
56187,41161
56219,41128
56253,41047
56253,40960
56220,40879
56158,40817
56077,40783
55989,40783
55909,40817
55847,40879
55813,40959
55813,41047
55846,41128
55879,41161
55847,41194
55813,41274
55813,41362
55846,41443
55908,41505
55989,41538
56077,41538
56157,41505
56219,41443
56253,41362
56253,41275
56253,43254
56227,43191
56159,43123
56071,43086
55976,43086
55910,43114
55910,42180
55872,42088
55801,42018
55797,42016
55797,37430
55748,37310
55656,37218
55536,37168
55405,37168
55285,37218
55241,37262
55241,37152
55191,37032
55099,36940
54979,36890
54907,36890
54907,36539
54857,36419
54765,36327
54645,36277
54515,36277
54394,36327
54350,36371
54350,36261
54300,36141
54208,36049
54088,35999
53958,35999
53838,36048
53745,36140
53696,36261
53695,36391
53745,36511
53837,36603
53957,36653
54087,36653
54208,36603
54252,36559
54252,36669
54302,36789
54394,36881
54514,36931
54644,36932
54765,36882
54857,36790
54907,36670
54907,36539
54907,36890
54849,36890
54728,36939
54636,37031
54586,37151
54586,37282
54636,37402
54728,37494
54848,37544
54978,37544
55099,37494
55143,37450
55143,37560
55193,37680
55285,37772
55405,37822
55535,37822
55655,37773
55747,37681
55797,37560
55797,37430
55797,42016
55709,41980
55610,41979
55518,42017
55448,42088
55410,42180
55409,42279
55447,42371
55518,42441
55610,42479
55709,42480
55801,42442
55871,42371
55909,42279
55910,42180
55910,43114
55887,43123
55820,43190
55783,43278
55783,43298
55369,43712
55328,43773
55313,43846
55313,45170
55241,45097
55241,37987
55191,37867
55099,37775
54979,37725
54849,37725
54728,37774
54636,37866
54586,37987
54586,38117
54636,38237
54728,38329
54848,38379
54978,38379
55099,38329
55191,38237
55241,38117
55241,37987
55241,45097
54684,44540
54684,38544
54634,38424
54545,38334
54545,37848
54495,37728
54403,37636
54350,37613
54350,37096
54300,36976
54208,36884
54088,36834
53958,36834
53838,36884
53745,36976
53696,37096
53695,37226
53745,37346
53837,37438
53957,37488
54087,37488
54208,37439
54300,37347
54350,37226
54350,37096
54350,37613
54283,37586
54153,37585
54032,37635
53940,37727
53890,37847
53890,37978
53940,38098
54032,38190
54152,38240
54282,38240
54403,38190
54495,38098
54545,37978
54545,37848
54545,38334
54542,38331
54422,38282
54292,38281
54172,38331
54080,38423
54030,38543
54029,38673
54079,38794
54171,38886
54291,38936
54422,38936
54542,38886
54634,38794
54684,38674
54684,38544
54684,44540
54598,44455
54598,42329
54528,42158
54397,42027
54226,41956
54127,41956
54127,39101
54077,38980
53988,38891
53988,38405
53938,38284
53846,38192
53793,38170
53793,37653
53743,37533
53654,37443
53654,36957
53604,36837
53512,36745
53392,36695
53262,36695
53142,36744
53049,36836
53000,36957
52999,37087
53049,37207
53141,37299
53261,37349
53391,37349
53512,37299
53604,37207
53654,37087
53654,36957
53654,37443
53651,37441
53531,37391
53401,37391
53281,37440
53189,37532
53139,37652
53139,37783
53188,37903
53280,37995
53401,38045
53531,38045
53651,37995
53743,37903
53793,37783
53793,37653
53793,38170
53726,38142
53596,38142
53476,38192
53384,38284
53334,38404
53334,38534
53383,38655
53475,38747
53595,38797
53726,38797
53846,38747
53938,38655
53988,38535
53988,38405
53988,38891
53986,38888
53865,38838
53735,38838
53615,38888
53523,38980
53473,39100
53473,39230
53522,39351
53614,39443
53735,39493
53865,39493
53985,39443
54077,39351
54127,39231
54127,39101
54127,41956
54041,41956
53870,42026
53739,42157
53668,42328
53668,42513
53739,42684
53870,42815
54040,42886
54225,42886
54396,42815
54527,42684
54598,42514
54598,42329
54598,44455
53934,43790
53872,43749
53800,43735
53749,43735
53736,43721
53647,43685
53570,43684
53570,39657
53521,39537
53429,39445
53309,39395
53198,39395
53242,39351
53292,39231
53292,39101
53242,38980
53236,38974
53236,38210
53187,38090
53097,38000
53097,37514
53047,37394
52955,37301
52835,37252
52705,37251
52585,37301
52493,37393
52443,37513
52443,37643
52492,37764
52584,37856
52705,37906
52835,37906
52955,37856
53047,37764
53097,37644
53097,37514
53097,38000
53095,37997
52974,37948
52844,37947
52724,37997
52632,38089
52582,38209
52582,38339
52632,38460
52724,38552
52844,38602
52974,38602
53094,38552
53186,38460
53236,38340
53236,38210
53236,38974
53150,38888
53030,38838
52900,38838
52780,38888
52688,38980
52680,38999
52680,38767
52630,38646
52538,38554
52418,38504
52307,38504
52351,38460
52401,38340
52401,38210
52351,38090
52259,37997
52139,37948
52009,37947
51889,37997
51797,38089
51747,38209
51747,38339
51796,38460
51888,38552
52009,38602
52119,38602
52075,38646
52025,38766
52025,38896
52075,39016
52167,39109
52287,39159
52417,39159
52537,39109
52630,39017
52679,38897
52680,38767
52680,38999
52638,39100
52638,39230
52687,39351
52779,39443
52899,39493
53010,39493
52966,39537
52916,39657
52916,39787
52966,39907
53058,39999
53178,40049
53308,40049
53428,40000
53520,39908
53570,39788
53570,39657
53570,43684
53552,43684
53500,43706
53500,43392
53463,43304
53450,43290
53450,41460
53450,41460
53450,41460
53435,41387
53394,41325
53394,41325
53394,41325
53134,41065
53072,41024
53000,41010
52847,41010
52847,40034
52755,39813
52586,39643
52364,39551
52124,39551
51903,39642
51733,39812
51641,40033
51641,40273
51732,40495
51902,40664
52123,40756
52363,40757
52585,40665
52754,40496
52846,40274
52847,40034
52847,41010
50480,41010
50480,40152
50443,40064
50376,39996
50287,39960
50192,39959
50104,39996
50036,40063
50000,40152
49999,40247
50036,40335
50103,40403
50192,40439
50287,40440
50375,40403
50443,40336
50479,40247
50480,40152
50480,41010
50478,41010
49340,39871
49340,39852
49303,39764
49236,39696
49147,39660
49052,39659
48964,39696
48896,39763
48860,39852
48859,39947
48896,40035
48963,40103
49052,40139
49071,40139
50265,41334
50327,41375
50400,41390
52921,41390
53070,41538
53070,43290
53056,43303
53020,43392
53019,43487
53056,43575
53123,43643
53212,43679
53307,43680
53395,43643
53463,43576
53499,43487
53500,43392
53500,43706
53464,43721
53396,43788
53360,43877
53359,43972
53396,44060
53463,44128
53552,44164
53647,44165
53735,44128
55059,45453
55059,45472
55096,45560
55163,45628
55252,45664
55313,45665
55313,46295
53887,44868
53964,44836
54026,44774
54059,44693
54060,44606
54026,44525
53964,44463
53883,44430
53796,44429
53715,44463
53653,44525
53621,44602
53184,44165
53122,44124
53050,44110
52450,44110
52420,44110
52435,44103
52503,44036
52539,43947
52540,43852
52503,43764
52436,43696
52347,43660
52252,43659
52164,43696
52096,43763
52070,43826
51715,43471
51715,42575
51715,42575
51715,42575
51700,42502
51659,42440
51659,42440
51659,42440
50784,41565
50722,41524
50650,41510
48499,41510
48486,41496
48397,41460
48302,41459
48214,41496
48146,41563
48110,41652
48109,41747
48146,41835
48213,41903
48302,41939
48397,41940
48485,41903
48499,41890
50571,41890
51335,42653
51335,43410
51252,43409
51164,43446
51096,43513
51090,43529
51090,43290
51052,43198
50981,43128
50889,43090
50790,43089
50698,43127
50628,43198
50590,43290
50589,43389
50627,43481
50698,43551
50790,43589
50889,43590
50981,43552
51051,43481
51089,43389
51090,43290
51090,43529
51060,43602
51059,43697
51096,43785
51110,43799
51110,44125
51114,44145
50890,43921
50890,43902
50853,43814
50786,43746
50697,43710
50602,43709
50514,43746
50446,43813
50410,43902
50410,43935
50347,43910
50252,43909
50250,43910
50279,43839
50280,43740
50242,43648
50171,43578
50079,43540
49980,43539
49888,43577
49818,43648
49780,43740
49779,43839
49817,43931
49888,44001
49980,44039
50079,44040
50087,44036
50060,44102
50059,44197
50096,44285
50163,44353
50252,44389
50347,44390
50435,44353
50450,44339
50449,44417
50486,44505
50553,44573
50642,44609
50737,44610
50825,44573
50893,44506
50906,44474
53341,46910
53318,46910
51509,45101
51481,45058
51416,45015
51340,45000
50856,45000
50852,44988
50781,44918
50689,44880
50590,44879
50498,44917
50428,44988
50390,45080
50389,45179
50427,45271
50498,45341
50590,45379
50626,45379
50633,45384
50633,45384
50710,45400
51271,45400
52981,47110
51730,47110
51730,46172
51693,46084
51626,46016
51537,45980
51442,45979
51354,46016
51286,46083
51250,46172
51249,46267
51286,46355
51353,46423
51442,46459
51537,46460
51625,46423
51693,46356
51729,46267
51730,46172
51730,47110
51350,47110
51277,47124
51215,47165
51096,47285
50815,47285
50815,47252
50778,47164
50711,47096
50622,47060
50527,47059
50439,47096
50371,47163
50335,47252
50334,47347
50371,47435
50432,47496
50440,47509
50540,47609
50602,47650
50675,47665
51175,47665
51247,47650
51309,47609
51428,47490
54158,47490
54157,47491
54157,47586
54194,47675
54211,47692
54154,47749
54118,47837
54118,47933
54154,48021
54178,48045
54119,48104
54082,48192
54082,48211
52925,49369
50315,49369
50315,46237
50278,46149
50211,46081
50122,46045
50027,46044
49939,46081
49871,46148
49835,46237
49834,46332
49871,46420
49938,46488
50027,46524
50122,46525
50210,46488
50278,46421
50314,46332
50315,46237
50315,49369
49535,49369
49535,46962
49498,46874
49431,46806
49342,46770
49315,46770
49315,44252
49278,44164
49270,44155
49270,42892
49233,42804
49166,42736
49077,42700
48982,42699
48894,42736
48826,42803
48790,42892
48789,42987
48826,43075
48893,43143
48982,43179
49077,43180
49165,43143
49233,43076
49269,42987
49270,42892
49270,44155
49211,44096
49122,44060
49027,44059
48939,44096
48871,44163
48835,44252
48834,44347
48871,44435
48938,44503
49027,44539
49122,44540
49210,44503
49278,44436
49314,44347
49315,44252
49315,46770
49247,46769
49159,46806
49145,46820
49145,46095
49107,46003
49036,45933
48944,45895
48845,45894
48753,45932
48695,45991
48695,43367
48658,43279
48591,43211
48502,43175
48407,43174
48319,43211
48251,43278
48215,43367
48214,43462
48251,43550
48318,43618
48407,43654
48502,43655
48590,43618
48658,43551
48694,43462
48695,43367
48695,45991
48683,46003
48645,46095
48644,46194
48682,46286
48753,46356
48845,46394
48944,46395
49036,46357
49106,46286
49144,46194
49145,46095
49145,46820
49091,46873
49055,46962
49054,47057
49091,47145
49158,47213
49247,47249
49342,47250
49430,47213
49498,47146
49534,47057
49535,46962
49535,49369
49160,49369
49088,49383
49026,49424
48880,49570
48879,49570
48820,49570
48560,49570
48560,46535
48522,46443
48451,46373
48359,46335
48260,46334
48168,46372
48098,46443
48060,46535
48059,46634
48097,46726
48168,46796
48260,46834
48359,46835
48451,46797
48521,46726
48559,46634
48560,46535
48560,49570
48220,49570
48165,49592
48122,49635
48100,49690
48100,49749
48100,49885
48096,49883
48039,49872
48010,38350
48100,38260
48100,40100
48114,40172
48155,40234
48230,40309
48266,40395
48333,40463
48422,40499
48517,40500
48605,40463
48673,40396
48709,40307
48710,40212
48673,40124
48606,40056
48517,40020
48480,40020
48480,39567
48516,39655
48583,39723
48672,39759
48767,39760
48855,39723
48923,39656
48959,39567
48960,39472
48947,39441
50148,38240
50060,38452
50060,38692
50151,38913
50321,39083
50542,39175
50782,39175
51003,39084
51173,38914
51265,38693
51265,38453
51174,38232
51004,38062
50783,37970
50543,37970
50330,38058
50868,37520
50887,37520
50975,37483
51043,37416
51072,37346
51175,37389
51376,37389
51561,37312
51703,37171
51780,36985
51780,36785
51708,36609
51882,36682
52083,36682
52268,36605
52410,36463
52487,36278
52487,36078
52411,35892
52269,35750
52084,35673
51883,35673
51698,35750
51556,35891
51479,36077
51479,36277
51551,36453
51377,36380
51176,36380
50991,36457
50849,36598
50772,36784
50771,36984
50794,37039
50792,37039
50704,37076
50636,37143
50600,37232
50600,37251
48585,39265
48544,39327
48537,39363
48516,39383
48480,39472
48480,39519
48480,38268
52389,34359
52950,34358
52949,34407
52986,34495
53053,34563
53142,34599
53237,34600
53325,34563
53393,34496
53429,34407
53430,34358
54092,34357
53980,34403
53810,34573
53718,34794
53718,35034
53809,35255
53979,35425
54200,35517
54440,35517
54662,35426
54831,35256
54923,35035
54923,34795
54832,34573
54662,34404
54547,34356
56823,34353
56821,34358
56821,34489
56871,34611
56963,34703
57085,34754
57216,34754
57337,34704
57430,34611
57481,34490
57481,34359
57478,34352
59349,34350
62139,37150
64449,37130
64419,39490
69360,39490
69409,58749
" /> 
</g>
<g style="fill:#FFFFFF; fill-opacity:1.0; 
stroke:#FFFFFF; stroke-width:59.0551; stroke-opacity:1; 
stroke-linecap:round; stroke-linejoin:round;">
<polyline style="fill-rule:evenodd;"
points="69379,31800
69370,38939
69314,38939
69314,32230
69237,32044
69096,31902
68910,31825
68710,31825
68524,31902
68382,32043
68309,32221
68243,32052
68231,32035
68154,32000
68139,32014
68139,31985
68104,31908
67920,31827
67719,31823
67532,31896
67515,31908
67480,31985
67810,32315
68139,31985
68139,32014
67824,32330
68154,32659
68231,32624
68311,32443
68382,32615
68523,32757
68709,32834
68909,32834
69095,32757
69237,32616
69314,32430
69314,32230
69314,38939
68240,38931
68240,36340
68202,36248
68139,36186
68139,32674
67810,32344
67795,32358
67795,32330
67465,32000
67388,32035
67307,32219
67303,32420
67376,32607
67388,32624
67465,32659
67795,32330
67795,32358
67480,32674
67515,32751
67699,32832
67900,32836
68087,32763
68104,32751
68139,32674
68139,36186
68131,36178
68039,36140
67940,36139
67848,36177
67778,36248
67740,36340
67739,36439
67777,36531
67848,36601
67940,36639
68039,36640
68131,36602
68201,36531
68239,36439
68240,36340
68240,38931
67300,38925
67300,33180
67262,33088
67191,33018
67099,32980
67000,32979
66908,33017
66838,33088
66800,33180
66799,33279
66837,33371
66908,33441
67000,33479
67099,33480
67191,33442
67261,33371
67299,33279
67300,33180
67300,38925
65200,38910
65200,36920
65200,36650
64430,36650
64430,35038
64382,34924
64295,34837
64181,34790
64058,34789
63944,34837
63857,34924
63810,35038
63809,35161
63857,35275
63944,35362
64058,35409
64181,35410
64295,35362
64382,35275
64429,35161
64430,35038
64430,36650
63430,36650
63430,36038
63430,35038
63382,34924
63295,34837
63181,34790
63058,34789
62944,34837
62857,34924
62810,35038
62809,35161
62857,35275
62944,35362
63058,35409
63181,35410
63295,35362
63382,35275
63429,35161
63430,35038
63430,36038
63382,35924
63295,35837
63181,35790
63058,35789
62944,35837
62857,35924
62815,36025
62792,35968
62721,35898
62629,35860
62530,35859
62438,35897
62368,35968
62330,36060
62329,36159
62367,36251
62438,36321
62530,36359
62629,36360
62721,36322
62791,36251
62819,36184
62857,36275
62944,36362
63058,36409
63181,36410
63295,36362
63382,36275
63429,36161
63430,36038
63430,36650
62370,36650
61460,35739
61460,32458
61412,32344
61325,32257
61211,32210
61088,32209
60974,32257
60887,32344
60840,32458
60839,32581
60887,32695
60974,32782
61088,32829
61211,32830
61325,32782
61412,32695
61459,32581
61460,32458
61460,35739
59580,33859
52854,33894
52864,33884
52905,33822
52920,33750
52920,32868
53048,32740
58671,32740
59345,33414
59407,33455
59480,33470
59480,33470
59480,33470
60020,33470
60033,33483
60122,33519
60217,33520
60305,33483
60373,33416
60374,33414
60387,33445
60474,33532
60588,33579
60711,33580
60825,33532
60912,33445
60959,33331
60960,33208
60912,33094
60825,33007
60711,32960
60588,32959
60474,33007
60460,33021
60460,32458
60412,32344
60325,32257
60211,32210
60088,32209
59974,32257
59887,32344
59840,32458
59839,32581
59887,32695
59974,32782
60088,32829
60211,32830
60325,32782
60412,32695
60459,32581
60460,32458
60460,33021
60387,33094
60368,33139
60306,33076
60217,33040
60122,33039
60034,33076
60020,33090
59558,33090
58884,32415
58822,32374
58750,32360
52970,32360
52970,32359
52897,32374
52835,32415
52835,32415
52595,32655
52554,32717
52540,32790
52540,33671
52313,33897
51809,33900
51370,34343
51370,33280
51332,33188
51261,33118
51169,33080
51070,33079
50978,33117
50908,33188
50870,33280
50869,33379
50907,33471
50978,33541
51070,33579
51169,33580
51261,33542
51331,33471
51369,33379
51370,33280
51370,34343
49380,36354
49380,35310
49342,35218
49271,35148
49179,35110
49080,35109
48988,35147
48918,35218
48880,35310
48879,35409
48917,35501
48988,35571
49080,35609
49179,35610
49271,35572
49341,35501
49379,35409
49380,35310
49380,36354
47965,37783
47817,37912
47669,38036
47760,57984
48343,58430
51159,58430
51209,55880
54520,55880
54520,58740
53815,58742
53815,57868
53738,57683
53597,57541
53421,57468
53596,57396
53738,57254
53815,57069
53815,56868
53738,56683
53597,56541
53411,56464
53211,56464
53025,56540
52883,56682
52806,56867
52806,57068
52883,57253
53024,57395
53200,57468
53025,57540
52883,57682
52806,57867
52806,58068
52883,58253
53024,58395
53210,58472
53410,58472
53596,58396
53738,58254
53815,58069
53815,57868
53815,58742
47530,58759
47530,35470
51260,31809
69379,31800
" /> 
</g>
<g style="fill:#FFFFFF; fill-opacity:0.0; 
stroke:#FFFFFF; stroke-width:100; stroke-opacity:1; 
stroke-linecap:round; stroke-linejoin:round;">
<polyline fill="none;"
points="69379,31800
69370,38939
69314,38939
69314,32230
69237,32044
69096,31902
68910,31825
68710,31825
68524,31902
68382,32043
68309,32221
68243,32052
68231,32035
68154,32000
68139,32014
68139,31985
68104,31908
67920,31827
67719,31823
67532,31896
67515,31908
67480,31985
67810,32315
68139,31985
68139,32014
67824,32330
68154,32659
68231,32624
68311,32443
68382,32615
68523,32757
68709,32834
68909,32834
69095,32757
69237,32616
69314,32430
69314,32230
69314,38939
68240,38931
68240,36340
68202,36248
68139,36186
68139,32674
67810,32344
67795,32358
67795,32330
67465,32000
67388,32035
67307,32219
67303,32420
67376,32607
67388,32624
67465,32659
67795,32330
67795,32358
67480,32674
67515,32751
67699,32832
67900,32836
68087,32763
68104,32751
68139,32674
68139,36186
68131,36178
68039,36140
67940,36139
67848,36177
67778,36248
67740,36340
67739,36439
67777,36531
67848,36601
67940,36639
68039,36640
68131,36602
68201,36531
68239,36439
68240,36340
68240,38931
67300,38925
67300,33180
67262,33088
67191,33018
67099,32980
67000,32979
66908,33017
66838,33088
66800,33180
66799,33279
66837,33371
66908,33441
67000,33479
67099,33480
67191,33442
67261,33371
67299,33279
67300,33180
67300,38925
65200,38910
65200,36920
65200,36650
64430,36650
64430,35038
64382,34924
64295,34837
64181,34790
64058,34789
63944,34837
63857,34924
63810,35038
63809,35161
63857,35275
63944,35362
64058,35409
64181,35410
64295,35362
64382,35275
64429,35161
64430,35038
64430,36650
63430,36650
63430,36038
63430,35038
63382,34924
63295,34837
63181,34790
63058,34789
62944,34837
62857,34924
62810,35038
62809,35161
62857,35275
62944,35362
63058,35409
63181,35410
63295,35362
63382,35275
63429,35161
63430,35038
63430,36038
63382,35924
63295,35837
63181,35790
63058,35789
62944,35837
62857,35924
62815,36025
62792,35968
62721,35898
62629,35860
62530,35859
62438,35897
62368,35968
62330,36060
62329,36159
62367,36251
62438,36321
62530,36359
62629,36360
62721,36322
62791,36251
62819,36184
62857,36275
62944,36362
63058,36409
63181,36410
63295,36362
63382,36275
63429,36161
63430,36038
63430,36650
62370,36650
61460,35739
61460,32458
61412,32344
61325,32257
61211,32210
61088,32209
60974,32257
60887,32344
60840,32458
60839,32581
60887,32695
60974,32782
61088,32829
61211,32830
61325,32782
61412,32695
61459,32581
61460,32458
61460,35739
59580,33859
52854,33894
52864,33884
52905,33822
52920,33750
52920,32868
53048,32740
58671,32740
59345,33414
59407,33455
59480,33470
59480,33470
59480,33470
60020,33470
60033,33483
60122,33519
60217,33520
60305,33483
60373,33416
60374,33414
60387,33445
60474,33532
60588,33579
60711,33580
60825,33532
60912,33445
60959,33331
60960,33208
60912,33094
60825,33007
60711,32960
60588,32959
60474,33007
60460,33021
60460,32458
60412,32344
60325,32257
60211,32210
60088,32209
59974,32257
59887,32344
59840,32458
59839,32581
59887,32695
59974,32782
60088,32829
60211,32830
60325,32782
60412,32695
60459,32581
60460,32458
60460,33021
60387,33094
60368,33139
60306,33076
60217,33040
60122,33039
60034,33076
60020,33090
59558,33090
58884,32415
58822,32374
58750,32360
52970,32360
52970,32359
52897,32374
52835,32415
52835,32415
52595,32655
52554,32717
52540,32790
52540,33671
52313,33897
51809,33900
51370,34343
51370,33280
51332,33188
51261,33118
51169,33080
51070,33079
50978,33117
50908,33188
50870,33280
50869,33379
50907,33471
50978,33541
51070,33579
51169,33580
51261,33542
51331,33471
51369,33379
51370,33280
51370,34343
49380,36354
49380,35310
49342,35218
49271,35148
49179,35110
49080,35109
48988,35147
48918,35218
48880,35310
48879,35409
48917,35501
48988,35571
49080,35609
49179,35610
49271,35572
49341,35501
49379,35409
49380,35310
49380,36354
47965,37783
47817,37912
47669,38036
47760,57984
48343,58430
51159,58430
51209,55880
54520,55880
54520,58740
53815,58742
53815,57868
53738,57683
53597,57541
53421,57468
53596,57396
53738,57254
53815,57069
53815,56868
53738,56683
53597,56541
53411,56464
53211,56464
53025,56540
52883,56682
52806,56867
52806,57068
52883,57253
53024,57395
53200,57468
53025,57540
52883,57682
52806,57867
52806,58068
52883,58253
53024,58395
53210,58472
53410,58472
53596,58396
53738,58254
53815,58069
53815,57868
53815,58742
47530,58759
47530,35470
51260,31809
69379,31800
" /> 
</g> 
</svg>
