<?xml version="1.0" standalone="no"?>
 <!DOCTYPE svg PUBLIC "-//W3C//DTD SVG 1.1//EN" 
 "http://www.w3.org/Graphics/SVG/1.1/DTD/svg11.dtd"> 
<svg xmlns="http://www.w3.org/2000/svg" version="1.1" 
    width="29.7002cm" height="21.0007cm" viewBox="0 0 116930 82680 ">
<title>SVG Picture created as stereo-camera-board-Inner1_Cu.svg date 2014/07/21 21:50:20 </title>
  <desc>Picture generated by PCBNEW </desc>
<g style="fill:#000000; fill-opacity:1;stroke:#000000; stroke-opacity:1;
stroke-linecap:round; stroke-linejoin:round; "
 transform="translate(0 0) scale(1 1)">
</g>
<g style="fill:#000000; fill-opacity:0.0; 
stroke:#000000; stroke-width:59.0551; stroke-opacity:1; 
stroke-linecap:round; stroke-linejoin:round;">
</g>
<g style="fill:#000000; fill-opacity:1.0; 
stroke:#000000; stroke-width:59.0551; stroke-opacity:1; 
stroke-linecap:round; stroke-linejoin:round;">
<rect x="39733.1" y="22862.9" width="34036.3" height="40011.9" rx="0" />
</g>
<g style="fill:#FFFFFF; fill-opacity:1.0; 
stroke:#FFFFFF; stroke-width:59.0551; stroke-opacity:1; 
stroke-linecap:round; stroke-linejoin:round;">
<circle cx="53243.7" cy="39722.7" r="147.638" /> 
<circle cx="53800.4" cy="39166" r="147.638" /> 
<circle cx="54357.2" cy="38609.2" r="147.638" /> 
<circle cx="54914" cy="38052.4" r="147.638" /> 
<circle cx="55470.8" cy="37495.6" r="147.638" /> 
<circle cx="54914" cy="37217.2" r="147.638" /> 
<circle cx="54218" cy="37913.2" r="147.638" /> 
<circle cx="53661.2" cy="38470" r="147.638" /> 
<circle cx="52965.3" cy="39166" r="147.638" /> 
<circle cx="52074.4" cy="38275.1" r="147.638" /> 
<circle cx="52770.4" cy="37579.1" r="147.638" /> 
<circle cx="53327.2" cy="37022.4" r="147.638" /> 
<circle cx="54023.2" cy="36326.4" r="147.638" /> 
<circle cx="54579.9" cy="36604.8" r="147.638" /> 
<circle cx="54023.2" cy="37161.6" r="147.638" /> 
<circle cx="53466.4" cy="37718.3" r="147.638" /> 
<circle cx="52909.6" cy="38275.1" r="147.638" /> 
<circle cx="52352.8" cy="38831.9" r="147.638" /> 
<polyline style="fill-rule:evenodd;"
points="68770,48670
68229,48670
68229,48129
68770,48129
68770,48670
" /> 
<circle cx="67500" cy="48400" r="270.472" /> 
<circle cx="68500" cy="47400" r="270.472" /> 
<circle cx="67500" cy="47400" r="270.472" /> 
<circle cx="68500" cy="46400" r="270.472" /> 
<circle cx="67500" cy="46400" r="270.472" /> 
</g>
<g style="fill:#FFFFFF; fill-opacity:1.0; 
stroke:#FFFFFF; stroke-width:472.441; stroke-opacity:1; 
stroke-linecap:round; stroke-linejoin:round;">
<path d="M59968 58129
L59968 58405
" />
<path d="M57212 58129
L57212 58405
" />
</g>
<g style="fill:#FFFFFF; fill-opacity:1.0; 
stroke:#FFFFFF; stroke-width:59.0551; stroke-opacity:1; 
stroke-linecap:round; stroke-linejoin:round;">
<circle cx="57606.3" cy="57204.7" r="255.906" /> 
<circle cx="59574.8" cy="57204.7" r="255.906" /> 
<polyline style="fill-rule:evenodd;"
points="48279,49749
48820,49749
48820,50290
48279,50290
48279,49749
" /> 
<circle cx="49550" cy="50020" r="270.472" /> 
<circle cx="48550" cy="51020" r="270.472" /> 
<circle cx="49550" cy="51020" r="270.472" /> 
<circle cx="48550" cy="52020" r="270.472" /> 
<circle cx="49550" cy="52020" r="270.472" /> 
<circle cx="48550" cy="53020" r="270.472" /> 
<circle cx="49550" cy="53020" r="270.472" /> 
<circle cx="48550" cy="54020" r="270.472" /> 
<circle cx="49550" cy="54020" r="270.472" /> 
<circle cx="68810" cy="32330" r="324.803" /> 
<circle cx="67810" cy="32330" r="324.803" /> 
<circle cx="51983.5" cy="36177.9" r="324.803" /> 
<circle cx="51276.4" cy="36885" r="324.803" /> 
<circle cx="53311" cy="57968.5" r="324.803" /> 
<circle cx="53311" cy="56968.5" r="324.803" /> 
<circle cx="50030" cy="43790" r="70.4724" /> 
<circle cx="50840" cy="43340" r="70.4724" /> 
<circle cx="52605" cy="50680" r="70.4724" /> 
<circle cx="52340" cy="47800" r="70.4724" /> 
<circle cx="52090" cy="52830" r="70.4724" /> 
<circle cx="51960" cy="53310" r="70.4724" /> 
<circle cx="51180" cy="53295" r="70.4724" /> 
<circle cx="60785" cy="36325" r="70.4724" /> 
<circle cx="63740" cy="40770" r="70.4724" /> 
<circle cx="64300" cy="39345" r="70.4724" /> 
<circle cx="59450" cy="34600" r="70.4724" /> 
<circle cx="48680" cy="54820" r="70.4724" /> 
<circle cx="50010" cy="45270" r="70.4724" /> 
<circle cx="51320" cy="46610" r="70.4724" /> 
<circle cx="50850" cy="42410" r="70.4724" /> 
<circle cx="51460" cy="42020" r="70.4724" /> 
<circle cx="65560" cy="54770" r="70.4724" /> 
<circle cx="67780" cy="58300" r="70.4724" /> 
<circle cx="66360" cy="55470" r="70.4724" /> 
<circle cx="66110" cy="52290" r="70.4724" /> 
<circle cx="66730" cy="52050" r="70.4724" /> 
<circle cx="66780" cy="48410" r="70.4724" /> 
<circle cx="65750" cy="45240" r="70.4724" /> 
<circle cx="63450" cy="37310" r="70.4724" /> 
<circle cx="67990" cy="36390" r="70.4724" /> 
<circle cx="67050" cy="33230" r="70.4724" /> 
<circle cx="64055.1" cy="52342.5" r="70.4724" /> 
<circle cx="63295" cy="33690" r="70.4724" /> 
<circle cx="64315" cy="34420" r="70.4724" /> 
<circle cx="63260" cy="32290" r="70.4724" /> 
<circle cx="48500" cy="36320" r="70.4724" /> 
<circle cx="51600" cy="58630" r="70.4724" /> 
<circle cx="68640" cy="37390" r="70.4724" /> 
<circle cx="65700" cy="34610" r="70.4724" /> 
<circle cx="64580" cy="34800" r="70.4724" /> 
<circle cx="55660" cy="42230" r="70.4724" /> 
<circle cx="56310" cy="40325" r="70.4724" /> 
<circle cx="48310" cy="46585" r="70.4724" /> 
<circle cx="48895" cy="46145" r="70.4724" /> 
<circle cx="61395" cy="50180" r="70.4724" /> 
<circle cx="60905" cy="39705" r="70.4724" /> 
<circle cx="60895" cy="42000" r="70.4724" /> 
<circle cx="66555" cy="44770" r="70.4724" /> 
<circle cx="55280" cy="50305" r="70.4724" /> 
<circle cx="61805" cy="53160" r="70.4724" /> 
<circle cx="48720" cy="39520" r="60.4724" /> 
<circle cx="50840" cy="37280" r="60.4724" /> 
<circle cx="49100" cy="39900" r="60.4724" /> 
<circle cx="53260" cy="43440" r="60.4724" /> 
<circle cx="55300" cy="45425" r="60.4724" /> 
<circle cx="53600" cy="43925" r="60.4724" /> 
<circle cx="59310" cy="53870" r="60.4724" /> 
<circle cx="51490" cy="46220" r="60.4724" /> 
<circle cx="49075" cy="44300" r="60.4724" /> 
<circle cx="50690" cy="44370" r="60.4724" /> 
<circle cx="59685" cy="39980.3" r="60.4724" /> 
<circle cx="61417.3" cy="49074.8" r="60.4724" /> 
<circle cx="63059.1" cy="50511.8" r="60.4724" /> 
<circle cx="60878" cy="40692.9" r="60.4724" /> 
<circle cx="63725" cy="48525" r="60.4724" /> 
<circle cx="60950" cy="48550" r="60.4724" /> 
<circle cx="57003.9" cy="54397.6" r="60.4724" /> 
<circle cx="50570" cy="55340" r="60.4724" /> 
<circle cx="59645.7" cy="47244.1" r="60.4724" /> 
<circle cx="59566.9" cy="44921.3" r="60.4724" /> 
<circle cx="60492.1" cy="40378" r="60.4724" /> 
<circle cx="62921.3" cy="50161.4" r="60.4724" /> 
<circle cx="57669.3" cy="45460.6" r="60.4724" /> 
<circle cx="54665.4" cy="52334.6" r="60.4724" /> 
<circle cx="57996.1" cy="44866.1" r="60.4724" /> 
<circle cx="54563" cy="51992.1" r="60.4724" /> 
<circle cx="60866.1" cy="41063" r="60.4724" /> 
<circle cx="62470.5" cy="51269.7" r="60.4724" /> 
<circle cx="62803.1" cy="49771.7" r="60.4724" /> 
<circle cx="59921.3" cy="39259.8" r="60.4724" /> 
<circle cx="56429.1" cy="44437" r="60.4724" /> 
<circle cx="55689" cy="53102.4" r="60.4724" /> 
<circle cx="57189" cy="54594.5" r="60.4724" /> 
<circle cx="50530" cy="56150" r="60.4724" /> 
<circle cx="56023.6" cy="43326.8" r="60.4724" /> 
<circle cx="56791.3" cy="54216.5" r="60.4724" /> 
<circle cx="57421.3" cy="54921.3" r="60.4724" /> 
<circle cx="55905.5" cy="56437" r="60.4724" /> 
<circle cx="56732.3" cy="44866.1" r="60.4724" /> 
<circle cx="55456.7" cy="52878" r="60.4724" /> 
<circle cx="57023.6" cy="45464.6" r="60.4724" /> 
<circle cx="55236.2" cy="52653.5" r="60.4724" /> 
<circle cx="53190" cy="34360" r="60.4724" /> 
<circle cx="54358.3" cy="48543.3" r="60.4724" /> 
<circle cx="54397.6" cy="47539.4" r="60.4724" /> 
<circle cx="54358.3" cy="47885.8" r="60.4724" /> 
<circle cx="54322.8" cy="48240.2" r="60.4724" /> 
<circle cx="58940" cy="40750" r="60.4724" /> 
<circle cx="50075" cy="46285" r="60.4724" /> 
<circle cx="49130" cy="35360" r="70.4724" /> 
<circle cx="57362.2" cy="44893.7" r="70.4724" /> 
<circle cx="54968.5" cy="52456.7" r="70.4724" /> 
<circle cx="48350" cy="41700" r="60.4724" /> 
<circle cx="55300" cy="46550" r="60.4724" /> 
<circle cx="61082.7" cy="53385.8" r="60.4724" /> 
<circle cx="65078.7" cy="53700.8" r="60.4724" /> 
<circle cx="67100" cy="53900" r="60.4724" /> 
<circle cx="60800" cy="53500" r="60.4724" /> 
<circle cx="60170" cy="33280" r="60.4724" /> 
<circle cx="48470" cy="40260" r="60.4724" /> 
<circle cx="59665.4" cy="53425.2" r="60.4724" /> 
<circle cx="60226.4" cy="39931.1" r="60.4724" /> 
<circle cx="50575" cy="47300" r="60.4724" /> 
<circle cx="55100" cy="47800" r="60.4724" /> 
<circle cx="61600" cy="44800" r="60.4724" /> 
<circle cx="61600" cy="51600" r="60.4724" /> 
<circle cx="58740.2" cy="46972.4" r="60.4724" /> 
<circle cx="58901.6" cy="44870.1" r="60.4724" /> 
<circle cx="59429.1" cy="39980.3" r="60.4724" /> 
<circle cx="61122" cy="48818.9" r="60.4724" /> 
<circle cx="62580" cy="36110" r="70.4724" /> 
<circle cx="51120" cy="33330" r="70.4724" /> 
<circle cx="61200" cy="49900" r="60.4724" /> 
<circle cx="61400" cy="51800" r="60.4724" /> 
<circle cx="61614.2" cy="53405.5" r="60.4724" /> 
<circle cx="66496.1" cy="52775.6" r="60.4724" /> 
<circle cx="58307.1" cy="45484.3" r="60.4724" /> 
<circle cx="54460.6" cy="50783.5" r="60.4724" /> 
<circle cx="55720.5" cy="43940.9" r="60.4724" /> 
<circle cx="56574.8" cy="53984.3" r="60.4724" /> 
<circle cx="59252" cy="44901.6" r="60.4724" /> 
<circle cx="59389.8" cy="46929.1" r="60.4724" /> 
<circle cx="60885.8" cy="43533.5" r="60.4724" /> 
<circle cx="61850.4" cy="51348.4" r="60.4724" /> 
<circle cx="60620.1" cy="53769.7" r="60.4724" /> 
<circle cx="65147.6" cy="54202.8" r="60.4724" /> 
<circle cx="67303.1" cy="52980.3" r="60.4724" /> 
<circle cx="61456.7" cy="52858.3" r="60.4724" /> 
<circle cx="67600" cy="56500" r="60.4724" /> 
<circle cx="66900" cy="54100" r="60.4724" /> 
<circle cx="68031.5" cy="56279.5" r="60.4724" /> 
<circle cx="65531.5" cy="53070.9" r="60.4724" /> 
<circle cx="65196.9" cy="54507.9" r="60.4724" /> 
<circle cx="60374" cy="54015.7" r="60.4724" /> 
<circle cx="48455" cy="43415" r="60.4724" /> 
<circle cx="49295" cy="47010" r="60.4724" /> 
<circle cx="49030" cy="42940" r="60.4724" /> 
<circle cx="50240" cy="40200" r="60.4724" /> 
<circle cx="55921.3" cy="44086.6" r="60.4724" /> 
<circle cx="56346.5" cy="53771.7" r="60.4724" /> 
<circle cx="54409.4" cy="51204.7" r="60.4724" /> 
<circle cx="58582.7" cy="44874" r="60.4724" /> 
<circle cx="50300" cy="44150" r="60.4724" /> 
<circle cx="52300" cy="43900" r="60.4724" /> 
<circle cx="56033.5" cy="41003.9" r="40.4724" /> 
<circle cx="56033.5" cy="41318.9" r="40.4724" /> 
<circle cx="56790" cy="41600" r="40.4724" /> 
<circle cx="56730" cy="41960" r="40.4724" /> 
<circle cx="53840" cy="44650" r="40.4724" /> 
<circle cx="52600" cy="51750" r="60.4724" /> 
<circle cx="63700" cy="48275" r="60.4724" /> 
<circle cx="60725" cy="48275" r="60.4724" /> 
<circle cx="59645.7" cy="48842.5" r="60.4724" /> 
<circle cx="51300" cy="43650" r="60.4724" /> 
<circle cx="55275" cy="46825" r="60.4724" /> 
<circle cx="50650" cy="43950" r="60.4724" /> 
<circle cx="55275" cy="47150" r="60.4724" /> 
<circle cx="50640" cy="45130" r="70.4724" /> 
<circle cx="55300" cy="47600" r="60.4724" /> 
</g>
<g style="fill:#FFFFFF; fill-opacity:1.0; 
stroke:#FFFFFF; stroke-width:80; stroke-opacity:1; 
stroke-linecap:round; stroke-linejoin:round;">
<path d="M48023 52066
L48023 52011
" />
<path d="M48023 54066
L48023 54055
" />
</g>
<g style="fill:#FFFFFF; fill-opacity:1.0; 
stroke:#FFFFFF; stroke-width:100; stroke-opacity:1; 
stroke-linecap:round; stroke-linejoin:round;">
<path d="M62880 33360
L63240 33360
" />
<path d="M63240 33360
L63260 33380
" />
<path d="M50030 43790
L50480 43340
" />
<path d="M50480 43340
L50840 43340
" />
<path d="M52074 38275
L51735 38275
" />
<path d="M50070 37890
L48500 36320
" />
<path d="M50560 37890
L50070 37890
" />
<path d="M50760 37690
L50560 37890
" />
<path d="M51150 37690
L50760 37690
" />
<path d="M51735 38275
L51150 37690
" />
</g>
<g style="fill:#FFFFFF; fill-opacity:1.0; 
stroke:#FFFFFF; stroke-width:80; stroke-opacity:1; 
stroke-linecap:round; stroke-linejoin:round;">
<path d="M50690 44370
L49145 44370
" />
<path d="M49145 44370
L49075 44300
" />
<path d="M62372 42568
L60866 41062
" />
<path d="M62372 51171
L62372 42568
" />
<path d="M62470 51269
L62372 51171
" />
<path d="M50632 51532
L49037 51532
" />
<path d="M49037 51532
L48550 52020
" />
<path d="M54397 47539
L53192 48744
" />
<path d="M53192 48744
L51956 48744
" />
<path d="M51956 48744
L51547 49153
" />
<path d="M51547 49153
L51547 50618
" />
<path d="M51547 50618
L50632 51532
" />
<path d="M50632 51532
L50625 51539
" />
<path d="M50226 53536
L49033 53536
" />
<path d="M49033 53536
L48550 54020
" />
<path d="M54358 47885
L53291 48952
" />
<path d="M53291 48952
L52082 48952
" />
<path d="M52082 48952
L51913 49122
" />
<path d="M51913 49122
L51913 51850
" />
<path d="M51913 51850
L50226 53536
" />
<path d="M50226 53536
L50200 53562
" />
<path d="M61200 53900
L67100 53900
" />
<path d="M60800 53500
L61200 53900
" />
<path d="M60000 53090
L59665 53425
" />
<path d="M60000 40157
L60000 53090
" />
<path d="M60226 39931
L60000 40157
" />
<path d="M61600 51600
L61600 44800
" />
</g>
<g style="fill:#FFFFFF; fill-opacity:1.0; 
stroke:#FFFFFF; stroke-width:100; stroke-opacity:1; 
stroke-linecap:round; stroke-linejoin:round;">
<path d="M62580 36110
L62360 36110
" />
<path d="M51410 33620
L51120 33330
" />
<path d="M59870 33620
L51410 33620
" />
<path d="M62360 36110
L59870 33620
" />
<path d="M51120 33330
L51160 33370
" />
</g>
<g style="fill:#FFFFFF; fill-opacity:1.0; 
stroke:#FFFFFF; stroke-width:80; stroke-opacity:1; 
stroke-linecap:round; stroke-linejoin:round;">
<path d="M61200 51600
L61200 49900
" />
<path d="M61400 51800
L61200 51600
" />
<path d="M61692 53484
L61614 53405
" />
<path d="M63129 53484
L61692 53484
" />
<path d="M63838 52775
L63129 53484
" />
<path d="M66496 52775
L63838 52775
" />
<path d="M58307 49161
L58307 45484
" />
<path d="M56594 50874
L58307 49161
" />
<path d="M54551 50874
L56594 50874
" />
<path d="M54460 50783
L54551 50874
" />
<path d="M59251 46791
L59251 44901
" />
<path d="M59389 46929
L59251 46791
" />
<path d="M61998 44645
L60885 43533
" />
<path d="M61998 51200
L61998 44645
" />
<path d="M61850 51348
L61998 51200
" />
<path d="M61062 54212
L60620 53769
" />
<path d="M65137 54212
L61062 54212
" />
<path d="M65147 54202
L65137 54212
" />
<path d="M48350 43520
L48455 43415
" />
<path d="M48350 45530
L48350 43520
" />
<path d="M48530 45710
L48350 45530
" />
<path d="M48900 45710
L48530 45710
" />
<path d="M49285 46095
L48900 45710
" />
<path d="M49285 47000
L49285 46095
" />
<path d="M49295 47010
L49285 47000
" />
<path d="M49590 42380
L49030 42940
" />
<path d="M49590 40850
L49590 42380
" />
<path d="M50240 40200
L49590 40850
" />
<path d="M56976 51204
L54409 51204
" />
<path d="M58531 49649
L56976 51204
" />
<path d="M58531 44925
L58531 49649
" />
<path d="M58582 44874
L58531 44925
" />
<path d="M52050 44150
L50300 44150
" />
<path d="M52300 43900
L52050 44150
" />
</g>
<g style="fill:#FFFFFF; fill-opacity:1.0; 
stroke:#FFFFFF; stroke-width:50; stroke-opacity:1; 
stroke-linecap:round; stroke-linejoin:round;">
<path d="M55470 40441
L55472 37667
" />
<path d="M56033 41003
L55470 40441
" />
<path d="M55364 38502
L55029 38169
" />
<path d="M55364 40482
L55364 38502
" />
<path d="M55816 40935
L55364 40482
" />
<path d="M55816 41102
L55816 40935
" />
<path d="M56033 41318
L55816 41102
" />
</g>
<g style="fill:#FFFFFF; fill-opacity:1.0; 
stroke:#FFFFFF; stroke-width:80; stroke-opacity:1; 
stroke-linecap:round; stroke-linejoin:round;">
<path d="M56803 51736
L59645 48893
" />
<path d="M59645 48893
L59645 48842
" />
<path d="M52613 51736
L56803 51736
" />
<path d="M52600 51750
L52613 51736
" />
</g>
<g style="fill:#FFFFFF; fill-opacity:1.0; 
stroke:#FFFFFF; stroke-width:59.0551; stroke-opacity:1; 
stroke-linecap:round; stroke-linejoin:round;">
<polyline style="fill-rule:evenodd;"
points="69379,31800
69370,38939
69314,38939
69314,32230
69237,32044
69096,31902
68910,31825
68710,31825
68524,31902
68382,32043
68309,32221
68243,32052
68231,32035
68154,32000
68139,32014
68139,31985
68104,31908
67920,31827
67719,31823
67532,31896
67515,31908
67480,31985
67810,32315
68139,31985
68139,32014
67824,32330
68154,32659
68231,32624
68311,32443
68382,32615
68523,32757
68709,32834
68909,32834
69095,32757
69237,32616
69314,32430
69314,32230
69314,38939
68240,38931
68240,36340
68202,36248
68139,36186
68139,32674
67810,32344
67795,32358
67795,32330
67465,32000
67388,32035
67307,32219
67303,32420
67376,32607
67388,32624
67465,32659
67795,32330
67795,32358
67480,32674
67515,32751
67699,32832
67900,32836
68087,32763
68104,32751
68139,32674
68139,36186
68131,36178
68039,36140
67940,36139
67848,36177
67778,36248
67740,36340
67739,36439
67777,36531
67848,36601
67940,36639
68039,36640
68131,36602
68201,36531
68239,36439
68240,36340
68240,38931
67300,38925
67300,33180
67262,33088
67191,33018
67099,32980
67000,32979
66908,33017
66838,33088
66800,33180
66799,33279
66837,33371
66908,33441
67000,33479
67099,33480
67191,33442
67261,33371
67299,33279
67300,33180
67300,38925
65200,38910
65200,36920
65200,36650
64430,36650
64430,35038
64382,34924
64295,34837
64181,34790
64058,34789
63944,34837
63857,34924
63810,35038
63809,35161
63857,35275
63944,35362
64058,35409
64181,35410
64295,35362
64382,35275
64429,35161
64430,35038
64430,36650
63460,36650
63460,33380
63444,33303
63401,33238
63381,33218
63316,33175
63240,33160
62880,33160
62803,33175
62738,33218
62695,33283
62680,33360
62695,33436
62738,33501
62803,33544
62880,33560
63176,33560
63183,33564
63260,33580
63336,33564
63401,33521
63444,33456
63460,33380
63460,36650
63430,36650
63430,36038
63430,35038
63382,34924
63295,34837
63181,34790
63058,34789
62944,34837
62857,34924
62810,35038
62809,35161
62857,35275
62944,35362
63058,35409
63181,35410
63295,35362
63382,35275
63429,35161
63430,35038
63430,36038
63382,35924
63295,35837
63181,35790
63058,35789
62944,35837
62857,35924
62815,36025
62792,35968
62721,35898
62629,35860
62530,35859
62438,35897
62434,35901
61460,34927
61460,32458
61412,32344
61325,32257
61211,32210
61088,32209
60974,32257
60887,32344
60840,32458
60839,32581
60887,32695
60974,32782
61088,32829
61211,32830
61325,32782
61412,32695
61459,32581
61460,32458
61460,34927
60960,34427
60960,33208
60912,33094
60825,33007
60711,32960
60588,32959
60474,33007
60460,33021
60460,32458
60412,32344
60325,32257
60211,32210
60088,32209
59974,32257
59887,32344
59840,32458
59839,32581
59887,32695
59974,32782
60088,32829
60211,32830
60325,32782
60412,32695
60459,32581
60460,32458
60460,33021
60387,33094
60368,33139
60306,33076
60217,33040
60122,33039
60034,33076
59966,33143
59930,33232
59929,33327
59966,33415
60033,33483
60122,33519
60217,33520
60305,33483
60373,33416
60374,33414
60387,33445
60474,33532
60588,33579
60711,33580
60825,33532
60912,33445
60959,33331
60960,33208
60960,34427
60011,33478
59946,33435
59870,33420
51492,33420
51370,33297
51370,33280
51332,33188
51261,33118
51169,33080
51070,33079
50978,33117
50908,33188
50870,33280
50869,33379
50907,33471
50978,33541
51070,33579
51087,33579
51268,33761
51333,33804
51410,33820
59787,33820
62218,36251
62283,36294
62283,36294
62360,36310
62426,36310
62438,36321
62530,36359
62629,36360
62721,36322
62791,36251
62819,36184
62857,36275
62944,36362
63058,36409
63181,36410
63295,36362
63382,36275
63429,36161
63430,36038
63430,36650
62370,36650
59580,33859
51809,33900
49380,36354
49380,35310
49342,35218
49271,35148
49179,35110
49080,35109
48988,35147
48918,35218
48880,35310
48879,35409
48917,35501
48988,35571
49080,35609
49179,35610
49271,35572
49341,35501
49379,35409
49380,35310
49380,36354
47965,37783
47817,37912
47669,38036
47760,57984
48343,58430
51159,58430
51209,55880
54520,55880
54520,58740
53815,58742
53815,57868
53738,57683
53597,57541
53421,57468
53596,57396
53738,57254
53815,57069
53815,56868
53738,56683
53597,56541
53411,56464
53211,56464
53025,56540
52883,56682
52806,56867
52806,57068
52883,57253
53024,57395
53200,57468
53025,57540
52883,57682
52806,57867
52806,58068
52883,58253
53024,58395
53210,58472
53410,58472
53596,58396
53738,58254
53815,58069
53815,57868
53815,58742
47530,58759
47530,35470
51260,31809
69379,31800
" /> 
</g>
<g style="fill:#FFFFFF; fill-opacity:0.0; 
stroke:#FFFFFF; stroke-width:100; stroke-opacity:1; 
stroke-linecap:round; stroke-linejoin:round;">
<polyline fill="none;"
points="69379,31800
69370,38939
69314,38939
69314,32230
69237,32044
69096,31902
68910,31825
68710,31825
68524,31902
68382,32043
68309,32221
68243,32052
68231,32035
68154,32000
68139,32014
68139,31985
68104,31908
67920,31827
67719,31823
67532,31896
67515,31908
67480,31985
67810,32315
68139,31985
68139,32014
67824,32330
68154,32659
68231,32624
68311,32443
68382,32615
68523,32757
68709,32834
68909,32834
69095,32757
69237,32616
69314,32430
69314,32230
69314,38939
68240,38931
68240,36340
68202,36248
68139,36186
68139,32674
67810,32344
67795,32358
67795,32330
67465,32000
67388,32035
67307,32219
67303,32420
67376,32607
67388,32624
67465,32659
67795,32330
67795,32358
67480,32674
67515,32751
67699,32832
67900,32836
68087,32763
68104,32751
68139,32674
68139,36186
68131,36178
68039,36140
67940,36139
67848,36177
67778,36248
67740,36340
67739,36439
67777,36531
67848,36601
67940,36639
68039,36640
68131,36602
68201,36531
68239,36439
68240,36340
68240,38931
67300,38925
67300,33180
67262,33088
67191,33018
67099,32980
67000,32979
66908,33017
66838,33088
66800,33180
66799,33279
66837,33371
66908,33441
67000,33479
67099,33480
67191,33442
67261,33371
67299,33279
67300,33180
67300,38925
65200,38910
65200,36920
65200,36650
64430,36650
64430,35038
64382,34924
64295,34837
64181,34790
64058,34789
63944,34837
63857,34924
63810,35038
63809,35161
63857,35275
63944,35362
64058,35409
64181,35410
64295,35362
64382,35275
64429,35161
64430,35038
64430,36650
63460,36650
63460,33380
63444,33303
63401,33238
63381,33218
63316,33175
63240,33160
62880,33160
62803,33175
62738,33218
62695,33283
62680,33360
62695,33436
62738,33501
62803,33544
62880,33560
63176,33560
63183,33564
63260,33580
63336,33564
63401,33521
63444,33456
63460,33380
63460,36650
63430,36650
63430,36038
63430,35038
63382,34924
63295,34837
63181,34790
63058,34789
62944,34837
62857,34924
62810,35038
62809,35161
62857,35275
62944,35362
63058,35409
63181,35410
63295,35362
63382,35275
63429,35161
63430,35038
63430,36038
63382,35924
63295,35837
63181,35790
63058,35789
62944,35837
62857,35924
62815,36025
62792,35968
62721,35898
62629,35860
62530,35859
62438,35897
62434,35901
61460,34927
61460,32458
61412,32344
61325,32257
61211,32210
61088,32209
60974,32257
60887,32344
60840,32458
60839,32581
60887,32695
60974,32782
61088,32829
61211,32830
61325,32782
61412,32695
61459,32581
61460,32458
61460,34927
60960,34427
60960,33208
60912,33094
60825,33007
60711,32960
60588,32959
60474,33007
60460,33021
60460,32458
60412,32344
60325,32257
60211,32210
60088,32209
59974,32257
59887,32344
59840,32458
59839,32581
59887,32695
59974,32782
60088,32829
60211,32830
60325,32782
60412,32695
60459,32581
60460,32458
60460,33021
60387,33094
60368,33139
60306,33076
60217,33040
60122,33039
60034,33076
59966,33143
59930,33232
59929,33327
59966,33415
60033,33483
60122,33519
60217,33520
60305,33483
60373,33416
60374,33414
60387,33445
60474,33532
60588,33579
60711,33580
60825,33532
60912,33445
60959,33331
60960,33208
60960,34427
60011,33478
59946,33435
59870,33420
51492,33420
51370,33297
51370,33280
51332,33188
51261,33118
51169,33080
51070,33079
50978,33117
50908,33188
50870,33280
50869,33379
50907,33471
50978,33541
51070,33579
51087,33579
51268,33761
51333,33804
51410,33820
59787,33820
62218,36251
62283,36294
62283,36294
62360,36310
62426,36310
62438,36321
62530,36359
62629,36360
62721,36322
62791,36251
62819,36184
62857,36275
62944,36362
63058,36409
63181,36410
63295,36362
63382,36275
63429,36161
63430,36038
63430,36650
62370,36650
59580,33859
51809,33900
49380,36354
49380,35310
49342,35218
49271,35148
49179,35110
49080,35109
48988,35147
48918,35218
48880,35310
48879,35409
48917,35501
48988,35571
49080,35609
49179,35610
49271,35572
49341,35501
49379,35409
49380,35310
49380,36354
47965,37783
47817,37912
47669,38036
47760,57984
48343,58430
51159,58430
51209,55880
54520,55880
54520,58740
53815,58742
53815,57868
53738,57683
53597,57541
53421,57468
53596,57396
53738,57254
53815,57069
53815,56868
53738,56683
53597,56541
53411,56464
53211,56464
53025,56540
52883,56682
52806,56867
52806,57068
52883,57253
53024,57395
53200,57468
53025,57540
52883,57682
52806,57867
52806,58068
52883,58253
53024,58395
53210,58472
53410,58472
53596,58396
53738,58254
53815,58069
53815,57868
53815,58742
47530,58759
47530,35470
51260,31809
69379,31800
" /> 
</g>
<g style="fill:#FFFFFF; fill-opacity:1.0; 
stroke:#FFFFFF; stroke-width:59.0551; stroke-opacity:1; 
stroke-linecap:round; stroke-linejoin:round;">
<polyline style="fill-rule:evenodd;"
points="69409,58749
69208,58749
69208,58216
69208,57216
69208,56216
69208,55216
69157,55094
69065,55001
68950,54954
68950,47310
68950,46310
68881,46145
68755,46018
68589,45950
68410,45949
68245,46018
68118,46144
68050,46310
68049,46489
68118,46654
68244,46781
68410,46849
68589,46850
68754,46781
68881,46655
68949,46489
68950,46310
68950,47310
68881,47145
68755,47018
68589,46950
68410,46949
68245,47018
68118,47144
68050,47310
68049,47489
68118,47654
68244,47781
68410,47849
68589,47850
68754,47781
68881,47655
68949,47489
68950,47310
68950,54954
68950,54954
68950,48729
68950,48670
68950,48070
68927,48015
68884,47972
68829,47950
68770,47950
68170,47950
68115,47972
68072,48015
68050,48070
68050,48129
68050,48729
68072,48784
68115,48827
68170,48850
68229,48850
68829,48850
68884,48827
68927,48784
68950,48729
68950,54954
68943,54951
68812,54951
68691,55001
68598,55094
68548,55215
68547,55346
68598,55468
68690,55561
68812,55611
68943,55611
69064,55561
69157,55468
69207,55347
69208,55216
69208,56216
69157,56094
69065,56001
68943,55951
68812,55951
68691,56001
68598,56094
68548,56215
68547,56346
68598,56468
68690,56561
68812,56611
68943,56611
69064,56561
69157,56468
69207,56347
69208,56216
69208,57216
69157,57094
69065,57001
68943,56951
68812,56951
68691,57001
68598,57094
68548,57215
68547,57346
68598,57468
68690,57561
68812,57611
68943,57611
69064,57561
69157,57468
69207,57347
69208,57216
69208,58216
69157,58094
69065,58001
68943,57951
68812,57951
68691,58001
68598,58094
68548,58215
68547,58346
68598,58468
68690,58561
68812,58611
68943,58611
69064,58561
69157,58468
69207,58347
69208,58216
69208,58749
68271,58749
68271,56231
68235,56143
68167,56076
68079,56039
67983,56039
67951,56052
67951,48318
67950,48314
67950,47310
67950,46310
67881,46145
67755,46018
67589,45950
67410,45949
67245,46018
67118,46144
67050,46310
67049,46489
67118,46654
67244,46781
67410,46849
67589,46850
67754,46781
67881,46655
67949,46489
67950,46310
67950,47310
67881,47145
67755,47018
67589,46950
67410,46949
67245,47018
67118,47144
67050,47310
67049,47489
67118,47654
67244,47781
67410,47849
67589,47850
67754,47781
67881,47655
67949,47489
67950,47310
67950,48314
67885,48151
67876,48138
67804,48109
67790,48123
67790,48095
67761,48023
67597,47951
67418,47948
67251,48014
67238,48023
67209,48095
67500,48385
67790,48095
67790,48123
67514,48400
67804,48690
67876,48661
67948,48497
67951,48318
67951,56052
67895,56075
67828,56143
67791,56231
67791,56327
67827,56415
67895,56482
67983,56519
68079,56519
68167,56483
68234,56415
68271,56327
68271,56231
68271,58749
67840,58748
67840,56452
67803,56364
67790,56351
67790,48704
67500,48414
67485,48428
67485,48400
67195,48109
67123,48138
67051,48302
67048,48481
67114,48648
67123,48661
67195,48690
67485,48400
67485,48428
67209,48704
67238,48776
67402,48848
67581,48851
67748,48785
67761,48776
67790,48704
67790,56351
67736,56296
67647,56260
67552,56259
67543,56263
67543,52932
67506,52844
67439,52776
67351,52740
67255,52740
67167,52776
67099,52844
67063,52932
67063,53027
67099,53116
67167,53183
67255,53220
67350,53220
67438,53183
67506,53116
67543,53028
67543,52932
67543,56263
67464,56296
67396,56363
67360,56452
67359,56547
67396,56635
67463,56703
67552,56739
67647,56740
67735,56703
67803,56636
67839,56547
67840,56452
67840,58748
67340,58748
67340,53852
67303,53764
67236,53696
67147,53660
67052,53659
66964,53696
66950,53710
66805,53710
66805,44720
66767,44628
66696,44558
66604,44520
66505,44519
66413,44557
66343,44628
66305,44720
66304,44819
66342,44911
66413,44981
66505,45019
66604,45020
66696,44982
66766,44911
66804,44819
66805,44720
66805,53710
66736,53710
66736,52728
66699,52639
66632,52572
66544,52535
66448,52535
66360,52572
66346,52585
63965,52585
63965,48477
63928,48389
63917,48377
63939,48322
63940,48227
63903,48139
63836,48071
63747,48035
63652,48034
63564,48071
63496,48138
63460,48227
63459,48322
63496,48410
63507,48422
63485,48477
63484,48572
63521,48660
63588,48728
63677,48764
63772,48765
63860,48728
63928,48661
63964,48572
63965,48477
63965,52585
63838,52585
63765,52600
63704,52641
63704,52641
63299,53046
63299,50464
63262,50376
63260,50373
63260,42329
63189,42158
63058,42027
62888,41956
62703,41956
62532,42026
62401,42157
62350,42279
61155,41083
61155,39655
61117,39563
61046,39493
60954,39455
60855,39454
60763,39492
60693,39563
60655,39655
60654,39754
60692,39846
60763,39916
60855,39954
60954,39955
61046,39917
61116,39846
61154,39754
61155,39655
61155,41083
61106,41034
61106,41015
61069,40927
61026,40883
61081,40829
61117,40740
61117,40645
61081,40557
61014,40489
60925,40452
60830,40452
60742,40489
60732,40499
60732,40330
60695,40242
60628,40174
60540,40137
60466,40137
60466,39883
60429,39795
60362,39727
60274,39691
60178,39691
60161,39698
60161,39212
60124,39124
60057,39056
59969,39019
59873,39019
59785,39056
59717,39123
59681,39211
59681,39307
59717,39395
59785,39463
59873,39499
59968,39499
60057,39463
60124,39395
60161,39307
60161,39212
60161,39698
60090,39727
60023,39794
59986,39883
59986,39902
59925,39963
59925,39932
59888,39844
59821,39776
59732,39740
59637,39740
59602,39754
59602,36480
59552,36359
59459,36266
59338,36215
59207,36215
59085,36265
58992,36358
58942,36479
58942,36611
58992,36732
59085,36825
59206,36875
59337,36875
59459,36825
59552,36732
59602,36611
59602,36480
59602,39754
59556,39773
59477,39740
59381,39740
59293,39776
59225,39844
59189,39932
59189,40027
59225,40116
59293,40183
59381,40220
59476,40220
59557,40187
59637,40220
59732,40220
59810,40188
59810,47069
59781,47040
59693,47004
59618,47004
59629,46977
59629,46881
59593,46793
59525,46725
59441,46690
59441,45129
59518,45161
59614,45161
59702,45124
59770,45057
59806,44969
59806,44873
59770,44785
59703,44717
59614,44681
59519,44681
59431,44717
59419,44729
59388,44698
59299,44661
59204,44661
59180,44671
59180,40702
59143,40614
59076,40546
58987,40510
58895,40509
58895,37187
58895,35773
58845,35651
58752,35558
58631,35508
58500,35508
58378,35558
58285,35651
58235,35772
58235,35903
58285,36025
58378,36118
58499,36168
58630,36168
58752,36118
58844,36025
58895,35904
58895,35773
58895,37187
58845,37066
58752,36973
58631,36922
58500,36922
58378,36972
58285,37065
58235,37186
58235,37318
58285,37439
58378,37532
58499,37582
58630,37582
58752,37532
58844,37439
58895,37318
58895,37187
58895,40509
58892,40509
58804,40546
58736,40613
58700,40702
58699,40797
58736,40885
58803,40953
58892,40989
58987,40990
59075,40953
59143,40886
59179,40797
59180,40702
59180,44671
59116,44697
59092,44721
59037,44666
58949,44630
58854,44630
58765,44666
58740,44692
58718,44670
58630,44634
58535,44633
58446,44670
58379,44737
58342,44826
58342,44919
58341,44925
58341,45244
58259,45244
58236,45253
58236,44818
58199,44730
58188,44719
58188,36480
58188,35066
58138,34944
58045,34851
57924,34801
57792,34801
57671,34851
57578,34944
57528,35065
57528,35196
57578,35318
57671,35411
57792,35461
57923,35461
58044,35411
58137,35318
58188,35197
58188,35066
58188,36480
58138,36359
58045,36266
57924,36215
57792,36215
57671,36265
57578,36358
57528,36479
57528,36611
57578,36732
57671,36825
57792,36875
57923,36875
58044,36825
58137,36732
58188,36611
58188,36480
58188,44719
58132,44662
58044,44626
57948,44626
57860,44662
57792,44730
57756,44818
57756,44913
57792,45001
57859,45069
57948,45106
58043,45106
58131,45069
58199,45002
58236,44914
58236,44818
58236,45253
58171,45280
58103,45348
58067,45436
58067,45531
58103,45620
58117,45633
58117,49082
57909,49290
57909,45413
57872,45324
57805,45257
57717,45220
57621,45220
57612,45224
57612,44844
57574,44752
57504,44681
57481,44672
57481,35773
57431,35651
57338,35558
57217,35508
57085,35508
56964,35558
56871,35651
56821,35772
56821,35903
56871,36025
56963,36118
57085,36168
57216,36168
57337,36118
57430,36025
57481,35904
57481,35773
57481,44672
57412,44643
57312,44643
57220,44681
57150,44751
57112,44843
57112,44943
57150,45035
57220,45105
57312,45143
57411,45143
57503,45105
57574,45035
57612,44943
57612,44844
57612,45224
57533,45257
57465,45324
57429,45412
57429,45508
57465,45596
57533,45663
57621,45700
57716,45700
57805,45664
57872,45596
57909,45508
57909,45413
57909,49290
57263,49936
57263,45417
57227,45328
57159,45261
57071,45224
57010,45224
57010,41556
56976,41475
56914,41413
56833,41380
56774,41379
56774,35066
56723,34944
56631,34851
56509,34801
56378,34801
56257,34851
56164,34944
56114,35065
56113,35196
56164,35318
56256,35411
56378,35461
56509,35461
56630,35411
56723,35318
56773,35197
56774,35066
56774,41379
56746,41379
56665,41413
56603,41475
56570,41556
56569,41643
56603,41724
56638,41759
56605,41773
56560,41818
56560,40275
56522,40183
56505,40166
56505,36376
56413,36155
56244,35985
56022,35893
55782,35893
55561,35984
55391,36154
55299,36375
55299,36615
55390,36837
55560,37006
55781,37098
56021,37099
56243,37007
56412,36838
56504,36616
56505,36376
56505,40166
56451,40113
56359,40075
56260,40074
56168,40112
56098,40183
56060,40275
56059,40374
56097,40466
56168,40536
56260,40574
56359,40575
56451,40537
56521,40466
56559,40374
56560,40275
56560,41818
56543,41835
56510,41916
56509,42003
56543,42084
56605,42146
56686,42179
56773,42180
56854,42146
56916,42084
56949,42003
56950,41916
56916,41835
56881,41800
56914,41786
56976,41724
57009,41643
57010,41556
57010,45224
56976,45224
56972,45226
56972,44818
56935,44730
56868,44662
56780,44626
56684,44626
56669,44632
56669,44389
56632,44301
56565,44233
56477,44197
56381,44196
56293,44233
56263,44263
56263,43279
56253,43254
56253,41275
56220,41194
56187,41161
56219,41128
56253,41047
56253,40960
56220,40879
56158,40817
56077,40783
56060,40783
55645,40368
55647,37776
55655,37773
55747,37681
55797,37560
55797,37430
55748,37310
55656,37218
55536,37168
55405,37168
55285,37218
55241,37262
55241,37152
55191,37032
55099,36940
54979,36890
54907,36890
54907,36539
54857,36419
54765,36327
54645,36277
54515,36277
54394,36327
54350,36371
54350,36261
54300,36141
54208,36049
54088,35999
53958,35999
53838,36048
53745,36140
53696,36261
53695,36391
53745,36511
53837,36603
53957,36653
54087,36653
54208,36603
54252,36559
54252,36669
54302,36789
54394,36881
54514,36931
54644,36932
54765,36882
54857,36790
54907,36670
54907,36539
54907,36890
54849,36890
54728,36939
54636,37031
54586,37151
54586,37282
54636,37402
54728,37494
54848,37544
54978,37544
55099,37494
55143,37450
55143,37560
55193,37680
55285,37772
55297,37777
55297,38188
55236,38128
55241,38117
55241,37987
55191,37867
55099,37775
54979,37725
54849,37725
54728,37774
54636,37866
54586,37987
54586,38117
54636,38237
54728,38329
54848,38379
54978,38379
54988,38375
55189,38575
55189,40482
55202,40549
55240,40606
55641,41007
55641,41102
55655,41169
55693,41226
55813,41346
55813,41362
55846,41443
55908,41505
55989,41538
56077,41538
56157,41505
56219,41443
56253,41362
56253,41275
56253,43254
56227,43191
56159,43123
56071,43086
55976,43086
55910,43114
55910,42180
55872,42088
55801,42018
55709,41980
55610,41979
55518,42017
55448,42088
55410,42180
55409,42279
55447,42371
55518,42441
55610,42479
55709,42480
55801,42442
55871,42371
55909,42279
55910,42180
55910,43114
55887,43123
55820,43190
55783,43278
55783,43374
55820,43462
55887,43530
55975,43566
56071,43566
56159,43530
56226,43462
56263,43374
56263,43279
56263,44263
56225,44300
56189,44389
56189,44484
56225,44572
56293,44640
56381,44676
56476,44677
56564,44640
56632,44573
56669,44484
56669,44389
56669,44632
56596,44662
56528,44730
56492,44818
56492,44913
56528,45001
56596,45069
56684,45106
56779,45106
56868,45069
56935,45002
56972,44914
56972,44818
56972,45226
56887,45260
56820,45328
56783,45416
56783,45512
56820,45600
56887,45667
56975,45704
57071,45704
57159,45668
57226,45600
57263,45512
57263,45417
57263,49936
56515,50684
56161,50684
56161,44039
56124,43950
56057,43883
55969,43846
55941,43846
55924,43805
55856,43737
55768,43700
55672,43700
55584,43737
55517,43804
55480,43892
55480,43988
55516,44076
55584,44144
55672,44180
55700,44180
55717,44222
55785,44289
55873,44326
55968,44326
56057,44290
56124,44222
56161,44134
56161,44039
56161,50684
55540,50684
55540,47552
55503,47464
55436,47396
55371,47369
55410,47353
55478,47286
55514,47197
55515,47102
55478,47014
55451,46987
55478,46961
55514,46872
55515,46777
55484,46704
55503,46686
55539,46597
55540,46502
55540,45377
55503,45289
55436,45221
55347,45185
55252,45184
55164,45221
55096,45288
55060,45377
55059,45472
55096,45560
55163,45628
55252,45664
55347,45665
55435,45628
55503,45561
55539,45472
55540,45377
55540,46502
55503,46414
55436,46346
55347,46310
55252,46309
55164,46346
55096,46413
55060,46502
55059,46597
55090,46670
55071,46688
55035,46777
55034,46872
55071,46960
55098,46987
55071,47013
55035,47102
55034,47197
55071,47285
55138,47353
55203,47380
55164,47396
55096,47463
55060,47552
55060,47559
55052,47559
54964,47596
54896,47663
54860,47752
54859,47847
54896,47935
54963,48003
55052,48039
55147,48040
55235,48003
55303,47936
55339,47847
55339,47840
55347,47840
55435,47803
55503,47736
55539,47647
55540,47552
55540,50684
55530,50684
55530,50255
55492,50163
55421,50093
55329,50055
55230,50054
55138,50092
55068,50163
55030,50255
55029,50354
55067,50446
55138,50516
55230,50554
55329,50555
55421,50517
55491,50446
55529,50354
55530,50255
55530,50684
54684,50684
54684,38544
54634,38424
54545,38334
54545,37848
54495,37728
54403,37636
54350,37613
54350,37096
54300,36976
54208,36884
54088,36834
53958,36834
53838,36884
53745,36976
53696,37096
53695,37226
53745,37346
53837,37438
53957,37488
54087,37488
54208,37439
54300,37347
54350,37226
54350,37096
54350,37613
54283,37586
54153,37585
54032,37635
53940,37727
53890,37847
53890,37978
53940,38098
54032,38190
54152,38240
54282,38240
54403,38190
54495,38098
54545,37978
54545,37848
54545,38334
54542,38331
54422,38282
54292,38281
54172,38331
54080,38423
54030,38543
54029,38673
54079,38794
54171,38886
54291,38936
54422,38936
54542,38886
54634,38794
54684,38674
54684,38544
54684,50684
54679,50684
54664,50647
54596,50580
54508,50543
54413,50543
54324,50579
54257,50647
54220,50735
54220,50830
54257,50919
54319,50982
54273,51001
54206,51068
54169,51156
54169,51252
54205,51340
54273,51408
54361,51444
54456,51444
54545,51408
54558,51394
56875,51394
56724,51546
52735,51546
52647,51510
52552,51509
52464,51546
52396,51613
52360,51702
52359,51797
52396,51885
52463,51953
52552,51989
52647,51990
52735,51953
52763,51926
54330,51926
54323,51944
54322,52039
54359,52127
54426,52195
54457,52208
54425,52286
54425,52382
54461,52470
54529,52537
54617,52574
54712,52574
54741,52562
54756,52598
54826,52668
54918,52706
54998,52706
55032,52789
55100,52856
55188,52893
55216,52893
55216,52925
55253,53013
55320,53081
55408,53117
55448,53117
55448,53149
55485,53238
55552,53305
55641,53342
55736,53342
55824,53305
55892,53238
55928,53150
55929,53054
55892,52966
55825,52899
55736,52862
55696,52862
55696,52830
55660,52742
55592,52674
55504,52637
55476,52637
55476,52606
55439,52517
55372,52450
55284,52413
55218,52413
55218,52407
55180,52315
55110,52244
55018,52206
54918,52206
54878,52223
54868,52198
54801,52131
54770,52118
54802,52040
54803,51944
54795,51926
56803,51926
56875,51911
56937,51870
59748,49059
59781,49046
59810,49017
59810,53011
59636,53185
59617,53185
59529,53221
59462,53289
59425,53377
59425,53472
59461,53560
59529,53628
59617,53665
59712,53665
59801,53628
59868,53561
59905,53473
59905,53453
60134,53224
60134,53224
60134,53224
60175,53163
60190,53090
60190,53090
60190,53090
60190,40236
60255,40171
60273,40171
60362,40134
60429,40067
60466,39979
60466,39883
60466,40137
60444,40137
60356,40174
60288,40241
60252,40330
60252,40425
60288,40513
60355,40581
60444,40617
60539,40617
60627,40581
60695,40514
60732,40425
60732,40330
60732,40499
60674,40556
60637,40644
60637,40740
60674,40828
60717,40872
60662,40926
60626,41015
60626,41110
60662,41198
60730,41266
60818,41302
60837,41302
62182,42647
62182,44615
62173,44572
62132,44511
61145,43523
61145,41950
61107,41858
61036,41788
60944,41750
60845,41749
60753,41787
60683,41858
60645,41950
60644,42049
60682,42141
60753,42211
60845,42249
60944,42250
61036,42212
61106,42141
61144,42049
61145,41950
61145,43523
61125,43504
61125,43485
61089,43397
61021,43330
60933,43293
60838,43293
60750,43329
60682,43397
60645,43485
60645,43580
60682,43669
60749,43736
60837,43773
60857,43773
61643,44560
61552,44559
61464,44596
61396,44663
61360,44752
61359,44847
61396,44935
61410,44949
61410,48834
61369,48834
61362,48837
61362,48771
61325,48683
61258,48615
61189,48587
61190,48502
61153,48414
61086,48346
60997,48310
60964,48310
60965,48227
60928,48139
60861,48071
60772,48035
60677,48034
60589,48071
60521,48138
60485,48227
60484,48322
60521,48410
60588,48478
60677,48514
60710,48514
60709,48597
60746,48685
60813,48753
60882,48781
60882,48866
60918,48954
60985,49022
61074,49058
61169,49058
61177,49055
61177,49122
61213,49210
61281,49278
61369,49314
61410,49314
61410,49779
61403,49764
61336,49696
61247,49660
61152,49659
61064,49696
60996,49763
60960,49852
60959,49947
60996,50035
61010,50049
61010,51600
61024,51672
61065,51734
61159,51828
61159,51847
61196,51935
61263,52003
61352,52039
61447,52040
61535,52003
61603,51936
61639,51847
61639,51840
61647,51840
61735,51803
61803,51736
61839,51647
61840,51588
61897,51588
61986,51552
62053,51484
62090,51396
62090,51377
62132,51335
62173,51273
62187,51201
62196,51243
62230,51294
62230,51317
62266,51405
62334,51473
62422,51509
62518,51509
62606,51473
62673,51405
62710,51317
62710,51222
62674,51133
62606,51066
62562,51047
62562,42827
62702,42886
62887,42886
63058,42815
63189,42684
63260,42514
63260,42329
63260,50373
63195,50308
63131,50281
63161,50209
63161,50113
63124,50025
63057,49958
62985,49928
63006,49907
63043,49819
63043,49724
63006,49635
62939,49568
62851,49531
62755,49531
62667,49568
62599,49635
62563,49723
62563,49819
62599,49907
62667,49974
62738,50004
62717,50025
62681,50113
62681,50208
62717,50297
62785,50364
62849,50391
62819,50463
62819,50559
62855,50647
62922,50715
63011,50751
63106,50751
63194,50715
63262,50647
63299,50559
63299,50464
63299,53046
63051,53294
62019,53294
62054,53209
62055,53110
62017,53018
61946,52948
61854,52910
61755,52909
61682,52940
61696,52906
61696,52810
61660,52722
61592,52654
61504,52618
61409,52618
61320,52654
61253,52722
61216,52810
61216,52905
61253,52994
61320,53061
61408,53098
61504,53098
61571,53070
61555,53110
61554,53170
61478,53201
61410,53269
61374,53357
61374,53453
61410,53541
61478,53608
61566,53645
61598,53645
61620,53659
61692,53674
61692,53674
61692,53674
63129,53674
63202,53659
63264,53618
63917,52965
65315,52965
65291,53022
65291,53118
65327,53206
65395,53274
65483,53310
65579,53310
65667,53274
65734,53206
65771,53118
65771,53023
65747,52965
66346,52965
66359,52978
66448,53015
66543,53015
66631,52979
66699,52911
66736,52823
66736,52728
66736,53710
65318,53710
65318,53653
65282,53565
65214,53497
65126,53460
65031,53460
64942,53497
64875,53564
64838,53652
64838,53710
61278,53710
61175,53607
61218,53589
61286,53521
61322,53433
61322,53338
61286,53250
61218,53182
61130,53145
61035,53145
60946,53182
60879,53249
60871,53269
60847,53260
60752,53259
60664,53296
60596,53363
60560,53452
60559,53534
60484,53566
60416,53633
60380,53721
60380,53775
60326,53775
60238,53812
60170,53879
60134,53967
60133,54063
60170,54151
60237,54219
60326,54255
60421,54255
60509,54219
60577,54151
60613,54063
60614,54032
60928,54346
60990,54388
61062,54402
64980,54402
64956,54459
64956,54555
64993,54643
65060,54711
65148,54747
65244,54747
65332,54711
65400,54644
65436,54555
65436,54460
65400,54372
65355,54327
65387,54250
65387,54155
65360,54090
66660,54090
66659,54147
66696,54235
66763,54303
66852,54339
66947,54340
67035,54303
67103,54236
67139,54147
67139,54140
67147,54140
67235,54103
67303,54036
67339,53947
67340,53852
67340,58748
60159,58743
60241,58688
60325,58563
60354,58415
60354,58119
60325,57971
60241,57846
60116,57762
60010,57741
60010,57118
59944,56958
59821,56835
59661,56769
59550,56769
59550,53822
59513,53734
59446,53666
59357,53630
59262,53629
59174,53666
59106,53733
59070,53822
59069,53917
59106,54005
59173,54073
59262,54109
59357,54110
59445,54073
59513,54006
59549,53917
59550,53822
59550,56769
59488,56769
59328,56835
59205,56957
59139,57117
59139,57290
59205,57451
59327,57573
59487,57640
59661,57640
59821,57574
59943,57451
60010,57291
60010,57118
60010,57741
59968,57733
59820,57762
59695,57846
59611,57971
59582,58119
59582,58415
59611,58563
59695,58688
59776,58743
58041,58742
58041,57118
57975,56958
57853,56835
57693,56769
57661,56769
57661,54873
57624,54785
57557,54717
57469,54681
57412,54681
57428,54642
57429,54546
57392,54458
57325,54391
57243,54357
57243,54350
57207,54261
57140,54194
57051,54157
57026,54157
56994,54080
56927,54013
56839,53976
56814,53976
56814,53936
56778,53848
56710,53780
56622,53744
56586,53744
56586,53724
56550,53635
56482,53568
56394,53531
56298,53531
56210,53568
56143,53635
56106,53723
56106,53819
56142,53907
56210,53974
56298,54011
56334,54011
56334,54031
56371,54120
56438,54187
56526,54224
56551,54224
56551,54264
56587,54352
56655,54419
56743,54456
56768,54456
56800,54533
56867,54600
56948,54634
56948,54642
56985,54730
57052,54797
57141,54834
57197,54834
57181,54873
57181,54968
57217,55057
57285,55124
57373,55161
57468,55161
57557,55124
57624,55057
57661,54969
57661,54873
57661,56769
57520,56769
57359,56835
57237,56957
57170,57117
57170,57290
57236,57451
57359,57573
57519,57640
57692,57640
57852,57574
57975,57451
58041,57291
58041,57118
58041,58742
57406,58741
57485,58688
57569,58563
57598,58415
57598,58119
57569,57971
57485,57846
57360,57762
57212,57733
57064,57762
56939,57846
56855,57971
56826,58119
56826,58415
56855,58563
56939,58688
57018,58741
56145,58740
56145,56389
56109,56301
56041,56233
55953,56197
55857,56196
55769,56233
55702,56300
55665,56389
55665,56484
55701,56572
55769,56640
55857,56676
55953,56677
56041,56640
56108,56573
56145,56484
56145,56389
56145,58740
54890,58740
54900,55539
50811,55550
50810,55597
50810,55292
50773,55204
50706,55136
50617,55100
50522,55099
50434,55136
50366,55203
50330,55292
50329,55387
50366,55475
50433,55543
50522,55579
50617,55580
50705,55543
50773,55476
50809,55387
50810,55292
50810,55597
50770,57277
50770,56102
50733,56014
50666,55946
50577,55910
50482,55909
50394,55946
50326,56013
50290,56102
50289,56197
50326,56285
50393,56353
50482,56389
50577,56390
50665,56353
50733,56286
50769,56197
50770,56102
50770,57277
50751,58070
48717,58070
48059,57555
48051,54251
48096,54242
48142,54211
48168,54274
48294,54401
48460,54469
48639,54470
48804,54401
48931,54275
48999,54109
49000,53930
48973,53865
49111,53726
49206,53726
49168,53764
49100,53930
49099,54109
49168,54274
49294,54401
49460,54469
49639,54470
49804,54401
49931,54275
49999,54109
50000,53930
49931,53765
49893,53726
50110,53726
50128,53738
50200,53752
50273,53738
50335,53697
50361,53671
50361,53671
50361,53671
52047,51984
52047,51984
52047,51984
52088,51923
52103,51850
52103,51850
52103,51850
52103,49200
52161,49142
53291,49142
53364,49128
53425,49087
54128,48384
54153,48410
54118,48495
54118,48590
54154,48679
54222,48746
54310,48783
54405,48783
54494,48746
54561,48679
54598,48591
54598,48495
54561,48407
54527,48373
54562,48288
54562,48192
54526,48104
54502,48080
54561,48021
54598,47933
54598,47838
54561,47750
54544,47732
54600,47675
54637,47587
54637,47491
54601,47403
54598,47401
54598,42329
54528,42158
54397,42027
54226,41956
54127,41956
54127,39101
54077,38980
53988,38891
53988,38405
53938,38284
53846,38192
53793,38170
53793,37653
53743,37533
53654,37443
53654,36957
53604,36837
53512,36745
53392,36695
53262,36695
53142,36744
53049,36836
53000,36957
52999,37087
53049,37207
53141,37299
53261,37349
53391,37349
53512,37299
53604,37207
53654,37087
53654,36957
53654,37443
53651,37441
53531,37391
53401,37391
53281,37440
53189,37532
53139,37652
53139,37783
53188,37903
53280,37995
53401,38045
53531,38045
53651,37995
53743,37903
53793,37783
53793,37653
53793,38170
53726,38142
53596,38142
53476,38192
53384,38284
53334,38404
53334,38534
53383,38655
53475,38747
53595,38797
53726,38797
53846,38747
53938,38655
53988,38535
53988,38405
53988,38891
53986,38888
53865,38838
53735,38838
53615,38888
53523,38980
53473,39100
53473,39230
53522,39351
53614,39443
53735,39493
53865,39493
53985,39443
54077,39351
54127,39231
54127,39101
54127,41956
54041,41956
53870,42026
53739,42157
53668,42328
53668,42513
53739,42684
53870,42815
54040,42886
54225,42886
54396,42815
54527,42684
54598,42514
54598,42329
54598,47401
54533,47336
54445,47299
54350,47299
54261,47335
54194,47403
54157,47491
54157,47510
54060,47608
54060,44606
54026,44525
53964,44463
53883,44430
53840,44429
53840,43877
53803,43789
53736,43721
53647,43685
53570,43684
53570,39657
53521,39537
53429,39445
53309,39395
53198,39395
53242,39351
53292,39231
53292,39101
53242,38980
53236,38974
53236,38210
53187,38090
53097,38000
53097,37514
53047,37394
52955,37301
52835,37252
52705,37251
52585,37301
52493,37393
52443,37513
52443,37643
52492,37764
52584,37856
52705,37906
52835,37906
52955,37856
53047,37764
53097,37644
53097,37514
53097,38000
53095,37997
52974,37948
52844,37947
52724,37997
52632,38089
52582,38209
52582,38339
52632,38460
52724,38552
52844,38602
52974,38602
53094,38552
53186,38460
53236,38340
53236,38210
53236,38974
53150,38888
53030,38838
52900,38838
52780,38888
52688,38980
52638,39100
52638,39230
52687,39351
52779,39443
52899,39493
53010,39493
52966,39537
52916,39657
52916,39787
52966,39907
53058,39999
53178,40049
53308,40049
53428,40000
53520,39908
53570,39788
53570,39657
53570,43684
53552,43684
53500,43706
53500,43392
53463,43304
53396,43236
53307,43200
53212,43199
53124,43236
53056,43303
53020,43392
53019,43487
53056,43575
53123,43643
53212,43679
53307,43680
53395,43643
53463,43576
53499,43487
53500,43392
53500,43706
53464,43721
53396,43788
53360,43877
53359,43972
53396,44060
53463,44128
53552,44164
53647,44165
53735,44128
53803,44061
53839,43972
53840,43877
53840,44429
53796,44429
53715,44463
53653,44525
53620,44606
53619,44693
53653,44774
53715,44836
53796,44869
53883,44870
53964,44836
54026,44774
54059,44693
54060,44606
54060,47608
53114,48554
52847,48554
52847,40034
52755,39813
52586,39643
52364,39551
52124,39551
51903,39642
51733,39812
51641,40033
51641,40273
51732,40495
51902,40664
52123,40756
52363,40757
52585,40665
52754,40496
52846,40274
52847,40034
52847,48554
52540,48554
52540,43852
52503,43764
52436,43696
52347,43660
52252,43659
52164,43696
52096,43763
52060,43852
52060,43871
51971,43960
51540,43960
51540,43602
51503,43514
51436,43446
51347,43410
51252,43409
51164,43446
51096,43513
51060,43602
51059,43697
51096,43785
51163,43853
51252,43889
51347,43890
51435,43853
51503,43786
51539,43697
51540,43602
51540,43960
50889,43960
50890,43902
50853,43814
50786,43746
50697,43710
50602,43709
50514,43746
50446,43813
50410,43902
50410,43935
50347,43910
50252,43909
50250,43910
50279,43839
50279,43822
50562,43540
50686,43540
50698,43551
50790,43589
50889,43590
50981,43552
51051,43481
51089,43389
51090,43290
51052,43198
50981,43128
50889,43090
50790,43089
50698,43127
50686,43140
50480,43140
50480,40152
50443,40064
50376,39996
50287,39960
50192,39959
50104,39996
50036,40063
50000,40152
50000,40171
49455,40715
49414,40777
49400,40850
49400,42301
49340,42361
49340,39852
49303,39764
49236,39696
49147,39660
49052,39659
48964,39696
48960,39700
48960,39472
48923,39384
48856,39316
48767,39280
48672,39279
48584,39316
48516,39383
48480,39472
48479,39567
48516,39655
48583,39723
48672,39759
48767,39760
48855,39723
48923,39656
48959,39567
48960,39472
48960,39700
48896,39763
48860,39852
48859,39947
48896,40035
48963,40103
49052,40139
49147,40140
49235,40103
49303,40036
49339,39947
49340,39852
49340,42361
49001,42699
48982,42699
48894,42736
48826,42803
48790,42892
48789,42987
48826,43075
48893,43143
48982,43179
49077,43180
49165,43143
49233,43076
49269,42987
49269,42968
49724,42514
49724,42514
49724,42514
49765,42452
49780,42380
49780,40928
50268,40440
50287,40440
50375,40403
50443,40336
50479,40247
50480,40152
50480,43140
50480,43140
50403,43155
50338,43198
49997,43539
49980,43539
49888,43577
49818,43648
49780,43740
49779,43839
49817,43931
49888,44001
49980,44039
50079,44040
50087,44036
50060,44102
50059,44180
49285,44180
49278,44164
49211,44096
49122,44060
49027,44059
48939,44096
48871,44163
48835,44252
48834,44347
48871,44435
48938,44503
49027,44539
49063,44539
49072,44545
49145,44560
50540,44560
50553,44573
50642,44609
50737,44610
50825,44573
50893,44506
50929,44417
50930,44340
52050,44340
52122,44325
52184,44284
52328,44140
52347,44140
52435,44103
52503,44036
52539,43947
52540,43852
52540,48554
51956,48554
51883,48568
51822,48609
51730,48702
51730,46172
51693,46084
51626,46016
51537,45980
51442,45979
51354,46016
51286,46083
51250,46172
51249,46267
51286,46355
51353,46423
51442,46459
51537,46460
51625,46423
51693,46356
51729,46267
51730,46172
51730,48702
51412,49019
51371,49080
51357,49153
51357,50539
50890,51006
50890,45080
50852,44988
50781,44918
50689,44880
50590,44879
50498,44917
50428,44988
50390,45080
50389,45179
50427,45271
50498,45341
50590,45379
50689,45380
50781,45342
50851,45271
50889,45179
50890,45080
50890,51006
50815,51081
50815,47252
50778,47164
50711,47096
50622,47060
50527,47059
50439,47096
50371,47163
50335,47252
50334,47347
50371,47435
50438,47503
50527,47539
50622,47540
50710,47503
50778,47436
50814,47347
50815,47252
50815,51081
50553,51342
50315,51342
50315,46237
50278,46149
50211,46081
50122,46045
50027,46044
49939,46081
49871,46148
49835,46237
49834,46332
49871,46420
49938,46488
50027,46524
50122,46525
50210,46488
50278,46421
50314,46332
50315,46237
50315,51342
49863,51342
49931,51275
49999,51109
50000,50930
50000,49930
49931,49765
49805,49638
49639,49570
49535,49569
49535,46962
49498,46874
49475,46850
49475,46095
49460,46022
49419,45960
49419,45960
49034,45575
48972,45534
48900,45520
48710,45520
48710,40212
48673,40124
48606,40056
48517,40020
48422,40019
48334,40056
48266,40123
48230,40212
48229,40307
48266,40395
48333,40463
48422,40499
48517,40500
48605,40463
48673,40396
48709,40307
48710,40212
48710,45520
48608,45520
48540,45451
48540,43639
48590,43618
48658,43551
48694,43462
48695,43367
48658,43279
48591,43211
48590,43211
48590,41652
48553,41564
48486,41496
48397,41460
48302,41459
48214,41496
48146,41563
48110,41652
48109,41747
48146,41835
48213,41903
48302,41939
48397,41940
48485,41903
48553,41836
48589,41747
48590,41652
48590,43211
48502,43175
48407,43174
48319,43211
48251,43278
48215,43367
48215,43386
48174,43447
48160,43520
48160,45530
48174,45602
48215,45664
48395,45844
48395,45844
48457,45885
48530,45900
48821,45900
48824,45903
48753,45932
48683,46003
48645,46095
48644,46194
48682,46286
48753,46356
48845,46394
48944,46395
49036,46357
49095,46298
49095,46870
49091,46873
49055,46962
49054,47057
49091,47145
49158,47213
49247,47249
49342,47250
49430,47213
49498,47146
49534,47057
49535,46962
49535,49569
49460,49569
49295,49638
49168,49764
49100,49930
49099,50109
49168,50274
49294,50401
49460,50469
49639,50470
49804,50401
49931,50275
49999,50109
50000,49930
50000,50930
49931,50765
49805,50638
49639,50570
49460,50569
49295,50638
49168,50764
49100,50930
49099,51109
49168,51274
49236,51342
49037,51342
49037,51342
49000,51350
49000,50930
49000,50930
49000,50349
49000,50290
49000,49690
48977,49635
48934,49592
48879,49570
48820,49570
48560,49570
48560,46535
48522,46443
48451,46373
48359,46335
48260,46334
48168,46372
48098,46443
48060,46535
48059,46634
48097,46726
48168,46796
48260,46834
48359,46835
48451,46797
48521,46726
48559,46634
48560,46535
48560,49570
48220,49570
48165,49592
48122,49635
48100,49690
48100,49749
48100,50349
48122,50404
48165,50447
48220,50470
48279,50470
48879,50470
48934,50447
48977,50404
49000,50349
49000,50930
48931,50765
48805,50638
48639,50570
48460,50569
48295,50638
48168,50764
48100,50930
48099,51109
48168,51274
48294,51401
48460,51469
48639,51470
48804,51401
48931,51275
48999,51109
49000,50930
49000,51350
48964,51357
48902,51398
48902,51398
48704,51596
48639,51570
48460,51569
48295,51638
48168,51764
48129,51858
48096,51836
48045,51826
48010,38350
49128,37231
49928,38031
49993,38074
50070,38090
50293,38090
50152,38231
50060,38452
50060,38692
50151,38913
50321,39083
50542,39175
50782,39175
51003,39084
51173,38914
51265,38693
51265,38453
51174,38232
51004,38062
50783,37970
50762,37970
50842,37890
51067,37890
51593,38416
51658,38459
51658,38459
51671,38462
51735,38475
51811,38475
51888,38552
52009,38602
52119,38602
52075,38646
52025,38766
52025,38896
52075,39016
52167,39109
52287,39159
52417,39159
52537,39109
52630,39017
52679,38897
52680,38767
52630,38646
52538,38554
52418,38504
52307,38504
52351,38460
52401,38340
52401,38210
52351,38090
52259,37997
52139,37948
52009,37947
51889,37997
51814,38071
51291,37548
51226,37505
51150,37490
50960,37490
50975,37483
51043,37416
51072,37346
51175,37389
51376,37389
51561,37312
51703,37171
51780,36985
51780,36785
51708,36609
51882,36682
52083,36682
52268,36605
52410,36463
52487,36278
52487,36078
52411,35892
52269,35750
52084,35673
51883,35673
51698,35750
51556,35891
51479,36077
51479,36277
51551,36453
51377,36380
51176,36380
50991,36457
50849,36598
50772,36784
50771,36984
50794,37039
50792,37039
50704,37076
50636,37143
50600,37232
50599,37327
50636,37415
50703,37483
50732,37495
50683,37505
50661,37519
50618,37548
50477,37690
50152,37690
49411,36948
52000,34359
52950,34358
52949,34407
52986,34495
53053,34563
53142,34599
53237,34600
53325,34563
53393,34496
53429,34407
53430,34358
54092,34357
53980,34403
53810,34573
53718,34794
53718,35034
53809,35255
53979,35425
54200,35517
54440,35517
54662,35426
54831,35256
54923,35035
54923,34795
54832,34573
54662,34404
54547,34356
56823,34353
56821,34358
56821,34489
56871,34611
56963,34703
57085,34754
57216,34754
57337,34704
57430,34611
57481,34490
57481,34359
57478,34352
59349,34350
62139,37150
64449,37130
64419,39490
69360,39490
69409,58749
" /> 
</g>
<g style="fill:#FFFFFF; fill-opacity:0.0; 
stroke:#FFFFFF; stroke-width:100; stroke-opacity:1; 
stroke-linecap:round; stroke-linejoin:round;">
<polyline fill="none;"
points="69409,58749
69208,58749
69208,58216
69208,57216
69208,56216
69208,55216
69157,55094
69065,55001
68950,54954
68950,47310
68950,46310
68881,46145
68755,46018
68589,45950
68410,45949
68245,46018
68118,46144
68050,46310
68049,46489
68118,46654
68244,46781
68410,46849
68589,46850
68754,46781
68881,46655
68949,46489
68950,46310
68950,47310
68881,47145
68755,47018
68589,46950
68410,46949
68245,47018
68118,47144
68050,47310
68049,47489
68118,47654
68244,47781
68410,47849
68589,47850
68754,47781
68881,47655
68949,47489
68950,47310
68950,54954
68950,54954
68950,48729
68950,48670
68950,48070
68927,48015
68884,47972
68829,47950
68770,47950
68170,47950
68115,47972
68072,48015
68050,48070
68050,48129
68050,48729
68072,48784
68115,48827
68170,48850
68229,48850
68829,48850
68884,48827
68927,48784
68950,48729
68950,54954
68943,54951
68812,54951
68691,55001
68598,55094
68548,55215
68547,55346
68598,55468
68690,55561
68812,55611
68943,55611
69064,55561
69157,55468
69207,55347
69208,55216
69208,56216
69157,56094
69065,56001
68943,55951
68812,55951
68691,56001
68598,56094
68548,56215
68547,56346
68598,56468
68690,56561
68812,56611
68943,56611
69064,56561
69157,56468
69207,56347
69208,56216
69208,57216
69157,57094
69065,57001
68943,56951
68812,56951
68691,57001
68598,57094
68548,57215
68547,57346
68598,57468
68690,57561
68812,57611
68943,57611
69064,57561
69157,57468
69207,57347
69208,57216
69208,58216
69157,58094
69065,58001
68943,57951
68812,57951
68691,58001
68598,58094
68548,58215
68547,58346
68598,58468
68690,58561
68812,58611
68943,58611
69064,58561
69157,58468
69207,58347
69208,58216
69208,58749
68271,58749
68271,56231
68235,56143
68167,56076
68079,56039
67983,56039
67951,56052
67951,48318
67950,48314
67950,47310
67950,46310
67881,46145
67755,46018
67589,45950
67410,45949
67245,46018
67118,46144
67050,46310
67049,46489
67118,46654
67244,46781
67410,46849
67589,46850
67754,46781
67881,46655
67949,46489
67950,46310
67950,47310
67881,47145
67755,47018
67589,46950
67410,46949
67245,47018
67118,47144
67050,47310
67049,47489
67118,47654
67244,47781
67410,47849
67589,47850
67754,47781
67881,47655
67949,47489
67950,47310
67950,48314
67885,48151
67876,48138
67804,48109
67790,48123
67790,48095
67761,48023
67597,47951
67418,47948
67251,48014
67238,48023
67209,48095
67500,48385
67790,48095
67790,48123
67514,48400
67804,48690
67876,48661
67948,48497
67951,48318
67951,56052
67895,56075
67828,56143
67791,56231
67791,56327
67827,56415
67895,56482
67983,56519
68079,56519
68167,56483
68234,56415
68271,56327
68271,56231
68271,58749
67840,58748
67840,56452
67803,56364
67790,56351
67790,48704
67500,48414
67485,48428
67485,48400
67195,48109
67123,48138
67051,48302
67048,48481
67114,48648
67123,48661
67195,48690
67485,48400
67485,48428
67209,48704
67238,48776
67402,48848
67581,48851
67748,48785
67761,48776
67790,48704
67790,56351
67736,56296
67647,56260
67552,56259
67543,56263
67543,52932
67506,52844
67439,52776
67351,52740
67255,52740
67167,52776
67099,52844
67063,52932
67063,53027
67099,53116
67167,53183
67255,53220
67350,53220
67438,53183
67506,53116
67543,53028
67543,52932
67543,56263
67464,56296
67396,56363
67360,56452
67359,56547
67396,56635
67463,56703
67552,56739
67647,56740
67735,56703
67803,56636
67839,56547
67840,56452
67840,58748
67340,58748
67340,53852
67303,53764
67236,53696
67147,53660
67052,53659
66964,53696
66950,53710
66805,53710
66805,44720
66767,44628
66696,44558
66604,44520
66505,44519
66413,44557
66343,44628
66305,44720
66304,44819
66342,44911
66413,44981
66505,45019
66604,45020
66696,44982
66766,44911
66804,44819
66805,44720
66805,53710
66736,53710
66736,52728
66699,52639
66632,52572
66544,52535
66448,52535
66360,52572
66346,52585
63965,52585
63965,48477
63928,48389
63917,48377
63939,48322
63940,48227
63903,48139
63836,48071
63747,48035
63652,48034
63564,48071
63496,48138
63460,48227
63459,48322
63496,48410
63507,48422
63485,48477
63484,48572
63521,48660
63588,48728
63677,48764
63772,48765
63860,48728
63928,48661
63964,48572
63965,48477
63965,52585
63838,52585
63765,52600
63704,52641
63704,52641
63299,53046
63299,50464
63262,50376
63260,50373
63260,42329
63189,42158
63058,42027
62888,41956
62703,41956
62532,42026
62401,42157
62350,42279
61155,41083
61155,39655
61117,39563
61046,39493
60954,39455
60855,39454
60763,39492
60693,39563
60655,39655
60654,39754
60692,39846
60763,39916
60855,39954
60954,39955
61046,39917
61116,39846
61154,39754
61155,39655
61155,41083
61106,41034
61106,41015
61069,40927
61026,40883
61081,40829
61117,40740
61117,40645
61081,40557
61014,40489
60925,40452
60830,40452
60742,40489
60732,40499
60732,40330
60695,40242
60628,40174
60540,40137
60466,40137
60466,39883
60429,39795
60362,39727
60274,39691
60178,39691
60161,39698
60161,39212
60124,39124
60057,39056
59969,39019
59873,39019
59785,39056
59717,39123
59681,39211
59681,39307
59717,39395
59785,39463
59873,39499
59968,39499
60057,39463
60124,39395
60161,39307
60161,39212
60161,39698
60090,39727
60023,39794
59986,39883
59986,39902
59925,39963
59925,39932
59888,39844
59821,39776
59732,39740
59637,39740
59602,39754
59602,36480
59552,36359
59459,36266
59338,36215
59207,36215
59085,36265
58992,36358
58942,36479
58942,36611
58992,36732
59085,36825
59206,36875
59337,36875
59459,36825
59552,36732
59602,36611
59602,36480
59602,39754
59556,39773
59477,39740
59381,39740
59293,39776
59225,39844
59189,39932
59189,40027
59225,40116
59293,40183
59381,40220
59476,40220
59557,40187
59637,40220
59732,40220
59810,40188
59810,47069
59781,47040
59693,47004
59618,47004
59629,46977
59629,46881
59593,46793
59525,46725
59441,46690
59441,45129
59518,45161
59614,45161
59702,45124
59770,45057
59806,44969
59806,44873
59770,44785
59703,44717
59614,44681
59519,44681
59431,44717
59419,44729
59388,44698
59299,44661
59204,44661
59180,44671
59180,40702
59143,40614
59076,40546
58987,40510
58895,40509
58895,37187
58895,35773
58845,35651
58752,35558
58631,35508
58500,35508
58378,35558
58285,35651
58235,35772
58235,35903
58285,36025
58378,36118
58499,36168
58630,36168
58752,36118
58844,36025
58895,35904
58895,35773
58895,37187
58845,37066
58752,36973
58631,36922
58500,36922
58378,36972
58285,37065
58235,37186
58235,37318
58285,37439
58378,37532
58499,37582
58630,37582
58752,37532
58844,37439
58895,37318
58895,37187
58895,40509
58892,40509
58804,40546
58736,40613
58700,40702
58699,40797
58736,40885
58803,40953
58892,40989
58987,40990
59075,40953
59143,40886
59179,40797
59180,40702
59180,44671
59116,44697
59092,44721
59037,44666
58949,44630
58854,44630
58765,44666
58740,44692
58718,44670
58630,44634
58535,44633
58446,44670
58379,44737
58342,44826
58342,44919
58341,44925
58341,45244
58259,45244
58236,45253
58236,44818
58199,44730
58188,44719
58188,36480
58188,35066
58138,34944
58045,34851
57924,34801
57792,34801
57671,34851
57578,34944
57528,35065
57528,35196
57578,35318
57671,35411
57792,35461
57923,35461
58044,35411
58137,35318
58188,35197
58188,35066
58188,36480
58138,36359
58045,36266
57924,36215
57792,36215
57671,36265
57578,36358
57528,36479
57528,36611
57578,36732
57671,36825
57792,36875
57923,36875
58044,36825
58137,36732
58188,36611
58188,36480
58188,44719
58132,44662
58044,44626
57948,44626
57860,44662
57792,44730
57756,44818
57756,44913
57792,45001
57859,45069
57948,45106
58043,45106
58131,45069
58199,45002
58236,44914
58236,44818
58236,45253
58171,45280
58103,45348
58067,45436
58067,45531
58103,45620
58117,45633
58117,49082
57909,49290
57909,45413
57872,45324
57805,45257
57717,45220
57621,45220
57612,45224
57612,44844
57574,44752
57504,44681
57481,44672
57481,35773
57431,35651
57338,35558
57217,35508
57085,35508
56964,35558
56871,35651
56821,35772
56821,35903
56871,36025
56963,36118
57085,36168
57216,36168
57337,36118
57430,36025
57481,35904
57481,35773
57481,44672
57412,44643
57312,44643
57220,44681
57150,44751
57112,44843
57112,44943
57150,45035
57220,45105
57312,45143
57411,45143
57503,45105
57574,45035
57612,44943
57612,44844
57612,45224
57533,45257
57465,45324
57429,45412
57429,45508
57465,45596
57533,45663
57621,45700
57716,45700
57805,45664
57872,45596
57909,45508
57909,45413
57909,49290
57263,49936
57263,45417
57227,45328
57159,45261
57071,45224
57010,45224
57010,41556
56976,41475
56914,41413
56833,41380
56774,41379
56774,35066
56723,34944
56631,34851
56509,34801
56378,34801
56257,34851
56164,34944
56114,35065
56113,35196
56164,35318
56256,35411
56378,35461
56509,35461
56630,35411
56723,35318
56773,35197
56774,35066
56774,41379
56746,41379
56665,41413
56603,41475
56570,41556
56569,41643
56603,41724
56638,41759
56605,41773
56560,41818
56560,40275
56522,40183
56505,40166
56505,36376
56413,36155
56244,35985
56022,35893
55782,35893
55561,35984
55391,36154
55299,36375
55299,36615
55390,36837
55560,37006
55781,37098
56021,37099
56243,37007
56412,36838
56504,36616
56505,36376
56505,40166
56451,40113
56359,40075
56260,40074
56168,40112
56098,40183
56060,40275
56059,40374
56097,40466
56168,40536
56260,40574
56359,40575
56451,40537
56521,40466
56559,40374
56560,40275
56560,41818
56543,41835
56510,41916
56509,42003
56543,42084
56605,42146
56686,42179
56773,42180
56854,42146
56916,42084
56949,42003
56950,41916
56916,41835
56881,41800
56914,41786
56976,41724
57009,41643
57010,41556
57010,45224
56976,45224
56972,45226
56972,44818
56935,44730
56868,44662
56780,44626
56684,44626
56669,44632
56669,44389
56632,44301
56565,44233
56477,44197
56381,44196
56293,44233
56263,44263
56263,43279
56253,43254
56253,41275
56220,41194
56187,41161
56219,41128
56253,41047
56253,40960
56220,40879
56158,40817
56077,40783
56060,40783
55645,40368
55647,37776
55655,37773
55747,37681
55797,37560
55797,37430
55748,37310
55656,37218
55536,37168
55405,37168
55285,37218
55241,37262
55241,37152
55191,37032
55099,36940
54979,36890
54907,36890
54907,36539
54857,36419
54765,36327
54645,36277
54515,36277
54394,36327
54350,36371
54350,36261
54300,36141
54208,36049
54088,35999
53958,35999
53838,36048
53745,36140
53696,36261
53695,36391
53745,36511
53837,36603
53957,36653
54087,36653
54208,36603
54252,36559
54252,36669
54302,36789
54394,36881
54514,36931
54644,36932
54765,36882
54857,36790
54907,36670
54907,36539
54907,36890
54849,36890
54728,36939
54636,37031
54586,37151
54586,37282
54636,37402
54728,37494
54848,37544
54978,37544
55099,37494
55143,37450
55143,37560
55193,37680
55285,37772
55297,37777
55297,38188
55236,38128
55241,38117
55241,37987
55191,37867
55099,37775
54979,37725
54849,37725
54728,37774
54636,37866
54586,37987
54586,38117
54636,38237
54728,38329
54848,38379
54978,38379
54988,38375
55189,38575
55189,40482
55202,40549
55240,40606
55641,41007
55641,41102
55655,41169
55693,41226
55813,41346
55813,41362
55846,41443
55908,41505
55989,41538
56077,41538
56157,41505
56219,41443
56253,41362
56253,41275
56253,43254
56227,43191
56159,43123
56071,43086
55976,43086
55910,43114
55910,42180
55872,42088
55801,42018
55709,41980
55610,41979
55518,42017
55448,42088
55410,42180
55409,42279
55447,42371
55518,42441
55610,42479
55709,42480
55801,42442
55871,42371
55909,42279
55910,42180
55910,43114
55887,43123
55820,43190
55783,43278
55783,43374
55820,43462
55887,43530
55975,43566
56071,43566
56159,43530
56226,43462
56263,43374
56263,43279
56263,44263
56225,44300
56189,44389
56189,44484
56225,44572
56293,44640
56381,44676
56476,44677
56564,44640
56632,44573
56669,44484
56669,44389
56669,44632
56596,44662
56528,44730
56492,44818
56492,44913
56528,45001
56596,45069
56684,45106
56779,45106
56868,45069
56935,45002
56972,44914
56972,44818
56972,45226
56887,45260
56820,45328
56783,45416
56783,45512
56820,45600
56887,45667
56975,45704
57071,45704
57159,45668
57226,45600
57263,45512
57263,45417
57263,49936
56515,50684
56161,50684
56161,44039
56124,43950
56057,43883
55969,43846
55941,43846
55924,43805
55856,43737
55768,43700
55672,43700
55584,43737
55517,43804
55480,43892
55480,43988
55516,44076
55584,44144
55672,44180
55700,44180
55717,44222
55785,44289
55873,44326
55968,44326
56057,44290
56124,44222
56161,44134
56161,44039
56161,50684
55540,50684
55540,47552
55503,47464
55436,47396
55371,47369
55410,47353
55478,47286
55514,47197
55515,47102
55478,47014
55451,46987
55478,46961
55514,46872
55515,46777
55484,46704
55503,46686
55539,46597
55540,46502
55540,45377
55503,45289
55436,45221
55347,45185
55252,45184
55164,45221
55096,45288
55060,45377
55059,45472
55096,45560
55163,45628
55252,45664
55347,45665
55435,45628
55503,45561
55539,45472
55540,45377
55540,46502
55503,46414
55436,46346
55347,46310
55252,46309
55164,46346
55096,46413
55060,46502
55059,46597
55090,46670
55071,46688
55035,46777
55034,46872
55071,46960
55098,46987
55071,47013
55035,47102
55034,47197
55071,47285
55138,47353
55203,47380
55164,47396
55096,47463
55060,47552
55060,47559
55052,47559
54964,47596
54896,47663
54860,47752
54859,47847
54896,47935
54963,48003
55052,48039
55147,48040
55235,48003
55303,47936
55339,47847
55339,47840
55347,47840
55435,47803
55503,47736
55539,47647
55540,47552
55540,50684
55530,50684
55530,50255
55492,50163
55421,50093
55329,50055
55230,50054
55138,50092
55068,50163
55030,50255
55029,50354
55067,50446
55138,50516
55230,50554
55329,50555
55421,50517
55491,50446
55529,50354
55530,50255
55530,50684
54684,50684
54684,38544
54634,38424
54545,38334
54545,37848
54495,37728
54403,37636
54350,37613
54350,37096
54300,36976
54208,36884
54088,36834
53958,36834
53838,36884
53745,36976
53696,37096
53695,37226
53745,37346
53837,37438
53957,37488
54087,37488
54208,37439
54300,37347
54350,37226
54350,37096
54350,37613
54283,37586
54153,37585
54032,37635
53940,37727
53890,37847
53890,37978
53940,38098
54032,38190
54152,38240
54282,38240
54403,38190
54495,38098
54545,37978
54545,37848
54545,38334
54542,38331
54422,38282
54292,38281
54172,38331
54080,38423
54030,38543
54029,38673
54079,38794
54171,38886
54291,38936
54422,38936
54542,38886
54634,38794
54684,38674
54684,38544
54684,50684
54679,50684
54664,50647
54596,50580
54508,50543
54413,50543
54324,50579
54257,50647
54220,50735
54220,50830
54257,50919
54319,50982
54273,51001
54206,51068
54169,51156
54169,51252
54205,51340
54273,51408
54361,51444
54456,51444
54545,51408
54558,51394
56875,51394
56724,51546
52735,51546
52647,51510
52552,51509
52464,51546
52396,51613
52360,51702
52359,51797
52396,51885
52463,51953
52552,51989
52647,51990
52735,51953
52763,51926
54330,51926
54323,51944
54322,52039
54359,52127
54426,52195
54457,52208
54425,52286
54425,52382
54461,52470
54529,52537
54617,52574
54712,52574
54741,52562
54756,52598
54826,52668
54918,52706
54998,52706
55032,52789
55100,52856
55188,52893
55216,52893
55216,52925
55253,53013
55320,53081
55408,53117
55448,53117
55448,53149
55485,53238
55552,53305
55641,53342
55736,53342
55824,53305
55892,53238
55928,53150
55929,53054
55892,52966
55825,52899
55736,52862
55696,52862
55696,52830
55660,52742
55592,52674
55504,52637
55476,52637
55476,52606
55439,52517
55372,52450
55284,52413
55218,52413
55218,52407
55180,52315
55110,52244
55018,52206
54918,52206
54878,52223
54868,52198
54801,52131
54770,52118
54802,52040
54803,51944
54795,51926
56803,51926
56875,51911
56937,51870
59748,49059
59781,49046
59810,49017
59810,53011
59636,53185
59617,53185
59529,53221
59462,53289
59425,53377
59425,53472
59461,53560
59529,53628
59617,53665
59712,53665
59801,53628
59868,53561
59905,53473
59905,53453
60134,53224
60134,53224
60134,53224
60175,53163
60190,53090
60190,53090
60190,53090
60190,40236
60255,40171
60273,40171
60362,40134
60429,40067
60466,39979
60466,39883
60466,40137
60444,40137
60356,40174
60288,40241
60252,40330
60252,40425
60288,40513
60355,40581
60444,40617
60539,40617
60627,40581
60695,40514
60732,40425
60732,40330
60732,40499
60674,40556
60637,40644
60637,40740
60674,40828
60717,40872
60662,40926
60626,41015
60626,41110
60662,41198
60730,41266
60818,41302
60837,41302
62182,42647
62182,44615
62173,44572
62132,44511
61145,43523
61145,41950
61107,41858
61036,41788
60944,41750
60845,41749
60753,41787
60683,41858
60645,41950
60644,42049
60682,42141
60753,42211
60845,42249
60944,42250
61036,42212
61106,42141
61144,42049
61145,41950
61145,43523
61125,43504
61125,43485
61089,43397
61021,43330
60933,43293
60838,43293
60750,43329
60682,43397
60645,43485
60645,43580
60682,43669
60749,43736
60837,43773
60857,43773
61643,44560
61552,44559
61464,44596
61396,44663
61360,44752
61359,44847
61396,44935
61410,44949
61410,48834
61369,48834
61362,48837
61362,48771
61325,48683
61258,48615
61189,48587
61190,48502
61153,48414
61086,48346
60997,48310
60964,48310
60965,48227
60928,48139
60861,48071
60772,48035
60677,48034
60589,48071
60521,48138
60485,48227
60484,48322
60521,48410
60588,48478
60677,48514
60710,48514
60709,48597
60746,48685
60813,48753
60882,48781
60882,48866
60918,48954
60985,49022
61074,49058
61169,49058
61177,49055
61177,49122
61213,49210
61281,49278
61369,49314
61410,49314
61410,49779
61403,49764
61336,49696
61247,49660
61152,49659
61064,49696
60996,49763
60960,49852
60959,49947
60996,50035
61010,50049
61010,51600
61024,51672
61065,51734
61159,51828
61159,51847
61196,51935
61263,52003
61352,52039
61447,52040
61535,52003
61603,51936
61639,51847
61639,51840
61647,51840
61735,51803
61803,51736
61839,51647
61840,51588
61897,51588
61986,51552
62053,51484
62090,51396
62090,51377
62132,51335
62173,51273
62187,51201
62196,51243
62230,51294
62230,51317
62266,51405
62334,51473
62422,51509
62518,51509
62606,51473
62673,51405
62710,51317
62710,51222
62674,51133
62606,51066
62562,51047
62562,42827
62702,42886
62887,42886
63058,42815
63189,42684
63260,42514
63260,42329
63260,50373
63195,50308
63131,50281
63161,50209
63161,50113
63124,50025
63057,49958
62985,49928
63006,49907
63043,49819
63043,49724
63006,49635
62939,49568
62851,49531
62755,49531
62667,49568
62599,49635
62563,49723
62563,49819
62599,49907
62667,49974
62738,50004
62717,50025
62681,50113
62681,50208
62717,50297
62785,50364
62849,50391
62819,50463
62819,50559
62855,50647
62922,50715
63011,50751
63106,50751
63194,50715
63262,50647
63299,50559
63299,50464
63299,53046
63051,53294
62019,53294
62054,53209
62055,53110
62017,53018
61946,52948
61854,52910
61755,52909
61682,52940
61696,52906
61696,52810
61660,52722
61592,52654
61504,52618
61409,52618
61320,52654
61253,52722
61216,52810
61216,52905
61253,52994
61320,53061
61408,53098
61504,53098
61571,53070
61555,53110
61554,53170
61478,53201
61410,53269
61374,53357
61374,53453
61410,53541
61478,53608
61566,53645
61598,53645
61620,53659
61692,53674
61692,53674
61692,53674
63129,53674
63202,53659
63264,53618
63917,52965
65315,52965
65291,53022
65291,53118
65327,53206
65395,53274
65483,53310
65579,53310
65667,53274
65734,53206
65771,53118
65771,53023
65747,52965
66346,52965
66359,52978
66448,53015
66543,53015
66631,52979
66699,52911
66736,52823
66736,52728
66736,53710
65318,53710
65318,53653
65282,53565
65214,53497
65126,53460
65031,53460
64942,53497
64875,53564
64838,53652
64838,53710
61278,53710
61175,53607
61218,53589
61286,53521
61322,53433
61322,53338
61286,53250
61218,53182
61130,53145
61035,53145
60946,53182
60879,53249
60871,53269
60847,53260
60752,53259
60664,53296
60596,53363
60560,53452
60559,53534
60484,53566
60416,53633
60380,53721
60380,53775
60326,53775
60238,53812
60170,53879
60134,53967
60133,54063
60170,54151
60237,54219
60326,54255
60421,54255
60509,54219
60577,54151
60613,54063
60614,54032
60928,54346
60990,54388
61062,54402
64980,54402
64956,54459
64956,54555
64993,54643
65060,54711
65148,54747
65244,54747
65332,54711
65400,54644
65436,54555
65436,54460
65400,54372
65355,54327
65387,54250
65387,54155
65360,54090
66660,54090
66659,54147
66696,54235
66763,54303
66852,54339
66947,54340
67035,54303
67103,54236
67139,54147
67139,54140
67147,54140
67235,54103
67303,54036
67339,53947
67340,53852
67340,58748
60159,58743
60241,58688
60325,58563
60354,58415
60354,58119
60325,57971
60241,57846
60116,57762
60010,57741
60010,57118
59944,56958
59821,56835
59661,56769
59550,56769
59550,53822
59513,53734
59446,53666
59357,53630
59262,53629
59174,53666
59106,53733
59070,53822
59069,53917
59106,54005
59173,54073
59262,54109
59357,54110
59445,54073
59513,54006
59549,53917
59550,53822
59550,56769
59488,56769
59328,56835
59205,56957
59139,57117
59139,57290
59205,57451
59327,57573
59487,57640
59661,57640
59821,57574
59943,57451
60010,57291
60010,57118
60010,57741
59968,57733
59820,57762
59695,57846
59611,57971
59582,58119
59582,58415
59611,58563
59695,58688
59776,58743
58041,58742
58041,57118
57975,56958
57853,56835
57693,56769
57661,56769
57661,54873
57624,54785
57557,54717
57469,54681
57412,54681
57428,54642
57429,54546
57392,54458
57325,54391
57243,54357
57243,54350
57207,54261
57140,54194
57051,54157
57026,54157
56994,54080
56927,54013
56839,53976
56814,53976
56814,53936
56778,53848
56710,53780
56622,53744
56586,53744
56586,53724
56550,53635
56482,53568
56394,53531
56298,53531
56210,53568
56143,53635
56106,53723
56106,53819
56142,53907
56210,53974
56298,54011
56334,54011
56334,54031
56371,54120
56438,54187
56526,54224
56551,54224
56551,54264
56587,54352
56655,54419
56743,54456
56768,54456
56800,54533
56867,54600
56948,54634
56948,54642
56985,54730
57052,54797
57141,54834
57197,54834
57181,54873
57181,54968
57217,55057
57285,55124
57373,55161
57468,55161
57557,55124
57624,55057
57661,54969
57661,54873
57661,56769
57520,56769
57359,56835
57237,56957
57170,57117
57170,57290
57236,57451
57359,57573
57519,57640
57692,57640
57852,57574
57975,57451
58041,57291
58041,57118
58041,58742
57406,58741
57485,58688
57569,58563
57598,58415
57598,58119
57569,57971
57485,57846
57360,57762
57212,57733
57064,57762
56939,57846
56855,57971
56826,58119
56826,58415
56855,58563
56939,58688
57018,58741
56145,58740
56145,56389
56109,56301
56041,56233
55953,56197
55857,56196
55769,56233
55702,56300
55665,56389
55665,56484
55701,56572
55769,56640
55857,56676
55953,56677
56041,56640
56108,56573
56145,56484
56145,56389
56145,58740
54890,58740
54900,55539
50811,55550
50810,55597
50810,55292
50773,55204
50706,55136
50617,55100
50522,55099
50434,55136
50366,55203
50330,55292
50329,55387
50366,55475
50433,55543
50522,55579
50617,55580
50705,55543
50773,55476
50809,55387
50810,55292
50810,55597
50770,57277
50770,56102
50733,56014
50666,55946
50577,55910
50482,55909
50394,55946
50326,56013
50290,56102
50289,56197
50326,56285
50393,56353
50482,56389
50577,56390
50665,56353
50733,56286
50769,56197
50770,56102
50770,57277
50751,58070
48717,58070
48059,57555
48051,54251
48096,54242
48142,54211
48168,54274
48294,54401
48460,54469
48639,54470
48804,54401
48931,54275
48999,54109
49000,53930
48973,53865
49111,53726
49206,53726
49168,53764
49100,53930
49099,54109
49168,54274
49294,54401
49460,54469
49639,54470
49804,54401
49931,54275
49999,54109
50000,53930
49931,53765
49893,53726
50110,53726
50128,53738
50200,53752
50273,53738
50335,53697
50361,53671
50361,53671
50361,53671
52047,51984
52047,51984
52047,51984
52088,51923
52103,51850
52103,51850
52103,51850
52103,49200
52161,49142
53291,49142
53364,49128
53425,49087
54128,48384
54153,48410
54118,48495
54118,48590
54154,48679
54222,48746
54310,48783
54405,48783
54494,48746
54561,48679
54598,48591
54598,48495
54561,48407
54527,48373
54562,48288
54562,48192
54526,48104
54502,48080
54561,48021
54598,47933
54598,47838
54561,47750
54544,47732
54600,47675
54637,47587
54637,47491
54601,47403
54598,47401
54598,42329
54528,42158
54397,42027
54226,41956
54127,41956
54127,39101
54077,38980
53988,38891
53988,38405
53938,38284
53846,38192
53793,38170
53793,37653
53743,37533
53654,37443
53654,36957
53604,36837
53512,36745
53392,36695
53262,36695
53142,36744
53049,36836
53000,36957
52999,37087
53049,37207
53141,37299
53261,37349
53391,37349
53512,37299
53604,37207
53654,37087
53654,36957
53654,37443
53651,37441
53531,37391
53401,37391
53281,37440
53189,37532
53139,37652
53139,37783
53188,37903
53280,37995
53401,38045
53531,38045
53651,37995
53743,37903
53793,37783
53793,37653
53793,38170
53726,38142
53596,38142
53476,38192
53384,38284
53334,38404
53334,38534
53383,38655
53475,38747
53595,38797
53726,38797
53846,38747
53938,38655
53988,38535
53988,38405
53988,38891
53986,38888
53865,38838
53735,38838
53615,38888
53523,38980
53473,39100
53473,39230
53522,39351
53614,39443
53735,39493
53865,39493
53985,39443
54077,39351
54127,39231
54127,39101
54127,41956
54041,41956
53870,42026
53739,42157
53668,42328
53668,42513
53739,42684
53870,42815
54040,42886
54225,42886
54396,42815
54527,42684
54598,42514
54598,42329
54598,47401
54533,47336
54445,47299
54350,47299
54261,47335
54194,47403
54157,47491
54157,47510
54060,47608
54060,44606
54026,44525
53964,44463
53883,44430
53840,44429
53840,43877
53803,43789
53736,43721
53647,43685
53570,43684
53570,39657
53521,39537
53429,39445
53309,39395
53198,39395
53242,39351
53292,39231
53292,39101
53242,38980
53236,38974
53236,38210
53187,38090
53097,38000
53097,37514
53047,37394
52955,37301
52835,37252
52705,37251
52585,37301
52493,37393
52443,37513
52443,37643
52492,37764
52584,37856
52705,37906
52835,37906
52955,37856
53047,37764
53097,37644
53097,37514
53097,38000
53095,37997
52974,37948
52844,37947
52724,37997
52632,38089
52582,38209
52582,38339
52632,38460
52724,38552
52844,38602
52974,38602
53094,38552
53186,38460
53236,38340
53236,38210
53236,38974
53150,38888
53030,38838
52900,38838
52780,38888
52688,38980
52638,39100
52638,39230
52687,39351
52779,39443
52899,39493
53010,39493
52966,39537
52916,39657
52916,39787
52966,39907
53058,39999
53178,40049
53308,40049
53428,40000
53520,39908
53570,39788
53570,39657
53570,43684
53552,43684
53500,43706
53500,43392
53463,43304
53396,43236
53307,43200
53212,43199
53124,43236
53056,43303
53020,43392
53019,43487
53056,43575
53123,43643
53212,43679
53307,43680
53395,43643
53463,43576
53499,43487
53500,43392
53500,43706
53464,43721
53396,43788
53360,43877
53359,43972
53396,44060
53463,44128
53552,44164
53647,44165
53735,44128
53803,44061
53839,43972
53840,43877
53840,44429
53796,44429
53715,44463
53653,44525
53620,44606
53619,44693
53653,44774
53715,44836
53796,44869
53883,44870
53964,44836
54026,44774
54059,44693
54060,44606
54060,47608
53114,48554
52847,48554
52847,40034
52755,39813
52586,39643
52364,39551
52124,39551
51903,39642
51733,39812
51641,40033
51641,40273
51732,40495
51902,40664
52123,40756
52363,40757
52585,40665
52754,40496
52846,40274
52847,40034
52847,48554
52540,48554
52540,43852
52503,43764
52436,43696
52347,43660
52252,43659
52164,43696
52096,43763
52060,43852
52060,43871
51971,43960
51540,43960
51540,43602
51503,43514
51436,43446
51347,43410
51252,43409
51164,43446
51096,43513
51060,43602
51059,43697
51096,43785
51163,43853
51252,43889
51347,43890
51435,43853
51503,43786
51539,43697
51540,43602
51540,43960
50889,43960
50890,43902
50853,43814
50786,43746
50697,43710
50602,43709
50514,43746
50446,43813
50410,43902
50410,43935
50347,43910
50252,43909
50250,43910
50279,43839
50279,43822
50562,43540
50686,43540
50698,43551
50790,43589
50889,43590
50981,43552
51051,43481
51089,43389
51090,43290
51052,43198
50981,43128
50889,43090
50790,43089
50698,43127
50686,43140
50480,43140
50480,40152
50443,40064
50376,39996
50287,39960
50192,39959
50104,39996
50036,40063
50000,40152
50000,40171
49455,40715
49414,40777
49400,40850
49400,42301
49340,42361
49340,39852
49303,39764
49236,39696
49147,39660
49052,39659
48964,39696
48960,39700
48960,39472
48923,39384
48856,39316
48767,39280
48672,39279
48584,39316
48516,39383
48480,39472
48479,39567
48516,39655
48583,39723
48672,39759
48767,39760
48855,39723
48923,39656
48959,39567
48960,39472
48960,39700
48896,39763
48860,39852
48859,39947
48896,40035
48963,40103
49052,40139
49147,40140
49235,40103
49303,40036
49339,39947
49340,39852
49340,42361
49001,42699
48982,42699
48894,42736
48826,42803
48790,42892
48789,42987
48826,43075
48893,43143
48982,43179
49077,43180
49165,43143
49233,43076
49269,42987
49269,42968
49724,42514
49724,42514
49724,42514
49765,42452
49780,42380
49780,40928
50268,40440
50287,40440
50375,40403
50443,40336
50479,40247
50480,40152
50480,43140
50480,43140
50403,43155
50338,43198
49997,43539
49980,43539
49888,43577
49818,43648
49780,43740
49779,43839
49817,43931
49888,44001
49980,44039
50079,44040
50087,44036
50060,44102
50059,44180
49285,44180
49278,44164
49211,44096
49122,44060
49027,44059
48939,44096
48871,44163
48835,44252
48834,44347
48871,44435
48938,44503
49027,44539
49063,44539
49072,44545
49145,44560
50540,44560
50553,44573
50642,44609
50737,44610
50825,44573
50893,44506
50929,44417
50930,44340
52050,44340
52122,44325
52184,44284
52328,44140
52347,44140
52435,44103
52503,44036
52539,43947
52540,43852
52540,48554
51956,48554
51883,48568
51822,48609
51730,48702
51730,46172
51693,46084
51626,46016
51537,45980
51442,45979
51354,46016
51286,46083
51250,46172
51249,46267
51286,46355
51353,46423
51442,46459
51537,46460
51625,46423
51693,46356
51729,46267
51730,46172
51730,48702
51412,49019
51371,49080
51357,49153
51357,50539
50890,51006
50890,45080
50852,44988
50781,44918
50689,44880
50590,44879
50498,44917
50428,44988
50390,45080
50389,45179
50427,45271
50498,45341
50590,45379
50689,45380
50781,45342
50851,45271
50889,45179
50890,45080
50890,51006
50815,51081
50815,47252
50778,47164
50711,47096
50622,47060
50527,47059
50439,47096
50371,47163
50335,47252
50334,47347
50371,47435
50438,47503
50527,47539
50622,47540
50710,47503
50778,47436
50814,47347
50815,47252
50815,51081
50553,51342
50315,51342
50315,46237
50278,46149
50211,46081
50122,46045
50027,46044
49939,46081
49871,46148
49835,46237
49834,46332
49871,46420
49938,46488
50027,46524
50122,46525
50210,46488
50278,46421
50314,46332
50315,46237
50315,51342
49863,51342
49931,51275
49999,51109
50000,50930
50000,49930
49931,49765
49805,49638
49639,49570
49535,49569
49535,46962
49498,46874
49475,46850
49475,46095
49460,46022
49419,45960
49419,45960
49034,45575
48972,45534
48900,45520
48710,45520
48710,40212
48673,40124
48606,40056
48517,40020
48422,40019
48334,40056
48266,40123
48230,40212
48229,40307
48266,40395
48333,40463
48422,40499
48517,40500
48605,40463
48673,40396
48709,40307
48710,40212
48710,45520
48608,45520
48540,45451
48540,43639
48590,43618
48658,43551
48694,43462
48695,43367
48658,43279
48591,43211
48590,43211
48590,41652
48553,41564
48486,41496
48397,41460
48302,41459
48214,41496
48146,41563
48110,41652
48109,41747
48146,41835
48213,41903
48302,41939
48397,41940
48485,41903
48553,41836
48589,41747
48590,41652
48590,43211
48502,43175
48407,43174
48319,43211
48251,43278
48215,43367
48215,43386
48174,43447
48160,43520
48160,45530
48174,45602
48215,45664
48395,45844
48395,45844
48457,45885
48530,45900
48821,45900
48824,45903
48753,45932
48683,46003
48645,46095
48644,46194
48682,46286
48753,46356
48845,46394
48944,46395
49036,46357
49095,46298
49095,46870
49091,46873
49055,46962
49054,47057
49091,47145
49158,47213
49247,47249
49342,47250
49430,47213
49498,47146
49534,47057
49535,46962
49535,49569
49460,49569
49295,49638
49168,49764
49100,49930
49099,50109
49168,50274
49294,50401
49460,50469
49639,50470
49804,50401
49931,50275
49999,50109
50000,49930
50000,50930
49931,50765
49805,50638
49639,50570
49460,50569
49295,50638
49168,50764
49100,50930
49099,51109
49168,51274
49236,51342
49037,51342
49037,51342
49000,51350
49000,50930
49000,50930
49000,50349
49000,50290
49000,49690
48977,49635
48934,49592
48879,49570
48820,49570
48560,49570
48560,46535
48522,46443
48451,46373
48359,46335
48260,46334
48168,46372
48098,46443
48060,46535
48059,46634
48097,46726
48168,46796
48260,46834
48359,46835
48451,46797
48521,46726
48559,46634
48560,46535
48560,49570
48220,49570
48165,49592
48122,49635
48100,49690
48100,49749
48100,50349
48122,50404
48165,50447
48220,50470
48279,50470
48879,50470
48934,50447
48977,50404
49000,50349
49000,50930
48931,50765
48805,50638
48639,50570
48460,50569
48295,50638
48168,50764
48100,50930
48099,51109
48168,51274
48294,51401
48460,51469
48639,51470
48804,51401
48931,51275
48999,51109
49000,50930
49000,51350
48964,51357
48902,51398
48902,51398
48704,51596
48639,51570
48460,51569
48295,51638
48168,51764
48129,51858
48096,51836
48045,51826
48010,38350
49128,37231
49928,38031
49993,38074
50070,38090
50293,38090
50152,38231
50060,38452
50060,38692
50151,38913
50321,39083
50542,39175
50782,39175
51003,39084
51173,38914
51265,38693
51265,38453
51174,38232
51004,38062
50783,37970
50762,37970
50842,37890
51067,37890
51593,38416
51658,38459
51658,38459
51671,38462
51735,38475
51811,38475
51888,38552
52009,38602
52119,38602
52075,38646
52025,38766
52025,38896
52075,39016
52167,39109
52287,39159
52417,39159
52537,39109
52630,39017
52679,38897
52680,38767
52630,38646
52538,38554
52418,38504
52307,38504
52351,38460
52401,38340
52401,38210
52351,38090
52259,37997
52139,37948
52009,37947
51889,37997
51814,38071
51291,37548
51226,37505
51150,37490
50960,37490
50975,37483
51043,37416
51072,37346
51175,37389
51376,37389
51561,37312
51703,37171
51780,36985
51780,36785
51708,36609
51882,36682
52083,36682
52268,36605
52410,36463
52487,36278
52487,36078
52411,35892
52269,35750
52084,35673
51883,35673
51698,35750
51556,35891
51479,36077
51479,36277
51551,36453
51377,36380
51176,36380
50991,36457
50849,36598
50772,36784
50771,36984
50794,37039
50792,37039
50704,37076
50636,37143
50600,37232
50599,37327
50636,37415
50703,37483
50732,37495
50683,37505
50661,37519
50618,37548
50477,37690
50152,37690
49411,36948
52000,34359
52950,34358
52949,34407
52986,34495
53053,34563
53142,34599
53237,34600
53325,34563
53393,34496
53429,34407
53430,34358
54092,34357
53980,34403
53810,34573
53718,34794
53718,35034
53809,35255
53979,35425
54200,35517
54440,35517
54662,35426
54831,35256
54923,35035
54923,34795
54832,34573
54662,34404
54547,34356
56823,34353
56821,34358
56821,34489
56871,34611
56963,34703
57085,34754
57216,34754
57337,34704
57430,34611
57481,34490
57481,34359
57478,34352
59349,34350
62139,37150
64449,37130
64419,39490
69360,39490
69409,58749
" /> 
</g> 
</svg>
